<?xml version="1.0" encoding="utf-8" standalone="no"?>
<!DOCTYPE svg PUBLIC "-//W3C//DTD SVG 1.1//EN"
  "http://www.w3.org/Graphics/SVG/1.1/DTD/svg11.dtd">
<svg xmlns:xlink="http://www.w3.org/1999/xlink" width="462.03pt" height="297.460625pt" viewBox="0 0 462.03 297.460625" xmlns="http://www.w3.org/2000/svg" version="1.1">
 <metadata>
  <rdf:RDF xmlns:dc="http://purl.org/dc/elements/1.1/" xmlns:cc="http://creativecommons.org/ns#" xmlns:rdf="http://www.w3.org/1999/02/22-rdf-syntax-ns#">
   <cc:Work>
    <dc:type rdf:resource="http://purl.org/dc/dcmitype/StillImage"/>
    <dc:date>2026-03-21T13:34:03.859246</dc:date>
    <dc:format>image/svg+xml</dc:format>
    <dc:creator>
     <cc:Agent>
      <dc:title>Matplotlib v3.7.1, https://matplotlib.org/</dc:title>
     </cc:Agent>
    </dc:creator>
   </cc:Work>
  </rdf:RDF>
 </metadata>
 <defs>
  <style type="text/css">*{stroke-linejoin: round; stroke-linecap: butt}</style>
 </defs>
 <g id="figure_1">
  <g id="patch_1">
   <path d="M 0 297.460625 
L 462.03 297.460625 
L 462.03 0 
L 0 0 
z
" style="fill: #ffffff"/>
  </g>
  <g id="axes_1">
   <g id="patch_2">
    <path d="M 61.23 257.330313 
L 451.83 257.330313 
L 451.83 35.570313 
L 61.23 35.570313 
z
" style="fill: #ffffff"/>
   </g>
   <g id="axes_2">
    <g id="patch_3">
     <path d="M 61.23 35.570313 
L 451.83 35.570313 
L 451.83 35.570312 
L 61.23 35.570312 
z
" style="fill: #ffffff"/>
    </g>
    <g id="matplotlib.axis_1">
     <g id="xtick_1">
      <g id="line2d_1">
       <defs>
        <path id="mf48a0163b8" d="M 0 0 
L 0 5 
" style="stroke: #000000; stroke-width: 0.8"/>
       </defs>
       <g>
        <use xlink:href="#mf48a0163b8" x="432.70972" y="35.570312" style="stroke: #000000; stroke-width: 0.8"/>
       </g>
      </g>
      <g id="text_1">
       <!-- 55000 -->
       <g transform="translate(415.212845 29.782656) scale(0.11 -0.11)">
        <defs>
         <path id="DejaVuSerif-35" d="M 3219 4666 
L 3219 4153 
L 1081 4153 
L 1081 2816 
Q 1244 2928 1461 2984 
Q 1678 3041 1947 3041 
Q 2703 3041 3140 2622 
Q 3578 2203 3578 1478 
Q 3578 738 3136 323 
Q 2694 -91 1894 -91 
Q 1572 -91 1234 -12 
Q 897 66 544 225 
L 544 1131 
L 897 1131 
Q 925 688 1179 453 
Q 1434 219 1894 219 
Q 2388 219 2653 544 
Q 2919 869 2919 1478 
Q 2919 2084 2655 2407 
Q 2391 2731 1894 2731 
Q 1613 2731 1398 2631 
Q 1184 2531 1019 2322 
L 750 2322 
L 750 4666 
L 3219 4666 
z
" transform="scale(0.015625)"/>
         <path id="DejaVuSerif-30" d="M 2034 219 
Q 2513 219 2750 744 
Q 2988 1269 2988 2328 
Q 2988 3391 2750 3916 
Q 2513 4441 2034 4441 
Q 1556 4441 1318 3916 
Q 1081 3391 1081 2328 
Q 1081 1269 1318 744 
Q 1556 219 2034 219 
z
M 2034 -91 
Q 1275 -91 848 546 
Q 422 1184 422 2328 
Q 422 3475 848 4112 
Q 1275 4750 2034 4750 
Q 2797 4750 3222 4112 
Q 3647 3475 3647 2328 
Q 3647 1184 3222 546 
Q 2797 -91 2034 -91 
z
" transform="scale(0.015625)"/>
        </defs>
        <use xlink:href="#DejaVuSerif-35"/>
        <use xlink:href="#DejaVuSerif-35" x="63.623047"/>
        <use xlink:href="#DejaVuSerif-30" x="127.246094"/>
        <use xlink:href="#DejaVuSerif-30" x="190.869141"/>
        <use xlink:href="#DejaVuSerif-30" x="254.492188"/>
       </g>
      </g>
     </g>
     <g id="xtick_2">
      <g id="line2d_2">
       <g>
        <use xlink:href="#mf48a0163b8" x="341.660769" y="35.570312" style="stroke: #000000; stroke-width: 0.8"/>
       </g>
      </g>
      <g id="text_2">
       <!-- 60000 -->
       <g transform="translate(324.163894 29.782656) scale(0.11 -0.11)">
        <defs>
         <path id="DejaVuSerif-36" d="M 2094 219 
Q 2534 219 2771 542 
Q 3009 866 3009 1472 
Q 3009 2078 2771 2401 
Q 2534 2725 2094 2725 
Q 1647 2725 1412 2412 
Q 1178 2100 1178 1509 
Q 1178 888 1415 553 
Q 1653 219 2094 219 
z
M 1075 2569 
Q 1288 2803 1556 2918 
Q 1825 3034 2163 3034 
Q 2859 3034 3264 2615 
Q 3669 2197 3669 1472 
Q 3669 763 3233 336 
Q 2797 -91 2069 -91 
Q 1278 -91 853 498 
Q 428 1088 428 2181 
Q 428 3406 931 4078 
Q 1434 4750 2350 4750 
Q 2597 4750 2869 4703 
Q 3141 4656 3425 4563 
L 3425 3794 
L 3072 3794 
Q 3034 4109 2831 4275 
Q 2628 4441 2284 4441 
Q 1678 4441 1381 3981 
Q 1084 3522 1075 2569 
z
" transform="scale(0.015625)"/>
        </defs>
        <use xlink:href="#DejaVuSerif-36"/>
        <use xlink:href="#DejaVuSerif-30" x="63.623047"/>
        <use xlink:href="#DejaVuSerif-30" x="127.246094"/>
        <use xlink:href="#DejaVuSerif-30" x="190.869141"/>
        <use xlink:href="#DejaVuSerif-30" x="254.492188"/>
       </g>
      </g>
     </g>
     <g id="xtick_3">
      <g id="line2d_3">
       <g>
        <use xlink:href="#mf48a0163b8" x="264.619349" y="35.570312" style="stroke: #000000; stroke-width: 0.8"/>
       </g>
      </g>
      <g id="text_3">
       <!-- 65000 -->
       <g transform="translate(247.122474 29.782656) scale(0.11 -0.11)">
        <use xlink:href="#DejaVuSerif-36"/>
        <use xlink:href="#DejaVuSerif-35" x="63.623047"/>
        <use xlink:href="#DejaVuSerif-30" x="127.246094"/>
        <use xlink:href="#DejaVuSerif-30" x="190.869141"/>
        <use xlink:href="#DejaVuSerif-30" x="254.492188"/>
       </g>
      </g>
     </g>
     <g id="xtick_4">
      <g id="line2d_4">
       <g>
        <use xlink:href="#mf48a0163b8" x="198.583846" y="35.570312" style="stroke: #000000; stroke-width: 0.8"/>
       </g>
      </g>
      <g id="text_4">
       <!-- 70000 -->
       <g transform="translate(181.086971 29.782656) scale(0.11 -0.11)">
        <defs>
         <path id="DejaVuSerif-37" d="M 3609 4347 
L 1784 0 
L 1319 0 
L 3059 4153 
L 903 4153 
L 903 3578 
L 538 3578 
L 538 4666 
L 3609 4666 
L 3609 4347 
z
" transform="scale(0.015625)"/>
        </defs>
        <use xlink:href="#DejaVuSerif-37"/>
        <use xlink:href="#DejaVuSerif-30" x="63.623047"/>
        <use xlink:href="#DejaVuSerif-30" x="127.246094"/>
        <use xlink:href="#DejaVuSerif-30" x="190.869141"/>
        <use xlink:href="#DejaVuSerif-30" x="254.492188"/>
       </g>
      </g>
     </g>
     <g id="xtick_5">
      <g id="line2d_5">
       <g>
        <use xlink:href="#mf48a0163b8" x="141.353077" y="35.570312" style="stroke: #000000; stroke-width: 0.8"/>
       </g>
      </g>
      <g id="text_5">
       <!-- 75000 -->
       <g transform="translate(123.856202 29.782656) scale(0.11 -0.11)">
        <use xlink:href="#DejaVuSerif-37"/>
        <use xlink:href="#DejaVuSerif-35" x="63.623047"/>
        <use xlink:href="#DejaVuSerif-30" x="127.246094"/>
        <use xlink:href="#DejaVuSerif-30" x="190.869141"/>
        <use xlink:href="#DejaVuSerif-30" x="254.492188"/>
       </g>
      </g>
     </g>
     <g id="xtick_6">
      <g id="line2d_6">
       <g>
        <use xlink:href="#mf48a0163b8" x="91.276154" y="35.570312" style="stroke: #000000; stroke-width: 0.8"/>
       </g>
      </g>
      <g id="text_6">
       <!-- 80000 -->
       <g transform="translate(73.779279 29.782656) scale(0.11 -0.11)">
        <defs>
         <path id="DejaVuSerif-38" d="M 2981 1275 
Q 2981 1775 2732 2051 
Q 2484 2328 2034 2328 
Q 1584 2328 1336 2051 
Q 1088 1775 1088 1275 
Q 1088 772 1336 495 
Q 1584 219 2034 219 
Q 2484 219 2732 495 
Q 2981 772 2981 1275 
z
M 2853 3541 
Q 2853 3966 2637 4203 
Q 2422 4441 2034 4441 
Q 1650 4441 1433 4203 
Q 1216 3966 1216 3541 
Q 1216 3113 1433 2875 
Q 1650 2638 2034 2638 
Q 2422 2638 2637 2875 
Q 2853 3113 2853 3541 
z
M 2516 2484 
Q 3047 2413 3344 2092 
Q 3641 1772 3641 1275 
Q 3641 619 3225 264 
Q 2809 -91 2034 -91 
Q 1263 -91 845 264 
Q 428 619 428 1275 
Q 428 1772 725 2092 
Q 1022 2413 1556 2484 
Q 1084 2569 832 2842 
Q 581 3116 581 3541 
Q 581 4103 968 4426 
Q 1356 4750 2034 4750 
Q 2713 4750 3100 4426 
Q 3488 4103 3488 3541 
Q 3488 3116 3236 2842 
Q 2984 2569 2516 2484 
z
" transform="scale(0.015625)"/>
        </defs>
        <use xlink:href="#DejaVuSerif-38"/>
        <use xlink:href="#DejaVuSerif-30" x="63.623047"/>
        <use xlink:href="#DejaVuSerif-30" x="127.246094"/>
        <use xlink:href="#DejaVuSerif-30" x="190.869141"/>
        <use xlink:href="#DejaVuSerif-30" x="254.492188"/>
       </g>
      </g>
     </g>
     <g id="xtick_7">
      <g id="line2d_7">
       <defs>
        <path id="mc90783e052" d="M 0 0 
L 0 3 
" style="stroke: #000000; stroke-width: 0.6"/>
       </defs>
       <g>
        <use xlink:href="#mc90783e052" x="413.199231" y="35.570312" style="stroke: #000000; stroke-width: 0.6"/>
       </g>
      </g>
     </g>
     <g id="xtick_8">
      <g id="line2d_8">
       <g>
        <use xlink:href="#mc90783e052" x="394.37332" y="35.570312" style="stroke: #000000; stroke-width: 0.6"/>
       </g>
      </g>
     </g>
     <g id="xtick_9">
      <g id="line2d_9">
       <g>
        <use xlink:href="#mc90783e052" x="376.196578" y="35.570312" style="stroke: #000000; stroke-width: 0.6"/>
       </g>
      </g>
     </g>
     <g id="xtick_10">
      <g id="line2d_10">
       <g>
        <use xlink:href="#mc90783e052" x="358.635997" y="35.570312" style="stroke: #000000; stroke-width: 0.6"/>
       </g>
      </g>
     </g>
     <g id="xtick_11">
      <g id="line2d_11">
       <g>
        <use xlink:href="#mc90783e052" x="325.242106" y="35.570312" style="stroke: #000000; stroke-width: 0.6"/>
       </g>
      </g>
     </g>
     <g id="xtick_12">
      <g id="line2d_12">
       <g>
        <use xlink:href="#mc90783e052" x="309.353077" y="35.570312" style="stroke: #000000; stroke-width: 0.6"/>
       </g>
      </g>
     </g>
     <g id="xtick_13">
      <g id="line2d_13">
       <g>
        <use xlink:href="#mc90783e052" x="293.968462" y="35.570312" style="stroke: #000000; stroke-width: 0.6"/>
       </g>
      </g>
     </g>
     <g id="xtick_14">
      <g id="line2d_14">
       <g>
        <use xlink:href="#mc90783e052" x="279.064615" y="35.570312" style="stroke: #000000; stroke-width: 0.6"/>
       </g>
      </g>
     </g>
     <g id="xtick_15">
      <g id="line2d_15">
       <g>
        <use xlink:href="#mc90783e052" x="250.611818" y="35.570312" style="stroke: #000000; stroke-width: 0.6"/>
       </g>
      </g>
     </g>
     <g id="xtick_16">
      <g id="line2d_16">
       <g>
        <use xlink:href="#mc90783e052" x="237.022423" y="35.570312" style="stroke: #000000; stroke-width: 0.6"/>
       </g>
      </g>
     </g>
     <g id="xtick_17">
      <g id="line2d_17">
       <g>
        <use xlink:href="#mc90783e052" x="223.832715" y="35.570312" style="stroke: #000000; stroke-width: 0.6"/>
       </g>
      </g>
     </g>
     <g id="xtick_18">
      <g id="line2d_18">
       <g>
        <use xlink:href="#mc90783e052" x="211.025318" y="35.570312" style="stroke: #000000; stroke-width: 0.6"/>
       </g>
      </g>
     </g>
     <g id="xtick_19">
      <g id="line2d_19">
       <g>
        <use xlink:href="#mc90783e052" x="186.492839" y="35.570312" style="stroke: #000000; stroke-width: 0.6"/>
       </g>
      </g>
     </g>
     <g id="xtick_20">
      <g id="line2d_20">
       <g>
        <use xlink:href="#mc90783e052" x="174.737692" y="35.570312" style="stroke: #000000; stroke-width: 0.6"/>
       </g>
      </g>
     </g>
     <g id="xtick_21">
      <g id="line2d_21">
       <g>
        <use xlink:href="#mc90783e052" x="163.304605" y="35.570312" style="stroke: #000000; stroke-width: 0.6"/>
       </g>
      </g>
     </g>
     <g id="xtick_22">
      <g id="line2d_22">
       <g>
        <use xlink:href="#mc90783e052" x="152.18052" y="35.570312" style="stroke: #000000; stroke-width: 0.6"/>
       </g>
      </g>
     </g>
     <g id="xtick_23">
      <g id="line2d_23">
       <g>
        <use xlink:href="#mc90783e052" x="130.810567" y="35.570312" style="stroke: #000000; stroke-width: 0.6"/>
       </g>
      </g>
     </g>
     <g id="xtick_24">
      <g id="line2d_24">
       <g>
        <use xlink:href="#mc90783e052" x="120.541888" y="35.570312" style="stroke: #000000; stroke-width: 0.6"/>
       </g>
      </g>
     </g>
     <g id="xtick_25">
      <g id="line2d_25">
       <g>
        <use xlink:href="#mc90783e052" x="110.536509" y="35.570312" style="stroke: #000000; stroke-width: 0.6"/>
       </g>
      </g>
     </g>
     <g id="xtick_26">
      <g id="line2d_26">
       <g>
        <use xlink:href="#mc90783e052" x="100.78443" y="35.570312" style="stroke: #000000; stroke-width: 0.6"/>
       </g>
      </g>
     </g>
     <g id="xtick_27">
      <g id="line2d_27">
       <g>
        <use xlink:href="#mc90783e052" x="82.00265" y="35.570312" style="stroke: #000000; stroke-width: 0.6"/>
       </g>
      </g>
     </g>
     <g id="xtick_28">
      <g id="line2d_28">
       <g>
        <use xlink:href="#mc90783e052" x="72.955328" y="35.570312" style="stroke: #000000; stroke-width: 0.6"/>
       </g>
      </g>
     </g>
     <g id="xtick_29">
      <g id="line2d_29">
       <g>
        <use xlink:href="#mc90783e052" x="64.126015" y="35.570312" style="stroke: #000000; stroke-width: 0.6"/>
       </g>
      </g>
     </g>
     <g id="text_7">
      <!-- Wavenumber (cm$^{-1}$) -->
      <g transform="translate(194.07 17.424375) scale(0.12 -0.12)">
       <defs>
        <path id="DejaVuSerif-57" d="M 4878 0 
L 4366 0 
L 3297 3794 
L 2228 0 
L 1716 0 
L 494 4331 
L 31 4331 
L 31 4666 
L 1734 4666 
L 1734 4331 
L 1153 4331 
L 2125 884 
L 3188 4666 
L 3694 4666 
L 4775 844 
L 5753 4331 
L 5216 4331 
L 5216 4666 
L 6559 4666 
L 6559 4331 
L 6100 4331 
L 4878 0 
z
" transform="scale(0.015625)"/>
        <path id="DejaVuSerif-61" d="M 2547 1044 
L 2547 1747 
L 1806 1747 
Q 1378 1747 1168 1562 
Q 959 1378 959 997 
Q 959 650 1171 447 
Q 1384 244 1747 244 
Q 2106 244 2326 466 
Q 2547 688 2547 1044 
z
M 3122 2075 
L 3122 331 
L 3634 331 
L 3634 0 
L 2547 0 
L 2547 359 
Q 2356 128 2106 18 
Q 1856 -91 1522 -91 
Q 969 -91 644 203 
Q 319 497 319 997 
Q 319 1513 691 1797 
Q 1063 2081 1741 2081 
L 2547 2081 
L 2547 2309 
Q 2547 2688 2317 2895 
Q 2088 3103 1672 3103 
Q 1328 3103 1125 2947 
Q 922 2791 872 2484 
L 575 2484 
L 575 3156 
Q 875 3284 1158 3348 
Q 1441 3413 1709 3413 
Q 2400 3413 2761 3070 
Q 3122 2728 3122 2075 
z
" transform="scale(0.015625)"/>
        <path id="DejaVuSerif-76" d="M 1581 0 
L 359 2988 
L -19 2988 
L -19 3322 
L 1509 3322 
L 1509 2988 
L 978 2988 
L 1913 703 
L 2847 2988 
L 2350 2988 
L 2350 3322 
L 3597 3322 
L 3597 2988 
L 3225 2988 
L 2003 0 
L 1581 0 
z
" transform="scale(0.015625)"/>
        <path id="DejaVuSerif-65" d="M 3469 1600 
L 991 1600 
L 991 1575 
Q 991 903 1244 561 
Q 1497 219 1991 219 
Q 2369 219 2611 417 
Q 2853 616 2950 1006 
L 3413 1006 
Q 3275 459 2904 184 
Q 2534 -91 1931 -91 
Q 1203 -91 761 389 
Q 319 869 319 1663 
Q 319 2450 753 2931 
Q 1188 3413 1894 3413 
Q 2647 3413 3050 2948 
Q 3453 2484 3469 1600 
z
M 2791 1931 
Q 2772 2513 2545 2808 
Q 2319 3103 1894 3103 
Q 1497 3103 1269 2806 
Q 1041 2509 991 1931 
L 2791 1931 
z
" transform="scale(0.015625)"/>
        <path id="DejaVuSerif-6e" d="M 263 0 
L 263 331 
L 781 331 
L 781 2988 
L 231 2988 
L 231 3322 
L 1356 3322 
L 1356 2731 
Q 1516 3069 1770 3241 
Q 2025 3413 2363 3413 
Q 2913 3413 3172 3097 
Q 3431 2781 3431 2113 
L 3431 331 
L 3944 331 
L 3944 0 
L 2356 0 
L 2356 331 
L 2853 331 
L 2853 1931 
Q 2853 2541 2703 2767 
Q 2553 2994 2175 2994 
Q 1775 2994 1565 2701 
Q 1356 2409 1356 1850 
L 1356 331 
L 1856 331 
L 1856 0 
L 263 0 
z
" transform="scale(0.015625)"/>
        <path id="DejaVuSerif-75" d="M 2266 3322 
L 3341 3322 
L 3341 331 
L 3884 331 
L 3884 0 
L 2766 0 
L 2766 588 
Q 2606 256 2353 82 
Q 2100 -91 1766 -91 
Q 1213 -91 952 223 
Q 691 538 691 1209 
L 691 2988 
L 172 2988 
L 172 3322 
L 1269 3322 
L 1269 1388 
Q 1269 781 1417 556 
Q 1566 331 1947 331 
Q 2347 331 2556 625 
Q 2766 919 2766 1478 
L 2766 2988 
L 2266 2988 
L 2266 3322 
z
" transform="scale(0.015625)"/>
        <path id="DejaVuSerif-6d" d="M 3316 2675 
Q 3481 3041 3739 3227 
Q 3997 3413 4341 3413 
Q 4863 3413 5119 3089 
Q 5375 2766 5375 2113 
L 5375 331 
L 5894 331 
L 5894 0 
L 4300 0 
L 4300 331 
L 4800 331 
L 4800 2047 
Q 4800 2556 4650 2772 
Q 4500 2988 4153 2988 
Q 3769 2988 3567 2697 
Q 3366 2406 3366 1850 
L 3366 331 
L 3866 331 
L 3866 0 
L 2291 0 
L 2291 331 
L 2791 331 
L 2791 2069 
Q 2791 2566 2641 2777 
Q 2491 2988 2144 2988 
Q 1759 2988 1557 2697 
Q 1356 2406 1356 1850 
L 1356 331 
L 1856 331 
L 1856 0 
L 263 0 
L 263 331 
L 781 331 
L 781 2994 
L 231 2994 
L 231 3322 
L 1356 3322 
L 1356 2731 
Q 1516 3063 1762 3238 
Q 2009 3413 2322 3413 
Q 2709 3413 2968 3220 
Q 3228 3028 3316 2675 
z
" transform="scale(0.015625)"/>
        <path id="DejaVuSerif-62" d="M 738 331 
L 738 4531 
L 184 4531 
L 184 4863 
L 1313 4863 
L 1313 2803 
Q 1481 3116 1742 3264 
Q 2003 3413 2388 3413 
Q 3000 3413 3387 2928 
Q 3775 2444 3775 1663 
Q 3775 881 3387 395 
Q 3000 -91 2388 -91 
Q 2003 -91 1742 57 
Q 1481 206 1313 519 
L 1313 0 
L 184 0 
L 184 331 
L 738 331 
z
M 1313 1497 
Q 1313 897 1542 583 
Q 1772 269 2209 269 
Q 2650 269 2876 622 
Q 3103 975 3103 1663 
Q 3103 2353 2876 2703 
Q 2650 3053 2209 3053 
Q 1772 3053 1542 2737 
Q 1313 2422 1313 1825 
L 1313 1497 
z
" transform="scale(0.015625)"/>
        <path id="DejaVuSerif-72" d="M 3059 3328 
L 3059 2497 
L 2728 2497 
Q 2713 2744 2591 2866 
Q 2469 2988 2234 2988 
Q 1809 2988 1582 2694 
Q 1356 2400 1356 1850 
L 1356 331 
L 2022 331 
L 2022 0 
L 263 0 
L 263 331 
L 781 331 
L 781 2994 
L 231 2994 
L 231 3322 
L 1356 3322 
L 1356 2731 
Q 1525 3078 1790 3245 
Q 2056 3413 2438 3413 
Q 2578 3413 2733 3391 
Q 2888 3369 3059 3328 
z
" transform="scale(0.015625)"/>
        <path id="DejaVuSerif-20" transform="scale(0.015625)"/>
        <path id="DejaVuSerif-28" d="M 2041 -997 
Q 1281 -656 893 83 
Q 506 822 506 1931 
Q 506 3044 893 3783 
Q 1281 4522 2041 4863 
L 2041 4556 
Q 1559 4225 1350 3623 
Q 1141 3022 1141 1931 
Q 1141 844 1350 242 
Q 1559 -359 2041 -691 
L 2041 -997 
z
" transform="scale(0.015625)"/>
        <path id="DejaVuSerif-63" d="M 3291 997 
Q 3169 466 2822 187 
Q 2475 -91 1925 -91 
Q 1200 -91 759 389 
Q 319 869 319 1663 
Q 319 2459 759 2936 
Q 1200 3413 1925 3413 
Q 2241 3413 2553 3339 
Q 2866 3266 3181 3116 
L 3181 2266 
L 2847 2266 
Q 2781 2703 2561 2903 
Q 2341 3103 1931 3103 
Q 1466 3103 1228 2742 
Q 991 2381 991 1663 
Q 991 944 1227 581 
Q 1463 219 1931 219 
Q 2303 219 2525 412 
Q 2747 606 2828 997 
L 3291 997 
z
" transform="scale(0.015625)"/>
        <path id="DejaVuSans-2212" d="M 678 2272 
L 4684 2272 
L 4684 1741 
L 678 1741 
L 678 2272 
z
" transform="scale(0.015625)"/>
        <path id="DejaVuSans-31" d="M 794 531 
L 1825 531 
L 1825 4091 
L 703 3866 
L 703 4441 
L 1819 4666 
L 2450 4666 
L 2450 531 
L 3481 531 
L 3481 0 
L 794 0 
L 794 531 
z
" transform="scale(0.015625)"/>
        <path id="DejaVuSerif-29" d="M 453 -997 
L 453 -691 
Q 934 -359 1145 242 
Q 1356 844 1356 1931 
Q 1356 3022 1145 3623 
Q 934 4225 453 4556 
L 453 4863 
Q 1216 4522 1603 3783 
Q 1991 3044 1991 1931 
Q 1991 822 1603 83 
Q 1216 -656 453 -997 
z
" transform="scale(0.015625)"/>
       </defs>
       <use xlink:href="#DejaVuSerif-57" transform="translate(0 0.684375)"/>
       <use xlink:href="#DejaVuSerif-61" transform="translate(102.783203 0.684375)"/>
       <use xlink:href="#DejaVuSerif-76" transform="translate(162.402344 0.684375)"/>
       <use xlink:href="#DejaVuSerif-65" transform="translate(218.896484 0.684375)"/>
       <use xlink:href="#DejaVuSerif-6e" transform="translate(278.076172 0.684375)"/>
       <use xlink:href="#DejaVuSerif-75" transform="translate(342.480469 0.684375)"/>
       <use xlink:href="#DejaVuSerif-6d" transform="translate(406.884766 0.684375)"/>
       <use xlink:href="#DejaVuSerif-62" transform="translate(501.708984 0.684375)"/>
       <use xlink:href="#DejaVuSerif-65" transform="translate(565.722656 0.684375)"/>
       <use xlink:href="#DejaVuSerif-72" transform="translate(624.902344 0.684375)"/>
       <use xlink:href="#DejaVuSerif-20" transform="translate(672.705078 0.684375)"/>
       <use xlink:href="#DejaVuSerif-28" transform="translate(704.492188 0.684375)"/>
       <use xlink:href="#DejaVuSerif-63" transform="translate(743.505859 0.684375)"/>
       <use xlink:href="#DejaVuSerif-6d" transform="translate(799.511719 0.684375)"/>
       <use xlink:href="#DejaVuSans-2212" transform="translate(895.292969 38.965625) scale(0.7)"/>
       <use xlink:href="#DejaVuSans-31" transform="translate(953.945312 38.965625) scale(0.7)"/>
       <use xlink:href="#DejaVuSerif-29" transform="translate(1001.21582 0.684375)"/>
      </g>
     </g>
    </g>
    <g id="matplotlib.axis_2"/>
    <g id="patch_4">
     <path d="M 451.83 35.570312 
L 61.23 35.570312 
" style="fill: none; stroke: #000000; stroke-width: 0.8; stroke-linejoin: miter; stroke-linecap: square"/>
    </g>
   </g>
   <g id="matplotlib.axis_3">
    <g id="xtick_30">
     <g id="line2d_30">
      <path d="M 61.23 257.330313 
L 61.23 35.570313 
" clip-path="url(#pea0b2f26c5)" style="fill: none; stroke-dasharray: 2.96,1.28; stroke-dashoffset: 0; stroke: #b0b0b0; stroke-opacity: 0.5; stroke-width: 0.8"/>
     </g>
     <g id="line2d_31">
      <defs>
       <path id="mbc42c7ab49" d="M 0 3 
L 0 -3 
" style="stroke: #000000; stroke-width: 0.8"/>
      </defs>
      <g>
       <use xlink:href="#mbc42c7ab49" x="61.23" y="257.330313" style="stroke: #000000; stroke-width: 0.8"/>
      </g>
     </g>
     <g id="line2d_32">
      <g>
       <use xlink:href="#mbc42c7ab49" x="61.23" y="35.570313" style="stroke: #000000; stroke-width: 0.8"/>
      </g>
     </g>
     <g id="text_8">
      <!-- 120 -->
      <g transform="translate(50.731875 272.188594) scale(0.11 -0.11)">
       <defs>
        <path id="DejaVuSerif-31" d="M 909 0 
L 909 331 
L 1722 331 
L 1722 4213 
L 781 3603 
L 781 4013 
L 1919 4750 
L 2350 4750 
L 2350 331 
L 3163 331 
L 3163 0 
L 909 0 
z
" transform="scale(0.015625)"/>
        <path id="DejaVuSerif-32" d="M 819 3553 
L 469 3553 
L 469 4384 
Q 803 4563 1142 4656 
Q 1481 4750 1806 4750 
Q 2534 4750 2956 4397 
Q 3378 4044 3378 3438 
Q 3378 2753 2422 1800 
Q 2347 1728 2309 1691 
L 1131 513 
L 3078 513 
L 3078 1088 
L 3444 1088 
L 3444 0 
L 434 0 
L 434 341 
L 1850 1753 
Q 2319 2222 2519 2614 
Q 2719 3006 2719 3438 
Q 2719 3909 2473 4175 
Q 2228 4441 1797 4441 
Q 1350 4441 1106 4219 
Q 863 3997 819 3553 
z
" transform="scale(0.015625)"/>
       </defs>
       <use xlink:href="#DejaVuSerif-31"/>
       <use xlink:href="#DejaVuSerif-32" x="63.623047"/>
       <use xlink:href="#DejaVuSerif-30" x="127.246094"/>
      </g>
     </g>
    </g>
    <g id="xtick_31">
     <g id="line2d_33">
      <path d="M 121.322308 257.330313 
L 121.322308 35.570313 
" clip-path="url(#pea0b2f26c5)" style="fill: none; stroke-dasharray: 2.96,1.28; stroke-dashoffset: 0; stroke: #b0b0b0; stroke-opacity: 0.5; stroke-width: 0.8"/>
     </g>
     <g id="line2d_34">
      <g>
       <use xlink:href="#mbc42c7ab49" x="121.322308" y="257.330313" style="stroke: #000000; stroke-width: 0.8"/>
      </g>
     </g>
     <g id="line2d_35">
      <g>
       <use xlink:href="#mbc42c7ab49" x="121.322308" y="35.570313" style="stroke: #000000; stroke-width: 0.8"/>
      </g>
     </g>
     <g id="text_9">
      <!-- 130 -->
      <g transform="translate(110.824183 272.188594) scale(0.11 -0.11)">
       <defs>
        <path id="DejaVuSerif-33" d="M 622 4469 
Q 988 4606 1323 4678 
Q 1659 4750 1953 4750 
Q 2638 4750 3022 4454 
Q 3406 4159 3406 3634 
Q 3406 3213 3140 2930 
Q 2875 2647 2388 2547 
Q 2963 2466 3280 2130 
Q 3597 1794 3597 1259 
Q 3597 606 3158 257 
Q 2719 -91 1894 -91 
Q 1528 -91 1179 -12 
Q 831 66 488 225 
L 488 1131 
L 838 1131 
Q 869 681 1141 450 
Q 1413 219 1906 219 
Q 2384 219 2661 495 
Q 2938 772 2938 1253 
Q 2938 1803 2653 2086 
Q 2369 2369 1819 2369 
L 1522 2369 
L 1522 2688 
L 1678 2688 
Q 2225 2688 2498 2914 
Q 2772 3141 2772 3597 
Q 2772 4006 2547 4223 
Q 2322 4441 1900 4441 
Q 1478 4441 1245 4241 
Q 1013 4041 972 3647 
L 622 3647 
L 622 4469 
z
" transform="scale(0.015625)"/>
       </defs>
       <use xlink:href="#DejaVuSerif-31"/>
       <use xlink:href="#DejaVuSerif-33" x="63.623047"/>
       <use xlink:href="#DejaVuSerif-30" x="127.246094"/>
      </g>
     </g>
    </g>
    <g id="xtick_32">
     <g id="line2d_36">
      <path d="M 181.414615 257.330313 
L 181.414615 35.570313 
" clip-path="url(#pea0b2f26c5)" style="fill: none; stroke-dasharray: 2.96,1.28; stroke-dashoffset: 0; stroke: #b0b0b0; stroke-opacity: 0.5; stroke-width: 0.8"/>
     </g>
     <g id="line2d_37">
      <g>
       <use xlink:href="#mbc42c7ab49" x="181.414615" y="257.330313" style="stroke: #000000; stroke-width: 0.8"/>
      </g>
     </g>
     <g id="line2d_38">
      <g>
       <use xlink:href="#mbc42c7ab49" x="181.414615" y="35.570313" style="stroke: #000000; stroke-width: 0.8"/>
      </g>
     </g>
     <g id="text_10">
      <!-- 140 -->
      <g transform="translate(170.91649 272.188594) scale(0.11 -0.11)">
       <defs>
        <path id="DejaVuSerif-34" d="M 2234 1581 
L 2234 4063 
L 641 1581 
L 2234 1581 
z
M 3609 0 
L 1484 0 
L 1484 331 
L 2234 331 
L 2234 1247 
L 197 1247 
L 197 1588 
L 2241 4750 
L 2859 4750 
L 2859 1581 
L 3750 1581 
L 3750 1247 
L 2859 1247 
L 2859 331 
L 3609 331 
L 3609 0 
z
" transform="scale(0.015625)"/>
       </defs>
       <use xlink:href="#DejaVuSerif-31"/>
       <use xlink:href="#DejaVuSerif-34" x="63.623047"/>
       <use xlink:href="#DejaVuSerif-30" x="127.246094"/>
      </g>
     </g>
    </g>
    <g id="xtick_33">
     <g id="line2d_39">
      <path d="M 241.506923 257.330313 
L 241.506923 35.570313 
" clip-path="url(#pea0b2f26c5)" style="fill: none; stroke-dasharray: 2.96,1.28; stroke-dashoffset: 0; stroke: #b0b0b0; stroke-opacity: 0.5; stroke-width: 0.8"/>
     </g>
     <g id="line2d_40">
      <g>
       <use xlink:href="#mbc42c7ab49" x="241.506923" y="257.330313" style="stroke: #000000; stroke-width: 0.8"/>
      </g>
     </g>
     <g id="line2d_41">
      <g>
       <use xlink:href="#mbc42c7ab49" x="241.506923" y="35.570313" style="stroke: #000000; stroke-width: 0.8"/>
      </g>
     </g>
     <g id="text_11">
      <!-- 150 -->
      <g transform="translate(231.008798 272.188594) scale(0.11 -0.11)">
       <use xlink:href="#DejaVuSerif-31"/>
       <use xlink:href="#DejaVuSerif-35" x="63.623047"/>
       <use xlink:href="#DejaVuSerif-30" x="127.246094"/>
      </g>
     </g>
    </g>
    <g id="xtick_34">
     <g id="line2d_42">
      <path d="M 301.599231 257.330313 
L 301.599231 35.570313 
" clip-path="url(#pea0b2f26c5)" style="fill: none; stroke-dasharray: 2.96,1.28; stroke-dashoffset: 0; stroke: #b0b0b0; stroke-opacity: 0.5; stroke-width: 0.8"/>
     </g>
     <g id="line2d_43">
      <g>
       <use xlink:href="#mbc42c7ab49" x="301.599231" y="257.330313" style="stroke: #000000; stroke-width: 0.8"/>
      </g>
     </g>
     <g id="line2d_44">
      <g>
       <use xlink:href="#mbc42c7ab49" x="301.599231" y="35.570313" style="stroke: #000000; stroke-width: 0.8"/>
      </g>
     </g>
     <g id="text_12">
      <!-- 160 -->
      <g transform="translate(291.101106 272.188594) scale(0.11 -0.11)">
       <use xlink:href="#DejaVuSerif-31"/>
       <use xlink:href="#DejaVuSerif-36" x="63.623047"/>
       <use xlink:href="#DejaVuSerif-30" x="127.246094"/>
      </g>
     </g>
    </g>
    <g id="xtick_35">
     <g id="line2d_45">
      <path d="M 361.691538 257.330313 
L 361.691538 35.570313 
" clip-path="url(#pea0b2f26c5)" style="fill: none; stroke-dasharray: 2.96,1.28; stroke-dashoffset: 0; stroke: #b0b0b0; stroke-opacity: 0.5; stroke-width: 0.8"/>
     </g>
     <g id="line2d_46">
      <g>
       <use xlink:href="#mbc42c7ab49" x="361.691538" y="257.330313" style="stroke: #000000; stroke-width: 0.8"/>
      </g>
     </g>
     <g id="line2d_47">
      <g>
       <use xlink:href="#mbc42c7ab49" x="361.691538" y="35.570313" style="stroke: #000000; stroke-width: 0.8"/>
      </g>
     </g>
     <g id="text_13">
      <!-- 170 -->
      <g transform="translate(351.193413 272.188594) scale(0.11 -0.11)">
       <use xlink:href="#DejaVuSerif-31"/>
       <use xlink:href="#DejaVuSerif-37" x="63.623047"/>
       <use xlink:href="#DejaVuSerif-30" x="127.246094"/>
      </g>
     </g>
    </g>
    <g id="xtick_36">
     <g id="line2d_48">
      <path d="M 421.783846 257.330313 
L 421.783846 35.570313 
" clip-path="url(#pea0b2f26c5)" style="fill: none; stroke-dasharray: 2.96,1.28; stroke-dashoffset: 0; stroke: #b0b0b0; stroke-opacity: 0.5; stroke-width: 0.8"/>
     </g>
     <g id="line2d_49">
      <g>
       <use xlink:href="#mbc42c7ab49" x="421.783846" y="257.330313" style="stroke: #000000; stroke-width: 0.8"/>
      </g>
     </g>
     <g id="line2d_50">
      <g>
       <use xlink:href="#mbc42c7ab49" x="421.783846" y="35.570313" style="stroke: #000000; stroke-width: 0.8"/>
      </g>
     </g>
     <g id="text_14">
      <!-- 180 -->
      <g transform="translate(411.285721 272.188594) scale(0.11 -0.11)">
       <use xlink:href="#DejaVuSerif-31"/>
       <use xlink:href="#DejaVuSerif-38" x="63.623047"/>
       <use xlink:href="#DejaVuSerif-30" x="127.246094"/>
      </g>
     </g>
    </g>
    <g id="xtick_37">
     <g id="line2d_51">
      <defs>
       <path id="m4e435f5a8e" d="M 0 0 
L 0 -3 
" style="stroke: #000000; stroke-width: 0.6"/>
      </defs>
      <g>
       <use xlink:href="#m4e435f5a8e" x="73.248462" y="257.330313" style="stroke: #000000; stroke-width: 0.6"/>
      </g>
     </g>
     <g id="line2d_52">
      <g>
       <use xlink:href="#mc90783e052" x="73.248462" y="35.570313" style="stroke: #000000; stroke-width: 0.6"/>
      </g>
     </g>
    </g>
    <g id="xtick_38">
     <g id="line2d_53">
      <g>
       <use xlink:href="#m4e435f5a8e" x="85.266923" y="257.330313" style="stroke: #000000; stroke-width: 0.6"/>
      </g>
     </g>
     <g id="line2d_54">
      <g>
       <use xlink:href="#mc90783e052" x="85.266923" y="35.570313" style="stroke: #000000; stroke-width: 0.6"/>
      </g>
     </g>
    </g>
    <g id="xtick_39">
     <g id="line2d_55">
      <g>
       <use xlink:href="#m4e435f5a8e" x="97.285385" y="257.330313" style="stroke: #000000; stroke-width: 0.6"/>
      </g>
     </g>
     <g id="line2d_56">
      <g>
       <use xlink:href="#mc90783e052" x="97.285385" y="35.570313" style="stroke: #000000; stroke-width: 0.6"/>
      </g>
     </g>
    </g>
    <g id="xtick_40">
     <g id="line2d_57">
      <g>
       <use xlink:href="#m4e435f5a8e" x="109.303846" y="257.330313" style="stroke: #000000; stroke-width: 0.6"/>
      </g>
     </g>
     <g id="line2d_58">
      <g>
       <use xlink:href="#mc90783e052" x="109.303846" y="35.570313" style="stroke: #000000; stroke-width: 0.6"/>
      </g>
     </g>
    </g>
    <g id="xtick_41">
     <g id="line2d_59">
      <g>
       <use xlink:href="#m4e435f5a8e" x="133.340769" y="257.330313" style="stroke: #000000; stroke-width: 0.6"/>
      </g>
     </g>
     <g id="line2d_60">
      <g>
       <use xlink:href="#mc90783e052" x="133.340769" y="35.570313" style="stroke: #000000; stroke-width: 0.6"/>
      </g>
     </g>
    </g>
    <g id="xtick_42">
     <g id="line2d_61">
      <g>
       <use xlink:href="#m4e435f5a8e" x="145.359231" y="257.330313" style="stroke: #000000; stroke-width: 0.6"/>
      </g>
     </g>
     <g id="line2d_62">
      <g>
       <use xlink:href="#mc90783e052" x="145.359231" y="35.570313" style="stroke: #000000; stroke-width: 0.6"/>
      </g>
     </g>
    </g>
    <g id="xtick_43">
     <g id="line2d_63">
      <g>
       <use xlink:href="#m4e435f5a8e" x="157.377692" y="257.330313" style="stroke: #000000; stroke-width: 0.6"/>
      </g>
     </g>
     <g id="line2d_64">
      <g>
       <use xlink:href="#mc90783e052" x="157.377692" y="35.570313" style="stroke: #000000; stroke-width: 0.6"/>
      </g>
     </g>
    </g>
    <g id="xtick_44">
     <g id="line2d_65">
      <g>
       <use xlink:href="#m4e435f5a8e" x="169.396154" y="257.330313" style="stroke: #000000; stroke-width: 0.6"/>
      </g>
     </g>
     <g id="line2d_66">
      <g>
       <use xlink:href="#mc90783e052" x="169.396154" y="35.570313" style="stroke: #000000; stroke-width: 0.6"/>
      </g>
     </g>
    </g>
    <g id="xtick_45">
     <g id="line2d_67">
      <g>
       <use xlink:href="#m4e435f5a8e" x="193.433077" y="257.330313" style="stroke: #000000; stroke-width: 0.6"/>
      </g>
     </g>
     <g id="line2d_68">
      <g>
       <use xlink:href="#mc90783e052" x="193.433077" y="35.570313" style="stroke: #000000; stroke-width: 0.6"/>
      </g>
     </g>
    </g>
    <g id="xtick_46">
     <g id="line2d_69">
      <g>
       <use xlink:href="#m4e435f5a8e" x="205.451538" y="257.330313" style="stroke: #000000; stroke-width: 0.6"/>
      </g>
     </g>
     <g id="line2d_70">
      <g>
       <use xlink:href="#mc90783e052" x="205.451538" y="35.570313" style="stroke: #000000; stroke-width: 0.6"/>
      </g>
     </g>
    </g>
    <g id="xtick_47">
     <g id="line2d_71">
      <g>
       <use xlink:href="#m4e435f5a8e" x="217.47" y="257.330313" style="stroke: #000000; stroke-width: 0.6"/>
      </g>
     </g>
     <g id="line2d_72">
      <g>
       <use xlink:href="#mc90783e052" x="217.47" y="35.570313" style="stroke: #000000; stroke-width: 0.6"/>
      </g>
     </g>
    </g>
    <g id="xtick_48">
     <g id="line2d_73">
      <g>
       <use xlink:href="#m4e435f5a8e" x="229.488462" y="257.330313" style="stroke: #000000; stroke-width: 0.6"/>
      </g>
     </g>
     <g id="line2d_74">
      <g>
       <use xlink:href="#mc90783e052" x="229.488462" y="35.570313" style="stroke: #000000; stroke-width: 0.6"/>
      </g>
     </g>
    </g>
    <g id="xtick_49">
     <g id="line2d_75">
      <g>
       <use xlink:href="#m4e435f5a8e" x="253.525385" y="257.330313" style="stroke: #000000; stroke-width: 0.6"/>
      </g>
     </g>
     <g id="line2d_76">
      <g>
       <use xlink:href="#mc90783e052" x="253.525385" y="35.570313" style="stroke: #000000; stroke-width: 0.6"/>
      </g>
     </g>
    </g>
    <g id="xtick_50">
     <g id="line2d_77">
      <g>
       <use xlink:href="#m4e435f5a8e" x="265.543846" y="257.330313" style="stroke: #000000; stroke-width: 0.6"/>
      </g>
     </g>
     <g id="line2d_78">
      <g>
       <use xlink:href="#mc90783e052" x="265.543846" y="35.570313" style="stroke: #000000; stroke-width: 0.6"/>
      </g>
     </g>
    </g>
    <g id="xtick_51">
     <g id="line2d_79">
      <g>
       <use xlink:href="#m4e435f5a8e" x="277.562308" y="257.330313" style="stroke: #000000; stroke-width: 0.6"/>
      </g>
     </g>
     <g id="line2d_80">
      <g>
       <use xlink:href="#mc90783e052" x="277.562308" y="35.570313" style="stroke: #000000; stroke-width: 0.6"/>
      </g>
     </g>
    </g>
    <g id="xtick_52">
     <g id="line2d_81">
      <g>
       <use xlink:href="#m4e435f5a8e" x="289.580769" y="257.330313" style="stroke: #000000; stroke-width: 0.6"/>
      </g>
     </g>
     <g id="line2d_82">
      <g>
       <use xlink:href="#mc90783e052" x="289.580769" y="35.570313" style="stroke: #000000; stroke-width: 0.6"/>
      </g>
     </g>
    </g>
    <g id="xtick_53">
     <g id="line2d_83">
      <g>
       <use xlink:href="#m4e435f5a8e" x="313.617692" y="257.330313" style="stroke: #000000; stroke-width: 0.6"/>
      </g>
     </g>
     <g id="line2d_84">
      <g>
       <use xlink:href="#mc90783e052" x="313.617692" y="35.570313" style="stroke: #000000; stroke-width: 0.6"/>
      </g>
     </g>
    </g>
    <g id="xtick_54">
     <g id="line2d_85">
      <g>
       <use xlink:href="#m4e435f5a8e" x="325.636154" y="257.330313" style="stroke: #000000; stroke-width: 0.6"/>
      </g>
     </g>
     <g id="line2d_86">
      <g>
       <use xlink:href="#mc90783e052" x="325.636154" y="35.570313" style="stroke: #000000; stroke-width: 0.6"/>
      </g>
     </g>
    </g>
    <g id="xtick_55">
     <g id="line2d_87">
      <g>
       <use xlink:href="#m4e435f5a8e" x="337.654615" y="257.330313" style="stroke: #000000; stroke-width: 0.6"/>
      </g>
     </g>
     <g id="line2d_88">
      <g>
       <use xlink:href="#mc90783e052" x="337.654615" y="35.570313" style="stroke: #000000; stroke-width: 0.6"/>
      </g>
     </g>
    </g>
    <g id="xtick_56">
     <g id="line2d_89">
      <g>
       <use xlink:href="#m4e435f5a8e" x="349.673077" y="257.330313" style="stroke: #000000; stroke-width: 0.6"/>
      </g>
     </g>
     <g id="line2d_90">
      <g>
       <use xlink:href="#mc90783e052" x="349.673077" y="35.570313" style="stroke: #000000; stroke-width: 0.6"/>
      </g>
     </g>
    </g>
    <g id="xtick_57">
     <g id="line2d_91">
      <g>
       <use xlink:href="#m4e435f5a8e" x="373.71" y="257.330313" style="stroke: #000000; stroke-width: 0.6"/>
      </g>
     </g>
     <g id="line2d_92">
      <g>
       <use xlink:href="#mc90783e052" x="373.71" y="35.570313" style="stroke: #000000; stroke-width: 0.6"/>
      </g>
     </g>
    </g>
    <g id="xtick_58">
     <g id="line2d_93">
      <g>
       <use xlink:href="#m4e435f5a8e" x="385.728462" y="257.330313" style="stroke: #000000; stroke-width: 0.6"/>
      </g>
     </g>
     <g id="line2d_94">
      <g>
       <use xlink:href="#mc90783e052" x="385.728462" y="35.570313" style="stroke: #000000; stroke-width: 0.6"/>
      </g>
     </g>
    </g>
    <g id="xtick_59">
     <g id="line2d_95">
      <g>
       <use xlink:href="#m4e435f5a8e" x="397.746923" y="257.330313" style="stroke: #000000; stroke-width: 0.6"/>
      </g>
     </g>
     <g id="line2d_96">
      <g>
       <use xlink:href="#mc90783e052" x="397.746923" y="35.570313" style="stroke: #000000; stroke-width: 0.6"/>
      </g>
     </g>
    </g>
    <g id="xtick_60">
     <g id="line2d_97">
      <g>
       <use xlink:href="#m4e435f5a8e" x="409.765385" y="257.330313" style="stroke: #000000; stroke-width: 0.6"/>
      </g>
     </g>
     <g id="line2d_98">
      <g>
       <use xlink:href="#mc90783e052" x="409.765385" y="35.570313" style="stroke: #000000; stroke-width: 0.6"/>
      </g>
     </g>
    </g>
    <g id="xtick_61">
     <g id="line2d_99">
      <g>
       <use xlink:href="#m4e435f5a8e" x="433.802308" y="257.330313" style="stroke: #000000; stroke-width: 0.6"/>
      </g>
     </g>
     <g id="line2d_100">
      <g>
       <use xlink:href="#mc90783e052" x="433.802308" y="35.570313" style="stroke: #000000; stroke-width: 0.6"/>
      </g>
     </g>
    </g>
    <g id="xtick_62">
     <g id="line2d_101">
      <g>
       <use xlink:href="#m4e435f5a8e" x="445.820769" y="257.330313" style="stroke: #000000; stroke-width: 0.6"/>
      </g>
     </g>
     <g id="line2d_102">
      <g>
       <use xlink:href="#mc90783e052" x="445.820769" y="35.570313" style="stroke: #000000; stroke-width: 0.6"/>
      </g>
     </g>
    </g>
    <g id="text_15">
     <!-- Wavelength (nm) -->
     <g transform="translate(204.775313 287.594375) scale(0.12 -0.12)">
      <defs>
       <path id="DejaVuSerif-6c" d="M 1313 331 
L 1856 331 
L 1856 0 
L 184 0 
L 184 331 
L 738 331 
L 738 4531 
L 184 4531 
L 184 4863 
L 1313 4863 
L 1313 331 
z
" transform="scale(0.015625)"/>
       <path id="DejaVuSerif-67" d="M 3359 2988 
L 3359 72 
Q 3359 -644 2965 -1033 
Q 2572 -1422 1844 -1422 
Q 1516 -1422 1216 -1362 
Q 916 -1303 641 -1184 
L 641 -488 
L 941 -488 
Q 997 -813 1206 -963 
Q 1416 -1113 1806 -1113 
Q 2313 -1113 2548 -827 
Q 2784 -541 2784 72 
L 2784 519 
Q 2616 206 2355 57 
Q 2094 -91 1709 -91 
Q 1097 -91 708 395 
Q 319 881 319 1663 
Q 319 2444 706 2928 
Q 1094 3413 1709 3413 
Q 2094 3413 2355 3264 
Q 2616 3116 2784 2803 
L 2784 3322 
L 3909 3322 
L 3909 2988 
L 3359 2988 
z
M 2784 1825 
Q 2784 2422 2554 2737 
Q 2325 3053 1888 3053 
Q 1444 3053 1217 2703 
Q 991 2353 991 1663 
Q 991 975 1217 622 
Q 1444 269 1888 269 
Q 2325 269 2554 583 
Q 2784 897 2784 1497 
L 2784 1825 
z
" transform="scale(0.015625)"/>
       <path id="DejaVuSerif-74" d="M 691 2988 
L 184 2988 
L 184 3322 
L 691 3322 
L 691 4353 
L 1269 4353 
L 1269 3322 
L 2350 3322 
L 2350 2988 
L 1269 2988 
L 1269 878 
Q 1269 456 1350 337 
Q 1431 219 1650 219 
Q 1875 219 1978 351 
Q 2081 484 2088 781 
L 2522 781 
Q 2497 328 2275 118 
Q 2053 -91 1600 -91 
Q 1103 -91 897 129 
Q 691 350 691 878 
L 691 2988 
z
" transform="scale(0.015625)"/>
       <path id="DejaVuSerif-68" d="M 263 0 
L 263 331 
L 781 331 
L 781 4531 
L 231 4531 
L 231 4863 
L 1356 4863 
L 1356 2731 
Q 1516 3069 1770 3241 
Q 2025 3413 2363 3413 
Q 2913 3413 3172 3097 
Q 3431 2781 3431 2113 
L 3431 331 
L 3944 331 
L 3944 0 
L 2356 0 
L 2356 331 
L 2853 331 
L 2853 1931 
Q 2853 2541 2704 2764 
Q 2556 2988 2175 2988 
Q 1775 2988 1565 2697 
Q 1356 2406 1356 1850 
L 1356 331 
L 1856 331 
L 1856 0 
L 263 0 
z
" transform="scale(0.015625)"/>
      </defs>
      <use xlink:href="#DejaVuSerif-57"/>
      <use xlink:href="#DejaVuSerif-61" x="94.033203"/>
      <use xlink:href="#DejaVuSerif-76" x="153.652344"/>
      <use xlink:href="#DejaVuSerif-65" x="210.146484"/>
      <use xlink:href="#DejaVuSerif-6c" x="269.326172"/>
      <use xlink:href="#DejaVuSerif-65" x="301.308594"/>
      <use xlink:href="#DejaVuSerif-6e" x="360.488281"/>
      <use xlink:href="#DejaVuSerif-67" x="424.892578"/>
      <use xlink:href="#DejaVuSerif-74" x="488.90625"/>
      <use xlink:href="#DejaVuSerif-68" x="529.091797"/>
      <use xlink:href="#DejaVuSerif-20" x="593.496094"/>
      <use xlink:href="#DejaVuSerif-28" x="625.283203"/>
      <use xlink:href="#DejaVuSerif-6e" x="664.296875"/>
      <use xlink:href="#DejaVuSerif-6d" x="728.701172"/>
      <use xlink:href="#DejaVuSerif-29" x="823.525391"/>
     </g>
    </g>
   </g>
   <g id="matplotlib.axis_4">
    <g id="ytick_1">
     <g id="line2d_103">
      <path d="M 61.23 257.330313 
L 451.83 257.330313 
" clip-path="url(#pea0b2f26c5)" style="fill: none; stroke-dasharray: 2.96,1.28; stroke-dashoffset: 0; stroke: #b0b0b0; stroke-opacity: 0.5; stroke-width: 0.8"/>
     </g>
     <g id="line2d_104">
      <defs>
       <path id="ma569bb97c0" d="M 3 0 
L -3 -0 
" style="stroke: #000000; stroke-width: 0.8"/>
      </defs>
      <g>
       <use xlink:href="#ma569bb97c0" x="61.23" y="257.330313" style="stroke: #000000; stroke-width: 0.8"/>
      </g>
     </g>
     <g id="line2d_105">
      <g>
       <use xlink:href="#ma569bb97c0" x="451.83" y="257.330313" style="stroke: #000000; stroke-width: 0.8"/>
      </g>
     </g>
     <g id="text_16">
      <!-- $\mathdefault{10^{-20}}$ -->
      <g transform="translate(24.04 261.509453) scale(0.11 -0.11)">
       <defs>
        <path id="DejaVuSerif-2212" d="M 678 2259 
L 4684 2259 
L 4684 1753 
L 678 1753 
L 678 2259 
z
" transform="scale(0.015625)"/>
       </defs>
       <use xlink:href="#DejaVuSerif-31" transform="translate(0 0.7125)"/>
       <use xlink:href="#DejaVuSerif-30" transform="translate(63.623047 0.7125)"/>
       <use xlink:href="#DejaVuSerif-2212" transform="translate(128.154453 37.046875) scale(0.7)"/>
       <use xlink:href="#DejaVuSerif-32" transform="translate(186.806797 37.046875) scale(0.7)"/>
       <use xlink:href="#DejaVuSerif-30" transform="translate(231.34293 37.046875) scale(0.7)"/>
      </g>
     </g>
    </g>
    <g id="ytick_2">
     <g id="line2d_106">
      <path d="M 61.23 197.378488 
L 451.83 197.378488 
" clip-path="url(#pea0b2f26c5)" style="fill: none; stroke-dasharray: 2.96,1.28; stroke-dashoffset: 0; stroke: #b0b0b0; stroke-opacity: 0.5; stroke-width: 0.8"/>
     </g>
     <g id="line2d_107">
      <g>
       <use xlink:href="#ma569bb97c0" x="61.23" y="197.378488" style="stroke: #000000; stroke-width: 0.8"/>
      </g>
     </g>
     <g id="line2d_108">
      <g>
       <use xlink:href="#ma569bb97c0" x="451.83" y="197.378488" style="stroke: #000000; stroke-width: 0.8"/>
      </g>
     </g>
     <g id="text_17">
      <!-- $\mathdefault{10^{-19}}$ -->
      <g transform="translate(24.04 201.557629) scale(0.11 -0.11)">
       <defs>
        <path id="DejaVuSerif-39" d="M 2994 2091 
Q 2784 1856 2512 1740 
Q 2241 1625 1900 1625 
Q 1206 1625 804 2044 
Q 403 2463 403 3188 
Q 403 3897 839 4323 
Q 1275 4750 2003 4750 
Q 2794 4750 3217 4161 
Q 3641 3572 3641 2478 
Q 3641 1253 3137 581 
Q 2634 -91 1722 -91 
Q 1475 -91 1203 -44 
Q 931 3 647 97 
L 647 872 
L 997 872 
Q 1038 556 1241 387 
Q 1444 219 1784 219 
Q 2391 219 2687 676 
Q 2984 1134 2994 2091 
z
M 1978 4441 
Q 1534 4441 1298 4117 
Q 1063 3794 1063 3188 
Q 1063 2581 1298 2256 
Q 1534 1931 1978 1931 
Q 2422 1931 2658 2245 
Q 2894 2559 2894 3150 
Q 2894 3772 2656 4106 
Q 2419 4441 1978 4441 
z
" transform="scale(0.015625)"/>
       </defs>
       <use xlink:href="#DejaVuSerif-31" transform="translate(0 0.7125)"/>
       <use xlink:href="#DejaVuSerif-30" transform="translate(63.623047 0.7125)"/>
       <use xlink:href="#DejaVuSerif-2212" transform="translate(128.154453 37.046875) scale(0.7)"/>
       <use xlink:href="#DejaVuSerif-31" transform="translate(186.806797 37.046875) scale(0.7)"/>
       <use xlink:href="#DejaVuSerif-39" transform="translate(231.34293 37.046875) scale(0.7)"/>
      </g>
     </g>
    </g>
    <g id="ytick_3">
     <g id="line2d_109">
      <path d="M 61.23 137.426664 
L 451.83 137.426664 
" clip-path="url(#pea0b2f26c5)" style="fill: none; stroke-dasharray: 2.96,1.28; stroke-dashoffset: 0; stroke: #b0b0b0; stroke-opacity: 0.5; stroke-width: 0.8"/>
     </g>
     <g id="line2d_110">
      <g>
       <use xlink:href="#ma569bb97c0" x="61.23" y="137.426664" style="stroke: #000000; stroke-width: 0.8"/>
      </g>
     </g>
     <g id="line2d_111">
      <g>
       <use xlink:href="#ma569bb97c0" x="451.83" y="137.426664" style="stroke: #000000; stroke-width: 0.8"/>
      </g>
     </g>
     <g id="text_18">
      <!-- $\mathdefault{10^{-18}}$ -->
      <g transform="translate(24.04 141.605804) scale(0.11 -0.11)">
       <use xlink:href="#DejaVuSerif-31" transform="translate(0 0.7125)"/>
       <use xlink:href="#DejaVuSerif-30" transform="translate(63.623047 0.7125)"/>
       <use xlink:href="#DejaVuSerif-2212" transform="translate(128.154453 37.046875) scale(0.7)"/>
       <use xlink:href="#DejaVuSerif-31" transform="translate(186.806797 37.046875) scale(0.7)"/>
       <use xlink:href="#DejaVuSerif-38" transform="translate(231.34293 37.046875) scale(0.7)"/>
      </g>
     </g>
    </g>
    <g id="ytick_4">
     <g id="line2d_112">
      <path d="M 61.23 77.474839 
L 451.83 77.474839 
" clip-path="url(#pea0b2f26c5)" style="fill: none; stroke-dasharray: 2.96,1.28; stroke-dashoffset: 0; stroke: #b0b0b0; stroke-opacity: 0.5; stroke-width: 0.8"/>
     </g>
     <g id="line2d_113">
      <g>
       <use xlink:href="#ma569bb97c0" x="61.23" y="77.474839" style="stroke: #000000; stroke-width: 0.8"/>
      </g>
     </g>
     <g id="line2d_114">
      <g>
       <use xlink:href="#ma569bb97c0" x="451.83" y="77.474839" style="stroke: #000000; stroke-width: 0.8"/>
      </g>
     </g>
     <g id="text_19">
      <!-- $\mathdefault{10^{-17}}$ -->
      <g transform="translate(24.04 81.65398) scale(0.11 -0.11)">
       <use xlink:href="#DejaVuSerif-31" transform="translate(0 0.7125)"/>
       <use xlink:href="#DejaVuSerif-30" transform="translate(63.623047 0.7125)"/>
       <use xlink:href="#DejaVuSerif-2212" transform="translate(128.154453 37.046875) scale(0.7)"/>
       <use xlink:href="#DejaVuSerif-31" transform="translate(186.806797 37.046875) scale(0.7)"/>
       <use xlink:href="#DejaVuSerif-37" transform="translate(231.34293 37.046875) scale(0.7)"/>
      </g>
     </g>
    </g>
    <g id="ytick_5">
     <g id="line2d_115">
      <defs>
       <path id="me9f23fb683" d="M 0 0 
L 3 0 
" style="stroke: #000000; stroke-width: 0.6"/>
      </defs>
      <g>
       <use xlink:href="#me9f23fb683" x="61.23" y="239.283015" style="stroke: #000000; stroke-width: 0.6"/>
      </g>
     </g>
     <g id="line2d_116">
      <defs>
       <path id="m1eb32b0bf3" d="M 0 0 
L -3 0 
" style="stroke: #000000; stroke-width: 0.6"/>
      </defs>
      <g>
       <use xlink:href="#m1eb32b0bf3" x="451.83" y="239.283015" style="stroke: #000000; stroke-width: 0.6"/>
      </g>
     </g>
    </g>
    <g id="ytick_6">
     <g id="line2d_117">
      <g>
       <use xlink:href="#me9f23fb683" x="61.23" y="228.726023" style="stroke: #000000; stroke-width: 0.6"/>
      </g>
     </g>
     <g id="line2d_118">
      <g>
       <use xlink:href="#m1eb32b0bf3" x="451.83" y="228.726023" style="stroke: #000000; stroke-width: 0.6"/>
      </g>
     </g>
    </g>
    <g id="ytick_7">
     <g id="line2d_119">
      <g>
       <use xlink:href="#me9f23fb683" x="61.23" y="221.235718" style="stroke: #000000; stroke-width: 0.6"/>
      </g>
     </g>
     <g id="line2d_120">
      <g>
       <use xlink:href="#m1eb32b0bf3" x="451.83" y="221.235718" style="stroke: #000000; stroke-width: 0.6"/>
      </g>
     </g>
    </g>
    <g id="ytick_8">
     <g id="line2d_121">
      <g>
       <use xlink:href="#me9f23fb683" x="61.23" y="215.425786" style="stroke: #000000; stroke-width: 0.6"/>
      </g>
     </g>
     <g id="line2d_122">
      <g>
       <use xlink:href="#m1eb32b0bf3" x="451.83" y="215.425786" style="stroke: #000000; stroke-width: 0.6"/>
      </g>
     </g>
    </g>
    <g id="ytick_9">
     <g id="line2d_123">
      <g>
       <use xlink:href="#me9f23fb683" x="61.23" y="210.678725" style="stroke: #000000; stroke-width: 0.6"/>
      </g>
     </g>
     <g id="line2d_124">
      <g>
       <use xlink:href="#m1eb32b0bf3" x="451.83" y="210.678725" style="stroke: #000000; stroke-width: 0.6"/>
      </g>
     </g>
    </g>
    <g id="ytick_10">
     <g id="line2d_125">
      <g>
       <use xlink:href="#me9f23fb683" x="61.23" y="206.665143" style="stroke: #000000; stroke-width: 0.6"/>
      </g>
     </g>
     <g id="line2d_126">
      <g>
       <use xlink:href="#m1eb32b0bf3" x="451.83" y="206.665143" style="stroke: #000000; stroke-width: 0.6"/>
      </g>
     </g>
    </g>
    <g id="ytick_11">
     <g id="line2d_127">
      <g>
       <use xlink:href="#me9f23fb683" x="61.23" y="203.18842" style="stroke: #000000; stroke-width: 0.6"/>
      </g>
     </g>
     <g id="line2d_128">
      <g>
       <use xlink:href="#m1eb32b0bf3" x="451.83" y="203.18842" style="stroke: #000000; stroke-width: 0.6"/>
      </g>
     </g>
    </g>
    <g id="ytick_12">
     <g id="line2d_129">
      <g>
       <use xlink:href="#me9f23fb683" x="61.23" y="200.121733" style="stroke: #000000; stroke-width: 0.6"/>
      </g>
     </g>
     <g id="line2d_130">
      <g>
       <use xlink:href="#m1eb32b0bf3" x="451.83" y="200.121733" style="stroke: #000000; stroke-width: 0.6"/>
      </g>
     </g>
    </g>
    <g id="ytick_13">
     <g id="line2d_131">
      <g>
       <use xlink:href="#me9f23fb683" x="61.23" y="179.331191" style="stroke: #000000; stroke-width: 0.6"/>
      </g>
     </g>
     <g id="line2d_132">
      <g>
       <use xlink:href="#m1eb32b0bf3" x="451.83" y="179.331191" style="stroke: #000000; stroke-width: 0.6"/>
      </g>
     </g>
    </g>
    <g id="ytick_14">
     <g id="line2d_133">
      <g>
       <use xlink:href="#me9f23fb683" x="61.23" y="168.774199" style="stroke: #000000; stroke-width: 0.6"/>
      </g>
     </g>
     <g id="line2d_134">
      <g>
       <use xlink:href="#m1eb32b0bf3" x="451.83" y="168.774199" style="stroke: #000000; stroke-width: 0.6"/>
      </g>
     </g>
    </g>
    <g id="ytick_15">
     <g id="line2d_135">
      <g>
       <use xlink:href="#me9f23fb683" x="61.23" y="161.283893" style="stroke: #000000; stroke-width: 0.6"/>
      </g>
     </g>
     <g id="line2d_136">
      <g>
       <use xlink:href="#m1eb32b0bf3" x="451.83" y="161.283893" style="stroke: #000000; stroke-width: 0.6"/>
      </g>
     </g>
    </g>
    <g id="ytick_16">
     <g id="line2d_137">
      <g>
       <use xlink:href="#me9f23fb683" x="61.23" y="155.473961" style="stroke: #000000; stroke-width: 0.6"/>
      </g>
     </g>
     <g id="line2d_138">
      <g>
       <use xlink:href="#m1eb32b0bf3" x="451.83" y="155.473961" style="stroke: #000000; stroke-width: 0.6"/>
      </g>
     </g>
    </g>
    <g id="ytick_17">
     <g id="line2d_139">
      <g>
       <use xlink:href="#me9f23fb683" x="61.23" y="150.726901" style="stroke: #000000; stroke-width: 0.6"/>
      </g>
     </g>
     <g id="line2d_140">
      <g>
       <use xlink:href="#m1eb32b0bf3" x="451.83" y="150.726901" style="stroke: #000000; stroke-width: 0.6"/>
      </g>
     </g>
    </g>
    <g id="ytick_18">
     <g id="line2d_141">
      <g>
       <use xlink:href="#me9f23fb683" x="61.23" y="146.713319" style="stroke: #000000; stroke-width: 0.6"/>
      </g>
     </g>
     <g id="line2d_142">
      <g>
       <use xlink:href="#m1eb32b0bf3" x="451.83" y="146.713319" style="stroke: #000000; stroke-width: 0.6"/>
      </g>
     </g>
    </g>
    <g id="ytick_19">
     <g id="line2d_143">
      <g>
       <use xlink:href="#me9f23fb683" x="61.23" y="143.236596" style="stroke: #000000; stroke-width: 0.6"/>
      </g>
     </g>
     <g id="line2d_144">
      <g>
       <use xlink:href="#m1eb32b0bf3" x="451.83" y="143.236596" style="stroke: #000000; stroke-width: 0.6"/>
      </g>
     </g>
    </g>
    <g id="ytick_20">
     <g id="line2d_145">
      <g>
       <use xlink:href="#me9f23fb683" x="61.23" y="140.169909" style="stroke: #000000; stroke-width: 0.6"/>
      </g>
     </g>
     <g id="line2d_146">
      <g>
       <use xlink:href="#m1eb32b0bf3" x="451.83" y="140.169909" style="stroke: #000000; stroke-width: 0.6"/>
      </g>
     </g>
    </g>
    <g id="ytick_21">
     <g id="line2d_147">
      <g>
       <use xlink:href="#me9f23fb683" x="61.23" y="119.379366" style="stroke: #000000; stroke-width: 0.6"/>
      </g>
     </g>
     <g id="line2d_148">
      <g>
       <use xlink:href="#m1eb32b0bf3" x="451.83" y="119.379366" style="stroke: #000000; stroke-width: 0.6"/>
      </g>
     </g>
    </g>
    <g id="ytick_22">
     <g id="line2d_149">
      <g>
       <use xlink:href="#me9f23fb683" x="61.23" y="108.822374" style="stroke: #000000; stroke-width: 0.6"/>
      </g>
     </g>
     <g id="line2d_150">
      <g>
       <use xlink:href="#m1eb32b0bf3" x="451.83" y="108.822374" style="stroke: #000000; stroke-width: 0.6"/>
      </g>
     </g>
    </g>
    <g id="ytick_23">
     <g id="line2d_151">
      <g>
       <use xlink:href="#me9f23fb683" x="61.23" y="101.332069" style="stroke: #000000; stroke-width: 0.6"/>
      </g>
     </g>
     <g id="line2d_152">
      <g>
       <use xlink:href="#m1eb32b0bf3" x="451.83" y="101.332069" style="stroke: #000000; stroke-width: 0.6"/>
      </g>
     </g>
    </g>
    <g id="ytick_24">
     <g id="line2d_153">
      <g>
       <use xlink:href="#me9f23fb683" x="61.23" y="95.522137" style="stroke: #000000; stroke-width: 0.6"/>
      </g>
     </g>
     <g id="line2d_154">
      <g>
       <use xlink:href="#m1eb32b0bf3" x="451.83" y="95.522137" style="stroke: #000000; stroke-width: 0.6"/>
      </g>
     </g>
    </g>
    <g id="ytick_25">
     <g id="line2d_155">
      <g>
       <use xlink:href="#me9f23fb683" x="61.23" y="90.775077" style="stroke: #000000; stroke-width: 0.6"/>
      </g>
     </g>
     <g id="line2d_156">
      <g>
       <use xlink:href="#m1eb32b0bf3" x="451.83" y="90.775077" style="stroke: #000000; stroke-width: 0.6"/>
      </g>
     </g>
    </g>
    <g id="ytick_26">
     <g id="line2d_157">
      <g>
       <use xlink:href="#me9f23fb683" x="61.23" y="86.761495" style="stroke: #000000; stroke-width: 0.6"/>
      </g>
     </g>
     <g id="line2d_158">
      <g>
       <use xlink:href="#m1eb32b0bf3" x="451.83" y="86.761495" style="stroke: #000000; stroke-width: 0.6"/>
      </g>
     </g>
    </g>
    <g id="ytick_27">
     <g id="line2d_159">
      <g>
       <use xlink:href="#me9f23fb683" x="61.23" y="83.284772" style="stroke: #000000; stroke-width: 0.6"/>
      </g>
     </g>
     <g id="line2d_160">
      <g>
       <use xlink:href="#m1eb32b0bf3" x="451.83" y="83.284772" style="stroke: #000000; stroke-width: 0.6"/>
      </g>
     </g>
    </g>
    <g id="ytick_28">
     <g id="line2d_161">
      <g>
       <use xlink:href="#me9f23fb683" x="61.23" y="80.218084" style="stroke: #000000; stroke-width: 0.6"/>
      </g>
     </g>
     <g id="line2d_162">
      <g>
       <use xlink:href="#m1eb32b0bf3" x="451.83" y="80.218084" style="stroke: #000000; stroke-width: 0.6"/>
      </g>
     </g>
    </g>
    <g id="ytick_29">
     <g id="line2d_163">
      <g>
       <use xlink:href="#me9f23fb683" x="61.23" y="59.427542" style="stroke: #000000; stroke-width: 0.6"/>
      </g>
     </g>
     <g id="line2d_164">
      <g>
       <use xlink:href="#m1eb32b0bf3" x="451.83" y="59.427542" style="stroke: #000000; stroke-width: 0.6"/>
      </g>
     </g>
    </g>
    <g id="ytick_30">
     <g id="line2d_165">
      <g>
       <use xlink:href="#me9f23fb683" x="61.23" y="48.87055" style="stroke: #000000; stroke-width: 0.6"/>
      </g>
     </g>
     <g id="line2d_166">
      <g>
       <use xlink:href="#m1eb32b0bf3" x="451.83" y="48.87055" style="stroke: #000000; stroke-width: 0.6"/>
      </g>
     </g>
    </g>
    <g id="ytick_31">
     <g id="line2d_167">
      <g>
       <use xlink:href="#me9f23fb683" x="61.23" y="41.380245" style="stroke: #000000; stroke-width: 0.6"/>
      </g>
     </g>
     <g id="line2d_168">
      <g>
       <use xlink:href="#m1eb32b0bf3" x="451.83" y="41.380245" style="stroke: #000000; stroke-width: 0.6"/>
      </g>
     </g>
    </g>
    <g id="ytick_32">
     <g id="line2d_169">
      <g>
       <use xlink:href="#me9f23fb683" x="61.23" y="35.570313" style="stroke: #000000; stroke-width: 0.6"/>
      </g>
     </g>
     <g id="line2d_170">
      <g>
       <use xlink:href="#m1eb32b0bf3" x="451.83" y="35.570313" style="stroke: #000000; stroke-width: 0.6"/>
      </g>
     </g>
    </g>
    <g id="text_20">
     <!-- Cross Section ($cm^{2}$) -->
     <g transform="translate(17.544375 207.290313) rotate(-90) scale(0.12 -0.12)">
      <defs>
       <path id="DejaVuSerif-43" d="M 4513 1234 
Q 4306 581 3820 245 
Q 3334 -91 2591 -91 
Q 2134 -91 1743 65 
Q 1353 222 1050 525 
Q 700 875 529 1320 
Q 359 1766 359 2328 
Q 359 3416 987 4083 
Q 1616 4750 2644 4750 
Q 3025 4750 3456 4650 
Q 3888 4550 4384 4347 
L 4384 3272 
L 4031 3272 
Q 3916 3859 3567 4137 
Q 3219 4416 2591 4416 
Q 1844 4416 1459 3886 
Q 1075 3356 1075 2328 
Q 1075 1303 1459 773 
Q 1844 244 2591 244 
Q 3113 244 3450 492 
Q 3788 741 3938 1234 
L 4513 1234 
z
" transform="scale(0.015625)"/>
       <path id="DejaVuSerif-6f" d="M 1925 219 
Q 2388 219 2623 584 
Q 2859 950 2859 1663 
Q 2859 2375 2623 2739 
Q 2388 3103 1925 3103 
Q 1463 3103 1227 2739 
Q 991 2375 991 1663 
Q 991 950 1228 584 
Q 1466 219 1925 219 
z
M 1925 -91 
Q 1200 -91 759 389 
Q 319 869 319 1663 
Q 319 2456 758 2934 
Q 1197 3413 1925 3413 
Q 2653 3413 3092 2934 
Q 3531 2456 3531 1663 
Q 3531 869 3092 389 
Q 2653 -91 1925 -91 
z
" transform="scale(0.015625)"/>
       <path id="DejaVuSerif-73" d="M 359 184 
L 359 959 
L 691 959 
Q 703 588 923 403 
Q 1144 219 1575 219 
Q 1963 219 2166 364 
Q 2369 509 2369 788 
Q 2369 1006 2220 1140 
Q 2072 1275 1594 1428 
L 1178 1569 
Q 750 1706 558 1912 
Q 366 2119 366 2438 
Q 366 2894 700 3153 
Q 1034 3413 1625 3413 
Q 1888 3413 2178 3344 
Q 2469 3275 2778 3144 
L 2778 2419 
L 2447 2419 
Q 2434 2741 2221 2922 
Q 2009 3103 1644 3103 
Q 1281 3103 1095 2975 
Q 909 2847 909 2591 
Q 909 2381 1050 2254 
Q 1191 2128 1613 1997 
L 2069 1856 
Q 2541 1709 2748 1489 
Q 2956 1269 2956 922 
Q 2956 450 2595 179 
Q 2234 -91 1600 -91 
Q 1278 -91 972 -22 
Q 666 47 359 184 
z
" transform="scale(0.015625)"/>
       <path id="DejaVuSerif-53" d="M 594 225 
L 594 1288 
L 953 1284 
Q 969 753 1261 498 
Q 1553 244 2150 244 
Q 2706 244 2998 464 
Q 3291 684 3291 1106 
Q 3291 1444 3114 1625 
Q 2938 1806 2369 1978 
L 1753 2163 
Q 1084 2366 811 2669 
Q 538 2972 538 3500 
Q 538 4094 959 4422 
Q 1381 4750 2144 4750 
Q 2469 4750 2856 4679 
Q 3244 4609 3681 4475 
L 3681 3481 
L 3328 3481 
Q 3275 3975 2998 4195 
Q 2722 4416 2156 4416 
Q 1663 4416 1405 4214 
Q 1147 4013 1147 3628 
Q 1147 3294 1340 3103 
Q 1534 2913 2163 2725 
L 2741 2553 
Q 3375 2363 3645 2067 
Q 3916 1772 3916 1275 
Q 3916 597 3481 253 
Q 3047 -91 2188 -91 
Q 1803 -91 1404 -12 
Q 1006 66 594 225 
z
" transform="scale(0.015625)"/>
       <path id="DejaVuSerif-69" d="M 622 4353 
Q 622 4497 726 4603 
Q 831 4709 978 4709 
Q 1122 4709 1226 4603 
Q 1331 4497 1331 4353 
Q 1331 4206 1228 4103 
Q 1125 4000 978 4000 
Q 831 4000 726 4103 
Q 622 4206 622 4353 
z
M 1356 331 
L 1900 331 
L 1900 0 
L 231 0 
L 231 331 
L 781 331 
L 781 2988 
L 231 2988 
L 231 3322 
L 1356 3322 
L 1356 331 
z
" transform="scale(0.015625)"/>
       <path id="DejaVuSans-Oblique-63" d="M 3431 3366 
L 3316 2797 
Q 3109 2947 2876 3022 
Q 2644 3097 2394 3097 
Q 2119 3097 1870 3000 
Q 1622 2903 1453 2725 
Q 1184 2453 1037 2087 
Q 891 1722 891 1331 
Q 891 859 1127 628 
Q 1363 397 1844 397 
Q 2081 397 2348 469 
Q 2616 541 2906 684 
L 2797 116 
Q 2547 13 2283 -39 
Q 2019 -91 1741 -91 
Q 1044 -91 669 257 
Q 294 606 294 1253 
Q 294 1797 489 2255 
Q 684 2713 1069 3078 
Q 1331 3328 1684 3456 
Q 2038 3584 2456 3584 
Q 2700 3584 2940 3529 
Q 3181 3475 3431 3366 
z
" transform="scale(0.015625)"/>
       <path id="DejaVuSans-Oblique-6d" d="M 5747 2113 
L 5338 0 
L 4763 0 
L 5166 2094 
Q 5191 2228 5203 2325 
Q 5216 2422 5216 2491 
Q 5216 2772 5059 2928 
Q 4903 3084 4622 3084 
Q 4203 3084 3875 2770 
Q 3547 2456 3450 1953 
L 3066 0 
L 2491 0 
L 2900 2094 
Q 2925 2209 2937 2307 
Q 2950 2406 2950 2484 
Q 2950 2769 2794 2926 
Q 2638 3084 2363 3084 
Q 1938 3084 1609 2770 
Q 1281 2456 1184 1953 
L 800 0 
L 225 0 
L 909 3500 
L 1484 3500 
L 1375 2956 
Q 1609 3263 1923 3423 
Q 2238 3584 2597 3584 
Q 2978 3584 3223 3384 
Q 3469 3184 3519 2828 
Q 3781 3197 4126 3390 
Q 4472 3584 4856 3584 
Q 5306 3584 5551 3325 
Q 5797 3066 5797 2591 
Q 5797 2488 5784 2364 
Q 5772 2241 5747 2113 
z
" transform="scale(0.015625)"/>
       <path id="DejaVuSans-32" d="M 1228 531 
L 3431 531 
L 3431 0 
L 469 0 
L 469 531 
Q 828 903 1448 1529 
Q 2069 2156 2228 2338 
Q 2531 2678 2651 2914 
Q 2772 3150 2772 3378 
Q 2772 3750 2511 3984 
Q 2250 4219 1831 4219 
Q 1534 4219 1204 4116 
Q 875 4013 500 3803 
L 500 4441 
Q 881 4594 1212 4672 
Q 1544 4750 1819 4750 
Q 2544 4750 2975 4387 
Q 3406 4025 3406 3419 
Q 3406 3131 3298 2873 
Q 3191 2616 2906 2266 
Q 2828 2175 2409 1742 
Q 1991 1309 1228 531 
z
" transform="scale(0.015625)"/>
      </defs>
      <use xlink:href="#DejaVuSerif-43" transform="translate(0 0.765625)"/>
      <use xlink:href="#DejaVuSerif-72" transform="translate(76.513672 0.765625)"/>
      <use xlink:href="#DejaVuSerif-6f" transform="translate(124.316406 0.765625)"/>
      <use xlink:href="#DejaVuSerif-73" transform="translate(184.521484 0.765625)"/>
      <use xlink:href="#DejaVuSerif-73" transform="translate(235.839844 0.765625)"/>
      <use xlink:href="#DejaVuSerif-20" transform="translate(287.158203 0.765625)"/>
      <use xlink:href="#DejaVuSerif-53" transform="translate(318.945312 0.765625)"/>
      <use xlink:href="#DejaVuSerif-65" transform="translate(387.451172 0.765625)"/>
      <use xlink:href="#DejaVuSerif-63" transform="translate(446.630859 0.765625)"/>
      <use xlink:href="#DejaVuSerif-74" transform="translate(502.636719 0.765625)"/>
      <use xlink:href="#DejaVuSerif-69" transform="translate(542.822266 0.765625)"/>
      <use xlink:href="#DejaVuSerif-6f" transform="translate(574.804688 0.765625)"/>
      <use xlink:href="#DejaVuSerif-6e" transform="translate(635.009766 0.765625)"/>
      <use xlink:href="#DejaVuSerif-20" transform="translate(699.414062 0.765625)"/>
      <use xlink:href="#DejaVuSerif-28" transform="translate(731.201172 0.765625)"/>
      <use xlink:href="#DejaVuSans-Oblique-63" transform="translate(770.214844 0.765625)"/>
      <use xlink:href="#DejaVuSans-Oblique-6d" transform="translate(825.195312 0.765625)"/>
      <use xlink:href="#DejaVuSans-32" transform="translate(927.257318 39.046875) scale(0.7)"/>
      <use xlink:href="#DejaVuSerif-29" transform="translate(974.527826 0.765625)"/>
     </g>
    </g>
   </g>
   <g id="line2d_171">
    <path d="M 400.385392 298.460625 
L 399.421453 295.353704 
L 398.022115 290.156122 
L 396.626468 284.116993 
L 395.2345 277.241135 
L 393.384237 266.903511 
L 391.080515 252.62484 
L 388.329315 234.170484 
L 381.965526 190.554295 
L 380.611897 183.198057 
L 379.71143 179.178606 
L 378.81252 175.904992 
L 377.915164 173.318802 
L 377.019356 171.315282 
L 376.125094 169.748304 
L 374.786589 167.920499 
L 372.563417 165.45117 
L 365.950857 158.654359 
L 358.990188 151.807642 
L 352.549809 145.701493 
L 343.668866 137.688576 
L 335.354479 130.566473 
L 326.36634 123.336201 
L 317.936903 116.922609 
L 310.43348 111.517015 
L 301.887905 105.673328 
L 296.147163 101.95495 
L 289.348093 97.792782 
L 283.385151 94.374057 
L 278.228696 91.617757 
L 272.40421 88.762555 
L 268.083089 86.828525 
L 262.737692 84.698126 
L 258.154582 83.107 
L 253.61678 81.769334 
L 249.811994 80.823758 
L 246.380498 80.106239 
L 241.619667 79.333822 
L 236.573972 78.784312 
L 232.246504 78.521821 
L 227.304901 78.430776 
L 221.123577 78.595927 
L 215.984671 78.903525 
L 204.949688 79.848946 
L 196.014884 80.622043 
L 188.459335 81.117986 
L 183.101417 81.331119 
L 178.395323 81.410259 
L 169.711555 81.239474 
L 163.174881 80.871211 
L 149.041655 79.818629 
L 144.437829 79.65238 
L 141.219494 79.680074 
L 137.49717 79.915476 
L 134.071568 80.376058 
L 130.675273 81.108414 
L 127.824098 81.954614 
L 124.993416 83.014316 
L 121.928511 84.418718 
L 118.887449 86.073352 
L 116.120519 87.789299 
L 112.875753 90.043737 
L 109.65801 92.508709 
L 106.222582 95.356531 
L 102.333749 98.800985 
L 97.527876 103.321794 
L 94.673332 106.201193 
L 93.963055 107.229474 
L 93.490279 108.273884 
L 93.018096 109.884456 
L 92.546505 112.387 
L 92.075504 116.157497 
L 91.605092 121.574167 
L 91.135268 128.976622 
L 90.431634 144.464 
L 89.729316 165.88946 
L 89.028312 193.899023 
L 88.328618 228.907411 
L 87.63023 274.462593 
L 87.310968 298.460625 
L 87.310968 298.460625 
" clip-path="url(#pea0b2f26c5)" style="fill: none; stroke: #1f77b4; stroke-width: 1.5; stroke-linecap: square"/>
   </g>
   <g id="line2d_172">
    <path d="M 399.933485 298.460625 
L 399.888722 298.099679 
L 399.811471 298.460625 
M 399.071678 298.460625 
L 398.954596 297.850638 
L 398.48815 292.610667 
L 398.022115 293.956163 
L 397.55649 286.511028 
L 397.091274 291.902004 
L 395.698082 281.995014 
L 395.2345 281.812186 
L 394.771325 277.695249 
L 394.308557 278.028125 
L 393.846194 276.059436 
L 392.000793 262.908869 
L 391.540453 261.562031 
L 390.620979 254.646395 
L 390.161845 253.012784 
L 389.703112 248.092914 
L 389.24478 246.718778 
L 388.786848 243.324801 
L 388.329315 241.231211 
L 387.415447 233.16051 
L 386.95911 231.138163 
L 386.047628 225.839384 
L 385.592482 218.883301 
L 385.137732 216.726859 
L 384.683378 215.32012 
L 384.229418 212.823518 
L 383.775853 205.999423 
L 383.322682 205.267944 
L 382.869904 203.961816 
L 382.417519 197.435251 
L 381.965526 194.456807 
L 381.513925 193.087118 
L 380.611897 183.923038 
L 380.161469 181.35123 
L 379.71143 177.139066 
L 379.261781 175.749078 
L 378.81252 173.450331 
L 378.363648 173.043565 
L 377.915164 170.816644 
L 377.467067 172.257313 
L 377.019356 170.65238 
L 376.125094 169.770624 
L 375.678541 171.297876 
L 375.232373 170.577172 
L 374.786589 170.12475 
L 374.341189 167.338273 
L 373.896172 170.238091 
L 373.451538 170.093335 
L 373.007287 169.631925 
L 372.563417 166.958113 
L 372.119929 168.026879 
L 371.676821 166.960261 
L 371.234094 162.550675 
L 370.791746 165.13996 
L 370.349778 163.370606 
L 369.908189 165.059716 
L 369.466978 164.459084 
L 369.026146 162.48645 
L 368.58569 163.165194 
L 368.145612 164.157416 
L 367.70591 158.337322 
L 367.266584 158.973127 
L 366.827633 161.461026 
L 366.389058 159.182239 
L 365.950857 159.163175 
L 365.51303 158.602739 
L 365.075576 157.530894 
L 364.638496 158.124882 
L 364.201788 156.615341 
L 363.765453 156.807028 
L 363.329489 155.648503 
L 362.893896 155.144674 
L 362.458674 154.176191 
L 361.589341 154.715393 
L 360.721484 153.923394 
L 359.422461 152.47682 
L 358.126741 150.797626 
L 357.264755 149.852134 
L 355.974511 149.190174 
L 352.549809 145.722762 
L 346.611818 140.348504 
L 340.743075 135.203223 
L 333.297364 128.910163 
L 321.53181 119.641174 
L 314.763469 114.6239 
L 304.203552 107.242751 
L 298.435216 103.420844 
L 290.850626 98.689258 
L 282.645047 93.969049 
L 276.036005 90.498751 
L 270.23863 87.764058 
L 263.801839 85.085499 
L 258.505512 83.206507 
L 253.61678 81.754351 
L 248.77982 80.577802 
L 243.653884 79.616701 
L 238.585457 78.961877 
L 233.905962 78.590955 
L 228.617301 78.424706 
L 223.71571 78.485101 
L 213.437634 79.094656 
L 192.976572 80.849623 
L 185.474335 81.257266 
L 179.860323 81.399974 
L 173.163383 81.356448 
L 166.572415 81.087917 
L 159.525603 80.59741 
L 144.437829 79.644318 
L 139.619965 79.744886 
L 136.176139 80.05772 
L 132.761853 80.618013 
L 129.895635 81.309161 
L 126.534897 82.40084 
L 123.202641 83.799958 
L 120.151678 85.353522 
L 117.627311 86.827782 
L 114.120523 89.150691 
L 110.151302 92.119953 
L 105.734309 95.783 
L 101.608983 99.47599 
L 97.050619 103.793164 
L 94.199665 106.708449 
L 93.726593 107.418698 
L 93.254114 108.501805 
L 92.782227 110.296641 
L 92.310931 113.283601 
L 91.840224 118.004852 
L 91.370107 124.991721 
L 90.900577 134.720606 
L 90.197382 155.250209 
L 89.495502 183.811774 
L 88.794935 221.070786 
L 88.095677 269.817011 
L 87.759224 298.460625 
L 87.759224 298.460625 
" clip-path="url(#pea0b2f26c5)" style="fill: none; stroke: #2ca02c; stroke-width: 1.5; stroke-linecap: square"/>
   </g>
   <g id="line2d_173">
    <path d="M 60.629077 89.422214 
L 61.23 79.392356 
L 61.830923 73.386973 
L 62.431846 71.251617 
L 63.032769 73.386973 
L 63.633692 79.308411 
L 64.234615 89.298914 
L 64.835538 103.291659 
L 65.436462 121.129264 
L 66.638308 168.004583 
L 67.840154 219.231903 
L 68.441077 234.105586 
L 69.042 239.676525 
L 69.642923 240.345887 
L 70.243846 240.345887 
L 70.844769 240.481849 
L 71.445692 240.755923 
L 72.046615 240.755923 
L 72.647538 240.076074 
L 73.248462 238.136959 
L 73.849385 234.753837 
L 75.051231 226.402734 
L 75.652154 223.978963 
L 76.253077 223.834714 
L 76.854 226.561981 
L 77.454923 232.054388 
L 78.055846 240.076074 
L 80.459538 279.793515 
L 81.060462 257.644643 
L 82.863231 153.71235 
L 84.065077 101.137522 
L 84.666 80.892118 
L 85.266923 64.594559 
L 85.867846 52.496481 
L 86.468769 44.268542 
L 87.069692 40.109907 
L 87.670615 39.986217 
L 88.271538 43.835788 
L 88.872462 51.807377 
L 89.473385 63.659006 
L 90.074308 79.645825 
L 90.675231 99.509695 
L 91.877077 149.497925 
L 92.478 175.692244 
L 93.078923 194.427778 
L 93.679846 201.609952 
L 94.280769 202.073527 
L 95.482615 199.072751 
L 96.684462 196.862892 
L 97.886308 195.374673 
L 99.088154 194.427778 
L 100.29 193.966939 
L 101.491846 193.966939 
L 102.092769 194.661293 
L 102.693692 196.108151 
L 103.294615 198.0644 
L 104.496462 203.714433 
L 105.698308 210.548866 
L 106.900154 218.754151 
L 108.102 228.900182 
L 109.904769 246.600318 
L 110.505692 250.902879 
L 111.106615 252.152883 
L 111.707538 249.516565 
L 112.308462 243.668089 
L 115.313077 205.967853 
L 116.514923 193.966939 
L 118.317692 179.331191 
L 119.519538 171.517444 
L 121.322308 161.611404 
L 122.524154 156.053165 
L 123.726 151.43064 
L 125.528769 145.763767 
L 126.730615 142.721 
L 127.932462 140.431587 
L 129.134308 138.789596 
L 129.735231 138.166094 
L 130.336154 137.740995 
L 130.937077 137.504891 
L 131.538 137.504891 
L 132.138923 137.767361 
L 132.739846 138.219722 
L 133.340769 138.899572 
L 133.941692 139.825046 
L 134.542615 141.082539 
L 135.143538 142.689112 
L 135.744462 144.709504 
L 136.345385 147.201405 
L 137.547231 153.761063 
L 138.749077 163.103501 
L 139.950923 175.919641 
L 141.152769 190.149861 
L 141.753692 193.966939 
L 142.354615 191.777688 
L 142.955538 184.339929 
L 144.758308 154.553116 
L 145.960154 138.246578 
L 147.162 125.352539 
L 148.363846 115.2915 
L 149.565692 107.142001 
L 150.767538 100.436368 
L 151.969385 95.211556 
L 153.171231 90.818508 
L 154.373077 87.098423 
L 155.574923 84.145022 
L 156.776769 81.706304 
L 158.579538 78.592011 
L 160.382308 76.204502 
L 160.983231 75.713228 
L 162.185077 74.29269 
L 165.790615 71.664907 
L 166.992462 70.844785 
L 167.593385 70.643728 
L 168.194308 70.246212 
L 170.598 69.468938 
L 171.198923 69.088833 
L 173.001692 68.528881 
L 173.602615 68.528881 
L 176.607231 67.621586 
L 177.208154 67.621586 
L 177.809077 67.44386 
L 178.41 67.44386 
L 179.611846 67.092007 
L 180.212769 67.092007 
L 180.813692 66.917847 
L 181.414615 66.917847 
L 182.015538 66.744845 
L 183.217385 66.744845 
L 183.818308 66.572985 
L 184.419231 66.572985 
L 185.020154 66.402251 
L 187.423846 66.402251 
L 188.024769 66.23263 
L 188.625692 66.23263 
L 189.226615 66.064107 
L 193.433077 66.064107 
L 194.034 65.896667 
L 194.634923 65.896667 
L 195.235846 66.064107 
L 197.639538 66.064107 
L 198.240462 65.896667 
L 199.442308 65.896667 
L 200.043231 66.064107 
L 203.648769 66.064107 
L 204.249692 66.23263 
L 204.850615 66.23263 
L 205.451538 66.402251 
L 207.855231 66.402251 
L 208.456154 66.572985 
L 209.057077 66.572985 
L 209.658 66.744845 
L 212.662615 66.744845 
L 213.864462 67.092007 
L 214.465385 67.092007 
L 215.066308 67.267339 
L 216.869077 67.267339 
L 217.47 67.44386 
L 218.070923 67.44386 
L 219.272769 67.800533 
L 221.075538 67.800533 
L 221.676462 67.980719 
L 222.277385 67.980719 
L 222.878308 68.162161 
L 223.479231 68.162161 
L 224.080154 68.344875 
L 225.282 68.344875 
L 225.882923 68.528881 
L 226.483846 68.528881 
L 227.685692 68.900841 
L 228.286615 68.900841 
L 228.887538 69.088833 
L 229.488462 69.088833 
L 230.089385 69.278192 
L 230.690308 69.278192 
L 231.892154 69.661092 
L 232.493077 69.661092 
L 233.094 69.854675 
L 234.295846 69.854675 
L 235.497692 70.246212 
L 236.098615 70.246212 
L 237.300462 70.643728 
L 237.901385 70.643728 
L 238.502308 70.844785 
L 239.103231 70.844785 
L 242.107846 71.874039 
L 242.708769 71.874039 
L 243.309692 72.084864 
L 243.910615 72.084864 
L 246.314308 72.945661 
L 246.915231 72.945661 
L 247.516154 73.165382 
L 248.117077 73.165382 
L 250.520769 74.06329 
L 251.121692 74.06329 
L 252.323538 74.524129 
L 252.924462 74.524129 
L 255.929077 75.713228 
L 256.53 75.713228 
L 258.933692 76.705224 
L 259.534615 76.705224 
L 260.135538 76.959243 
L 260.736462 76.959243 
L 263.741077 78.134033 
L 266.144769 78.81035 
L 268.548462 79.816186 
L 270.351231 80.276008 
L 273.355846 81.371519 
L 274.557692 81.67569 
L 279.966 83.943965 
L 281.167846 84.517708 
L 284.172462 85.633241 
L 285.374308 86.209458 
L 287.778 87.060771 
L 289.580769 88.136188 
L 291.984462 89.135418 
L 293.787231 90.259481 
L 296.190923 91.168587 
L 297.993692 92.247985 
L 300.397385 93.23062 
L 302.801077 94.651604 
L 304.603846 95.522137 
L 305.805692 96.422786 
L 307.007538 96.967507 
L 308.209385 97.411642 
L 309.411231 98.207587 
L 310.613077 98.850502 
L 311.814923 99.207992 
L 312.415846 99.509695 
L 314.218615 100.816473 
L 316.021385 101.593747 
L 317.223231 102.462833 
L 318.425077 103.291659 
L 320.828769 104.512917 
L 322.030615 105.334805 
L 322.631538 105.640225 
L 323.833385 106.027108 
L 325.035231 106.899044 
L 326.237077 107.801194 
L 328.039846 108.649372 
L 329.241692 109.794997 
L 330.443538 110.618724 
L 331.044462 110.805368 
L 332.246308 111.662231 
L 333.448154 112.749311 
L 335.851846 113.989391 
L 337.053692 115.180469 
L 339.457385 116.545152 
L 340.659231 117.862234 
L 341.260154 118.358187 
L 341.861077 118.609751 
L 342.462 118.991715 
L 343.663846 120.172425 
L 344.264769 120.852274 
L 345.466615 121.550352 
L 346.067538 121.83491 
L 346.668462 122.267663 
L 347.870308 123.610831 
L 349.673077 124.546383 
L 351.475846 126.524809 
L 352.076769 126.869672 
L 352.677692 127.043831 
L 353.278615 127.57341 
L 355.081385 129.612917 
L 355.682308 129.806499 
L 356.283231 130.198037 
L 357.485077 131.409267 
L 358.086 132.249234 
L 359.888769 132.897486 
L 360.489692 133.787718 
L 361.090615 134.475954 
L 361.691538 134.945097 
L 362.893385 135.422849 
L 364.696154 137.662055 
L 365.898 138.112575 
L 366.498923 138.789596 
L 367.099846 139.73954 
L 367.700769 140.431587 
L 368.902615 140.725458 
L 369.503538 141.353601 
L 370.104462 142.27808 
L 370.705385 142.913154 
L 371.907231 143.042049 
L 372.508154 143.762609 
L 373.109077 144.81303 
L 373.71 145.336926 
L 374.310923 145.336926 
L 374.911846 145.585065 
L 376.113692 147.776191 
L 376.714615 148.088012 
L 377.315538 147.970641 
L 377.916462 148.642849 
L 378.517385 149.999451 
L 379.118308 150.813835 
L 379.719231 150.640256 
L 380.320154 150.683543 
L 381.522 153.134802 
L 382.122923 153.039777 
L 382.723846 152.663109 
L 383.324769 153.325898 
L 383.925692 145.336926 
L 384.526615 141.505419 
L 385.127538 144.096846 
L 385.728462 145.727928 
L 386.930308 157.363466 
L 387.531231 152.523251 
L 388.132154 151.835015 
L 388.733077 149.332874 
L 389.334 149.622404 
L 389.934923 150.382038 
L 390.535846 152.897887 
L 391.136769 157.929504 
L 391.737692 156.37461 
L 392.338615 150.041684 
L 392.939538 153.858761 
L 393.540462 152.850762 
L 394.141385 154.452781 
L 394.742308 160.137837 
L 395.343231 158.159411 
L 395.944154 155.214887 
L 396.545077 155.266496 
L 397.146 155.841051 
L 397.746923 163.313758 
L 398.347846 149.12802 
L 398.948769 169.927633 
L 399.549692 171.906059 
L 400.150615 175.466817 
L 400.751538 175.132293 
L 401.352462 182.219488 
L 401.953385 186.476633 
L 402.554308 176.034089 
L 403.155231 182.365352 
L 403.756154 186.821496 
L 404.357077 188.43253 
L 404.958 195.861355 
L 405.558923 207.612038 
L 406.159846 196.357308 
L 406.760769 179.461701 
L 407.361692 187.884368 
L 407.962615 189.564741 
L 408.563538 203.780938 
L 409.164462 198.878963 
L 409.765385 210.248356 
L 410.366308 223.834714 
L 410.967231 209.491176 
L 411.568154 184.339929 
L 412.169077 192.631428 
L 412.77 196.357308 
L 413.370923 209.284698 
L 413.971846 202.800769 
L 414.572769 217.653435 
L 415.774615 228.726023 
L 416.375538 230.709017 
L 416.976462 198.74142 
L 417.577385 191.777688 
L 418.178308 198.713999 
L 418.779231 202.135965 
L 419.380154 221.235718 
L 419.981077 221.563228 
L 420.582 213.229816 
L 421.182923 230.802843 
L 421.783846 240.618526 
L 422.384769 239.809028 
L 422.985692 244.769505 
L 423.586615 213.567022 
L 424.187538 193.514114 
L 424.788462 207.458202 
L 425.389385 207.496576 
L 425.990308 225.011717 
L 426.591231 231.469268 
L 427.192154 218.57723 
L 427.793077 238.012678 
L 428.394 245.91958 
L 428.994923 247.836192 
L 429.595846 256.309133 
L 430.196769 259.58634 
L 430.797692 260.59957 
L 431.398615 211.516559 
L 431.999538 210.678725 
L 432.600462 214.304657 
L 433.201385 216.004989 
L 433.802308 220.848067 
L 434.403231 241.032912 
L 435.004154 244.609279 
L 435.605077 236.448801 
L 436.202277 298.460625 
M 436.210361 298.460625 
L 436.806923 245.585771 
L 437.407846 295.709343 
L 438.008769 265.029749 
L 438.609692 285.34254 
L 439.210615 273.325623 
L 439.811538 233.369144 
L 440.412462 213.134269 
L 441.013385 223.477552 
L 441.614308 226.883427 
L 442.215231 231.565879 
L 442.816154 279.855286 
L 443.417077 238.387314 
L 444.618923 269.734849 
L 445.219846 256.560697 
L 445.617665 298.460625 
M 446.090245 298.460625 
L 446.421692 272.149418 
L 446.9241 298.460625 
M 447.263601 298.460625 
L 447.623538 290.754667 
L 448.224462 295.82329 
L 448.727189 298.460625 
M 448.829797 298.460625 
L 449.426308 228.812957 
L 450.027231 237.765882 
L 450.628154 237.765882 
L 451.229077 238.136959 
L 451.83 243.514479 
L 452.430923 251.940337 
L 452.430923 251.940337 
" clip-path="url(#pea0b2f26c5)" style="fill: none; stroke-dasharray: 5.55,2.4; stroke-dashoffset: 0; stroke: #ff0000; stroke-width: 1.5"/>
   </g>
   <g id="patch_5">
    <path d="M 61.23 257.330313 
L 61.23 35.570313 
" style="fill: none; stroke: #000000; stroke-width: 0.8; stroke-linejoin: miter; stroke-linecap: square"/>
   </g>
   <g id="patch_6">
    <path d="M 451.83 257.330313 
L 451.83 35.570313 
" style="fill: none; stroke: #000000; stroke-width: 0.8; stroke-linejoin: miter; stroke-linecap: square"/>
   </g>
   <g id="patch_7">
    <path d="M 61.23 257.330313 
L 451.83 257.330313 
" style="fill: none; stroke: #000000; stroke-width: 0.8; stroke-linejoin: miter; stroke-linecap: square"/>
   </g>
   <g id="patch_8">
    <path d="M 61.23 35.570313 
L 451.83 35.570313 
" style="fill: none; stroke: #000000; stroke-width: 0.8; stroke-linejoin: miter; stroke-linecap: square"/>
   </g>
   <g id="legend_1">
    <g id="patch_9">
     <path d="M 182.885 251.830313 
L 330.175 251.830313 
Q 332.375 251.830313 332.375 249.630313 
L 332.375 201.168438 
Q 332.375 198.968438 330.175 198.968438 
L 182.885 198.968438 
Q 180.685 198.968438 180.685 201.168438 
L 180.685 249.630313 
Q 180.685 251.830313 182.885 251.830313 
z
" style="fill: #ffffff; opacity: 0.8; stroke: #cccccc; stroke-linejoin: miter"/>
    </g>
    <g id="line2d_174">
     <path d="M 185.085 209.000781 
L 196.085 209.000781 
L 207.085 209.000781 
" style="fill: none; stroke: #1f77b4; stroke-width: 1.5; stroke-linecap: square"/>
    </g>
    <g id="text_21">
     <!-- Duo, $\alpha_D$ = 160 cm$^{-1}$ -->
     <g transform="translate(215.885 212.850781) scale(0.11 -0.11)">
      <defs>
       <path id="DejaVuSerif-44" d="M 1581 331 
L 2163 331 
Q 3072 331 3558 850 
Q 4044 1369 4044 2338 
Q 4044 3306 3559 3818 
Q 3075 4331 2163 4331 
L 1581 4331 
L 1581 331 
z
M 353 0 
L 353 331 
L 947 331 
L 947 4331 
L 353 4331 
L 353 4666 
L 2209 4666 
Q 3416 4666 4089 4050 
Q 4763 3434 4763 2338 
Q 4763 1238 4088 619 
Q 3413 0 2209 0 
L 353 0 
z
" transform="scale(0.015625)"/>
       <path id="DejaVuSerif-2c" d="M 231 -622 
Q 525 -406 662 -114 
Q 800 178 800 594 
L 800 709 
L 1416 709 
Q 1391 175 1164 -208 
Q 938 -591 481 -872 
L 231 -622 
z
" transform="scale(0.015625)"/>
       <path id="DejaVuSans-Oblique-3b1" d="M 2619 1628 
L 2622 2350 
Q 2625 3088 2069 3091 
Q 1653 3094 1394 2747 
Q 1069 2319 959 1747 
Q 825 1059 994 731 
Q 1169 397 1547 397 
Q 1966 397 2319 1063 
L 2619 1628 
z
M 2166 3578 
Q 3141 3594 3128 2584 
Q 3128 2584 3616 3500 
L 4128 3500 
L 3119 1603 
L 3109 919 
Q 3109 766 3194 638 
Q 3291 488 3391 488 
L 3669 488 
L 3575 0 
L 3228 0 
Q 2934 0 2722 263 
Q 2622 394 2619 669 
Q 2416 334 2066 50 
Q 1900 -81 1453 -78 
Q 722 -72 456 397 
Q 184 884 353 1747 
Q 534 2675 1009 3097 
Q 1544 3569 2166 3578 
z
" transform="scale(0.015625)"/>
       <path id="DejaVuSans-Oblique-44" d="M 1081 4666 
L 2438 4666 
Q 3519 4666 4070 4208 
Q 4622 3750 4622 2847 
Q 4622 2250 4412 1698 
Q 4203 1147 3834 769 
Q 3463 381 2891 190 
Q 2319 0 1538 0 
L 172 0 
L 1081 4666 
z
M 1613 4147 
L 909 519 
L 1734 519 
Q 2794 519 3375 1128 
Q 3956 1738 3956 2847 
Q 3956 3519 3581 3833 
Q 3206 4147 2406 4147 
L 1613 4147 
z
" transform="scale(0.015625)"/>
       <path id="DejaVuSerif-3d" d="M 678 2894 
L 4684 2894 
L 4684 2394 
L 678 2394 
L 678 2894 
z
M 678 1619 
L 4684 1619 
L 4684 1119 
L 678 1119 
L 678 1619 
z
" transform="scale(0.015625)"/>
      </defs>
      <use xlink:href="#DejaVuSerif-44" transform="translate(0 0.684375)"/>
      <use xlink:href="#DejaVuSerif-75" transform="translate(80.175781 0.684375)"/>
      <use xlink:href="#DejaVuSerif-6f" transform="translate(144.580078 0.684375)"/>
      <use xlink:href="#DejaVuSerif-2c" transform="translate(204.785156 0.684375)"/>
      <use xlink:href="#DejaVuSerif-20" transform="translate(236.572266 0.684375)"/>
      <use xlink:href="#DejaVuSans-Oblique-3b1" transform="translate(268.359375 0.684375)"/>
      <use xlink:href="#DejaVuSans-Oblique-44" transform="translate(334.277344 -15.721875) scale(0.7)"/>
      <use xlink:href="#DejaVuSerif-20" transform="translate(390.913086 0.684375)"/>
      <use xlink:href="#DejaVuSerif-3d" transform="translate(422.700195 0.684375)"/>
      <use xlink:href="#DejaVuSerif-20" transform="translate(506.489258 0.684375)"/>
      <use xlink:href="#DejaVuSerif-31" transform="translate(538.276367 0.684375)"/>
      <use xlink:href="#DejaVuSerif-36" transform="translate(601.899414 0.684375)"/>
      <use xlink:href="#DejaVuSerif-30" transform="translate(665.522461 0.684375)"/>
      <use xlink:href="#DejaVuSerif-20" transform="translate(729.145508 0.684375)"/>
      <use xlink:href="#DejaVuSerif-63" transform="translate(760.932617 0.684375)"/>
      <use xlink:href="#DejaVuSerif-6d" transform="translate(816.938477 0.684375)"/>
      <use xlink:href="#DejaVuSans-2212" transform="translate(912.719727 38.965625) scale(0.7)"/>
      <use xlink:href="#DejaVuSans-31" transform="translate(971.37207 38.965625) scale(0.7)"/>
     </g>
    </g>
    <g id="line2d_175">
     <path d="M 185.085 225.146719 
L 196.085 225.146719 
L 207.085 225.146719 
" style="fill: none; stroke: #2ca02c; stroke-width: 1.5; stroke-linecap: square"/>
    </g>
    <g id="text_22">
     <!-- Duo, $\alpha_D$ = variable -->
     <g transform="translate(215.885 228.996719) scale(0.11 -0.11)">
      <use xlink:href="#DejaVuSerif-44" transform="translate(0 0.015625)"/>
      <use xlink:href="#DejaVuSerif-75" transform="translate(80.175781 0.015625)"/>
      <use xlink:href="#DejaVuSerif-6f" transform="translate(144.580078 0.015625)"/>
      <use xlink:href="#DejaVuSerif-2c" transform="translate(204.785156 0.015625)"/>
      <use xlink:href="#DejaVuSerif-20" transform="translate(236.572266 0.015625)"/>
      <use xlink:href="#DejaVuSans-Oblique-3b1" transform="translate(268.359375 0.015625)"/>
      <use xlink:href="#DejaVuSans-Oblique-44" transform="translate(334.277344 -16.390625) scale(0.7)"/>
      <use xlink:href="#DejaVuSerif-20" transform="translate(390.913086 0.015625)"/>
      <use xlink:href="#DejaVuSerif-3d" transform="translate(422.700195 0.015625)"/>
      <use xlink:href="#DejaVuSerif-20" transform="translate(506.489258 0.015625)"/>
      <use xlink:href="#DejaVuSerif-76" transform="translate(538.276367 0.015625)"/>
      <use xlink:href="#DejaVuSerif-61" transform="translate(594.770508 0.015625)"/>
      <use xlink:href="#DejaVuSerif-72" transform="translate(654.389648 0.015625)"/>
      <use xlink:href="#DejaVuSerif-69" transform="translate(702.192383 0.015625)"/>
      <use xlink:href="#DejaVuSerif-61" transform="translate(734.174805 0.015625)"/>
      <use xlink:href="#DejaVuSerif-62" transform="translate(793.793945 0.015625)"/>
      <use xlink:href="#DejaVuSerif-6c" transform="translate(857.807617 0.015625)"/>
      <use xlink:href="#DejaVuSerif-65" transform="translate(889.790039 0.015625)"/>
     </g>
    </g>
    <g id="line2d_176">
     <path d="M 185.085 241.292656 
L 196.085 241.292656 
L 207.085 241.292656 
" style="fill: none; stroke-dasharray: 5.55,2.4; stroke-dashoffset: 0; stroke: #ff0000; stroke-width: 1.5"/>
    </g>
    <g id="text_23">
     <!-- Exomol -->
     <g transform="translate(215.885 245.142656) scale(0.11 -0.11)">
      <defs>
       <path id="DejaVuSerif-45" d="M 353 0 
L 353 331 
L 947 331 
L 947 4331 
L 353 4331 
L 353 4666 
L 4109 4666 
L 4109 3628 
L 3725 3628 
L 3725 4281 
L 1581 4281 
L 1581 2719 
L 3109 2719 
L 3109 3303 
L 3494 3303 
L 3494 1753 
L 3109 1753 
L 3109 2338 
L 1581 2338 
L 1581 384 
L 3775 384 
L 3775 1038 
L 4159 1038 
L 4159 0 
L 353 0 
z
" transform="scale(0.015625)"/>
       <path id="DejaVuSerif-78" d="M 1863 2028 
L 2559 2988 
L 2113 2988 
L 2113 3322 
L 3391 3322 
L 3391 2988 
L 2950 2988 
L 2059 1759 
L 3097 331 
L 3531 331 
L 3531 0 
L 1997 0 
L 1997 331 
L 2419 331 
L 1697 1325 
L 972 331 
L 1403 331 
L 1403 0 
L 141 0 
L 141 331 
L 581 331 
L 1497 1594 
L 488 2988 
L 78 2988 
L 78 3322 
L 1563 3322 
L 1563 2988 
L 1166 2988 
L 1863 2028 
z
" transform="scale(0.015625)"/>
      </defs>
      <use xlink:href="#DejaVuSerif-45"/>
      <use xlink:href="#DejaVuSerif-78" x="72.998047"/>
      <use xlink:href="#DejaVuSerif-6f" x="129.394531"/>
      <use xlink:href="#DejaVuSerif-6d" x="189.599609"/>
      <use xlink:href="#DejaVuSerif-6f" x="284.423828"/>
      <use xlink:href="#DejaVuSerif-6c" x="344.628906"/>
     </g>
    </g>
   </g>
  </g>
 </g>
 <defs>
  <clipPath id="pea0b2f26c5">
   <rect x="61.23" y="35.570313" width="390.6" height="221.76"/>
  </clipPath>
 </defs>
</svg>
