<?xml version="1.0" encoding="utf-8" standalone="no"?>
<!DOCTYPE svg PUBLIC "-//W3C//DTD SVG 1.1//EN"
  "http://www.w3.org/Graphics/SVG/1.1/DTD/svg11.dtd">
<svg xmlns:xlink="http://www.w3.org/1999/xlink" width="278.595pt" height="188.114804pt" viewBox="0 0 278.595 188.114804" xmlns="http://www.w3.org/2000/svg" version="1.1">
 <metadata>
  <rdf:RDF xmlns:dc="http://purl.org/dc/elements/1.1/" xmlns:cc="http://creativecommons.org/ns#" xmlns:rdf="http://www.w3.org/1999/02/22-rdf-syntax-ns#">
   <cc:Work>
    <dc:type rdf:resource="http://purl.org/dc/dcmitype/StillImage"/>
    <dc:date>2026-03-21T13:48:39.948444</dc:date>
    <dc:format>image/svg+xml</dc:format>
    <dc:creator>
     <cc:Agent>
      <dc:title>Matplotlib v3.9.4, https://matplotlib.org/</dc:title>
     </cc:Agent>
    </dc:creator>
   </cc:Work>
  </rdf:RDF>
 </metadata>
 <defs>
  <style type="text/css">*{stroke-linejoin: round; stroke-linecap: butt}</style>
 </defs>
 <g id="figure_1">
  <g id="patch_1">
   <path d="M 0 188.114804 
L 278.595 188.114804 
L 278.595 0 
L 0 0 
z
" style="fill: #ffffff"/>
  </g>
  <g id="axes_1">
   <g id="line2d_1">
    <path d="M 47.037174 114.386804 
L 66.142244 114.386804 
" clip-path="url(#p8e89473de9)" style="fill: none; stroke: #8b1a1a; stroke-width: 2; stroke-linecap: square"/>
   </g>
   <g id="line2d_2">
    <path d="M 44.789519 108.516687 
L 72.135992 108.516687 
" clip-path="url(#p8e89473de9)" style="fill: none; stroke: #8b1a1a; stroke-width: 2; stroke-linecap: square"/>
   </g>
   <g id="line2d_3">
    <path d="M 43.291082 102.646569 
L 77.75513 102.646569 
" clip-path="url(#p8e89473de9)" style="fill: none; stroke: #8b1a1a; stroke-width: 2; stroke-linecap: square"/>
   </g>
   <g id="line2d_4">
    <path d="M 49.05 161.347746 
L 202.5 161.347746 
" clip-path="url(#p8e89473de9)" style="fill: none; stroke-dasharray: 3.7,1.6; stroke-dashoffset: 0; stroke: #000000; stroke-opacity: 0.5"/>
   </g>
   <g id="line2d_5">
    <path d="M 31.715075 -1 
L 32.802024 27.999792 
L 33.925852 53.491816 
L 35.049679 75.020434 
L 36.173507 93.099037 
L 37.297335 108.178928 
L 38.421162 120.656603 
L 39.54499 130.880195 
L 40.668818 139.155164 
L 41.792645 145.749334 
L 42.916473 150.897345 
L 44.040301 154.804591 
L 45.164128 157.650694 
L 45.913347 159.036916 
L 46.662565 160.063135 
L 47.411784 160.767192 
L 48.161002 161.183608 
L 48.91022 161.343849 
L 49.659439 161.276585 
L 50.408657 161.007919 
L 51.532485 160.278638 
L 52.656313 159.220341 
L 54.154749 157.402725 
L 56.027796 154.646339 
L 58.275451 150.875942 
L 62.396152 143.391633 
L 67.266072 134.643129 
L 70.637555 129.05251 
L 73.634429 124.518524 
L 76.256693 120.912175 
L 78.878958 117.643388 
L 81.501222 114.701351 
L 84.123487 112.068425 
L 86.745752 109.723066 
L 89.368016 107.641871 
L 92.36489 105.556228 
L 95.361764 103.749653 
L 98.358637 102.18924 
L 101.73012 100.690291 
L 104.726994 99.555575 
L 105.101603 99.717908 
L 112.593788 105.699023 
L 117.089098 109.00811 
L 121.2098 111.78328 
L 125.330501 114.2939 
L 129.451202 116.540882 
L 133.571904 118.535699 
L 137.692605 120.295745 
L 142.187916 121.971863 
L 146.683226 123.420098 
L 151.553146 124.762909 
L 156.797675 125.981547 
L 162.416814 127.0651 
L 168.78517 128.062601 
L 175.902745 128.943087 
L 183.769539 129.690425 
L 193.13477 130.346535 
L 202.5 130.81649 
L 202.5 130.81649 
" clip-path="url(#p8e89473de9)" style="fill: none; stroke: #3b2f2f; stroke-width: 3; stroke-linecap: square"/>
   </g>
   <g id="line2d_6">
    <path d="M 32.531842 -1 
L 33.925852 21.291571 
L 35.424289 41.529726 
L 36.922725 58.449718 
L 38.421162 72.507176 
L 39.919599 84.099234 
L 41.418036 93.571816 
L 42.541864 99.468007 
L 43.665691 104.454492 
L 44.789519 108.632387 
L 45.913347 112.092674 
L 47.037174 114.917175 
L 48.161002 117.179431 
L 49.28483 118.945501 
L 50.408657 120.274683 
L 51.532485 121.220173 
L 52.656313 121.829652 
L 53.78014 122.145827 
L 54.903968 122.206915 
L 56.027796 122.047084 
L 57.151623 121.696851 
L 58.65006 120.980312 
L 60.148497 120.029805 
L 62.021543 118.585559 
L 64.269198 116.579075 
L 67.640681 113.229152 
L 79.628176 100.984629 
L 83.374269 97.585717 
L 87.120361 94.493848 
L 90.491844 91.98155 
L 93.863327 89.720486 
L 97.609419 87.488366 
L 101.355511 85.529998 
L 105.101603 83.820738 
L 109.222305 82.197953 
L 113.343006 80.812886 
L 117.838317 79.536789 
L 119.336754 79.234409 
L 122.708236 79.00301 
L 126.828938 78.95656 
L 132.073467 79.135113 
L 140.31487 79.675699 
L 163.166032 81.271166 
L 175.902745 81.884272 
L 190.137896 82.343154 
L 202.5 82.600833 
L 202.5 82.600833 
" clip-path="url(#p8e89473de9)" style="fill: none; stroke: #8b1a1a; stroke-width: 3; stroke-linecap: square"/>
   </g>
   <g id="line2d_7">
    <path d="M 48.857419 -1 
L 50.537255 14.099216 
L 52.410301 28.912475 
L 54.283347 41.864526 
L 56.156393 53.189219 
L 58.029439 63.091024 
L 59.902485 71.748719 
L 61.775531 79.318619 
L 63.648577 85.937402 
L 65.521623 91.724569 
L 67.394669 96.784609 
L 69.267715 101.208881 
L 71.140762 105.077267 
L 73.013808 108.45961 
L 74.886854 111.41698 
L 76.7599 114.002771 
L 78.632946 116.263672 
L 80.880601 118.605003 
L 83.128257 120.597916 
L 85.375912 122.29426 
L 87.623567 123.738167 
L 90.245832 125.153472 
L 92.868096 126.326243 
L 95.86497 127.422551 
L 99.236453 128.404697 
L 102.982545 129.250732 
L 107.103246 129.953156 
L 111.973166 130.555474 
L 117.966914 131.05901 
L 125.459098 131.448852 
L 135.573547 131.731613 
L 150.557916 131.90645 
L 180.152044 131.986285 
L 210.87 131.995955 
L 210.87 131.995955 
" clip-path="url(#p8e89473de9)" style="fill: none; stroke: #1f6f8b; stroke-width: 3; stroke-linecap: square"/>
   </g>
   <g id="patch_2">
    <path d="M 188.55 157.108873 
Q 188.55 146.670886 188.55 136.232898 
" style="fill: none; stroke: #000000; stroke-width: 2; stroke-linecap: round"/>
    <path d="M 190.55 153.108873 
L 188.55 157.108873 
L 186.55 153.108873 
" style="fill: none; stroke: #000000; stroke-width: 2; stroke-linecap: round"/>
    <path d="M 186.55 140.232898 
L 188.55 136.232898 
L 190.55 140.232898 
" style="fill: none; stroke: #000000; stroke-width: 2; stroke-linecap: round"/>
   </g>
   <g id="text_1">
    <!-- $D_e$ -->
    <g transform="translate(165.75 151.513929) scale(0.14 -0.14)">
     <defs>
      <path id="DejaVuSans-Oblique-44" d="M 1081 4666 
L 2438 4666 
Q 3519 4666 4070 4208 
Q 4622 3750 4622 2847 
Q 4622 2250 4412 1698 
Q 4203 1147 3834 769 
Q 3463 381 2891 190 
Q 2319 0 1538 0 
L 172 0 
L 1081 4666 
z
M 1613 4147 
L 909 519 
L 1734 519 
Q 2794 519 3375 1128 
Q 3956 1738 3956 2847 
Q 3956 3519 3581 3833 
Q 3206 4147 2406 4147 
L 1613 4147 
z
" transform="scale(0.015625)"/>
      <path id="DejaVuSans-Oblique-65" d="M 3078 2063 
Q 3088 2113 3092 2166 
Q 3097 2219 3097 2272 
Q 3097 2653 2873 2875 
Q 2650 3097 2266 3097 
Q 1838 3097 1509 2826 
Q 1181 2556 1013 2059 
L 3078 2063 
z
M 3578 1613 
L 903 1613 
Q 884 1494 878 1425 
Q 872 1356 872 1306 
Q 872 872 1139 634 
Q 1406 397 1894 397 
Q 2269 397 2603 481 
Q 2938 566 3225 728 
L 3116 159 
Q 2806 34 2476 -28 
Q 2147 -91 1806 -91 
Q 1078 -91 686 257 
Q 294 606 294 1247 
Q 294 1794 489 2264 
Q 684 2734 1063 3103 
Q 1306 3334 1642 3459 
Q 1978 3584 2356 3584 
Q 2950 3584 3301 3228 
Q 3653 2872 3653 2272 
Q 3653 2128 3634 1964 
Q 3616 1800 3578 1613 
z
" transform="scale(0.015625)"/>
     </defs>
     <use xlink:href="#DejaVuSans-Oblique-44" transform="translate(0 0.09375)"/>
     <use xlink:href="#DejaVuSans-Oblique-65" transform="translate(77.001953 -16.3125) scale(0.7)"/>
    </g>
   </g>
   <g id="text_2">
    <!-- O($^3P$) + O($^3P$) -->
    <g style="fill: #3b2f2f" transform="translate(188.55 130.431793) scale(0.12 -0.12)">
     <defs>
      <path id="DejaVuSerif-4f" d="M 2625 244 
Q 3391 244 3781 770 
Q 4172 1297 4172 2328 
Q 4172 3363 3781 3889 
Q 3391 4416 2625 4416 
Q 1856 4416 1465 3889 
Q 1075 3363 1075 2328 
Q 1075 1297 1465 770 
Q 1856 244 2625 244 
z
M 2625 -91 
Q 2150 -91 1751 65 
Q 1353 222 1050 525 
Q 700 875 529 1319 
Q 359 1763 359 2328 
Q 359 2894 529 3339 
Q 700 3784 1050 4134 
Q 1356 4441 1750 4595 
Q 2144 4750 2625 4750 
Q 3641 4750 4266 4084 
Q 4891 3419 4891 2328 
Q 4891 1769 4719 1320 
Q 4547 872 4197 525 
Q 3891 219 3497 64 
Q 3103 -91 2625 -91 
z
" transform="scale(0.015625)"/>
      <path id="DejaVuSerif-28" d="M 2041 -997 
Q 1281 -656 893 83 
Q 506 822 506 1931 
Q 506 3044 893 3783 
Q 1281 4522 2041 4863 
L 2041 4556 
Q 1559 4225 1350 3623 
Q 1141 3022 1141 1931 
Q 1141 844 1350 242 
Q 1559 -359 2041 -691 
L 2041 -997 
z
" transform="scale(0.015625)"/>
      <path id="DejaVuSans-33" d="M 2597 2516 
Q 3050 2419 3304 2112 
Q 3559 1806 3559 1356 
Q 3559 666 3084 287 
Q 2609 -91 1734 -91 
Q 1441 -91 1130 -33 
Q 819 25 488 141 
L 488 750 
Q 750 597 1062 519 
Q 1375 441 1716 441 
Q 2309 441 2620 675 
Q 2931 909 2931 1356 
Q 2931 1769 2642 2001 
Q 2353 2234 1838 2234 
L 1294 2234 
L 1294 2753 
L 1863 2753 
Q 2328 2753 2575 2939 
Q 2822 3125 2822 3475 
Q 2822 3834 2567 4026 
Q 2313 4219 1838 4219 
Q 1578 4219 1281 4162 
Q 984 4106 628 3988 
L 628 4550 
Q 988 4650 1302 4700 
Q 1616 4750 1894 4750 
Q 2613 4750 3031 4423 
Q 3450 4097 3450 3541 
Q 3450 3153 3228 2886 
Q 3006 2619 2597 2516 
z
" transform="scale(0.015625)"/>
      <path id="DejaVuSans-Oblique-50" d="M 1081 4666 
L 2541 4666 
Q 3178 4666 3512 4369 
Q 3847 4072 3847 3500 
Q 3847 2731 3353 2303 
Q 2859 1875 1966 1875 
L 1172 1875 
L 806 0 
L 172 0 
L 1081 4666 
z
M 1613 4147 
L 1275 2394 
L 2069 2394 
Q 2606 2394 2893 2669 
Q 3181 2944 3181 3456 
Q 3181 3784 2986 3965 
Q 2791 4147 2438 4147 
L 1613 4147 
z
" transform="scale(0.015625)"/>
      <path id="DejaVuSerif-29" d="M 453 -997 
L 453 -691 
Q 934 -359 1145 242 
Q 1356 844 1356 1931 
Q 1356 3022 1145 3623 
Q 934 4225 453 4556 
L 453 4863 
Q 1216 4522 1603 3783 
Q 1991 3044 1991 1931 
Q 1991 822 1603 83 
Q 1216 -656 453 -997 
z
" transform="scale(0.015625)"/>
      <path id="DejaVuSerif-20" transform="scale(0.015625)"/>
      <path id="DejaVuSerif-2b" d="M 2931 4013 
L 2931 2259 
L 4684 2259 
L 4684 1753 
L 2931 1753 
L 2931 0 
L 2431 0 
L 2431 1753 
L 678 1753 
L 678 2259 
L 2431 2259 
L 2431 4013 
L 2931 4013 
z
" transform="scale(0.015625)"/>
     </defs>
     <use xlink:href="#DejaVuSerif-4f" transform="translate(0 0.765625)"/>
     <use xlink:href="#DejaVuSerif-28" transform="translate(81.982422 0.765625)"/>
     <use xlink:href="#DejaVuSans-33" transform="translate(121.953125 39.046875) scale(0.7)"/>
     <use xlink:href="#DejaVuSans-Oblique-50" transform="translate(169.223633 0.765625)"/>
     <use xlink:href="#DejaVuSerif-29" transform="translate(229.526367 0.765625)"/>
     <use xlink:href="#DejaVuSerif-20" transform="translate(268.540039 0.765625)"/>
     <use xlink:href="#DejaVuSerif-2b" transform="translate(300.327148 0.765625)"/>
     <use xlink:href="#DejaVuSerif-20" transform="translate(384.116211 0.765625)"/>
     <use xlink:href="#DejaVuSerif-4f" transform="translate(415.90332 0.765625)"/>
     <use xlink:href="#DejaVuSerif-28" transform="translate(497.885742 0.765625)"/>
     <use xlink:href="#DejaVuSans-33" transform="translate(537.856445 39.046875) scale(0.7)"/>
     <use xlink:href="#DejaVuSans-Oblique-50" transform="translate(585.126953 0.765625)"/>
     <use xlink:href="#DejaVuSerif-29" transform="translate(645.429688 0.765625)"/>
    </g>
   </g>
   <g id="text_3">
    <!-- O($^1D$) + O($^3P$) -->
    <g style="fill: #8b1a1a" transform="translate(187.155 81.514146) scale(0.12 -0.12)">
     <defs>
      <path id="DejaVuSans-31" d="M 794 531 
L 1825 531 
L 1825 4091 
L 703 3866 
L 703 4441 
L 1819 4666 
L 2450 4666 
L 2450 531 
L 3481 531 
L 3481 0 
L 794 0 
L 794 531 
z
" transform="scale(0.015625)"/>
     </defs>
     <use xlink:href="#DejaVuSerif-4f" transform="translate(0 0.765625)"/>
     <use xlink:href="#DejaVuSerif-28" transform="translate(81.982422 0.765625)"/>
     <use xlink:href="#DejaVuSans-31" transform="translate(121.953125 39.046875) scale(0.7)"/>
     <use xlink:href="#DejaVuSans-Oblique-44" transform="translate(169.223633 0.765625)"/>
     <use xlink:href="#DejaVuSerif-29" transform="translate(246.225586 0.765625)"/>
     <use xlink:href="#DejaVuSerif-20" transform="translate(285.239258 0.765625)"/>
     <use xlink:href="#DejaVuSerif-2b" transform="translate(317.026367 0.765625)"/>
     <use xlink:href="#DejaVuSerif-20" transform="translate(400.81543 0.765625)"/>
     <use xlink:href="#DejaVuSerif-4f" transform="translate(432.602539 0.765625)"/>
     <use xlink:href="#DejaVuSerif-28" transform="translate(514.584961 0.765625)"/>
     <use xlink:href="#DejaVuSans-33" transform="translate(554.555664 39.046875) scale(0.7)"/>
     <use xlink:href="#DejaVuSans-Oblique-50" transform="translate(601.826172 0.765625)"/>
     <use xlink:href="#DejaVuSerif-29" transform="translate(662.128906 0.765625)"/>
    </g>
   </g>
   <g id="text_4">
    <!-- O$_2$ (X $^3\Sigma_g^-$) -->
    <g transform="translate(17.745 171.522616) scale(0.12 -0.12)">
     <defs>
      <path id="DejaVuSans-32" d="M 1228 531 
L 3431 531 
L 3431 0 
L 469 0 
L 469 531 
Q 828 903 1448 1529 
Q 2069 2156 2228 2338 
Q 2531 2678 2651 2914 
Q 2772 3150 2772 3378 
Q 2772 3750 2511 3984 
Q 2250 4219 1831 4219 
Q 1534 4219 1204 4116 
Q 875 4013 500 3803 
L 500 4441 
Q 881 4594 1212 4672 
Q 1544 4750 1819 4750 
Q 2544 4750 2975 4387 
Q 3406 4025 3406 3419 
Q 3406 3131 3298 2873 
Q 3191 2616 2906 2266 
Q 2828 2175 2409 1742 
Q 1991 1309 1228 531 
z
" transform="scale(0.015625)"/>
      <path id="DejaVuSerif-58" d="M 2119 1997 
L 978 331 
L 1581 331 
L 1581 0 
L 38 0 
L 38 331 
L 575 331 
L 1919 2291 
L 556 4331 
L 56 4331 
L 56 4666 
L 1906 4666 
L 1906 4331 
L 1356 4331 
L 2356 2828 
L 3384 4331 
L 2784 4331 
L 2784 4666 
L 4313 4666 
L 4313 4331 
L 3788 4331 
L 2553 2534 
L 4025 331 
L 4525 331 
L 4525 0 
L 2675 0 
L 2675 331 
L 3231 331 
L 2119 1997 
z
" transform="scale(0.015625)"/>
      <path id="DejaVuSans-3a3" d="M 1353 531 
L 3634 531 
L 3634 0 
L 628 0 
L 628 531 
L 2125 2481 
L 628 4134 
L 628 4666 
L 3578 4666 
L 3578 4134 
L 1353 4134 
L 2850 2494 
L 1353 531 
z
" transform="scale(0.015625)"/>
      <path id="DejaVuSans-2212" d="M 678 2272 
L 4684 2272 
L 4684 1741 
L 678 1741 
L 678 2272 
z
" transform="scale(0.015625)"/>
      <path id="DejaVuSans-Oblique-67" d="M 3816 3500 
L 3219 434 
Q 3047 -456 2561 -893 
Q 2075 -1331 1253 -1331 
Q 950 -1331 690 -1286 
Q 431 -1241 206 -1147 
L 313 -588 
Q 525 -725 762 -790 
Q 1000 -856 1269 -856 
Q 1816 -856 2167 -557 
Q 2519 -259 2631 300 
L 2681 563 
Q 2441 288 2122 144 
Q 1803 0 1434 0 
Q 903 0 598 351 
Q 294 703 294 1319 
Q 294 1803 478 2267 
Q 663 2731 997 3091 
Q 1219 3328 1514 3456 
Q 1809 3584 2131 3584 
Q 2484 3584 2746 3420 
Q 3009 3256 3138 2956 
L 3238 3500 
L 3816 3500 
z
M 2950 2216 
Q 2950 2641 2750 2872 
Q 2550 3103 2181 3103 
Q 1953 3103 1747 3012 
Q 1541 2922 1394 2759 
Q 1156 2491 1023 2127 
Q 891 1763 891 1375 
Q 891 944 1092 712 
Q 1294 481 1672 481 
Q 2219 481 2584 976 
Q 2950 1472 2950 2216 
z
" transform="scale(0.015625)"/>
     </defs>
     <use xlink:href="#DejaVuSerif-4f" transform="translate(0 0.765625)"/>
     <use xlink:href="#DejaVuSans-32" transform="translate(82.939453 -15.640625) scale(0.7)"/>
     <use xlink:href="#DejaVuSerif-20" transform="translate(130.209961 0.765625)"/>
     <use xlink:href="#DejaVuSerif-28" transform="translate(161.99707 0.765625)"/>
     <use xlink:href="#DejaVuSerif-58" transform="translate(201.010742 0.765625)"/>
     <use xlink:href="#DejaVuSerif-20" transform="translate(272.202148 0.765625)"/>
     <use xlink:href="#DejaVuSans-33" transform="translate(304.946289 39.046875) scale(0.7)"/>
     <use xlink:href="#DejaVuSans-3a3" transform="translate(352.216797 0.765625)"/>
     <use xlink:href="#DejaVuSans-2212" transform="translate(429.995117 39.046875) scale(0.7)"/>
     <use xlink:href="#DejaVuSans-Oblique-67" transform="translate(416.357422 -26.578125) scale(0.7)"/>
     <use xlink:href="#DejaVuSerif-29" transform="translate(505.019531 0.765625)"/>
    </g>
   </g>
   <g id="text_5">
    <!-- B $^3\Sigma_u^+$ (SR) -->
    <g style="fill: #8b1a1a" transform="translate(110.43 74.274334) scale(0.1 -0.1)">
     <defs>
      <path id="DejaVuSerif-42" d="M 1581 331 
L 2516 331 
Q 3078 331 3337 575 
Q 3597 819 3597 1350 
Q 3597 1878 3339 2120 
Q 3081 2363 2516 2363 
L 1581 2363 
L 1581 331 
z
M 1581 2694 
L 2375 2694 
Q 2888 2694 3123 2891 
Q 3359 3088 3359 3513 
Q 3359 3941 3123 4136 
Q 2888 4331 2375 4331 
L 1581 4331 
L 1581 2694 
z
M 353 0 
L 353 331 
L 947 331 
L 947 4331 
L 353 4331 
L 353 4666 
L 2656 4666 
Q 3363 4666 3720 4377 
Q 4078 4088 4078 3513 
Q 4078 3097 3829 2850 
Q 3581 2603 3103 2547 
Q 3697 2472 4005 2167 
Q 4313 1863 4313 1350 
Q 4313 656 3875 328 
Q 3438 0 2509 0 
L 353 0 
z
" transform="scale(0.015625)"/>
      <path id="DejaVuSans-2b" d="M 2944 4013 
L 2944 2272 
L 4684 2272 
L 4684 1741 
L 2944 1741 
L 2944 0 
L 2419 0 
L 2419 1741 
L 678 1741 
L 678 2272 
L 2419 2272 
L 2419 4013 
L 2944 4013 
z
" transform="scale(0.015625)"/>
      <path id="DejaVuSans-Oblique-75" d="M 428 1388 
L 838 3500 
L 1416 3500 
L 1006 1409 
Q 975 1256 961 1147 
Q 947 1038 947 966 
Q 947 700 1109 554 
Q 1272 409 1569 409 
Q 2031 409 2368 721 
Q 2706 1034 2809 1563 
L 3194 3500 
L 3769 3500 
L 3091 0 
L 2516 0 
L 2631 550 
Q 2388 244 2052 76 
Q 1716 -91 1338 -91 
Q 878 -91 622 161 
Q 366 413 366 863 
Q 366 956 381 1097 
Q 397 1238 428 1388 
z
" transform="scale(0.015625)"/>
      <path id="DejaVuSerif-53" d="M 594 225 
L 594 1288 
L 953 1284 
Q 969 753 1261 498 
Q 1553 244 2150 244 
Q 2706 244 2998 464 
Q 3291 684 3291 1106 
Q 3291 1444 3114 1625 
Q 2938 1806 2369 1978 
L 1753 2163 
Q 1084 2366 811 2669 
Q 538 2972 538 3500 
Q 538 4094 959 4422 
Q 1381 4750 2144 4750 
Q 2469 4750 2856 4679 
Q 3244 4609 3681 4475 
L 3681 3481 
L 3328 3481 
Q 3275 3975 2998 4195 
Q 2722 4416 2156 4416 
Q 1663 4416 1405 4214 
Q 1147 4013 1147 3628 
Q 1147 3294 1340 3103 
Q 1534 2913 2163 2725 
L 2741 2553 
Q 3375 2363 3645 2067 
Q 3916 1772 3916 1275 
Q 3916 597 3481 253 
Q 3047 -91 2188 -91 
Q 1803 -91 1404 -12 
Q 1006 66 594 225 
z
" transform="scale(0.015625)"/>
      <path id="DejaVuSerif-52" d="M 3066 2316 
Q 3284 2256 3442 2114 
Q 3600 1972 3725 1716 
L 4403 331 
L 4972 331 
L 4972 0 
L 3872 0 
L 3144 1484 
Q 2934 1916 2759 2042 
Q 2584 2169 2278 2169 
L 1581 2169 
L 1581 331 
L 2241 331 
L 2241 0 
L 353 0 
L 353 331 
L 947 331 
L 947 4331 
L 353 4331 
L 353 4666 
L 2719 4666 
Q 3400 4666 3770 4341 
Q 4141 4016 4141 3419 
Q 4141 2938 3870 2661 
Q 3600 2384 3066 2316 
z
M 1581 2503 
L 2503 2503 
Q 2975 2503 3200 2726 
Q 3425 2950 3425 3419 
Q 3425 3888 3200 4109 
Q 2975 4331 2503 4331 
L 1581 4331 
L 1581 2503 
z
" transform="scale(0.015625)"/>
     </defs>
     <use xlink:href="#DejaVuSerif-42" transform="translate(0 0.765625)"/>
     <use xlink:href="#DejaVuSerif-20" transform="translate(73.486328 0.765625)"/>
     <use xlink:href="#DejaVuSans-33" transform="translate(106.230469 39.046875) scale(0.7)"/>
     <use xlink:href="#DejaVuSans-3a3" transform="translate(153.500977 0.765625)"/>
     <use xlink:href="#DejaVuSans-2b" transform="translate(231.279297 39.046875) scale(0.7)"/>
     <use xlink:href="#DejaVuSans-Oblique-75" transform="translate(217.641602 -26.578125) scale(0.7)"/>
     <use xlink:href="#DejaVuSerif-20" transform="translate(306.303711 0.765625)"/>
     <use xlink:href="#DejaVuSerif-28" transform="translate(338.09082 0.765625)"/>
     <use xlink:href="#DejaVuSerif-53" transform="translate(377.104492 0.765625)"/>
     <use xlink:href="#DejaVuSerif-52" transform="translate(445.610352 0.765625)"/>
     <use xlink:href="#DejaVuSerif-29" transform="translate(520.90332 0.765625)"/>
    </g>
   </g>
   <g id="text_6">
    <!-- Repulsive $\Pi$ state -->
    <g style="fill: #1f6f8b" transform="translate(55.303096 8.519726) rotate(-280) scale(0.1 -0.1)">
     <defs>
      <path id="DejaVuSerif-65" d="M 3469 1600 
L 991 1600 
L 991 1575 
Q 991 903 1244 561 
Q 1497 219 1991 219 
Q 2369 219 2611 417 
Q 2853 616 2950 1006 
L 3413 1006 
Q 3275 459 2904 184 
Q 2534 -91 1931 -91 
Q 1203 -91 761 389 
Q 319 869 319 1663 
Q 319 2450 753 2931 
Q 1188 3413 1894 3413 
Q 2647 3413 3050 2948 
Q 3453 2484 3469 1600 
z
M 2791 1931 
Q 2772 2513 2545 2808 
Q 2319 3103 1894 3103 
Q 1497 3103 1269 2806 
Q 1041 2509 991 1931 
L 2791 1931 
z
" transform="scale(0.015625)"/>
      <path id="DejaVuSerif-70" d="M 1313 1825 
L 1313 1497 
Q 1313 897 1542 583 
Q 1772 269 2209 269 
Q 2650 269 2876 622 
Q 3103 975 3103 1663 
Q 3103 2353 2876 2703 
Q 2650 3053 2209 3053 
Q 1772 3053 1542 2737 
Q 1313 2422 1313 1825 
z
M 738 2988 
L 184 2988 
L 184 3322 
L 1313 3322 
L 1313 2803 
Q 1481 3116 1742 3264 
Q 2003 3413 2388 3413 
Q 3000 3413 3387 2928 
Q 3775 2444 3775 1663 
Q 3775 881 3387 395 
Q 3000 -91 2388 -91 
Q 2003 -91 1742 57 
Q 1481 206 1313 519 
L 1313 -997 
L 1856 -997 
L 1856 -1331 
L 184 -1331 
L 184 -997 
L 738 -997 
L 738 2988 
z
" transform="scale(0.015625)"/>
      <path id="DejaVuSerif-75" d="M 2266 3322 
L 3341 3322 
L 3341 331 
L 3884 331 
L 3884 0 
L 2766 0 
L 2766 588 
Q 2606 256 2353 82 
Q 2100 -91 1766 -91 
Q 1213 -91 952 223 
Q 691 538 691 1209 
L 691 2988 
L 172 2988 
L 172 3322 
L 1269 3322 
L 1269 1388 
Q 1269 781 1417 556 
Q 1566 331 1947 331 
Q 2347 331 2556 625 
Q 2766 919 2766 1478 
L 2766 2988 
L 2266 2988 
L 2266 3322 
z
" transform="scale(0.015625)"/>
      <path id="DejaVuSerif-6c" d="M 1313 331 
L 1856 331 
L 1856 0 
L 184 0 
L 184 331 
L 738 331 
L 738 4531 
L 184 4531 
L 184 4863 
L 1313 4863 
L 1313 331 
z
" transform="scale(0.015625)"/>
      <path id="DejaVuSerif-73" d="M 359 184 
L 359 959 
L 691 959 
Q 703 588 923 403 
Q 1144 219 1575 219 
Q 1963 219 2166 364 
Q 2369 509 2369 788 
Q 2369 1006 2220 1140 
Q 2072 1275 1594 1428 
L 1178 1569 
Q 750 1706 558 1912 
Q 366 2119 366 2438 
Q 366 2894 700 3153 
Q 1034 3413 1625 3413 
Q 1888 3413 2178 3344 
Q 2469 3275 2778 3144 
L 2778 2419 
L 2447 2419 
Q 2434 2741 2221 2922 
Q 2009 3103 1644 3103 
Q 1281 3103 1095 2975 
Q 909 2847 909 2591 
Q 909 2381 1050 2254 
Q 1191 2128 1613 1997 
L 2069 1856 
Q 2541 1709 2748 1489 
Q 2956 1269 2956 922 
Q 2956 450 2595 179 
Q 2234 -91 1600 -91 
Q 1278 -91 972 -22 
Q 666 47 359 184 
z
" transform="scale(0.015625)"/>
      <path id="DejaVuSerif-69" d="M 622 4353 
Q 622 4497 726 4603 
Q 831 4709 978 4709 
Q 1122 4709 1226 4603 
Q 1331 4497 1331 4353 
Q 1331 4206 1228 4103 
Q 1125 4000 978 4000 
Q 831 4000 726 4103 
Q 622 4206 622 4353 
z
M 1356 331 
L 1900 331 
L 1900 0 
L 231 0 
L 231 331 
L 781 331 
L 781 2988 
L 231 2988 
L 231 3322 
L 1356 3322 
L 1356 331 
z
" transform="scale(0.015625)"/>
      <path id="DejaVuSerif-76" d="M 1581 0 
L 359 2988 
L -19 2988 
L -19 3322 
L 1509 3322 
L 1509 2988 
L 978 2988 
L 1913 703 
L 2847 2988 
L 2350 2988 
L 2350 3322 
L 3597 3322 
L 3597 2988 
L 3225 2988 
L 2003 0 
L 1581 0 
z
" transform="scale(0.015625)"/>
      <path id="DejaVuSans-3a0" d="M 4184 4666 
L 4184 0 
L 3553 0 
L 3553 4134 
L 1259 4134 
L 1259 0 
L 628 0 
L 628 4666 
L 4184 4666 
z
" transform="scale(0.015625)"/>
      <path id="DejaVuSerif-74" d="M 691 2988 
L 184 2988 
L 184 3322 
L 691 3322 
L 691 4353 
L 1269 4353 
L 1269 3322 
L 2350 3322 
L 2350 2988 
L 1269 2988 
L 1269 878 
Q 1269 456 1350 337 
Q 1431 219 1650 219 
Q 1875 219 1978 351 
Q 2081 484 2088 781 
L 2522 781 
Q 2497 328 2275 118 
Q 2053 -91 1600 -91 
Q 1103 -91 897 129 
Q 691 350 691 878 
L 691 2988 
z
" transform="scale(0.015625)"/>
      <path id="DejaVuSerif-61" d="M 2547 1044 
L 2547 1747 
L 1806 1747 
Q 1378 1747 1168 1562 
Q 959 1378 959 997 
Q 959 650 1171 447 
Q 1384 244 1747 244 
Q 2106 244 2326 466 
Q 2547 688 2547 1044 
z
M 3122 2075 
L 3122 331 
L 3634 331 
L 3634 0 
L 2547 0 
L 2547 359 
Q 2356 128 2106 18 
Q 1856 -91 1522 -91 
Q 969 -91 644 203 
Q 319 497 319 997 
Q 319 1513 691 1797 
Q 1063 2081 1741 2081 
L 2547 2081 
L 2547 2309 
Q 2547 2688 2317 2895 
Q 2088 3103 1672 3103 
Q 1328 3103 1125 2947 
Q 922 2791 872 2484 
L 575 2484 
L 575 3156 
Q 875 3284 1158 3348 
Q 1441 3413 1709 3413 
Q 2400 3413 2761 3070 
Q 3122 2728 3122 2075 
z
" transform="scale(0.015625)"/>
     </defs>
     <use xlink:href="#DejaVuSerif-52" transform="translate(0 0.015625)"/>
     <use xlink:href="#DejaVuSerif-65" transform="translate(75.292969 0.015625)"/>
     <use xlink:href="#DejaVuSerif-70" transform="translate(134.472656 0.015625)"/>
     <use xlink:href="#DejaVuSerif-75" transform="translate(198.486328 0.015625)"/>
     <use xlink:href="#DejaVuSerif-6c" transform="translate(262.890625 0.015625)"/>
     <use xlink:href="#DejaVuSerif-73" transform="translate(294.873047 0.015625)"/>
     <use xlink:href="#DejaVuSerif-69" transform="translate(346.191406 0.015625)"/>
     <use xlink:href="#DejaVuSerif-76" transform="translate(378.173828 0.015625)"/>
     <use xlink:href="#DejaVuSerif-65" transform="translate(434.667969 0.015625)"/>
     <use xlink:href="#DejaVuSerif-20" transform="translate(493.847656 0.015625)"/>
     <use xlink:href="#DejaVuSans-3a0" transform="translate(525.634766 0.015625)"/>
     <use xlink:href="#DejaVuSerif-20" transform="translate(600.830078 0.015625)"/>
     <use xlink:href="#DejaVuSerif-73" transform="translate(632.617188 0.015625)"/>
     <use xlink:href="#DejaVuSerif-74" transform="translate(683.935547 0.015625)"/>
     <use xlink:href="#DejaVuSerif-61" transform="translate(724.121094 0.015625)"/>
     <use xlink:href="#DejaVuSerif-74" transform="translate(783.740234 0.015625)"/>
     <use xlink:href="#DejaVuSerif-65" transform="translate(823.925781 0.015625)"/>
    </g>
   </g>
   <g id="patch_3">
    <path d="M 48.05 161.347746 
Q 48.05 136.997004 48.05 112.646263 
L 45.05 112.646263 
Q 47.05 107.646416 49.05 102.646569 
Q 51.05 107.646416 53.05 112.646263 
L 50.05 112.646263 
Q 50.05 136.997004 50.05 161.347746 
L 48.05 161.347746 
z
" style="fill: #c0392b; stroke: #c0392b; stroke-linecap: round"/>
   </g>
   <g id="patch_4">
    <path d="M 73.369237 100.803041 
Q 103.92188 102.954801 116.958108 128.348814 
" clip-path="url(#p8e89473de9)" style="fill: none; stroke: #c0392b; stroke-width: 2.5; stroke-linecap: round"/>
    <path d="M 118.642283 118.491657 
L 116.958108 128.348814 
L 107.966806 123.972002 
z
" clip-path="url(#p8e89473de9)" style="fill: #c0392b; stroke: #c0392b; stroke-width: 2.5; stroke-linecap: round"/>
   </g>
  </g>
 </g>
 <defs>
  <clipPath id="p8e89473de9">
   <rect x="7.2" y="14.594804" width="223.2" height="166.32"/>
  </clipPath>
 </defs>
</svg>
