<?xml version="1.0" encoding="utf-8" standalone="no"?>
<!DOCTYPE svg PUBLIC "-//W3C//DTD SVG 1.1//EN"
  "http://www.w3.org/Graphics/SVG/1.1/DTD/svg11.dtd">
<svg xmlns:xlink="http://www.w3.org/1999/xlink" width="561.562pt" height="708.2425pt" viewBox="0 0 561.562 708.2425" xmlns="http://www.w3.org/2000/svg" version="1.1">
 <metadata>
  <rdf:RDF xmlns:dc="http://purl.org/dc/elements/1.1/" xmlns:cc="http://creativecommons.org/ns#" xmlns:rdf="http://www.w3.org/1999/02/22-rdf-syntax-ns#">
   <cc:Work>
    <dc:type rdf:resource="http://purl.org/dc/dcmitype/StillImage"/>
    <dc:date>2026-03-21T13:54:13.240211</dc:date>
    <dc:format>image/svg+xml</dc:format>
    <dc:creator>
     <cc:Agent>
      <dc:title>Matplotlib v3.7.1, https://matplotlib.org/</dc:title>
     </cc:Agent>
    </dc:creator>
   </cc:Work>
  </rdf:RDF>
 </metadata>
 <defs>
  <style type="text/css">*{stroke-linejoin: round; stroke-linecap: butt}</style>
 </defs>
 <g id="figure_1">
  <g id="patch_1">
   <path d="M 0 708.2425 
L 561.562 708.2425 
L 561.562 0 
L 0 0 
z
" style="fill: #ffffff"/>
  </g>
  <g id="axes_1">
   <g id="patch_2">
    <path d="M 76.33 313.566562 
L 554.362 313.566562 
L 554.362 11.759062 
L 76.33 11.759062 
z
" style="fill: #ffffff"/>
   </g>
   <g id="patch_3">
    <path d="M 122.823931 313.566562 
L 122.823931 11.759062 
L 139.826956 11.759062 
L 139.826956 313.566562 
z
" clip-path="url(#pfef0c1b05c)" style="fill: #4682b4; opacity: 0.15; stroke: #4682b4; stroke-linejoin: miter"/>
   </g>
   <g id="matplotlib.axis_1">
    <g id="xtick_1">
     <g id="line2d_1">
      <defs>
       <path id="m834ba6dbf9" d="M 0 0 
L 0 -6 
" style="stroke: #000000; stroke-width: 0.8"/>
      </defs>
      <g>
       <use xlink:href="#m834ba6dbf9" x="94.034889" y="313.566562" style="stroke: #000000; stroke-width: 0.8"/>
      </g>
     </g>
     <g id="line2d_2">
      <defs>
       <path id="m2a7e8667c0" d="M 0 0 
L 0 6 
" style="stroke: #000000; stroke-width: 0.8"/>
      </defs>
      <g>
       <use xlink:href="#m2a7e8667c0" x="94.034889" y="11.759062" style="stroke: #000000; stroke-width: 0.8"/>
      </g>
     </g>
     <g id="text_1">
      <!-- 1.0 -->
      <g transform="translate(84.493014 326.184687) scale(0.12 -0.12)">
       <defs>
        <path id="DejaVuSerif-31" d="M 909 0 
L 909 331 
L 1722 331 
L 1722 4213 
L 781 3603 
L 781 4013 
L 1919 4750 
L 2350 4750 
L 2350 331 
L 3163 331 
L 3163 0 
L 909 0 
z
" transform="scale(0.015625)"/>
        <path id="DejaVuSerif-2e" d="M 603 325 
Q 603 500 722 622 
Q 841 744 1019 744 
Q 1191 744 1312 622 
Q 1434 500 1434 325 
Q 1434 153 1312 31 
Q 1191 -91 1019 -91 
Q 841 -91 722 29 
Q 603 150 603 325 
z
" transform="scale(0.015625)"/>
        <path id="DejaVuSerif-30" d="M 2034 219 
Q 2513 219 2750 744 
Q 2988 1269 2988 2328 
Q 2988 3391 2750 3916 
Q 2513 4441 2034 4441 
Q 1556 4441 1318 3916 
Q 1081 3391 1081 2328 
Q 1081 1269 1318 744 
Q 1556 219 2034 219 
z
M 2034 -91 
Q 1275 -91 848 546 
Q 422 1184 422 2328 
Q 422 3475 848 4112 
Q 1275 4750 2034 4750 
Q 2797 4750 3222 4112 
Q 3647 3475 3647 2328 
Q 3647 1184 3222 546 
Q 2797 -91 2034 -91 
z
" transform="scale(0.015625)"/>
       </defs>
       <use xlink:href="#DejaVuSerif-31"/>
       <use xlink:href="#DejaVuSerif-2e" x="63.623047"/>
       <use xlink:href="#DejaVuSerif-30" x="95.410156"/>
      </g>
     </g>
    </g>
    <g id="xtick_2">
     <g id="line2d_3">
      <g>
       <use xlink:href="#m834ba6dbf9" x="182.559333" y="313.566562" style="stroke: #000000; stroke-width: 0.8"/>
      </g>
     </g>
     <g id="line2d_4">
      <g>
       <use xlink:href="#m2a7e8667c0" x="182.559333" y="11.759062" style="stroke: #000000; stroke-width: 0.8"/>
      </g>
     </g>
     <g id="text_2">
      <!-- 1.5 -->
      <g transform="translate(173.017458 326.184687) scale(0.12 -0.12)">
       <defs>
        <path id="DejaVuSerif-35" d="M 3219 4666 
L 3219 4153 
L 1081 4153 
L 1081 2816 
Q 1244 2928 1461 2984 
Q 1678 3041 1947 3041 
Q 2703 3041 3140 2622 
Q 3578 2203 3578 1478 
Q 3578 738 3136 323 
Q 2694 -91 1894 -91 
Q 1572 -91 1234 -12 
Q 897 66 544 225 
L 544 1131 
L 897 1131 
Q 925 688 1179 453 
Q 1434 219 1894 219 
Q 2388 219 2653 544 
Q 2919 869 2919 1478 
Q 2919 2084 2655 2407 
Q 2391 2731 1894 2731 
Q 1613 2731 1398 2631 
Q 1184 2531 1019 2322 
L 750 2322 
L 750 4666 
L 3219 4666 
z
" transform="scale(0.015625)"/>
       </defs>
       <use xlink:href="#DejaVuSerif-31"/>
       <use xlink:href="#DejaVuSerif-2e" x="63.623047"/>
       <use xlink:href="#DejaVuSerif-35" x="95.410156"/>
      </g>
     </g>
    </g>
    <g id="xtick_3">
     <g id="line2d_5">
      <g>
       <use xlink:href="#m834ba6dbf9" x="271.083778" y="313.566562" style="stroke: #000000; stroke-width: 0.8"/>
      </g>
     </g>
     <g id="line2d_6">
      <g>
       <use xlink:href="#m2a7e8667c0" x="271.083778" y="11.759062" style="stroke: #000000; stroke-width: 0.8"/>
      </g>
     </g>
     <g id="text_3">
      <!-- 2.0 -->
      <g transform="translate(261.541903 326.184687) scale(0.12 -0.12)">
       <defs>
        <path id="DejaVuSerif-32" d="M 819 3553 
L 469 3553 
L 469 4384 
Q 803 4563 1142 4656 
Q 1481 4750 1806 4750 
Q 2534 4750 2956 4397 
Q 3378 4044 3378 3438 
Q 3378 2753 2422 1800 
Q 2347 1728 2309 1691 
L 1131 513 
L 3078 513 
L 3078 1088 
L 3444 1088 
L 3444 0 
L 434 0 
L 434 341 
L 1850 1753 
Q 2319 2222 2519 2614 
Q 2719 3006 2719 3438 
Q 2719 3909 2473 4175 
Q 2228 4441 1797 4441 
Q 1350 4441 1106 4219 
Q 863 3997 819 3553 
z
" transform="scale(0.015625)"/>
       </defs>
       <use xlink:href="#DejaVuSerif-32"/>
       <use xlink:href="#DejaVuSerif-2e" x="63.623047"/>
       <use xlink:href="#DejaVuSerif-30" x="95.410156"/>
      </g>
     </g>
    </g>
    <g id="xtick_4">
     <g id="line2d_7">
      <g>
       <use xlink:href="#m834ba6dbf9" x="359.608222" y="313.566562" style="stroke: #000000; stroke-width: 0.8"/>
      </g>
     </g>
     <g id="line2d_8">
      <g>
       <use xlink:href="#m2a7e8667c0" x="359.608222" y="11.759062" style="stroke: #000000; stroke-width: 0.8"/>
      </g>
     </g>
     <g id="text_4">
      <!-- 2.5 -->
      <g transform="translate(350.066347 326.184687) scale(0.12 -0.12)">
       <use xlink:href="#DejaVuSerif-32"/>
       <use xlink:href="#DejaVuSerif-2e" x="63.623047"/>
       <use xlink:href="#DejaVuSerif-35" x="95.410156"/>
      </g>
     </g>
    </g>
    <g id="xtick_5">
     <g id="line2d_9">
      <g>
       <use xlink:href="#m834ba6dbf9" x="448.132667" y="313.566562" style="stroke: #000000; stroke-width: 0.8"/>
      </g>
     </g>
     <g id="line2d_10">
      <g>
       <use xlink:href="#m2a7e8667c0" x="448.132667" y="11.759062" style="stroke: #000000; stroke-width: 0.8"/>
      </g>
     </g>
     <g id="text_5">
      <!-- 3.0 -->
      <g transform="translate(438.590792 326.184687) scale(0.12 -0.12)">
       <defs>
        <path id="DejaVuSerif-33" d="M 622 4469 
Q 988 4606 1323 4678 
Q 1659 4750 1953 4750 
Q 2638 4750 3022 4454 
Q 3406 4159 3406 3634 
Q 3406 3213 3140 2930 
Q 2875 2647 2388 2547 
Q 2963 2466 3280 2130 
Q 3597 1794 3597 1259 
Q 3597 606 3158 257 
Q 2719 -91 1894 -91 
Q 1528 -91 1179 -12 
Q 831 66 488 225 
L 488 1131 
L 838 1131 
Q 869 681 1141 450 
Q 1413 219 1906 219 
Q 2384 219 2661 495 
Q 2938 772 2938 1253 
Q 2938 1803 2653 2086 
Q 2369 2369 1819 2369 
L 1522 2369 
L 1522 2688 
L 1678 2688 
Q 2225 2688 2498 2914 
Q 2772 3141 2772 3597 
Q 2772 4006 2547 4223 
Q 2322 4441 1900 4441 
Q 1478 4441 1245 4241 
Q 1013 4041 972 3647 
L 622 3647 
L 622 4469 
z
" transform="scale(0.015625)"/>
       </defs>
       <use xlink:href="#DejaVuSerif-33"/>
       <use xlink:href="#DejaVuSerif-2e" x="63.623047"/>
       <use xlink:href="#DejaVuSerif-30" x="95.410156"/>
      </g>
     </g>
    </g>
    <g id="xtick_6">
     <g id="line2d_11">
      <g>
       <use xlink:href="#m834ba6dbf9" x="536.657111" y="313.566562" style="stroke: #000000; stroke-width: 0.8"/>
      </g>
     </g>
     <g id="line2d_12">
      <g>
       <use xlink:href="#m2a7e8667c0" x="536.657111" y="11.759062" style="stroke: #000000; stroke-width: 0.8"/>
      </g>
     </g>
     <g id="text_6">
      <!-- 3.5 -->
      <g transform="translate(527.115236 326.184687) scale(0.12 -0.12)">
       <use xlink:href="#DejaVuSerif-33"/>
       <use xlink:href="#DejaVuSerif-2e" x="63.623047"/>
       <use xlink:href="#DejaVuSerif-35" x="95.410156"/>
      </g>
     </g>
    </g>
    <g id="xtick_7">
     <g id="line2d_13">
      <defs>
       <path id="md8e4c157e9" d="M 0 0 
L 0 -4 
" style="stroke: #000000; stroke-width: 0.6"/>
      </defs>
      <g>
       <use xlink:href="#md8e4c157e9" x="111.739778" y="313.566562" style="stroke: #000000; stroke-width: 0.6"/>
      </g>
     </g>
     <g id="line2d_14">
      <defs>
       <path id="m8a4f7d67d3" d="M 0 0 
L 0 4 
" style="stroke: #000000; stroke-width: 0.6"/>
      </defs>
      <g>
       <use xlink:href="#m8a4f7d67d3" x="111.739778" y="11.759062" style="stroke: #000000; stroke-width: 0.6"/>
      </g>
     </g>
    </g>
    <g id="xtick_8">
     <g id="line2d_15">
      <g>
       <use xlink:href="#md8e4c157e9" x="129.444667" y="313.566562" style="stroke: #000000; stroke-width: 0.6"/>
      </g>
     </g>
     <g id="line2d_16">
      <g>
       <use xlink:href="#m8a4f7d67d3" x="129.444667" y="11.759062" style="stroke: #000000; stroke-width: 0.6"/>
      </g>
     </g>
    </g>
    <g id="xtick_9">
     <g id="line2d_17">
      <g>
       <use xlink:href="#md8e4c157e9" x="147.149556" y="313.566562" style="stroke: #000000; stroke-width: 0.6"/>
      </g>
     </g>
     <g id="line2d_18">
      <g>
       <use xlink:href="#m8a4f7d67d3" x="147.149556" y="11.759062" style="stroke: #000000; stroke-width: 0.6"/>
      </g>
     </g>
    </g>
    <g id="xtick_10">
     <g id="line2d_19">
      <g>
       <use xlink:href="#md8e4c157e9" x="164.854444" y="313.566562" style="stroke: #000000; stroke-width: 0.6"/>
      </g>
     </g>
     <g id="line2d_20">
      <g>
       <use xlink:href="#m8a4f7d67d3" x="164.854444" y="11.759062" style="stroke: #000000; stroke-width: 0.6"/>
      </g>
     </g>
    </g>
    <g id="xtick_11">
     <g id="line2d_21">
      <g>
       <use xlink:href="#md8e4c157e9" x="200.264222" y="313.566562" style="stroke: #000000; stroke-width: 0.6"/>
      </g>
     </g>
     <g id="line2d_22">
      <g>
       <use xlink:href="#m8a4f7d67d3" x="200.264222" y="11.759062" style="stroke: #000000; stroke-width: 0.6"/>
      </g>
     </g>
    </g>
    <g id="xtick_12">
     <g id="line2d_23">
      <g>
       <use xlink:href="#md8e4c157e9" x="217.969111" y="313.566562" style="stroke: #000000; stroke-width: 0.6"/>
      </g>
     </g>
     <g id="line2d_24">
      <g>
       <use xlink:href="#m8a4f7d67d3" x="217.969111" y="11.759062" style="stroke: #000000; stroke-width: 0.6"/>
      </g>
     </g>
    </g>
    <g id="xtick_13">
     <g id="line2d_25">
      <g>
       <use xlink:href="#md8e4c157e9" x="235.674" y="313.566562" style="stroke: #000000; stroke-width: 0.6"/>
      </g>
     </g>
     <g id="line2d_26">
      <g>
       <use xlink:href="#m8a4f7d67d3" x="235.674" y="11.759062" style="stroke: #000000; stroke-width: 0.6"/>
      </g>
     </g>
    </g>
    <g id="xtick_14">
     <g id="line2d_27">
      <g>
       <use xlink:href="#md8e4c157e9" x="253.378889" y="313.566562" style="stroke: #000000; stroke-width: 0.6"/>
      </g>
     </g>
     <g id="line2d_28">
      <g>
       <use xlink:href="#m8a4f7d67d3" x="253.378889" y="11.759062" style="stroke: #000000; stroke-width: 0.6"/>
      </g>
     </g>
    </g>
    <g id="xtick_15">
     <g id="line2d_29">
      <g>
       <use xlink:href="#md8e4c157e9" x="288.788667" y="313.566562" style="stroke: #000000; stroke-width: 0.6"/>
      </g>
     </g>
     <g id="line2d_30">
      <g>
       <use xlink:href="#m8a4f7d67d3" x="288.788667" y="11.759062" style="stroke: #000000; stroke-width: 0.6"/>
      </g>
     </g>
    </g>
    <g id="xtick_16">
     <g id="line2d_31">
      <g>
       <use xlink:href="#md8e4c157e9" x="306.493556" y="313.566562" style="stroke: #000000; stroke-width: 0.6"/>
      </g>
     </g>
     <g id="line2d_32">
      <g>
       <use xlink:href="#m8a4f7d67d3" x="306.493556" y="11.759062" style="stroke: #000000; stroke-width: 0.6"/>
      </g>
     </g>
    </g>
    <g id="xtick_17">
     <g id="line2d_33">
      <g>
       <use xlink:href="#md8e4c157e9" x="324.198444" y="313.566562" style="stroke: #000000; stroke-width: 0.6"/>
      </g>
     </g>
     <g id="line2d_34">
      <g>
       <use xlink:href="#m8a4f7d67d3" x="324.198444" y="11.759062" style="stroke: #000000; stroke-width: 0.6"/>
      </g>
     </g>
    </g>
    <g id="xtick_18">
     <g id="line2d_35">
      <g>
       <use xlink:href="#md8e4c157e9" x="341.903333" y="313.566562" style="stroke: #000000; stroke-width: 0.6"/>
      </g>
     </g>
     <g id="line2d_36">
      <g>
       <use xlink:href="#m8a4f7d67d3" x="341.903333" y="11.759062" style="stroke: #000000; stroke-width: 0.6"/>
      </g>
     </g>
    </g>
    <g id="xtick_19">
     <g id="line2d_37">
      <g>
       <use xlink:href="#md8e4c157e9" x="377.313111" y="313.566562" style="stroke: #000000; stroke-width: 0.6"/>
      </g>
     </g>
     <g id="line2d_38">
      <g>
       <use xlink:href="#m8a4f7d67d3" x="377.313111" y="11.759062" style="stroke: #000000; stroke-width: 0.6"/>
      </g>
     </g>
    </g>
    <g id="xtick_20">
     <g id="line2d_39">
      <g>
       <use xlink:href="#md8e4c157e9" x="395.018" y="313.566562" style="stroke: #000000; stroke-width: 0.6"/>
      </g>
     </g>
     <g id="line2d_40">
      <g>
       <use xlink:href="#m8a4f7d67d3" x="395.018" y="11.759062" style="stroke: #000000; stroke-width: 0.6"/>
      </g>
     </g>
    </g>
    <g id="xtick_21">
     <g id="line2d_41">
      <g>
       <use xlink:href="#md8e4c157e9" x="412.722889" y="313.566562" style="stroke: #000000; stroke-width: 0.6"/>
      </g>
     </g>
     <g id="line2d_42">
      <g>
       <use xlink:href="#m8a4f7d67d3" x="412.722889" y="11.759062" style="stroke: #000000; stroke-width: 0.6"/>
      </g>
     </g>
    </g>
    <g id="xtick_22">
     <g id="line2d_43">
      <g>
       <use xlink:href="#md8e4c157e9" x="430.427778" y="313.566562" style="stroke: #000000; stroke-width: 0.6"/>
      </g>
     </g>
     <g id="line2d_44">
      <g>
       <use xlink:href="#m8a4f7d67d3" x="430.427778" y="11.759062" style="stroke: #000000; stroke-width: 0.6"/>
      </g>
     </g>
    </g>
    <g id="xtick_23">
     <g id="line2d_45">
      <g>
       <use xlink:href="#md8e4c157e9" x="465.837556" y="313.566562" style="stroke: #000000; stroke-width: 0.6"/>
      </g>
     </g>
     <g id="line2d_46">
      <g>
       <use xlink:href="#m8a4f7d67d3" x="465.837556" y="11.759062" style="stroke: #000000; stroke-width: 0.6"/>
      </g>
     </g>
    </g>
    <g id="xtick_24">
     <g id="line2d_47">
      <g>
       <use xlink:href="#md8e4c157e9" x="483.542444" y="313.566562" style="stroke: #000000; stroke-width: 0.6"/>
      </g>
     </g>
     <g id="line2d_48">
      <g>
       <use xlink:href="#m8a4f7d67d3" x="483.542444" y="11.759062" style="stroke: #000000; stroke-width: 0.6"/>
      </g>
     </g>
    </g>
    <g id="xtick_25">
     <g id="line2d_49">
      <g>
       <use xlink:href="#md8e4c157e9" x="501.247333" y="313.566562" style="stroke: #000000; stroke-width: 0.6"/>
      </g>
     </g>
     <g id="line2d_50">
      <g>
       <use xlink:href="#m8a4f7d67d3" x="501.247333" y="11.759062" style="stroke: #000000; stroke-width: 0.6"/>
      </g>
     </g>
    </g>
    <g id="xtick_26">
     <g id="line2d_51">
      <g>
       <use xlink:href="#md8e4c157e9" x="518.952222" y="313.566562" style="stroke: #000000; stroke-width: 0.6"/>
      </g>
     </g>
     <g id="line2d_52">
      <g>
       <use xlink:href="#m8a4f7d67d3" x="518.952222" y="11.759062" style="stroke: #000000; stroke-width: 0.6"/>
      </g>
     </g>
    </g>
    <g id="text_7">
     <!-- Internuclear Distance [Å] -->
     <g transform="translate(224.963969 344.610937) scale(0.14 -0.14)">
      <defs>
       <path id="DejaVuSerif-49" d="M 1581 331 
L 2175 331 
L 2175 0 
L 353 0 
L 353 331 
L 947 331 
L 947 4331 
L 353 4331 
L 353 4666 
L 2175 4666 
L 2175 4331 
L 1581 4331 
L 1581 331 
z
" transform="scale(0.015625)"/>
       <path id="DejaVuSerif-6e" d="M 263 0 
L 263 331 
L 781 331 
L 781 2988 
L 231 2988 
L 231 3322 
L 1356 3322 
L 1356 2731 
Q 1516 3069 1770 3241 
Q 2025 3413 2363 3413 
Q 2913 3413 3172 3097 
Q 3431 2781 3431 2113 
L 3431 331 
L 3944 331 
L 3944 0 
L 2356 0 
L 2356 331 
L 2853 331 
L 2853 1931 
Q 2853 2541 2703 2767 
Q 2553 2994 2175 2994 
Q 1775 2994 1565 2701 
Q 1356 2409 1356 1850 
L 1356 331 
L 1856 331 
L 1856 0 
L 263 0 
z
" transform="scale(0.015625)"/>
       <path id="DejaVuSerif-74" d="M 691 2988 
L 184 2988 
L 184 3322 
L 691 3322 
L 691 4353 
L 1269 4353 
L 1269 3322 
L 2350 3322 
L 2350 2988 
L 1269 2988 
L 1269 878 
Q 1269 456 1350 337 
Q 1431 219 1650 219 
Q 1875 219 1978 351 
Q 2081 484 2088 781 
L 2522 781 
Q 2497 328 2275 118 
Q 2053 -91 1600 -91 
Q 1103 -91 897 129 
Q 691 350 691 878 
L 691 2988 
z
" transform="scale(0.015625)"/>
       <path id="DejaVuSerif-65" d="M 3469 1600 
L 991 1600 
L 991 1575 
Q 991 903 1244 561 
Q 1497 219 1991 219 
Q 2369 219 2611 417 
Q 2853 616 2950 1006 
L 3413 1006 
Q 3275 459 2904 184 
Q 2534 -91 1931 -91 
Q 1203 -91 761 389 
Q 319 869 319 1663 
Q 319 2450 753 2931 
Q 1188 3413 1894 3413 
Q 2647 3413 3050 2948 
Q 3453 2484 3469 1600 
z
M 2791 1931 
Q 2772 2513 2545 2808 
Q 2319 3103 1894 3103 
Q 1497 3103 1269 2806 
Q 1041 2509 991 1931 
L 2791 1931 
z
" transform="scale(0.015625)"/>
       <path id="DejaVuSerif-72" d="M 3059 3328 
L 3059 2497 
L 2728 2497 
Q 2713 2744 2591 2866 
Q 2469 2988 2234 2988 
Q 1809 2988 1582 2694 
Q 1356 2400 1356 1850 
L 1356 331 
L 2022 331 
L 2022 0 
L 263 0 
L 263 331 
L 781 331 
L 781 2994 
L 231 2994 
L 231 3322 
L 1356 3322 
L 1356 2731 
Q 1525 3078 1790 3245 
Q 2056 3413 2438 3413 
Q 2578 3413 2733 3391 
Q 2888 3369 3059 3328 
z
" transform="scale(0.015625)"/>
       <path id="DejaVuSerif-75" d="M 2266 3322 
L 3341 3322 
L 3341 331 
L 3884 331 
L 3884 0 
L 2766 0 
L 2766 588 
Q 2606 256 2353 82 
Q 2100 -91 1766 -91 
Q 1213 -91 952 223 
Q 691 538 691 1209 
L 691 2988 
L 172 2988 
L 172 3322 
L 1269 3322 
L 1269 1388 
Q 1269 781 1417 556 
Q 1566 331 1947 331 
Q 2347 331 2556 625 
Q 2766 919 2766 1478 
L 2766 2988 
L 2266 2988 
L 2266 3322 
z
" transform="scale(0.015625)"/>
       <path id="DejaVuSerif-63" d="M 3291 997 
Q 3169 466 2822 187 
Q 2475 -91 1925 -91 
Q 1200 -91 759 389 
Q 319 869 319 1663 
Q 319 2459 759 2936 
Q 1200 3413 1925 3413 
Q 2241 3413 2553 3339 
Q 2866 3266 3181 3116 
L 3181 2266 
L 2847 2266 
Q 2781 2703 2561 2903 
Q 2341 3103 1931 3103 
Q 1466 3103 1228 2742 
Q 991 2381 991 1663 
Q 991 944 1227 581 
Q 1463 219 1931 219 
Q 2303 219 2525 412 
Q 2747 606 2828 997 
L 3291 997 
z
" transform="scale(0.015625)"/>
       <path id="DejaVuSerif-6c" d="M 1313 331 
L 1856 331 
L 1856 0 
L 184 0 
L 184 331 
L 738 331 
L 738 4531 
L 184 4531 
L 184 4863 
L 1313 4863 
L 1313 331 
z
" transform="scale(0.015625)"/>
       <path id="DejaVuSerif-61" d="M 2547 1044 
L 2547 1747 
L 1806 1747 
Q 1378 1747 1168 1562 
Q 959 1378 959 997 
Q 959 650 1171 447 
Q 1384 244 1747 244 
Q 2106 244 2326 466 
Q 2547 688 2547 1044 
z
M 3122 2075 
L 3122 331 
L 3634 331 
L 3634 0 
L 2547 0 
L 2547 359 
Q 2356 128 2106 18 
Q 1856 -91 1522 -91 
Q 969 -91 644 203 
Q 319 497 319 997 
Q 319 1513 691 1797 
Q 1063 2081 1741 2081 
L 2547 2081 
L 2547 2309 
Q 2547 2688 2317 2895 
Q 2088 3103 1672 3103 
Q 1328 3103 1125 2947 
Q 922 2791 872 2484 
L 575 2484 
L 575 3156 
Q 875 3284 1158 3348 
Q 1441 3413 1709 3413 
Q 2400 3413 2761 3070 
Q 3122 2728 3122 2075 
z
" transform="scale(0.015625)"/>
       <path id="DejaVuSerif-20" transform="scale(0.015625)"/>
       <path id="DejaVuSerif-44" d="M 1581 331 
L 2163 331 
Q 3072 331 3558 850 
Q 4044 1369 4044 2338 
Q 4044 3306 3559 3818 
Q 3075 4331 2163 4331 
L 1581 4331 
L 1581 331 
z
M 353 0 
L 353 331 
L 947 331 
L 947 4331 
L 353 4331 
L 353 4666 
L 2209 4666 
Q 3416 4666 4089 4050 
Q 4763 3434 4763 2338 
Q 4763 1238 4088 619 
Q 3413 0 2209 0 
L 353 0 
z
" transform="scale(0.015625)"/>
       <path id="DejaVuSerif-69" d="M 622 4353 
Q 622 4497 726 4603 
Q 831 4709 978 4709 
Q 1122 4709 1226 4603 
Q 1331 4497 1331 4353 
Q 1331 4206 1228 4103 
Q 1125 4000 978 4000 
Q 831 4000 726 4103 
Q 622 4206 622 4353 
z
M 1356 331 
L 1900 331 
L 1900 0 
L 231 0 
L 231 331 
L 781 331 
L 781 2988 
L 231 2988 
L 231 3322 
L 1356 3322 
L 1356 331 
z
" transform="scale(0.015625)"/>
       <path id="DejaVuSerif-73" d="M 359 184 
L 359 959 
L 691 959 
Q 703 588 923 403 
Q 1144 219 1575 219 
Q 1963 219 2166 364 
Q 2369 509 2369 788 
Q 2369 1006 2220 1140 
Q 2072 1275 1594 1428 
L 1178 1569 
Q 750 1706 558 1912 
Q 366 2119 366 2438 
Q 366 2894 700 3153 
Q 1034 3413 1625 3413 
Q 1888 3413 2178 3344 
Q 2469 3275 2778 3144 
L 2778 2419 
L 2447 2419 
Q 2434 2741 2221 2922 
Q 2009 3103 1644 3103 
Q 1281 3103 1095 2975 
Q 909 2847 909 2591 
Q 909 2381 1050 2254 
Q 1191 2128 1613 1997 
L 2069 1856 
Q 2541 1709 2748 1489 
Q 2956 1269 2956 922 
Q 2956 450 2595 179 
Q 2234 -91 1600 -91 
Q 1278 -91 972 -22 
Q 666 47 359 184 
z
" transform="scale(0.015625)"/>
       <path id="DejaVuSerif-5b" d="M 550 4863 
L 2003 4863 
L 2003 4531 
L 1147 4531 
L 1147 -513 
L 2003 -513 
L 2003 -844 
L 550 -844 
L 550 4863 
z
" transform="scale(0.015625)"/>
       <path id="DejaVuSerif-c5" d="M 2772 5081 
Q 2772 5278 2633 5417 
Q 2494 5556 2297 5556 
Q 2097 5556 1961 5420 
Q 1825 5284 1825 5081 
Q 1825 4884 1961 4746 
Q 2097 4609 2297 4609 
Q 2494 4609 2633 4746 
Q 2772 4884 2772 5081 
z
M 1281 1691 
L 2988 1691 
L 2138 3909 
L 1281 1691 
z
M -38 0 
L -38 331 
L 372 331 
L 1900 4325 
Q 1675 4441 1558 4631 
Q 1441 4822 1441 5081 
Q 1441 5438 1691 5689 
Q 1941 5941 2297 5941 
Q 2653 5941 2904 5689 
Q 3156 5438 3156 5081 
Q 3156 4831 3034 4632 
Q 2913 4434 2688 4325 
L 4225 331 
L 4684 331 
L 4684 0 
L 2988 0 
L 2988 331 
L 3506 331 
L 3116 1356 
L 1153 1356 
L 763 331 
L 1275 331 
L 1275 0 
L -38 0 
z
" transform="scale(0.015625)"/>
       <path id="DejaVuSerif-5d" d="M 1947 4863 
L 1947 -844 
L 494 -844 
L 494 -513 
L 1350 -513 
L 1350 4531 
L 494 4531 
L 494 4863 
L 1947 4863 
z
" transform="scale(0.015625)"/>
      </defs>
      <use xlink:href="#DejaVuSerif-49"/>
      <use xlink:href="#DejaVuSerif-6e" x="39.501953"/>
      <use xlink:href="#DejaVuSerif-74" x="103.90625"/>
      <use xlink:href="#DejaVuSerif-65" x="144.091797"/>
      <use xlink:href="#DejaVuSerif-72" x="203.271484"/>
      <use xlink:href="#DejaVuSerif-6e" x="251.074219"/>
      <use xlink:href="#DejaVuSerif-75" x="315.478516"/>
      <use xlink:href="#DejaVuSerif-63" x="379.882812"/>
      <use xlink:href="#DejaVuSerif-6c" x="435.888672"/>
      <use xlink:href="#DejaVuSerif-65" x="467.871094"/>
      <use xlink:href="#DejaVuSerif-61" x="527.050781"/>
      <use xlink:href="#DejaVuSerif-72" x="586.669922"/>
      <use xlink:href="#DejaVuSerif-20" x="634.472656"/>
      <use xlink:href="#DejaVuSerif-44" x="666.259766"/>
      <use xlink:href="#DejaVuSerif-69" x="746.435547"/>
      <use xlink:href="#DejaVuSerif-73" x="778.417969"/>
      <use xlink:href="#DejaVuSerif-74" x="829.736328"/>
      <use xlink:href="#DejaVuSerif-61" x="869.921875"/>
      <use xlink:href="#DejaVuSerif-6e" x="929.541016"/>
      <use xlink:href="#DejaVuSerif-63" x="993.945312"/>
      <use xlink:href="#DejaVuSerif-65" x="1049.951172"/>
      <use xlink:href="#DejaVuSerif-20" x="1109.130859"/>
      <use xlink:href="#DejaVuSerif-5b" x="1140.917969"/>
      <use xlink:href="#DejaVuSerif-c5" x="1179.931641"/>
      <use xlink:href="#DejaVuSerif-5d" x="1252.148438"/>
     </g>
    </g>
   </g>
   <g id="matplotlib.axis_2">
    <g id="ytick_1">
     <g id="line2d_53">
      <defs>
       <path id="m8b39e54c2c" d="M 0 0 
L 6 0 
" style="stroke: #000000; stroke-width: 0.8"/>
      </defs>
      <g>
       <use xlink:href="#m8b39e54c2c" x="76.33" y="313.566562" style="stroke: #000000; stroke-width: 0.8"/>
      </g>
     </g>
     <g id="line2d_54">
      <defs>
       <path id="mec5b508d98" d="M 0 0 
L -6 0 
" style="stroke: #000000; stroke-width: 0.8"/>
      </defs>
      <g>
       <use xlink:href="#mec5b508d98" x="554.362" y="313.566562" style="stroke: #000000; stroke-width: 0.8"/>
      </g>
     </g>
     <g id="text_8">
      <!-- 0 -->
      <g transform="translate(65.195 318.125625) scale(0.12 -0.12)">
       <use xlink:href="#DejaVuSerif-30"/>
      </g>
     </g>
    </g>
    <g id="ytick_2">
     <g id="line2d_55">
      <g>
       <use xlink:href="#m8b39e54c2c" x="76.33" y="263.265312" style="stroke: #000000; stroke-width: 0.8"/>
      </g>
     </g>
     <g id="line2d_56">
      <g>
       <use xlink:href="#mec5b508d98" x="554.362" y="263.265312" style="stroke: #000000; stroke-width: 0.8"/>
      </g>
     </g>
     <g id="text_9">
      <!-- 20000 -->
      <g transform="translate(34.655 267.824375) scale(0.12 -0.12)">
       <use xlink:href="#DejaVuSerif-32"/>
       <use xlink:href="#DejaVuSerif-30" x="63.623047"/>
       <use xlink:href="#DejaVuSerif-30" x="127.246094"/>
       <use xlink:href="#DejaVuSerif-30" x="190.869141"/>
       <use xlink:href="#DejaVuSerif-30" x="254.492188"/>
      </g>
     </g>
    </g>
    <g id="ytick_3">
     <g id="line2d_57">
      <g>
       <use xlink:href="#m8b39e54c2c" x="76.33" y="212.964062" style="stroke: #000000; stroke-width: 0.8"/>
      </g>
     </g>
     <g id="line2d_58">
      <g>
       <use xlink:href="#mec5b508d98" x="554.362" y="212.964062" style="stroke: #000000; stroke-width: 0.8"/>
      </g>
     </g>
     <g id="text_10">
      <!-- 40000 -->
      <g transform="translate(34.655 217.523125) scale(0.12 -0.12)">
       <defs>
        <path id="DejaVuSerif-34" d="M 2234 1581 
L 2234 4063 
L 641 1581 
L 2234 1581 
z
M 3609 0 
L 1484 0 
L 1484 331 
L 2234 331 
L 2234 1247 
L 197 1247 
L 197 1588 
L 2241 4750 
L 2859 4750 
L 2859 1581 
L 3750 1581 
L 3750 1247 
L 2859 1247 
L 2859 331 
L 3609 331 
L 3609 0 
z
" transform="scale(0.015625)"/>
       </defs>
       <use xlink:href="#DejaVuSerif-34"/>
       <use xlink:href="#DejaVuSerif-30" x="63.623047"/>
       <use xlink:href="#DejaVuSerif-30" x="127.246094"/>
       <use xlink:href="#DejaVuSerif-30" x="190.869141"/>
       <use xlink:href="#DejaVuSerif-30" x="254.492188"/>
      </g>
     </g>
    </g>
    <g id="ytick_4">
     <g id="line2d_59">
      <g>
       <use xlink:href="#m8b39e54c2c" x="76.33" y="162.662812" style="stroke: #000000; stroke-width: 0.8"/>
      </g>
     </g>
     <g id="line2d_60">
      <g>
       <use xlink:href="#mec5b508d98" x="554.362" y="162.662812" style="stroke: #000000; stroke-width: 0.8"/>
      </g>
     </g>
     <g id="text_11">
      <!-- 60000 -->
      <g transform="translate(34.655 167.221875) scale(0.12 -0.12)">
       <defs>
        <path id="DejaVuSerif-36" d="M 2094 219 
Q 2534 219 2771 542 
Q 3009 866 3009 1472 
Q 3009 2078 2771 2401 
Q 2534 2725 2094 2725 
Q 1647 2725 1412 2412 
Q 1178 2100 1178 1509 
Q 1178 888 1415 553 
Q 1653 219 2094 219 
z
M 1075 2569 
Q 1288 2803 1556 2918 
Q 1825 3034 2163 3034 
Q 2859 3034 3264 2615 
Q 3669 2197 3669 1472 
Q 3669 763 3233 336 
Q 2797 -91 2069 -91 
Q 1278 -91 853 498 
Q 428 1088 428 2181 
Q 428 3406 931 4078 
Q 1434 4750 2350 4750 
Q 2597 4750 2869 4703 
Q 3141 4656 3425 4563 
L 3425 3794 
L 3072 3794 
Q 3034 4109 2831 4275 
Q 2628 4441 2284 4441 
Q 1678 4441 1381 3981 
Q 1084 3522 1075 2569 
z
" transform="scale(0.015625)"/>
       </defs>
       <use xlink:href="#DejaVuSerif-36"/>
       <use xlink:href="#DejaVuSerif-30" x="63.623047"/>
       <use xlink:href="#DejaVuSerif-30" x="127.246094"/>
       <use xlink:href="#DejaVuSerif-30" x="190.869141"/>
       <use xlink:href="#DejaVuSerif-30" x="254.492188"/>
      </g>
     </g>
    </g>
    <g id="ytick_5">
     <g id="line2d_61">
      <g>
       <use xlink:href="#m8b39e54c2c" x="76.33" y="112.361562" style="stroke: #000000; stroke-width: 0.8"/>
      </g>
     </g>
     <g id="line2d_62">
      <g>
       <use xlink:href="#mec5b508d98" x="554.362" y="112.361562" style="stroke: #000000; stroke-width: 0.8"/>
      </g>
     </g>
     <g id="text_12">
      <!-- 80000 -->
      <g transform="translate(34.655 116.920625) scale(0.12 -0.12)">
       <defs>
        <path id="DejaVuSerif-38" d="M 2981 1275 
Q 2981 1775 2732 2051 
Q 2484 2328 2034 2328 
Q 1584 2328 1336 2051 
Q 1088 1775 1088 1275 
Q 1088 772 1336 495 
Q 1584 219 2034 219 
Q 2484 219 2732 495 
Q 2981 772 2981 1275 
z
M 2853 3541 
Q 2853 3966 2637 4203 
Q 2422 4441 2034 4441 
Q 1650 4441 1433 4203 
Q 1216 3966 1216 3541 
Q 1216 3113 1433 2875 
Q 1650 2638 2034 2638 
Q 2422 2638 2637 2875 
Q 2853 3113 2853 3541 
z
M 2516 2484 
Q 3047 2413 3344 2092 
Q 3641 1772 3641 1275 
Q 3641 619 3225 264 
Q 2809 -91 2034 -91 
Q 1263 -91 845 264 
Q 428 619 428 1275 
Q 428 1772 725 2092 
Q 1022 2413 1556 2484 
Q 1084 2569 832 2842 
Q 581 3116 581 3541 
Q 581 4103 968 4426 
Q 1356 4750 2034 4750 
Q 2713 4750 3100 4426 
Q 3488 4103 3488 3541 
Q 3488 3116 3236 2842 
Q 2984 2569 2516 2484 
z
" transform="scale(0.015625)"/>
       </defs>
       <use xlink:href="#DejaVuSerif-38"/>
       <use xlink:href="#DejaVuSerif-30" x="63.623047"/>
       <use xlink:href="#DejaVuSerif-30" x="127.246094"/>
       <use xlink:href="#DejaVuSerif-30" x="190.869141"/>
       <use xlink:href="#DejaVuSerif-30" x="254.492188"/>
      </g>
     </g>
    </g>
    <g id="ytick_6">
     <g id="line2d_63">
      <g>
       <use xlink:href="#m8b39e54c2c" x="76.33" y="62.060312" style="stroke: #000000; stroke-width: 0.8"/>
      </g>
     </g>
     <g id="line2d_64">
      <g>
       <use xlink:href="#mec5b508d98" x="554.362" y="62.060312" style="stroke: #000000; stroke-width: 0.8"/>
      </g>
     </g>
     <g id="text_13">
      <!-- 100000 -->
      <g transform="translate(27.02 66.619375) scale(0.12 -0.12)">
       <use xlink:href="#DejaVuSerif-31"/>
       <use xlink:href="#DejaVuSerif-30" x="63.623047"/>
       <use xlink:href="#DejaVuSerif-30" x="127.246094"/>
       <use xlink:href="#DejaVuSerif-30" x="190.869141"/>
       <use xlink:href="#DejaVuSerif-30" x="254.492188"/>
       <use xlink:href="#DejaVuSerif-30" x="318.115234"/>
      </g>
     </g>
    </g>
    <g id="ytick_7">
     <g id="line2d_65">
      <g>
       <use xlink:href="#m8b39e54c2c" x="76.33" y="11.759062" style="stroke: #000000; stroke-width: 0.8"/>
      </g>
     </g>
     <g id="line2d_66">
      <g>
       <use xlink:href="#mec5b508d98" x="554.362" y="11.759062" style="stroke: #000000; stroke-width: 0.8"/>
      </g>
     </g>
     <g id="text_14">
      <!-- 120000 -->
      <g transform="translate(27.02 16.318125) scale(0.12 -0.12)">
       <use xlink:href="#DejaVuSerif-31"/>
       <use xlink:href="#DejaVuSerif-32" x="63.623047"/>
       <use xlink:href="#DejaVuSerif-30" x="127.246094"/>
       <use xlink:href="#DejaVuSerif-30" x="190.869141"/>
       <use xlink:href="#DejaVuSerif-30" x="254.492188"/>
       <use xlink:href="#DejaVuSerif-30" x="318.115234"/>
      </g>
     </g>
    </g>
    <g id="ytick_8">
     <g id="line2d_67">
      <defs>
       <path id="mc6a6d28d99" d="M 0 0 
L 4 0 
" style="stroke: #000000; stroke-width: 0.6"/>
      </defs>
      <g>
       <use xlink:href="#mc6a6d28d99" x="76.33" y="300.99125" style="stroke: #000000; stroke-width: 0.6"/>
      </g>
     </g>
     <g id="line2d_68">
      <defs>
       <path id="m51d6f1ebb8" d="M 0 0 
L -4 0 
" style="stroke: #000000; stroke-width: 0.6"/>
      </defs>
      <g>
       <use xlink:href="#m51d6f1ebb8" x="554.362" y="300.99125" style="stroke: #000000; stroke-width: 0.6"/>
      </g>
     </g>
    </g>
    <g id="ytick_9">
     <g id="line2d_69">
      <g>
       <use xlink:href="#mc6a6d28d99" x="76.33" y="288.415937" style="stroke: #000000; stroke-width: 0.6"/>
      </g>
     </g>
     <g id="line2d_70">
      <g>
       <use xlink:href="#m51d6f1ebb8" x="554.362" y="288.415937" style="stroke: #000000; stroke-width: 0.6"/>
      </g>
     </g>
    </g>
    <g id="ytick_10">
     <g id="line2d_71">
      <g>
       <use xlink:href="#mc6a6d28d99" x="76.33" y="275.840625" style="stroke: #000000; stroke-width: 0.6"/>
      </g>
     </g>
     <g id="line2d_72">
      <g>
       <use xlink:href="#m51d6f1ebb8" x="554.362" y="275.840625" style="stroke: #000000; stroke-width: 0.6"/>
      </g>
     </g>
    </g>
    <g id="ytick_11">
     <g id="line2d_73">
      <g>
       <use xlink:href="#mc6a6d28d99" x="76.33" y="250.69" style="stroke: #000000; stroke-width: 0.6"/>
      </g>
     </g>
     <g id="line2d_74">
      <g>
       <use xlink:href="#m51d6f1ebb8" x="554.362" y="250.69" style="stroke: #000000; stroke-width: 0.6"/>
      </g>
     </g>
    </g>
    <g id="ytick_12">
     <g id="line2d_75">
      <g>
       <use xlink:href="#mc6a6d28d99" x="76.33" y="238.114687" style="stroke: #000000; stroke-width: 0.6"/>
      </g>
     </g>
     <g id="line2d_76">
      <g>
       <use xlink:href="#m51d6f1ebb8" x="554.362" y="238.114687" style="stroke: #000000; stroke-width: 0.6"/>
      </g>
     </g>
    </g>
    <g id="ytick_13">
     <g id="line2d_77">
      <g>
       <use xlink:href="#mc6a6d28d99" x="76.33" y="225.539375" style="stroke: #000000; stroke-width: 0.6"/>
      </g>
     </g>
     <g id="line2d_78">
      <g>
       <use xlink:href="#m51d6f1ebb8" x="554.362" y="225.539375" style="stroke: #000000; stroke-width: 0.6"/>
      </g>
     </g>
    </g>
    <g id="ytick_14">
     <g id="line2d_79">
      <g>
       <use xlink:href="#mc6a6d28d99" x="76.33" y="200.38875" style="stroke: #000000; stroke-width: 0.6"/>
      </g>
     </g>
     <g id="line2d_80">
      <g>
       <use xlink:href="#m51d6f1ebb8" x="554.362" y="200.38875" style="stroke: #000000; stroke-width: 0.6"/>
      </g>
     </g>
    </g>
    <g id="ytick_15">
     <g id="line2d_81">
      <g>
       <use xlink:href="#mc6a6d28d99" x="76.33" y="187.813437" style="stroke: #000000; stroke-width: 0.6"/>
      </g>
     </g>
     <g id="line2d_82">
      <g>
       <use xlink:href="#m51d6f1ebb8" x="554.362" y="187.813437" style="stroke: #000000; stroke-width: 0.6"/>
      </g>
     </g>
    </g>
    <g id="ytick_16">
     <g id="line2d_83">
      <g>
       <use xlink:href="#mc6a6d28d99" x="76.33" y="175.238125" style="stroke: #000000; stroke-width: 0.6"/>
      </g>
     </g>
     <g id="line2d_84">
      <g>
       <use xlink:href="#m51d6f1ebb8" x="554.362" y="175.238125" style="stroke: #000000; stroke-width: 0.6"/>
      </g>
     </g>
    </g>
    <g id="ytick_17">
     <g id="line2d_85">
      <g>
       <use xlink:href="#mc6a6d28d99" x="76.33" y="150.0875" style="stroke: #000000; stroke-width: 0.6"/>
      </g>
     </g>
     <g id="line2d_86">
      <g>
       <use xlink:href="#m51d6f1ebb8" x="554.362" y="150.0875" style="stroke: #000000; stroke-width: 0.6"/>
      </g>
     </g>
    </g>
    <g id="ytick_18">
     <g id="line2d_87">
      <g>
       <use xlink:href="#mc6a6d28d99" x="76.33" y="137.512187" style="stroke: #000000; stroke-width: 0.6"/>
      </g>
     </g>
     <g id="line2d_88">
      <g>
       <use xlink:href="#m51d6f1ebb8" x="554.362" y="137.512187" style="stroke: #000000; stroke-width: 0.6"/>
      </g>
     </g>
    </g>
    <g id="ytick_19">
     <g id="line2d_89">
      <g>
       <use xlink:href="#mc6a6d28d99" x="76.33" y="124.936875" style="stroke: #000000; stroke-width: 0.6"/>
      </g>
     </g>
     <g id="line2d_90">
      <g>
       <use xlink:href="#m51d6f1ebb8" x="554.362" y="124.936875" style="stroke: #000000; stroke-width: 0.6"/>
      </g>
     </g>
    </g>
    <g id="ytick_20">
     <g id="line2d_91">
      <g>
       <use xlink:href="#mc6a6d28d99" x="76.33" y="99.78625" style="stroke: #000000; stroke-width: 0.6"/>
      </g>
     </g>
     <g id="line2d_92">
      <g>
       <use xlink:href="#m51d6f1ebb8" x="554.362" y="99.78625" style="stroke: #000000; stroke-width: 0.6"/>
      </g>
     </g>
    </g>
    <g id="ytick_21">
     <g id="line2d_93">
      <g>
       <use xlink:href="#mc6a6d28d99" x="76.33" y="87.210937" style="stroke: #000000; stroke-width: 0.6"/>
      </g>
     </g>
     <g id="line2d_94">
      <g>
       <use xlink:href="#m51d6f1ebb8" x="554.362" y="87.210937" style="stroke: #000000; stroke-width: 0.6"/>
      </g>
     </g>
    </g>
    <g id="ytick_22">
     <g id="line2d_95">
      <g>
       <use xlink:href="#mc6a6d28d99" x="76.33" y="74.635625" style="stroke: #000000; stroke-width: 0.6"/>
      </g>
     </g>
     <g id="line2d_96">
      <g>
       <use xlink:href="#m51d6f1ebb8" x="554.362" y="74.635625" style="stroke: #000000; stroke-width: 0.6"/>
      </g>
     </g>
    </g>
    <g id="ytick_23">
     <g id="line2d_97">
      <g>
       <use xlink:href="#mc6a6d28d99" x="76.33" y="49.485" style="stroke: #000000; stroke-width: 0.6"/>
      </g>
     </g>
     <g id="line2d_98">
      <g>
       <use xlink:href="#m51d6f1ebb8" x="554.362" y="49.485" style="stroke: #000000; stroke-width: 0.6"/>
      </g>
     </g>
    </g>
    <g id="ytick_24">
     <g id="line2d_99">
      <g>
       <use xlink:href="#mc6a6d28d99" x="76.33" y="36.909687" style="stroke: #000000; stroke-width: 0.6"/>
      </g>
     </g>
     <g id="line2d_100">
      <g>
       <use xlink:href="#m51d6f1ebb8" x="554.362" y="36.909687" style="stroke: #000000; stroke-width: 0.6"/>
      </g>
     </g>
    </g>
    <g id="ytick_25">
     <g id="line2d_101">
      <g>
       <use xlink:href="#mc6a6d28d99" x="76.33" y="24.334375" style="stroke: #000000; stroke-width: 0.6"/>
      </g>
     </g>
     <g id="line2d_102">
      <g>
       <use xlink:href="#m51d6f1ebb8" x="554.362" y="24.334375" style="stroke: #000000; stroke-width: 0.6"/>
      </g>
     </g>
    </g>
    <g id="text_15">
     <!-- Energy [cm$^{-1}$] -->
     <g transform="translate(19.8 213.972812) rotate(-90) scale(0.14 -0.14)">
      <defs>
       <path id="DejaVuSerif-45" d="M 353 0 
L 353 331 
L 947 331 
L 947 4331 
L 353 4331 
L 353 4666 
L 4109 4666 
L 4109 3628 
L 3725 3628 
L 3725 4281 
L 1581 4281 
L 1581 2719 
L 3109 2719 
L 3109 3303 
L 3494 3303 
L 3494 1753 
L 3109 1753 
L 3109 2338 
L 1581 2338 
L 1581 384 
L 3775 384 
L 3775 1038 
L 4159 1038 
L 4159 0 
L 353 0 
z
" transform="scale(0.015625)"/>
       <path id="DejaVuSerif-67" d="M 3359 2988 
L 3359 72 
Q 3359 -644 2965 -1033 
Q 2572 -1422 1844 -1422 
Q 1516 -1422 1216 -1362 
Q 916 -1303 641 -1184 
L 641 -488 
L 941 -488 
Q 997 -813 1206 -963 
Q 1416 -1113 1806 -1113 
Q 2313 -1113 2548 -827 
Q 2784 -541 2784 72 
L 2784 519 
Q 2616 206 2355 57 
Q 2094 -91 1709 -91 
Q 1097 -91 708 395 
Q 319 881 319 1663 
Q 319 2444 706 2928 
Q 1094 3413 1709 3413 
Q 2094 3413 2355 3264 
Q 2616 3116 2784 2803 
L 2784 3322 
L 3909 3322 
L 3909 2988 
L 3359 2988 
z
M 2784 1825 
Q 2784 2422 2554 2737 
Q 2325 3053 1888 3053 
Q 1444 3053 1217 2703 
Q 991 2353 991 1663 
Q 991 975 1217 622 
Q 1444 269 1888 269 
Q 2325 269 2554 583 
Q 2784 897 2784 1497 
L 2784 1825 
z
" transform="scale(0.015625)"/>
       <path id="DejaVuSerif-79" d="M 1381 -609 
L 1600 -56 
L 359 2988 
L -19 2988 
L -19 3322 
L 1509 3322 
L 1509 2988 
L 978 2988 
L 1913 703 
L 2847 2988 
L 2350 2988 
L 2350 3322 
L 3597 3322 
L 3597 2988 
L 3225 2988 
L 1703 -750 
Q 1547 -1138 1356 -1280 
Q 1166 -1422 819 -1422 
Q 672 -1422 517 -1397 
Q 363 -1372 206 -1325 
L 206 -691 
L 500 -691 
Q 519 -903 608 -995 
Q 697 -1088 884 -1088 
Q 1056 -1088 1161 -992 
Q 1266 -897 1381 -609 
z
" transform="scale(0.015625)"/>
       <path id="DejaVuSerif-6d" d="M 3316 2675 
Q 3481 3041 3739 3227 
Q 3997 3413 4341 3413 
Q 4863 3413 5119 3089 
Q 5375 2766 5375 2113 
L 5375 331 
L 5894 331 
L 5894 0 
L 4300 0 
L 4300 331 
L 4800 331 
L 4800 2047 
Q 4800 2556 4650 2772 
Q 4500 2988 4153 2988 
Q 3769 2988 3567 2697 
Q 3366 2406 3366 1850 
L 3366 331 
L 3866 331 
L 3866 0 
L 2291 0 
L 2291 331 
L 2791 331 
L 2791 2069 
Q 2791 2566 2641 2777 
Q 2491 2988 2144 2988 
Q 1759 2988 1557 2697 
Q 1356 2406 1356 1850 
L 1356 331 
L 1856 331 
L 1856 0 
L 263 0 
L 263 331 
L 781 331 
L 781 2994 
L 231 2994 
L 231 3322 
L 1356 3322 
L 1356 2731 
Q 1516 3063 1762 3238 
Q 2009 3413 2322 3413 
Q 2709 3413 2968 3220 
Q 3228 3028 3316 2675 
z
" transform="scale(0.015625)"/>
       <path id="DejaVuSans-2212" d="M 678 2272 
L 4684 2272 
L 4684 1741 
L 678 1741 
L 678 2272 
z
" transform="scale(0.015625)"/>
       <path id="DejaVuSans-31" d="M 794 531 
L 1825 531 
L 1825 4091 
L 703 3866 
L 703 4441 
L 1819 4666 
L 2450 4666 
L 2450 531 
L 3481 531 
L 3481 0 
L 794 0 
L 794 531 
z
" transform="scale(0.015625)"/>
      </defs>
      <use xlink:href="#DejaVuSerif-45" transform="translate(0 0.684375)"/>
      <use xlink:href="#DejaVuSerif-6e" transform="translate(72.998047 0.684375)"/>
      <use xlink:href="#DejaVuSerif-65" transform="translate(137.402344 0.684375)"/>
      <use xlink:href="#DejaVuSerif-72" transform="translate(196.582031 0.684375)"/>
      <use xlink:href="#DejaVuSerif-67" transform="translate(244.384766 0.684375)"/>
      <use xlink:href="#DejaVuSerif-79" transform="translate(308.398438 0.684375)"/>
      <use xlink:href="#DejaVuSerif-20" transform="translate(364.892578 0.684375)"/>
      <use xlink:href="#DejaVuSerif-5b" transform="translate(396.679688 0.684375)"/>
      <use xlink:href="#DejaVuSerif-63" transform="translate(435.693359 0.684375)"/>
      <use xlink:href="#DejaVuSerif-6d" transform="translate(491.699219 0.684375)"/>
      <use xlink:href="#DejaVuSans-2212" transform="translate(587.480469 38.965625) scale(0.7)"/>
      <use xlink:href="#DejaVuSans-31" transform="translate(646.132812 38.965625) scale(0.7)"/>
      <use xlink:href="#DejaVuSerif-5d" transform="translate(693.40332 0.684375)"/>
     </g>
    </g>
   </g>
   <g id="line2d_103">
    <path d="M 76.33 147.79413 
L 85.182444 213.449322 
L 94.034889 257.200314 
L 102.887333 285.327687 
L 111.739778 302.070197 
L 116.166 307.218087 
L 120.592222 310.668597 
L 125.018444 312.680061 
L 130.684009 313.566562 
L 138.297111 312.345001 
L 147.149556 308.513063 
L 156.002 302.839124 
L 164.854444 295.991646 
L 182.559333 280.672175 
L 200.264222 265.139083 
L 217.969111 250.696729 
L 235.674 238.182488 
L 271.083778 220.140585 
L 306.493556 212.008619 
L 341.903333 209.454546 
L 377.313111 208.684516 
L 412.722889 208.358287 
L 448.132667 208.274936 
L 562.562 208.189789 
" clip-path="url(#pfef0c1b05c)" style="fill: none; stroke: #0000ff; stroke-width: 2; stroke-linecap: square"/>
   </g>
   <g id="line2d_104">
    <path d="M 76.005684 33.432095 
L 80.713503 73.79595 
L 87.443941 95.731535 
L 96.650344 117.657213 
L 102.944873 121.882835 
L 114.173895 125.380243 
L 121.601788 125.35052 
L 129.116863 128.86279 
L 132.917991 132.389921 
L 138.044284 139.454091 
L 141.932594 146.523215 
L 145.786032 152.175542 
L 147.384057 162.274292 
L 150.31533 164.350142 
L 151.48784 167.192532 
L 153.832858 169.596796 
L 156.177876 172.329111 
L 159.695404 174.513949 
L 162.040422 176.699512 
L 163.799186 178.776086 
L 166.730459 180.086482 
L 171.420496 182.379947 
L 174.938023 183.908682 
L 178.455551 185.218716 
L 183.731843 186.418313 
L 188.421879 187.071519 
L 194.87068 188.161042 
L 204.837008 188.045536 
L 212.458318 187.603427 
L 219.493373 187.052329 
L 225.942174 186.282892 
L 232.977229 184.638289 
L 244.116066 183.100501 
L 251.151121 181.565249 
L 258.186177 180.467398 
L 264.634977 179.151209 
L 272.842542 177.833933 
L 279.877597 176.736083 
L 289.843925 175.417721 
L 299.810253 173.990008 
L 310.362836 172.889985 
L 322.087928 172.117289 
L 337.916802 171.232709 
L 350.814403 170.56864 
L 363.712004 170.123271 
L 374.264587 169.570001 
L 389.507207 169.013834 
L 400.05979 169.007317 
L 412.371136 168.781012 
L 424.682483 168.664057 
L 436.993829 168.437752 
L 446.080776 168.377465 
L 448.132667 168.37495 
L 562.562 168.37495 
" clip-path="url(#pfef0c1b05c)" style="fill: none; stroke: #ff0000; stroke-width: 2; stroke-linecap: square"/>
   </g>
   <g id="line2d_105">
    <path d="M 111.739778 62.060312 
L 129.375372 128.302903 
L 133.533076 136.89651 
L 136.304878 144.917211 
L 140.462582 151.21919 
L 146.006187 158.666983 
L 151.549792 165.541869 
L 158.479299 171.843848 
L 166.794706 177.57292 
L 175.110114 183.874899 
L 190.355028 187.312342 
L 201.007828 188.333351 
L 218.073054 187.312342 
L 238.861573 185.020713 
L 258.264191 181.58327 
L 270.737302 178.718734 
L 294.297624 175.854198 
L 319.243847 172.416755 
L 344.19007 170.125126 
L 366.364491 169.838673 
L 385.767109 168.979312 
L 402.397924 168.979312 
L 424.572345 168.406405 
L 445.360864 168.979312 
L 464.763482 168.979312 
L 495.25331 168.979312 
L 516.04183 168.979312 
L 542.373954 168.692858 
L 562.562 168.414679 
" clip-path="url(#pfef0c1b05c)" style="fill: none; stroke: #ffa500; stroke-width: 2; stroke-linecap: square"/>
   </g>
   <g id="line2d_106">
    <path d="M 130.684009 313.566562 
L 130.684009 11.759062 
" clip-path="url(#pfef0c1b05c)" style="fill: none; stroke-dasharray: 1.2,1.98; stroke-dashoffset: 0; stroke: #0000ff; stroke-opacity: 0.8; stroke-width: 1.2"/>
   </g>
   <g id="line2d_107">
    <path d="M 194.87068 313.566562 
L 194.87068 11.759062 
" clip-path="url(#pfef0c1b05c)" style="fill: none; stroke-dasharray: 1.2,1.98; stroke-dashoffset: 0; stroke: #ff0000; stroke-opacity: 0.8; stroke-width: 1.2"/>
   </g>
   <g id="LineCollection_1">
    <path d="M 122.823931 312.688806 
L 122.823931 310.676756 
" clip-path="url(#pfef0c1b05c)" style="fill: none; stroke: #0000ff; stroke-width: 1.5"/>
   </g>
   <g id="LineCollection_2">
    <path d="M 139.826956 312.688806 
L 139.826956 310.676756 
" clip-path="url(#pfef0c1b05c)" style="fill: none; stroke: #0000ff; stroke-width: 1.5"/>
   </g>
   <g id="patch_4">
    <path d="M 76.33 313.566562 
L 76.33 11.759062 
" style="fill: none; stroke: #000000; stroke-width: 0.8; stroke-linejoin: miter; stroke-linecap: square"/>
   </g>
   <g id="patch_5">
    <path d="M 554.362 313.566562 
L 554.362 11.759062 
" style="fill: none; stroke: #000000; stroke-width: 0.8; stroke-linejoin: miter; stroke-linecap: square"/>
   </g>
   <g id="patch_6">
    <path d="M 76.33 313.566562 
L 554.362 313.566562 
" style="fill: none; stroke: #000000; stroke-width: 0.8; stroke-linejoin: miter; stroke-linecap: square"/>
   </g>
   <g id="patch_7">
    <path d="M 76.33 11.759062 
L 554.362 11.759062 
" style="fill: none; stroke: #000000; stroke-width: 0.8; stroke-linejoin: miter; stroke-linecap: square"/>
   </g>
   <g id="patch_8">
    <path d="M 134.362976 112.361562 
Q 162.7782 112.361562 191.193424 112.361562 
" style="fill: none; stroke: #000000; stroke-width: 1.5; stroke-linecap: round"/>
    <path d="M 139.162976 114.761562 
L 134.362976 112.361562 
L 139.162976 109.961562 
" style="fill: none; stroke: #000000; stroke-width: 1.5; stroke-linecap: round"/>
    <path d="M 186.393424 109.961562 
L 191.193424 112.361562 
L 186.393424 114.761562 
" style="fill: none; stroke: #000000; stroke-width: 1.5; stroke-linecap: round"/>
   </g>
   <g id="text_16">
    <!-- Δ$r_e$ = 0.363 Å -->
    <g transform="translate(124.442344 105.043781) scale(0.11 -0.11)">
     <defs>
      <path id="DejaVuSerif-394" d="M 4350 0 
L 244 0 
L 2034 4666 
L 2559 4666 
L 4350 0 
z
M 3506 331 
L 2138 3909 
L 763 331 
L 3506 331 
z
" transform="scale(0.015625)"/>
      <path id="DejaVuSans-Oblique-72" d="M 2853 2969 
Q 2766 3016 2653 3041 
Q 2541 3066 2413 3066 
Q 1953 3066 1609 2717 
Q 1266 2369 1153 1784 
L 800 0 
L 225 0 
L 909 3500 
L 1484 3500 
L 1375 2956 
Q 1603 3259 1920 3421 
Q 2238 3584 2597 3584 
Q 2691 3584 2781 3573 
Q 2872 3563 2963 3538 
L 2853 2969 
z
" transform="scale(0.015625)"/>
      <path id="DejaVuSans-Oblique-65" d="M 3078 2063 
Q 3088 2113 3092 2166 
Q 3097 2219 3097 2272 
Q 3097 2653 2873 2875 
Q 2650 3097 2266 3097 
Q 1838 3097 1509 2826 
Q 1181 2556 1013 2059 
L 3078 2063 
z
M 3578 1613 
L 903 1613 
Q 884 1494 878 1425 
Q 872 1356 872 1306 
Q 872 872 1139 634 
Q 1406 397 1894 397 
Q 2269 397 2603 481 
Q 2938 566 3225 728 
L 3116 159 
Q 2806 34 2476 -28 
Q 2147 -91 1806 -91 
Q 1078 -91 686 257 
Q 294 606 294 1247 
Q 294 1794 489 2264 
Q 684 2734 1063 3103 
Q 1306 3334 1642 3459 
Q 1978 3584 2356 3584 
Q 2950 3584 3301 3228 
Q 3653 2872 3653 2272 
Q 3653 2128 3634 1964 
Q 3616 1800 3578 1613 
z
" transform="scale(0.015625)"/>
      <path id="DejaVuSerif-3d" d="M 678 2894 
L 4684 2894 
L 4684 2394 
L 678 2394 
L 678 2894 
z
M 678 1619 
L 4684 1619 
L 4684 1119 
L 678 1119 
L 678 1619 
z
" transform="scale(0.015625)"/>
     </defs>
     <use xlink:href="#DejaVuSerif-394" transform="translate(0 0.171875)"/>
     <use xlink:href="#DejaVuSans-Oblique-72" transform="translate(72.216797 0.171875)"/>
     <use xlink:href="#DejaVuSans-Oblique-65" transform="translate(113.330078 -16.234375) scale(0.7)"/>
     <use xlink:href="#DejaVuSerif-20" transform="translate(159.130859 0.171875)"/>
     <use xlink:href="#DejaVuSerif-3d" transform="translate(190.917969 0.171875)"/>
     <use xlink:href="#DejaVuSerif-20" transform="translate(274.707031 0.171875)"/>
     <use xlink:href="#DejaVuSerif-30" transform="translate(306.494141 0.171875)"/>
     <use xlink:href="#DejaVuSerif-2e" transform="translate(370.117188 0.171875)"/>
     <use xlink:href="#DejaVuSerif-33" transform="translate(401.904297 0.171875)"/>
     <use xlink:href="#DejaVuSerif-36" transform="translate(465.527344 0.171875)"/>
     <use xlink:href="#DejaVuSerif-33" transform="translate(529.150391 0.171875)"/>
     <use xlink:href="#DejaVuSerif-20" transform="translate(592.773438 0.171875)"/>
     <use xlink:href="#DejaVuSerif-c5" transform="translate(624.560547 0.171875)"/>
    </g>
   </g>
   <g id="legend_1">
    <g id="patch_9">
     <path d="M 415.062 73.359062 
L 547.362 73.359062 
Q 549.362 73.359062 549.362 71.359062 
L 549.362 18.759062 
Q 549.362 16.759062 547.362 16.759062 
L 415.062 16.759062 
Q 413.062 16.759062 413.062 18.759062 
L 413.062 71.359062 
Q 413.062 73.359062 415.062 73.359062 
z
" style="fill: #ffffff; opacity: 0.8; stroke: #cccccc; stroke-linejoin: miter"/>
    </g>
    <g id="line2d_108">
     <path d="M 417.062 26.359062 
L 427.062 26.359062 
L 437.062 26.359062 
" style="fill: none; stroke: #0000ff; stroke-width: 2; stroke-linecap: square"/>
    </g>
    <g id="text_17">
     <!-- X $^3\Sigma_g^-$ -->
     <g transform="translate(445.062 29.859062) scale(0.1 -0.1)">
      <defs>
       <path id="DejaVuSerif-58" d="M 2119 1997 
L 978 331 
L 1581 331 
L 1581 0 
L 38 0 
L 38 331 
L 575 331 
L 1919 2291 
L 556 4331 
L 56 4331 
L 56 4666 
L 1906 4666 
L 1906 4331 
L 1356 4331 
L 2356 2828 
L 3384 4331 
L 2784 4331 
L 2784 4666 
L 4313 4666 
L 4313 4331 
L 3788 4331 
L 2553 2534 
L 4025 331 
L 4525 331 
L 4525 0 
L 2675 0 
L 2675 331 
L 3231 331 
L 2119 1997 
z
" transform="scale(0.015625)"/>
       <path id="DejaVuSans-33" d="M 2597 2516 
Q 3050 2419 3304 2112 
Q 3559 1806 3559 1356 
Q 3559 666 3084 287 
Q 2609 -91 1734 -91 
Q 1441 -91 1130 -33 
Q 819 25 488 141 
L 488 750 
Q 750 597 1062 519 
Q 1375 441 1716 441 
Q 2309 441 2620 675 
Q 2931 909 2931 1356 
Q 2931 1769 2642 2001 
Q 2353 2234 1838 2234 
L 1294 2234 
L 1294 2753 
L 1863 2753 
Q 2328 2753 2575 2939 
Q 2822 3125 2822 3475 
Q 2822 3834 2567 4026 
Q 2313 4219 1838 4219 
Q 1578 4219 1281 4162 
Q 984 4106 628 3988 
L 628 4550 
Q 988 4650 1302 4700 
Q 1616 4750 1894 4750 
Q 2613 4750 3031 4423 
Q 3450 4097 3450 3541 
Q 3450 3153 3228 2886 
Q 3006 2619 2597 2516 
z
" transform="scale(0.015625)"/>
       <path id="DejaVuSans-3a3" d="M 1353 531 
L 3634 531 
L 3634 0 
L 628 0 
L 628 531 
L 2125 2481 
L 628 4134 
L 628 4666 
L 3578 4666 
L 3578 4134 
L 1353 4134 
L 2850 2494 
L 1353 531 
z
" transform="scale(0.015625)"/>
       <path id="DejaVuSans-Oblique-67" d="M 3816 3500 
L 3219 434 
Q 3047 -456 2561 -893 
Q 2075 -1331 1253 -1331 
Q 950 -1331 690 -1286 
Q 431 -1241 206 -1147 
L 313 -588 
Q 525 -725 762 -790 
Q 1000 -856 1269 -856 
Q 1816 -856 2167 -557 
Q 2519 -259 2631 300 
L 2681 563 
Q 2441 288 2122 144 
Q 1803 0 1434 0 
Q 903 0 598 351 
Q 294 703 294 1319 
Q 294 1803 478 2267 
Q 663 2731 997 3091 
Q 1219 3328 1514 3456 
Q 1809 3584 2131 3584 
Q 2484 3584 2746 3420 
Q 3009 3256 3138 2956 
L 3238 3500 
L 3816 3500 
z
M 2950 2216 
Q 2950 2641 2750 2872 
Q 2550 3103 2181 3103 
Q 1953 3103 1747 3012 
Q 1541 2922 1394 2759 
Q 1156 2491 1023 2127 
Q 891 1763 891 1375 
Q 891 944 1092 712 
Q 1294 481 1672 481 
Q 2219 481 2584 976 
Q 2950 1472 2950 2216 
z
" transform="scale(0.015625)"/>
      </defs>
      <use xlink:href="#DejaVuSerif-58" transform="translate(0 0.765625)"/>
      <use xlink:href="#DejaVuSerif-20" transform="translate(71.191406 0.765625)"/>
      <use xlink:href="#DejaVuSans-33" transform="translate(103.935547 39.046875) scale(0.7)"/>
      <use xlink:href="#DejaVuSans-3a3" transform="translate(151.206055 0.765625)"/>
      <use xlink:href="#DejaVuSans-2212" transform="translate(228.984375 39.046875) scale(0.7)"/>
      <use xlink:href="#DejaVuSans-Oblique-67" transform="translate(215.34668 -26.578125) scale(0.7)"/>
     </g>
    </g>
    <g id="line2d_109">
     <path d="M 417.062 44.659062 
L 427.062 44.659062 
L 437.062 44.659062 
" style="fill: none; stroke: #ff0000; stroke-width: 2; stroke-linecap: square"/>
    </g>
    <g id="text_18">
     <!-- B $^3\Sigma_u^+$ (double-well) -->
     <g transform="translate(445.062 48.159062) scale(0.1 -0.1)">
      <defs>
       <path id="DejaVuSerif-42" d="M 1581 331 
L 2516 331 
Q 3078 331 3337 575 
Q 3597 819 3597 1350 
Q 3597 1878 3339 2120 
Q 3081 2363 2516 2363 
L 1581 2363 
L 1581 331 
z
M 1581 2694 
L 2375 2694 
Q 2888 2694 3123 2891 
Q 3359 3088 3359 3513 
Q 3359 3941 3123 4136 
Q 2888 4331 2375 4331 
L 1581 4331 
L 1581 2694 
z
M 353 0 
L 353 331 
L 947 331 
L 947 4331 
L 353 4331 
L 353 4666 
L 2656 4666 
Q 3363 4666 3720 4377 
Q 4078 4088 4078 3513 
Q 4078 3097 3829 2850 
Q 3581 2603 3103 2547 
Q 3697 2472 4005 2167 
Q 4313 1863 4313 1350 
Q 4313 656 3875 328 
Q 3438 0 2509 0 
L 353 0 
z
" transform="scale(0.015625)"/>
       <path id="DejaVuSans-2b" d="M 2944 4013 
L 2944 2272 
L 4684 2272 
L 4684 1741 
L 2944 1741 
L 2944 0 
L 2419 0 
L 2419 1741 
L 678 1741 
L 678 2272 
L 2419 2272 
L 2419 4013 
L 2944 4013 
z
" transform="scale(0.015625)"/>
       <path id="DejaVuSans-Oblique-75" d="M 428 1388 
L 838 3500 
L 1416 3500 
L 1006 1409 
Q 975 1256 961 1147 
Q 947 1038 947 966 
Q 947 700 1109 554 
Q 1272 409 1569 409 
Q 2031 409 2368 721 
Q 2706 1034 2809 1563 
L 3194 3500 
L 3769 3500 
L 3091 0 
L 2516 0 
L 2631 550 
Q 2388 244 2052 76 
Q 1716 -91 1338 -91 
Q 878 -91 622 161 
Q 366 413 366 863 
Q 366 956 381 1097 
Q 397 1238 428 1388 
z
" transform="scale(0.015625)"/>
       <path id="DejaVuSerif-28" d="M 2041 -997 
Q 1281 -656 893 83 
Q 506 822 506 1931 
Q 506 3044 893 3783 
Q 1281 4522 2041 4863 
L 2041 4556 
Q 1559 4225 1350 3623 
Q 1141 3022 1141 1931 
Q 1141 844 1350 242 
Q 1559 -359 2041 -691 
L 2041 -997 
z
" transform="scale(0.015625)"/>
       <path id="DejaVuSerif-64" d="M 3359 331 
L 3909 331 
L 3909 0 
L 2784 0 
L 2784 519 
Q 2616 206 2355 57 
Q 2094 -91 1709 -91 
Q 1097 -91 708 395 
Q 319 881 319 1663 
Q 319 2444 706 2928 
Q 1094 3413 1709 3413 
Q 2094 3413 2355 3264 
Q 2616 3116 2784 2803 
L 2784 4531 
L 2241 4531 
L 2241 4863 
L 3359 4863 
L 3359 331 
z
M 2784 1497 
L 2784 1825 
Q 2784 2422 2554 2737 
Q 2325 3053 1888 3053 
Q 1444 3053 1217 2703 
Q 991 2353 991 1663 
Q 991 975 1217 622 
Q 1444 269 1888 269 
Q 2325 269 2554 583 
Q 2784 897 2784 1497 
z
" transform="scale(0.015625)"/>
       <path id="DejaVuSerif-6f" d="M 1925 219 
Q 2388 219 2623 584 
Q 2859 950 2859 1663 
Q 2859 2375 2623 2739 
Q 2388 3103 1925 3103 
Q 1463 3103 1227 2739 
Q 991 2375 991 1663 
Q 991 950 1228 584 
Q 1466 219 1925 219 
z
M 1925 -91 
Q 1200 -91 759 389 
Q 319 869 319 1663 
Q 319 2456 758 2934 
Q 1197 3413 1925 3413 
Q 2653 3413 3092 2934 
Q 3531 2456 3531 1663 
Q 3531 869 3092 389 
Q 2653 -91 1925 -91 
z
" transform="scale(0.015625)"/>
       <path id="DejaVuSerif-62" d="M 738 331 
L 738 4531 
L 184 4531 
L 184 4863 
L 1313 4863 
L 1313 2803 
Q 1481 3116 1742 3264 
Q 2003 3413 2388 3413 
Q 3000 3413 3387 2928 
Q 3775 2444 3775 1663 
Q 3775 881 3387 395 
Q 3000 -91 2388 -91 
Q 2003 -91 1742 57 
Q 1481 206 1313 519 
L 1313 0 
L 184 0 
L 184 331 
L 738 331 
z
M 1313 1497 
Q 1313 897 1542 583 
Q 1772 269 2209 269 
Q 2650 269 2876 622 
Q 3103 975 3103 1663 
Q 3103 2353 2876 2703 
Q 2650 3053 2209 3053 
Q 1772 3053 1542 2737 
Q 1313 2422 1313 1825 
L 1313 1497 
z
" transform="scale(0.015625)"/>
       <path id="DejaVuSerif-2d" d="M 281 1959 
L 1881 1959 
L 1881 1472 
L 281 1472 
L 281 1959 
z
" transform="scale(0.015625)"/>
       <path id="DejaVuSerif-77" d="M 3072 3322 
L 3922 728 
L 4672 2988 
L 4191 2988 
L 4191 3322 
L 5394 3322 
L 5394 2988 
L 5025 2988 
L 4038 0 
L 3559 0 
L 2741 2484 
L 1919 0 
L 1459 0 
L 475 2988 
L 103 2988 
L 103 3322 
L 1606 3322 
L 1606 2988 
L 1069 2988 
L 1813 728 
L 2669 3322 
L 3072 3322 
z
" transform="scale(0.015625)"/>
       <path id="DejaVuSerif-29" d="M 453 -997 
L 453 -691 
Q 934 -359 1145 242 
Q 1356 844 1356 1931 
Q 1356 3022 1145 3623 
Q 934 4225 453 4556 
L 453 4863 
Q 1216 4522 1603 3783 
Q 1991 3044 1991 1931 
Q 1991 822 1603 83 
Q 1216 -656 453 -997 
z
" transform="scale(0.015625)"/>
      </defs>
      <use xlink:href="#DejaVuSerif-42" transform="translate(0 0.765625)"/>
      <use xlink:href="#DejaVuSerif-20" transform="translate(73.486328 0.765625)"/>
      <use xlink:href="#DejaVuSans-33" transform="translate(106.230469 39.046875) scale(0.7)"/>
      <use xlink:href="#DejaVuSans-3a3" transform="translate(153.500977 0.765625)"/>
      <use xlink:href="#DejaVuSans-2b" transform="translate(231.279297 39.046875) scale(0.7)"/>
      <use xlink:href="#DejaVuSans-Oblique-75" transform="translate(217.641602 -26.578125) scale(0.7)"/>
      <use xlink:href="#DejaVuSerif-20" transform="translate(306.303711 0.765625)"/>
      <use xlink:href="#DejaVuSerif-28" transform="translate(338.09082 0.765625)"/>
      <use xlink:href="#DejaVuSerif-64" transform="translate(377.104492 0.765625)"/>
      <use xlink:href="#DejaVuSerif-6f" transform="translate(441.118164 0.765625)"/>
      <use xlink:href="#DejaVuSerif-75" transform="translate(501.323242 0.765625)"/>
      <use xlink:href="#DejaVuSerif-62" transform="translate(565.727539 0.765625)"/>
      <use xlink:href="#DejaVuSerif-6c" transform="translate(629.741211 0.765625)"/>
      <use xlink:href="#DejaVuSerif-65" transform="translate(661.723633 0.765625)"/>
      <use xlink:href="#DejaVuSerif-2d" transform="translate(720.90332 0.765625)"/>
      <use xlink:href="#DejaVuSerif-77" transform="translate(754.692383 0.765625)"/>
      <use xlink:href="#DejaVuSerif-65" transform="translate(840.288086 0.765625)"/>
      <use xlink:href="#DejaVuSerif-6c" transform="translate(899.467773 0.765625)"/>
      <use xlink:href="#DejaVuSerif-6c" transform="translate(931.450195 0.765625)"/>
      <use xlink:href="#DejaVuSerif-29" transform="translate(963.432617 0.765625)"/>
     </g>
    </g>
    <g id="line2d_110">
     <path d="M 417.062 61.659062 
L 427.062 61.659062 
L 437.062 61.659062 
" style="fill: none; stroke: #ffa500; stroke-width: 2; stroke-linecap: square"/>
    </g>
    <g id="text_19">
     <!-- B $^3\Sigma_g^-$ (single-well) -->
     <g transform="translate(445.062 65.159062) scale(0.1 -0.1)">
      <use xlink:href="#DejaVuSerif-42" transform="translate(0 0.765625)"/>
      <use xlink:href="#DejaVuSerif-20" transform="translate(73.486328 0.765625)"/>
      <use xlink:href="#DejaVuSans-33" transform="translate(106.230469 39.046875) scale(0.7)"/>
      <use xlink:href="#DejaVuSans-3a3" transform="translate(153.500977 0.765625)"/>
      <use xlink:href="#DejaVuSans-2212" transform="translate(231.279297 39.046875) scale(0.7)"/>
      <use xlink:href="#DejaVuSans-Oblique-67" transform="translate(217.641602 -26.578125) scale(0.7)"/>
      <use xlink:href="#DejaVuSerif-20" transform="translate(306.303711 0.765625)"/>
      <use xlink:href="#DejaVuSerif-28" transform="translate(338.09082 0.765625)"/>
      <use xlink:href="#DejaVuSerif-73" transform="translate(377.104492 0.765625)"/>
      <use xlink:href="#DejaVuSerif-69" transform="translate(428.422852 0.765625)"/>
      <use xlink:href="#DejaVuSerif-6e" transform="translate(460.405273 0.765625)"/>
      <use xlink:href="#DejaVuSerif-67" transform="translate(524.80957 0.765625)"/>
      <use xlink:href="#DejaVuSerif-6c" transform="translate(588.823242 0.765625)"/>
      <use xlink:href="#DejaVuSerif-65" transform="translate(620.805664 0.765625)"/>
      <use xlink:href="#DejaVuSerif-2d" transform="translate(679.985352 0.765625)"/>
      <use xlink:href="#DejaVuSerif-77" transform="translate(713.774414 0.765625)"/>
      <use xlink:href="#DejaVuSerif-65" transform="translate(799.370117 0.765625)"/>
      <use xlink:href="#DejaVuSerif-6c" transform="translate(858.549805 0.765625)"/>
      <use xlink:href="#DejaVuSerif-6c" transform="translate(890.532227 0.765625)"/>
      <use xlink:href="#DejaVuSerif-29" transform="translate(922.514648 0.765625)"/>
     </g>
    </g>
   </g>
   <g id="PathCollection_1">
    <defs>
     <path id="m7cdcbab72a" d="M 0 3.872983 
C 1.027127 3.872983 2.012324 3.464901 2.738613 2.738613 
C 3.464901 2.012324 3.872983 1.027127 3.872983 0 
C 3.872983 -1.027127 3.464901 -2.012324 2.738613 -2.738613 
C 2.012324 -3.464901 1.027127 -3.872983 0 -3.872983 
C -1.027127 -3.872983 -2.012324 -3.464901 -2.738613 -2.738613 
C -3.464901 -2.012324 -3.872983 -1.027127 -3.872983 0 
C -3.872983 1.027127 -3.464901 2.012324 -2.738613 2.738613 
C -2.012324 3.464901 -1.027127 3.872983 0 3.872983 
z
" style="stroke: #000000"/>
    </defs>
    <g clip-path="url(#pfef0c1b05c)">
     <use xlink:href="#m7cdcbab72a" x="130.684009" y="313.566562" style="stroke: #000000"/>
     <use xlink:href="#m7cdcbab72a" x="194.87068" y="188.161042" style="stroke: #000000"/>
    </g>
   </g>
  </g>
  <g id="axes_2">
   <g id="patch_10">
    <path d="M 76.33 667.086562 
L 554.362 667.086562 
L 554.362 365.279062 
L 76.33 365.279062 
z
" style="fill: #ffffff"/>
   </g>
   <g id="patch_11">
    <path d="M 122.823931 667.086562 
L 122.823931 365.279062 
L 139.826956 365.279062 
L 139.826956 667.086562 
z
" clip-path="url(#p495989016c)" style="fill: #4682b4; opacity: 0.15; stroke: #4682b4; stroke-linejoin: miter"/>
   </g>
   <g id="matplotlib.axis_3">
    <g id="xtick_27">
     <g id="line2d_111">
      <g>
       <use xlink:href="#m834ba6dbf9" x="94.034889" y="667.086562" style="stroke: #000000; stroke-width: 0.8"/>
      </g>
     </g>
     <g id="line2d_112">
      <g>
       <use xlink:href="#m2a7e8667c0" x="94.034889" y="365.279062" style="stroke: #000000; stroke-width: 0.8"/>
      </g>
     </g>
     <g id="text_20">
      <!-- 1.0 -->
      <g transform="translate(84.493014 679.704687) scale(0.12 -0.12)">
       <use xlink:href="#DejaVuSerif-31"/>
       <use xlink:href="#DejaVuSerif-2e" x="63.623047"/>
       <use xlink:href="#DejaVuSerif-30" x="95.410156"/>
      </g>
     </g>
    </g>
    <g id="xtick_28">
     <g id="line2d_113">
      <g>
       <use xlink:href="#m834ba6dbf9" x="182.559333" y="667.086562" style="stroke: #000000; stroke-width: 0.8"/>
      </g>
     </g>
     <g id="line2d_114">
      <g>
       <use xlink:href="#m2a7e8667c0" x="182.559333" y="365.279062" style="stroke: #000000; stroke-width: 0.8"/>
      </g>
     </g>
     <g id="text_21">
      <!-- 1.5 -->
      <g transform="translate(173.017458 679.704687) scale(0.12 -0.12)">
       <use xlink:href="#DejaVuSerif-31"/>
       <use xlink:href="#DejaVuSerif-2e" x="63.623047"/>
       <use xlink:href="#DejaVuSerif-35" x="95.410156"/>
      </g>
     </g>
    </g>
    <g id="xtick_29">
     <g id="line2d_115">
      <g>
       <use xlink:href="#m834ba6dbf9" x="271.083778" y="667.086562" style="stroke: #000000; stroke-width: 0.8"/>
      </g>
     </g>
     <g id="line2d_116">
      <g>
       <use xlink:href="#m2a7e8667c0" x="271.083778" y="365.279062" style="stroke: #000000; stroke-width: 0.8"/>
      </g>
     </g>
     <g id="text_22">
      <!-- 2.0 -->
      <g transform="translate(261.541903 679.704687) scale(0.12 -0.12)">
       <use xlink:href="#DejaVuSerif-32"/>
       <use xlink:href="#DejaVuSerif-2e" x="63.623047"/>
       <use xlink:href="#DejaVuSerif-30" x="95.410156"/>
      </g>
     </g>
    </g>
    <g id="xtick_30">
     <g id="line2d_117">
      <g>
       <use xlink:href="#m834ba6dbf9" x="359.608222" y="667.086562" style="stroke: #000000; stroke-width: 0.8"/>
      </g>
     </g>
     <g id="line2d_118">
      <g>
       <use xlink:href="#m2a7e8667c0" x="359.608222" y="365.279062" style="stroke: #000000; stroke-width: 0.8"/>
      </g>
     </g>
     <g id="text_23">
      <!-- 2.5 -->
      <g transform="translate(350.066347 679.704687) scale(0.12 -0.12)">
       <use xlink:href="#DejaVuSerif-32"/>
       <use xlink:href="#DejaVuSerif-2e" x="63.623047"/>
       <use xlink:href="#DejaVuSerif-35" x="95.410156"/>
      </g>
     </g>
    </g>
    <g id="xtick_31">
     <g id="line2d_119">
      <g>
       <use xlink:href="#m834ba6dbf9" x="448.132667" y="667.086562" style="stroke: #000000; stroke-width: 0.8"/>
      </g>
     </g>
     <g id="line2d_120">
      <g>
       <use xlink:href="#m2a7e8667c0" x="448.132667" y="365.279062" style="stroke: #000000; stroke-width: 0.8"/>
      </g>
     </g>
     <g id="text_24">
      <!-- 3.0 -->
      <g transform="translate(438.590792 679.704687) scale(0.12 -0.12)">
       <use xlink:href="#DejaVuSerif-33"/>
       <use xlink:href="#DejaVuSerif-2e" x="63.623047"/>
       <use xlink:href="#DejaVuSerif-30" x="95.410156"/>
      </g>
     </g>
    </g>
    <g id="xtick_32">
     <g id="line2d_121">
      <g>
       <use xlink:href="#m834ba6dbf9" x="536.657111" y="667.086562" style="stroke: #000000; stroke-width: 0.8"/>
      </g>
     </g>
     <g id="line2d_122">
      <g>
       <use xlink:href="#m2a7e8667c0" x="536.657111" y="365.279062" style="stroke: #000000; stroke-width: 0.8"/>
      </g>
     </g>
     <g id="text_25">
      <!-- 3.5 -->
      <g transform="translate(527.115236 679.704687) scale(0.12 -0.12)">
       <use xlink:href="#DejaVuSerif-33"/>
       <use xlink:href="#DejaVuSerif-2e" x="63.623047"/>
       <use xlink:href="#DejaVuSerif-35" x="95.410156"/>
      </g>
     </g>
    </g>
    <g id="xtick_33">
     <g id="line2d_123">
      <g>
       <use xlink:href="#md8e4c157e9" x="111.739778" y="667.086562" style="stroke: #000000; stroke-width: 0.6"/>
      </g>
     </g>
     <g id="line2d_124">
      <g>
       <use xlink:href="#m8a4f7d67d3" x="111.739778" y="365.279062" style="stroke: #000000; stroke-width: 0.6"/>
      </g>
     </g>
    </g>
    <g id="xtick_34">
     <g id="line2d_125">
      <g>
       <use xlink:href="#md8e4c157e9" x="129.444667" y="667.086562" style="stroke: #000000; stroke-width: 0.6"/>
      </g>
     </g>
     <g id="line2d_126">
      <g>
       <use xlink:href="#m8a4f7d67d3" x="129.444667" y="365.279062" style="stroke: #000000; stroke-width: 0.6"/>
      </g>
     </g>
    </g>
    <g id="xtick_35">
     <g id="line2d_127">
      <g>
       <use xlink:href="#md8e4c157e9" x="147.149556" y="667.086562" style="stroke: #000000; stroke-width: 0.6"/>
      </g>
     </g>
     <g id="line2d_128">
      <g>
       <use xlink:href="#m8a4f7d67d3" x="147.149556" y="365.279062" style="stroke: #000000; stroke-width: 0.6"/>
      </g>
     </g>
    </g>
    <g id="xtick_36">
     <g id="line2d_129">
      <g>
       <use xlink:href="#md8e4c157e9" x="164.854444" y="667.086562" style="stroke: #000000; stroke-width: 0.6"/>
      </g>
     </g>
     <g id="line2d_130">
      <g>
       <use xlink:href="#m8a4f7d67d3" x="164.854444" y="365.279062" style="stroke: #000000; stroke-width: 0.6"/>
      </g>
     </g>
    </g>
    <g id="xtick_37">
     <g id="line2d_131">
      <g>
       <use xlink:href="#md8e4c157e9" x="200.264222" y="667.086562" style="stroke: #000000; stroke-width: 0.6"/>
      </g>
     </g>
     <g id="line2d_132">
      <g>
       <use xlink:href="#m8a4f7d67d3" x="200.264222" y="365.279062" style="stroke: #000000; stroke-width: 0.6"/>
      </g>
     </g>
    </g>
    <g id="xtick_38">
     <g id="line2d_133">
      <g>
       <use xlink:href="#md8e4c157e9" x="217.969111" y="667.086562" style="stroke: #000000; stroke-width: 0.6"/>
      </g>
     </g>
     <g id="line2d_134">
      <g>
       <use xlink:href="#m8a4f7d67d3" x="217.969111" y="365.279062" style="stroke: #000000; stroke-width: 0.6"/>
      </g>
     </g>
    </g>
    <g id="xtick_39">
     <g id="line2d_135">
      <g>
       <use xlink:href="#md8e4c157e9" x="235.674" y="667.086562" style="stroke: #000000; stroke-width: 0.6"/>
      </g>
     </g>
     <g id="line2d_136">
      <g>
       <use xlink:href="#m8a4f7d67d3" x="235.674" y="365.279062" style="stroke: #000000; stroke-width: 0.6"/>
      </g>
     </g>
    </g>
    <g id="xtick_40">
     <g id="line2d_137">
      <g>
       <use xlink:href="#md8e4c157e9" x="253.378889" y="667.086562" style="stroke: #000000; stroke-width: 0.6"/>
      </g>
     </g>
     <g id="line2d_138">
      <g>
       <use xlink:href="#m8a4f7d67d3" x="253.378889" y="365.279062" style="stroke: #000000; stroke-width: 0.6"/>
      </g>
     </g>
    </g>
    <g id="xtick_41">
     <g id="line2d_139">
      <g>
       <use xlink:href="#md8e4c157e9" x="288.788667" y="667.086562" style="stroke: #000000; stroke-width: 0.6"/>
      </g>
     </g>
     <g id="line2d_140">
      <g>
       <use xlink:href="#m8a4f7d67d3" x="288.788667" y="365.279062" style="stroke: #000000; stroke-width: 0.6"/>
      </g>
     </g>
    </g>
    <g id="xtick_42">
     <g id="line2d_141">
      <g>
       <use xlink:href="#md8e4c157e9" x="306.493556" y="667.086562" style="stroke: #000000; stroke-width: 0.6"/>
      </g>
     </g>
     <g id="line2d_142">
      <g>
       <use xlink:href="#m8a4f7d67d3" x="306.493556" y="365.279062" style="stroke: #000000; stroke-width: 0.6"/>
      </g>
     </g>
    </g>
    <g id="xtick_43">
     <g id="line2d_143">
      <g>
       <use xlink:href="#md8e4c157e9" x="324.198444" y="667.086562" style="stroke: #000000; stroke-width: 0.6"/>
      </g>
     </g>
     <g id="line2d_144">
      <g>
       <use xlink:href="#m8a4f7d67d3" x="324.198444" y="365.279062" style="stroke: #000000; stroke-width: 0.6"/>
      </g>
     </g>
    </g>
    <g id="xtick_44">
     <g id="line2d_145">
      <g>
       <use xlink:href="#md8e4c157e9" x="341.903333" y="667.086562" style="stroke: #000000; stroke-width: 0.6"/>
      </g>
     </g>
     <g id="line2d_146">
      <g>
       <use xlink:href="#m8a4f7d67d3" x="341.903333" y="365.279062" style="stroke: #000000; stroke-width: 0.6"/>
      </g>
     </g>
    </g>
    <g id="xtick_45">
     <g id="line2d_147">
      <g>
       <use xlink:href="#md8e4c157e9" x="377.313111" y="667.086562" style="stroke: #000000; stroke-width: 0.6"/>
      </g>
     </g>
     <g id="line2d_148">
      <g>
       <use xlink:href="#m8a4f7d67d3" x="377.313111" y="365.279062" style="stroke: #000000; stroke-width: 0.6"/>
      </g>
     </g>
    </g>
    <g id="xtick_46">
     <g id="line2d_149">
      <g>
       <use xlink:href="#md8e4c157e9" x="395.018" y="667.086562" style="stroke: #000000; stroke-width: 0.6"/>
      </g>
     </g>
     <g id="line2d_150">
      <g>
       <use xlink:href="#m8a4f7d67d3" x="395.018" y="365.279062" style="stroke: #000000; stroke-width: 0.6"/>
      </g>
     </g>
    </g>
    <g id="xtick_47">
     <g id="line2d_151">
      <g>
       <use xlink:href="#md8e4c157e9" x="412.722889" y="667.086562" style="stroke: #000000; stroke-width: 0.6"/>
      </g>
     </g>
     <g id="line2d_152">
      <g>
       <use xlink:href="#m8a4f7d67d3" x="412.722889" y="365.279062" style="stroke: #000000; stroke-width: 0.6"/>
      </g>
     </g>
    </g>
    <g id="xtick_48">
     <g id="line2d_153">
      <g>
       <use xlink:href="#md8e4c157e9" x="430.427778" y="667.086562" style="stroke: #000000; stroke-width: 0.6"/>
      </g>
     </g>
     <g id="line2d_154">
      <g>
       <use xlink:href="#m8a4f7d67d3" x="430.427778" y="365.279062" style="stroke: #000000; stroke-width: 0.6"/>
      </g>
     </g>
    </g>
    <g id="xtick_49">
     <g id="line2d_155">
      <g>
       <use xlink:href="#md8e4c157e9" x="465.837556" y="667.086562" style="stroke: #000000; stroke-width: 0.6"/>
      </g>
     </g>
     <g id="line2d_156">
      <g>
       <use xlink:href="#m8a4f7d67d3" x="465.837556" y="365.279062" style="stroke: #000000; stroke-width: 0.6"/>
      </g>
     </g>
    </g>
    <g id="xtick_50">
     <g id="line2d_157">
      <g>
       <use xlink:href="#md8e4c157e9" x="483.542444" y="667.086562" style="stroke: #000000; stroke-width: 0.6"/>
      </g>
     </g>
     <g id="line2d_158">
      <g>
       <use xlink:href="#m8a4f7d67d3" x="483.542444" y="365.279062" style="stroke: #000000; stroke-width: 0.6"/>
      </g>
     </g>
    </g>
    <g id="xtick_51">
     <g id="line2d_159">
      <g>
       <use xlink:href="#md8e4c157e9" x="501.247333" y="667.086562" style="stroke: #000000; stroke-width: 0.6"/>
      </g>
     </g>
     <g id="line2d_160">
      <g>
       <use xlink:href="#m8a4f7d67d3" x="501.247333" y="365.279062" style="stroke: #000000; stroke-width: 0.6"/>
      </g>
     </g>
    </g>
    <g id="xtick_52">
     <g id="line2d_161">
      <g>
       <use xlink:href="#md8e4c157e9" x="518.952222" y="667.086562" style="stroke: #000000; stroke-width: 0.6"/>
      </g>
     </g>
     <g id="line2d_162">
      <g>
       <use xlink:href="#m8a4f7d67d3" x="518.952222" y="365.279062" style="stroke: #000000; stroke-width: 0.6"/>
      </g>
     </g>
    </g>
    <g id="text_26">
     <!-- Internuclear Distance [Å] -->
     <g transform="translate(224.963969 698.130937) scale(0.14 -0.14)">
      <use xlink:href="#DejaVuSerif-49"/>
      <use xlink:href="#DejaVuSerif-6e" x="39.501953"/>
      <use xlink:href="#DejaVuSerif-74" x="103.90625"/>
      <use xlink:href="#DejaVuSerif-65" x="144.091797"/>
      <use xlink:href="#DejaVuSerif-72" x="203.271484"/>
      <use xlink:href="#DejaVuSerif-6e" x="251.074219"/>
      <use xlink:href="#DejaVuSerif-75" x="315.478516"/>
      <use xlink:href="#DejaVuSerif-63" x="379.882812"/>
      <use xlink:href="#DejaVuSerif-6c" x="435.888672"/>
      <use xlink:href="#DejaVuSerif-65" x="467.871094"/>
      <use xlink:href="#DejaVuSerif-61" x="527.050781"/>
      <use xlink:href="#DejaVuSerif-72" x="586.669922"/>
      <use xlink:href="#DejaVuSerif-20" x="634.472656"/>
      <use xlink:href="#DejaVuSerif-44" x="666.259766"/>
      <use xlink:href="#DejaVuSerif-69" x="746.435547"/>
      <use xlink:href="#DejaVuSerif-73" x="778.417969"/>
      <use xlink:href="#DejaVuSerif-74" x="829.736328"/>
      <use xlink:href="#DejaVuSerif-61" x="869.921875"/>
      <use xlink:href="#DejaVuSerif-6e" x="929.541016"/>
      <use xlink:href="#DejaVuSerif-63" x="993.945312"/>
      <use xlink:href="#DejaVuSerif-65" x="1049.951172"/>
      <use xlink:href="#DejaVuSerif-20" x="1109.130859"/>
      <use xlink:href="#DejaVuSerif-5b" x="1140.917969"/>
      <use xlink:href="#DejaVuSerif-c5" x="1179.931641"/>
      <use xlink:href="#DejaVuSerif-5d" x="1252.148438"/>
     </g>
    </g>
   </g>
   <g id="matplotlib.axis_4">
    <g id="ytick_26">
     <g id="line2d_163">
      <g>
       <use xlink:href="#m8b39e54c2c" x="76.33" y="667.086562" style="stroke: #000000; stroke-width: 0.8"/>
      </g>
     </g>
     <g id="line2d_164">
      <g>
       <use xlink:href="#mec5b508d98" x="554.362" y="667.086562" style="stroke: #000000; stroke-width: 0.8"/>
      </g>
     </g>
     <g id="text_27">
      <!-- 0.0 -->
      <g transform="translate(53.74625 671.645625) scale(0.12 -0.12)">
       <use xlink:href="#DejaVuSerif-30"/>
       <use xlink:href="#DejaVuSerif-2e" x="63.623047"/>
       <use xlink:href="#DejaVuSerif-30" x="95.410156"/>
      </g>
     </g>
    </g>
    <g id="ytick_27">
     <g id="line2d_165">
      <g>
       <use xlink:href="#m8b39e54c2c" x="76.33" y="606.725062" style="stroke: #000000; stroke-width: 0.8"/>
      </g>
     </g>
     <g id="line2d_166">
      <g>
       <use xlink:href="#mec5b508d98" x="554.362" y="606.725062" style="stroke: #000000; stroke-width: 0.8"/>
      </g>
     </g>
     <g id="text_28">
      <!-- 0.5 -->
      <g transform="translate(53.74625 611.284125) scale(0.12 -0.12)">
       <use xlink:href="#DejaVuSerif-30"/>
       <use xlink:href="#DejaVuSerif-2e" x="63.623047"/>
       <use xlink:href="#DejaVuSerif-35" x="95.410156"/>
      </g>
     </g>
    </g>
    <g id="ytick_28">
     <g id="line2d_167">
      <g>
       <use xlink:href="#m8b39e54c2c" x="76.33" y="546.363562" style="stroke: #000000; stroke-width: 0.8"/>
      </g>
     </g>
     <g id="line2d_168">
      <g>
       <use xlink:href="#mec5b508d98" x="554.362" y="546.363562" style="stroke: #000000; stroke-width: 0.8"/>
      </g>
     </g>
     <g id="text_29">
      <!-- 1.0 -->
      <g transform="translate(53.74625 550.922625) scale(0.12 -0.12)">
       <use xlink:href="#DejaVuSerif-31"/>
       <use xlink:href="#DejaVuSerif-2e" x="63.623047"/>
       <use xlink:href="#DejaVuSerif-30" x="95.410156"/>
      </g>
     </g>
    </g>
    <g id="ytick_29">
     <g id="line2d_169">
      <g>
       <use xlink:href="#m8b39e54c2c" x="76.33" y="486.002062" style="stroke: #000000; stroke-width: 0.8"/>
      </g>
     </g>
     <g id="line2d_170">
      <g>
       <use xlink:href="#mec5b508d98" x="554.362" y="486.002062" style="stroke: #000000; stroke-width: 0.8"/>
      </g>
     </g>
     <g id="text_30">
      <!-- 1.5 -->
      <g transform="translate(53.74625 490.561125) scale(0.12 -0.12)">
       <use xlink:href="#DejaVuSerif-31"/>
       <use xlink:href="#DejaVuSerif-2e" x="63.623047"/>
       <use xlink:href="#DejaVuSerif-35" x="95.410156"/>
      </g>
     </g>
    </g>
    <g id="ytick_30">
     <g id="line2d_171">
      <g>
       <use xlink:href="#m8b39e54c2c" x="76.33" y="425.640562" style="stroke: #000000; stroke-width: 0.8"/>
      </g>
     </g>
     <g id="line2d_172">
      <g>
       <use xlink:href="#mec5b508d98" x="554.362" y="425.640562" style="stroke: #000000; stroke-width: 0.8"/>
      </g>
     </g>
     <g id="text_31">
      <!-- 2.0 -->
      <g transform="translate(53.74625 430.199625) scale(0.12 -0.12)">
       <use xlink:href="#DejaVuSerif-32"/>
       <use xlink:href="#DejaVuSerif-2e" x="63.623047"/>
       <use xlink:href="#DejaVuSerif-30" x="95.410156"/>
      </g>
     </g>
    </g>
    <g id="ytick_31">
     <g id="line2d_173">
      <g>
       <use xlink:href="#m8b39e54c2c" x="76.33" y="365.279062" style="stroke: #000000; stroke-width: 0.8"/>
      </g>
     </g>
     <g id="line2d_174">
      <g>
       <use xlink:href="#mec5b508d98" x="554.362" y="365.279062" style="stroke: #000000; stroke-width: 0.8"/>
      </g>
     </g>
     <g id="text_32">
      <!-- 2.5 -->
      <g transform="translate(53.74625 369.838125) scale(0.12 -0.12)">
       <use xlink:href="#DejaVuSerif-32"/>
       <use xlink:href="#DejaVuSerif-2e" x="63.623047"/>
       <use xlink:href="#DejaVuSerif-35" x="95.410156"/>
      </g>
     </g>
    </g>
    <g id="ytick_32">
     <g id="line2d_175">
      <g>
       <use xlink:href="#mc6a6d28d99" x="76.33" y="655.014262" style="stroke: #000000; stroke-width: 0.6"/>
      </g>
     </g>
     <g id="line2d_176">
      <g>
       <use xlink:href="#m51d6f1ebb8" x="554.362" y="655.014262" style="stroke: #000000; stroke-width: 0.6"/>
      </g>
     </g>
    </g>
    <g id="ytick_33">
     <g id="line2d_177">
      <g>
       <use xlink:href="#mc6a6d28d99" x="76.33" y="642.941962" style="stroke: #000000; stroke-width: 0.6"/>
      </g>
     </g>
     <g id="line2d_178">
      <g>
       <use xlink:href="#m51d6f1ebb8" x="554.362" y="642.941962" style="stroke: #000000; stroke-width: 0.6"/>
      </g>
     </g>
    </g>
    <g id="ytick_34">
     <g id="line2d_179">
      <g>
       <use xlink:href="#mc6a6d28d99" x="76.33" y="630.869662" style="stroke: #000000; stroke-width: 0.6"/>
      </g>
     </g>
     <g id="line2d_180">
      <g>
       <use xlink:href="#m51d6f1ebb8" x="554.362" y="630.869662" style="stroke: #000000; stroke-width: 0.6"/>
      </g>
     </g>
    </g>
    <g id="ytick_35">
     <g id="line2d_181">
      <g>
       <use xlink:href="#mc6a6d28d99" x="76.33" y="618.797362" style="stroke: #000000; stroke-width: 0.6"/>
      </g>
     </g>
     <g id="line2d_182">
      <g>
       <use xlink:href="#m51d6f1ebb8" x="554.362" y="618.797362" style="stroke: #000000; stroke-width: 0.6"/>
      </g>
     </g>
    </g>
    <g id="ytick_36">
     <g id="line2d_183">
      <g>
       <use xlink:href="#mc6a6d28d99" x="76.33" y="594.652762" style="stroke: #000000; stroke-width: 0.6"/>
      </g>
     </g>
     <g id="line2d_184">
      <g>
       <use xlink:href="#m51d6f1ebb8" x="554.362" y="594.652762" style="stroke: #000000; stroke-width: 0.6"/>
      </g>
     </g>
    </g>
    <g id="ytick_37">
     <g id="line2d_185">
      <g>
       <use xlink:href="#mc6a6d28d99" x="76.33" y="582.580462" style="stroke: #000000; stroke-width: 0.6"/>
      </g>
     </g>
     <g id="line2d_186">
      <g>
       <use xlink:href="#m51d6f1ebb8" x="554.362" y="582.580462" style="stroke: #000000; stroke-width: 0.6"/>
      </g>
     </g>
    </g>
    <g id="ytick_38">
     <g id="line2d_187">
      <g>
       <use xlink:href="#mc6a6d28d99" x="76.33" y="570.508162" style="stroke: #000000; stroke-width: 0.6"/>
      </g>
     </g>
     <g id="line2d_188">
      <g>
       <use xlink:href="#m51d6f1ebb8" x="554.362" y="570.508162" style="stroke: #000000; stroke-width: 0.6"/>
      </g>
     </g>
    </g>
    <g id="ytick_39">
     <g id="line2d_189">
      <g>
       <use xlink:href="#mc6a6d28d99" x="76.33" y="558.435862" style="stroke: #000000; stroke-width: 0.6"/>
      </g>
     </g>
     <g id="line2d_190">
      <g>
       <use xlink:href="#m51d6f1ebb8" x="554.362" y="558.435862" style="stroke: #000000; stroke-width: 0.6"/>
      </g>
     </g>
    </g>
    <g id="ytick_40">
     <g id="line2d_191">
      <g>
       <use xlink:href="#mc6a6d28d99" x="76.33" y="534.291262" style="stroke: #000000; stroke-width: 0.6"/>
      </g>
     </g>
     <g id="line2d_192">
      <g>
       <use xlink:href="#m51d6f1ebb8" x="554.362" y="534.291262" style="stroke: #000000; stroke-width: 0.6"/>
      </g>
     </g>
    </g>
    <g id="ytick_41">
     <g id="line2d_193">
      <g>
       <use xlink:href="#mc6a6d28d99" x="76.33" y="522.218962" style="stroke: #000000; stroke-width: 0.6"/>
      </g>
     </g>
     <g id="line2d_194">
      <g>
       <use xlink:href="#m51d6f1ebb8" x="554.362" y="522.218962" style="stroke: #000000; stroke-width: 0.6"/>
      </g>
     </g>
    </g>
    <g id="ytick_42">
     <g id="line2d_195">
      <g>
       <use xlink:href="#mc6a6d28d99" x="76.33" y="510.146662" style="stroke: #000000; stroke-width: 0.6"/>
      </g>
     </g>
     <g id="line2d_196">
      <g>
       <use xlink:href="#m51d6f1ebb8" x="554.362" y="510.146662" style="stroke: #000000; stroke-width: 0.6"/>
      </g>
     </g>
    </g>
    <g id="ytick_43">
     <g id="line2d_197">
      <g>
       <use xlink:href="#mc6a6d28d99" x="76.33" y="498.074362" style="stroke: #000000; stroke-width: 0.6"/>
      </g>
     </g>
     <g id="line2d_198">
      <g>
       <use xlink:href="#m51d6f1ebb8" x="554.362" y="498.074362" style="stroke: #000000; stroke-width: 0.6"/>
      </g>
     </g>
    </g>
    <g id="ytick_44">
     <g id="line2d_199">
      <g>
       <use xlink:href="#mc6a6d28d99" x="76.33" y="473.929762" style="stroke: #000000; stroke-width: 0.6"/>
      </g>
     </g>
     <g id="line2d_200">
      <g>
       <use xlink:href="#m51d6f1ebb8" x="554.362" y="473.929762" style="stroke: #000000; stroke-width: 0.6"/>
      </g>
     </g>
    </g>
    <g id="ytick_45">
     <g id="line2d_201">
      <g>
       <use xlink:href="#mc6a6d28d99" x="76.33" y="461.857462" style="stroke: #000000; stroke-width: 0.6"/>
      </g>
     </g>
     <g id="line2d_202">
      <g>
       <use xlink:href="#m51d6f1ebb8" x="554.362" y="461.857462" style="stroke: #000000; stroke-width: 0.6"/>
      </g>
     </g>
    </g>
    <g id="ytick_46">
     <g id="line2d_203">
      <g>
       <use xlink:href="#mc6a6d28d99" x="76.33" y="449.785162" style="stroke: #000000; stroke-width: 0.6"/>
      </g>
     </g>
     <g id="line2d_204">
      <g>
       <use xlink:href="#m51d6f1ebb8" x="554.362" y="449.785162" style="stroke: #000000; stroke-width: 0.6"/>
      </g>
     </g>
    </g>
    <g id="ytick_47">
     <g id="line2d_205">
      <g>
       <use xlink:href="#mc6a6d28d99" x="76.33" y="437.712862" style="stroke: #000000; stroke-width: 0.6"/>
      </g>
     </g>
     <g id="line2d_206">
      <g>
       <use xlink:href="#m51d6f1ebb8" x="554.362" y="437.712862" style="stroke: #000000; stroke-width: 0.6"/>
      </g>
     </g>
    </g>
    <g id="ytick_48">
     <g id="line2d_207">
      <g>
       <use xlink:href="#mc6a6d28d99" x="76.33" y="413.568262" style="stroke: #000000; stroke-width: 0.6"/>
      </g>
     </g>
     <g id="line2d_208">
      <g>
       <use xlink:href="#m51d6f1ebb8" x="554.362" y="413.568262" style="stroke: #000000; stroke-width: 0.6"/>
      </g>
     </g>
    </g>
    <g id="ytick_49">
     <g id="line2d_209">
      <g>
       <use xlink:href="#mc6a6d28d99" x="76.33" y="401.495962" style="stroke: #000000; stroke-width: 0.6"/>
      </g>
     </g>
     <g id="line2d_210">
      <g>
       <use xlink:href="#m51d6f1ebb8" x="554.362" y="401.495962" style="stroke: #000000; stroke-width: 0.6"/>
      </g>
     </g>
    </g>
    <g id="ytick_50">
     <g id="line2d_211">
      <g>
       <use xlink:href="#mc6a6d28d99" x="76.33" y="389.423662" style="stroke: #000000; stroke-width: 0.6"/>
      </g>
     </g>
     <g id="line2d_212">
      <g>
       <use xlink:href="#m51d6f1ebb8" x="554.362" y="389.423662" style="stroke: #000000; stroke-width: 0.6"/>
      </g>
     </g>
    </g>
    <g id="ytick_51">
     <g id="line2d_213">
      <g>
       <use xlink:href="#mc6a6d28d99" x="76.33" y="377.351362" style="stroke: #000000; stroke-width: 0.6"/>
      </g>
     </g>
     <g id="line2d_214">
      <g>
       <use xlink:href="#m51d6f1ebb8" x="554.362" y="377.351362" style="stroke: #000000; stroke-width: 0.6"/>
      </g>
     </g>
    </g>
    <g id="text_33">
     <!-- Transition Dipole Moment (μ) [Debye] -->
     <g transform="translate(46.635625 651.604375) rotate(-90) scale(0.14 -0.14)">
      <defs>
       <path id="DejaVuSerif-54" d="M 1222 0 
L 1222 331 
L 1819 331 
L 1819 4294 
L 447 4294 
L 447 3566 
L 63 3566 
L 63 4666 
L 4206 4666 
L 4206 3566 
L 3822 3566 
L 3822 4294 
L 2450 4294 
L 2450 331 
L 3047 331 
L 3047 0 
L 1222 0 
z
" transform="scale(0.015625)"/>
       <path id="DejaVuSerif-70" d="M 1313 1825 
L 1313 1497 
Q 1313 897 1542 583 
Q 1772 269 2209 269 
Q 2650 269 2876 622 
Q 3103 975 3103 1663 
Q 3103 2353 2876 2703 
Q 2650 3053 2209 3053 
Q 1772 3053 1542 2737 
Q 1313 2422 1313 1825 
z
M 738 2988 
L 184 2988 
L 184 3322 
L 1313 3322 
L 1313 2803 
Q 1481 3116 1742 3264 
Q 2003 3413 2388 3413 
Q 3000 3413 3387 2928 
Q 3775 2444 3775 1663 
Q 3775 881 3387 395 
Q 3000 -91 2388 -91 
Q 2003 -91 1742 57 
Q 1481 206 1313 519 
L 1313 -997 
L 1856 -997 
L 1856 -1331 
L 184 -1331 
L 184 -997 
L 738 -997 
L 738 2988 
z
" transform="scale(0.015625)"/>
       <path id="DejaVuSerif-4d" d="M 353 0 
L 353 331 
L 947 331 
L 947 4331 
L 319 4331 
L 319 4666 
L 1678 4666 
L 3316 1344 
L 4953 4666 
L 6228 4666 
L 6228 4331 
L 5606 4331 
L 5606 331 
L 6203 331 
L 6203 0 
L 4378 0 
L 4378 331 
L 4972 331 
L 4972 3938 
L 3372 684 
L 2931 684 
L 1331 3938 
L 1331 331 
L 1925 331 
L 1925 0 
L 353 0 
z
" transform="scale(0.015625)"/>
       <path id="DejaVuSerif-3bc" d="M 2309 3322 
L 3384 3322 
L 3384 325 
L 3928 325 
L 3928 0 
L 2809 0 
L 2809 588 
Q 2647 256 2417 82 
Q 2188 -91 1906 -91 
Q 1728 -91 1581 -34 
Q 1434 22 1313 134 
L 1313 -1331 
L 738 -1331 
L 738 2988 
L 219 2988 
L 219 3322 
L 1313 3322 
L 1313 1388 
Q 1313 781 1463 556 
Q 1613 331 1991 331 
Q 2391 331 2600 625 
Q 2809 919 2809 1478 
L 2809 2988 
L 2309 2988 
L 2309 3322 
z
" transform="scale(0.015625)"/>
      </defs>
      <use xlink:href="#DejaVuSerif-54"/>
      <use xlink:href="#DejaVuSerif-72" x="66.699219"/>
      <use xlink:href="#DejaVuSerif-61" x="114.501953"/>
      <use xlink:href="#DejaVuSerif-6e" x="174.121094"/>
      <use xlink:href="#DejaVuSerif-73" x="238.525391"/>
      <use xlink:href="#DejaVuSerif-69" x="289.84375"/>
      <use xlink:href="#DejaVuSerif-74" x="321.826172"/>
      <use xlink:href="#DejaVuSerif-69" x="362.011719"/>
      <use xlink:href="#DejaVuSerif-6f" x="393.994141"/>
      <use xlink:href="#DejaVuSerif-6e" x="454.199219"/>
      <use xlink:href="#DejaVuSerif-20" x="518.603516"/>
      <use xlink:href="#DejaVuSerif-44" x="550.390625"/>
      <use xlink:href="#DejaVuSerif-69" x="630.566406"/>
      <use xlink:href="#DejaVuSerif-70" x="662.548828"/>
      <use xlink:href="#DejaVuSerif-6f" x="726.5625"/>
      <use xlink:href="#DejaVuSerif-6c" x="786.767578"/>
      <use xlink:href="#DejaVuSerif-65" x="818.75"/>
      <use xlink:href="#DejaVuSerif-20" x="877.929688"/>
      <use xlink:href="#DejaVuSerif-4d" x="909.716797"/>
      <use xlink:href="#DejaVuSerif-6f" x="1012.109375"/>
      <use xlink:href="#DejaVuSerif-6d" x="1072.314453"/>
      <use xlink:href="#DejaVuSerif-65" x="1167.138672"/>
      <use xlink:href="#DejaVuSerif-6e" x="1226.318359"/>
      <use xlink:href="#DejaVuSerif-74" x="1290.722656"/>
      <use xlink:href="#DejaVuSerif-20" x="1330.908203"/>
      <use xlink:href="#DejaVuSerif-28" x="1362.695312"/>
      <use xlink:href="#DejaVuSerif-3bc" x="1401.708984"/>
      <use xlink:href="#DejaVuSerif-29" x="1466.699219"/>
      <use xlink:href="#DejaVuSerif-20" x="1505.712891"/>
      <use xlink:href="#DejaVuSerif-5b" x="1537.5"/>
      <use xlink:href="#DejaVuSerif-44" x="1576.513672"/>
      <use xlink:href="#DejaVuSerif-65" x="1656.689453"/>
      <use xlink:href="#DejaVuSerif-62" x="1715.869141"/>
      <use xlink:href="#DejaVuSerif-79" x="1779.882812"/>
      <use xlink:href="#DejaVuSerif-65" x="1836.376953"/>
      <use xlink:href="#DejaVuSerif-5d" x="1895.556641"/>
     </g>
    </g>
   </g>
   <g id="line2d_215">
    <path d="M 89.624143 627.981021 
L 91.945588 615.970937 
L 94.267033 606.821587 
L 96.588479 595.955797 
L 98.445635 584.51686 
L 100.302791 572.219702 
L 102.159947 560.494691 
L 104.945681 550.202048 
L 105.874259 542.193992 
L 107.267127 533.042642 
L 108.892138 522.747498 
L 110.052861 513.023501 
L 111.910017 504.445299 
L 113.767173 493.006361 
L 115.624329 483.283865 
L 117.481486 471.27278 
L 118.874353 460.40499 
L 119.802931 451.824786 
L 121.660087 448.968053 
L 124.445821 452.406936 
L 126.767266 455.272672 
L 131.874446 455.283674 
L 136.285192 459.298205 
L 139.76736 462.738589 
L 143.713817 468.182487 
L 148.588852 475.344826 
L 157.410343 487.951063 
L 166.696124 499.986153 
L 175.517616 511.448097 
L 185.499831 523.198614 
L 195.249901 534.090411 
L 203.374959 544.120487 
L 211.267873 552.719695 
L 217.767919 559.599461 
L 223.339388 566.477227 
L 229.839434 573.929141 
L 237.500204 583.958216 
L 245.160973 593.415145 
L 254.214609 604.877588 
L 260.714656 612.043428 
L 270.232581 622.648651 
L 279.054073 632.394154 
L 292.054166 643.006879 
L 304.589971 650.75787 
L 315.732908 655.359051 
L 323.161532 667.086562 
L 327.340134 667.086562 
L 330.590157 667.086562 
L 333.84018 667.086562 
L 342.197383 667.086562 
L 348.69743 667.086562 
L 354.733187 667.086562 
L 366.340413 667.086562 
L 368.460667 667.086562 
L 373.772133 667.086562 
L 448.132667 667.086562 
" clip-path="url(#p495989016c)" style="fill: none; stroke: #800080; stroke-width: 2; stroke-linecap: square"/>
   </g>
   <g id="line2d_216">
    <path d="M 50.121188 585.370758 
L 54.303445 585.370758 
L 58.021007 585.370758 
L 64.526741 585.370758 
L 76.144122 585.370758 
L 86.832113 585.370758 
L 81.25577 585.370758 
L 91.94376 584.231862 
L 96.126018 581.384622 
L 99.843579 576.259588 
L 101.702361 571.704003 
L 104.490532 566.009522 
L 105.884618 561.453937 
L 107.278703 553.481664 
L 109.137484 547.787183 
L 110.53157 539.245461 
L 111.460961 532.981532 
L 112.390351 520.453673 
L 112.855046 513.620296 
L 113.552089 507.356367 
L 113.784437 501.661886 
L 114.249132 495.113232 
L 114.713827 487.425683 
L 114.946175 482.015926 
L 115.178523 470.342239 
L 115.643218 457.244933 
L 115.875565 444.717074 
L 116.107913 438.737869 
L 116.340261 432.47394 
L 116.572608 426.210011 
L 117.037304 413.397428 
L 117.501999 408.272395 
L 117.966694 396.598709 
L 118.431389 389.480607 
L 119.36078 384.925022 
L 122.613647 380.369437 
L 124.937123 383.216678 
L 127.260599 386.633367 
L 130.513466 392.327848 
L 132.604594 398.022329 
L 135.625113 402.008466 
L 138.87798 407.702947 
L 141.201456 412.82798 
L 143.989628 417.383565 
L 146.777799 421.369702 
L 149.101276 425.925287 
L 152.354142 430.480872 
L 155.607009 435.605905 
L 157.930485 439.592041 
L 161.183352 444.717074 
L 164.436219 449.272659 
L 167.689086 453.258796 
L 169.547866 456.106037 
L 172.336038 458.383829 
L 174.194819 462.369966 
L 176.518295 465.217206 
L 179.771162 468.633895 
L 182.559333 472.620032 
L 186.276895 477.175617 
L 191.388543 484.008994 
L 200.682448 494.25906 
L 212.299829 507.925815 
L 220.664344 518.175881 
L 252.26362 552.342768 
L 235.069896 535.259324 
L 270.85143 567.148419 
L 289.903935 581.95407 
L 303.844793 590.495791 
L 314.532783 597.329169 
L 328.938336 604.731994 
L 342.879193 610.995923 
L 358.678832 617.544577 
L 366.113956 621.245989 
L 375.407861 624.09323 
L 387.025242 627.509919 
L 399.107318 631.496055 
L 409.330614 634.343296 
L 415.836347 636.05164 
L 423.271471 637.759985 
L 430.706595 638.898881 
L 440.0005 641.176673 
L 447.900319 642.885018 
" clip-path="url(#p495989016c)" style="fill: none; stroke: #008000; stroke-width: 2; stroke-linecap: square"/>
   </g>
   <g id="patch_12">
    <path d="M 76.33 667.086562 
L 76.33 365.279062 
" style="fill: none; stroke: #000000; stroke-width: 0.8; stroke-linejoin: miter; stroke-linecap: square"/>
   </g>
   <g id="patch_13">
    <path d="M 554.362 667.086562 
L 554.362 365.279062 
" style="fill: none; stroke: #000000; stroke-width: 0.8; stroke-linejoin: miter; stroke-linecap: square"/>
   </g>
   <g id="patch_14">
    <path d="M 76.33 667.086562 
L 554.362 667.086562 
" style="fill: none; stroke: #000000; stroke-width: 0.8; stroke-linejoin: miter; stroke-linecap: square"/>
   </g>
   <g id="patch_15">
    <path d="M 76.33 365.279062 
L 554.362 365.279062 
" style="fill: none; stroke: #000000; stroke-width: 0.8; stroke-linejoin: miter; stroke-linecap: square"/>
   </g>
   <g id="legend_2">
    <g id="patch_16">
     <path d="M 417.351844 406.370937 
L 546.662 406.370937 
Q 548.862 406.370937 548.862 404.170937 
L 548.862 372.979062 
Q 548.862 370.779062 546.662 370.779062 
L 417.351844 370.779062 
Q 415.151844 370.779062 415.151844 372.979062 
L 415.151844 404.170937 
Q 415.151844 406.370937 417.351844 406.370937 
z
" style="fill: #ffffff; opacity: 0.8; stroke: #cccccc; stroke-linejoin: miter"/>
    </g>
    <g id="line2d_217">
     <path d="M 419.551844 379.687344 
L 430.551844 379.687344 
L 441.551844 379.687344 
" style="fill: none; stroke: #800080; stroke-width: 2; stroke-linecap: square"/>
    </g>
    <g id="text_34">
     <!-- Qin et al. (2023) -->
     <g transform="translate(450.351844 383.537344) scale(0.11 -0.11)">
      <defs>
       <path id="DejaVuSerif-51" d="M 2700 -91 
Q 1628 -91 993 567 
Q 359 1225 359 2328 
Q 359 2894 529 3339 
Q 700 3784 1050 4134 
Q 1356 4441 1750 4595 
Q 2144 4750 2625 4750 
Q 3641 4750 4266 4084 
Q 4891 3419 4891 2328 
Q 4891 1403 4422 773 
Q 3953 144 3128 -38 
Q 3297 -247 3539 -347 
Q 3781 -447 4122 -447 
L 4219 -447 
L 4219 -1025 
Q 3691 -1000 3314 -767 
Q 2938 -534 2700 -91 
z
M 2625 244 
Q 3391 244 3781 770 
Q 4172 1297 4172 2328 
Q 4172 3363 3781 3889 
Q 3391 4416 2625 4416 
Q 1856 4416 1465 3889 
Q 1075 3363 1075 2328 
Q 1075 1297 1465 770 
Q 1856 244 2625 244 
z
" transform="scale(0.015625)"/>
      </defs>
      <use xlink:href="#DejaVuSerif-51"/>
      <use xlink:href="#DejaVuSerif-69" x="81.982422"/>
      <use xlink:href="#DejaVuSerif-6e" x="113.964844"/>
      <use xlink:href="#DejaVuSerif-20" x="178.369141"/>
      <use xlink:href="#DejaVuSerif-65" x="210.15625"/>
      <use xlink:href="#DejaVuSerif-74" x="269.335938"/>
      <use xlink:href="#DejaVuSerif-20" x="309.521484"/>
      <use xlink:href="#DejaVuSerif-61" x="341.308594"/>
      <use xlink:href="#DejaVuSerif-6c" x="400.927734"/>
      <use xlink:href="#DejaVuSerif-2e" x="432.910156"/>
      <use xlink:href="#DejaVuSerif-20" x="464.697266"/>
      <use xlink:href="#DejaVuSerif-28" x="496.484375"/>
      <use xlink:href="#DejaVuSerif-32" x="535.498047"/>
      <use xlink:href="#DejaVuSerif-30" x="599.121094"/>
      <use xlink:href="#DejaVuSerif-32" x="662.744141"/>
      <use xlink:href="#DejaVuSerif-33" x="726.367188"/>
      <use xlink:href="#DejaVuSerif-29" x="789.990234"/>
     </g>
    </g>
    <g id="line2d_218">
     <path d="M 419.551844 395.833281 
L 430.551844 395.833281 
L 441.551844 395.833281 
" style="fill: none; stroke: #008000; stroke-width: 2; stroke-linecap: square"/>
    </g>
    <g id="text_35">
     <!-- Friedman (1990) -->
     <g transform="translate(450.351844 399.683281) scale(0.11 -0.11)">
      <defs>
       <path id="DejaVuSerif-46" d="M 353 0 
L 353 331 
L 947 331 
L 947 4331 
L 353 4331 
L 353 4666 
L 4172 4666 
L 4172 3628 
L 3788 3628 
L 3788 4281 
L 1581 4281 
L 1581 2719 
L 3175 2719 
L 3175 3303 
L 3559 3303 
L 3559 1753 
L 3175 1753 
L 3175 2338 
L 1581 2338 
L 1581 331 
L 2328 331 
L 2328 0 
L 353 0 
z
" transform="scale(0.015625)"/>
       <path id="DejaVuSerif-39" d="M 2994 2091 
Q 2784 1856 2512 1740 
Q 2241 1625 1900 1625 
Q 1206 1625 804 2044 
Q 403 2463 403 3188 
Q 403 3897 839 4323 
Q 1275 4750 2003 4750 
Q 2794 4750 3217 4161 
Q 3641 3572 3641 2478 
Q 3641 1253 3137 581 
Q 2634 -91 1722 -91 
Q 1475 -91 1203 -44 
Q 931 3 647 97 
L 647 872 
L 997 872 
Q 1038 556 1241 387 
Q 1444 219 1784 219 
Q 2391 219 2687 676 
Q 2984 1134 2994 2091 
z
M 1978 4441 
Q 1534 4441 1298 4117 
Q 1063 3794 1063 3188 
Q 1063 2581 1298 2256 
Q 1534 1931 1978 1931 
Q 2422 1931 2658 2245 
Q 2894 2559 2894 3150 
Q 2894 3772 2656 4106 
Q 2419 4441 1978 4441 
z
" transform="scale(0.015625)"/>
      </defs>
      <use xlink:href="#DejaVuSerif-46"/>
      <use xlink:href="#DejaVuSerif-72" x="69.384766"/>
      <use xlink:href="#DejaVuSerif-69" x="117.1875"/>
      <use xlink:href="#DejaVuSerif-65" x="149.169922"/>
      <use xlink:href="#DejaVuSerif-64" x="208.349609"/>
      <use xlink:href="#DejaVuSerif-6d" x="272.363281"/>
      <use xlink:href="#DejaVuSerif-61" x="367.1875"/>
      <use xlink:href="#DejaVuSerif-6e" x="426.806641"/>
      <use xlink:href="#DejaVuSerif-20" x="491.210938"/>
      <use xlink:href="#DejaVuSerif-28" x="522.998047"/>
      <use xlink:href="#DejaVuSerif-31" x="562.011719"/>
      <use xlink:href="#DejaVuSerif-39" x="625.634766"/>
      <use xlink:href="#DejaVuSerif-39" x="689.257812"/>
      <use xlink:href="#DejaVuSerif-30" x="752.880859"/>
      <use xlink:href="#DejaVuSerif-29" x="816.503906"/>
     </g>
    </g>
   </g>
  </g>
 </g>
 <defs>
  <clipPath id="pfef0c1b05c">
   <rect x="76.33" y="11.759062" width="478.032" height="301.8075"/>
  </clipPath>
  <clipPath id="p495989016c">
   <rect x="76.33" y="365.279062" width="478.032" height="301.8075"/>
  </clipPath>
 </defs>
</svg>
