<?xml version="1.0" encoding="utf-8" standalone="no"?>
<!DOCTYPE svg PUBLIC "-//W3C//DTD SVG 1.1//EN"
  "http://www.w3.org/Graphics/SVG/1.1/DTD/svg11.dtd">
<svg xmlns:xlink="http://www.w3.org/1999/xlink" width="532.936384pt" height="423.028012pt" viewBox="0 0 532.936384 423.028012" xmlns="http://www.w3.org/2000/svg" version="1.1">
 <metadata>
  <rdf:RDF xmlns:dc="http://purl.org/dc/elements/1.1/" xmlns:cc="http://creativecommons.org/ns#" xmlns:rdf="http://www.w3.org/1999/02/22-rdf-syntax-ns#">
   <cc:Work>
    <dc:type rdf:resource="http://purl.org/dc/dcmitype/StillImage"/>
    <dc:date>2026-03-26T12:55:53.151670</dc:date>
    <dc:format>image/svg+xml</dc:format>
    <dc:creator>
     <cc:Agent>
      <dc:title>Matplotlib v3.7.1, https://matplotlib.org/</dc:title>
     </cc:Agent>
    </dc:creator>
   </cc:Work>
  </rdf:RDF>
 </metadata>
 <defs>
  <style type="text/css">*{stroke-linejoin: round; stroke-linecap: butt}</style>
 </defs>
 <g id="figure_1">
  <g id="patch_1">
   <path d="M 0 423.028012 
L 532.936384 423.028012 
L 532.936384 0 
L 0 0 
z
" style="fill: #ffffff"/>
  </g>
  <g id="axes_1">
   <g id="patch_2">
    <path d="M 59.5244 380.158712 
L 465.844383 380.158712 
L 465.844383 38.963712 
L 59.5244 38.963712 
z
" style="fill: #fdfefe"/>
   </g>
   <g id="matplotlib.axis_1">
    <g id="xtick_1">
     <g id="line2d_1">
      <path d="M 59.5244 380.158712 
L 59.5244 38.963712 
" clip-path="url(#pb5642b111c)" style="fill: none; stroke: #bdc3c7; stroke-opacity: 0.3; stroke-width: 0.5; stroke-linecap: round"/>
     </g>
     <g id="line2d_2">
      <defs>
       <path id="m7d6aaccd3d" d="M 0 0 
L 0 4.8 
" style="stroke: #262626"/>
      </defs>
      <g>
       <use xlink:href="#m7d6aaccd3d" x="59.5244" y="380.158712" style="fill: #262626; stroke: #262626"/>
      </g>
     </g>
     <g id="text_1">
      <!-- 0 -->
      <g style="fill: #262626" transform="translate(56.165 396.482662) scale(0.1056 -0.1056)">
       <defs>
        <path id="DejaVuSerif-30" d="M 2034 219 
Q 2513 219 2750 744 
Q 2988 1269 2988 2328 
Q 2988 3391 2750 3916 
Q 2513 4441 2034 4441 
Q 1556 4441 1318 3916 
Q 1081 3391 1081 2328 
Q 1081 1269 1318 744 
Q 1556 219 2034 219 
z
M 2034 -91 
Q 1275 -91 848 546 
Q 422 1184 422 2328 
Q 422 3475 848 4112 
Q 1275 4750 2034 4750 
Q 2797 4750 3222 4112 
Q 3647 3475 3647 2328 
Q 3647 1184 3222 546 
Q 2797 -91 2034 -91 
z
" transform="scale(0.015625)"/>
       </defs>
       <use xlink:href="#DejaVuSerif-30"/>
      </g>
     </g>
    </g>
    <g id="xtick_2">
     <g id="line2d_3">
      <path d="M 127.244397 380.158712 
L 127.244397 38.963712 
" clip-path="url(#pb5642b111c)" style="fill: none; stroke: #bdc3c7; stroke-opacity: 0.3; stroke-width: 0.5; stroke-linecap: round"/>
     </g>
     <g id="line2d_4">
      <g>
       <use xlink:href="#m7d6aaccd3d" x="127.244397" y="380.158712" style="fill: #262626; stroke: #262626"/>
      </g>
     </g>
     <g id="text_2">
      <!-- 2 -->
      <g style="fill: #262626" transform="translate(123.884997 396.482662) scale(0.1056 -0.1056)">
       <defs>
        <path id="DejaVuSerif-32" d="M 819 3553 
L 469 3553 
L 469 4384 
Q 803 4563 1142 4656 
Q 1481 4750 1806 4750 
Q 2534 4750 2956 4397 
Q 3378 4044 3378 3438 
Q 3378 2753 2422 1800 
Q 2347 1728 2309 1691 
L 1131 513 
L 3078 513 
L 3078 1088 
L 3444 1088 
L 3444 0 
L 434 0 
L 434 341 
L 1850 1753 
Q 2319 2222 2519 2614 
Q 2719 3006 2719 3438 
Q 2719 3909 2473 4175 
Q 2228 4441 1797 4441 
Q 1350 4441 1106 4219 
Q 863 3997 819 3553 
z
" transform="scale(0.015625)"/>
       </defs>
       <use xlink:href="#DejaVuSerif-32"/>
      </g>
     </g>
    </g>
    <g id="xtick_3">
     <g id="line2d_5">
      <path d="M 194.964394 380.158712 
L 194.964394 38.963712 
" clip-path="url(#pb5642b111c)" style="fill: none; stroke: #bdc3c7; stroke-opacity: 0.3; stroke-width: 0.5; stroke-linecap: round"/>
     </g>
     <g id="line2d_6">
      <g>
       <use xlink:href="#m7d6aaccd3d" x="194.964394" y="380.158712" style="fill: #262626; stroke: #262626"/>
      </g>
     </g>
     <g id="text_3">
      <!-- 4 -->
      <g style="fill: #262626" transform="translate(191.604994 396.482662) scale(0.1056 -0.1056)">
       <defs>
        <path id="DejaVuSerif-34" d="M 2234 1581 
L 2234 4063 
L 641 1581 
L 2234 1581 
z
M 3609 0 
L 1484 0 
L 1484 331 
L 2234 331 
L 2234 1247 
L 197 1247 
L 197 1588 
L 2241 4750 
L 2859 4750 
L 2859 1581 
L 3750 1581 
L 3750 1247 
L 2859 1247 
L 2859 331 
L 3609 331 
L 3609 0 
z
" transform="scale(0.015625)"/>
       </defs>
       <use xlink:href="#DejaVuSerif-34"/>
      </g>
     </g>
    </g>
    <g id="xtick_4">
     <g id="line2d_7">
      <path d="M 262.684392 380.158712 
L 262.684392 38.963712 
" clip-path="url(#pb5642b111c)" style="fill: none; stroke: #bdc3c7; stroke-opacity: 0.3; stroke-width: 0.5; stroke-linecap: round"/>
     </g>
     <g id="line2d_8">
      <g>
       <use xlink:href="#m7d6aaccd3d" x="262.684392" y="380.158712" style="fill: #262626; stroke: #262626"/>
      </g>
     </g>
     <g id="text_4">
      <!-- 6 -->
      <g style="fill: #262626" transform="translate(259.324992 396.482662) scale(0.1056 -0.1056)">
       <defs>
        <path id="DejaVuSerif-36" d="M 2094 219 
Q 2534 219 2771 542 
Q 3009 866 3009 1472 
Q 3009 2078 2771 2401 
Q 2534 2725 2094 2725 
Q 1647 2725 1412 2412 
Q 1178 2100 1178 1509 
Q 1178 888 1415 553 
Q 1653 219 2094 219 
z
M 1075 2569 
Q 1288 2803 1556 2918 
Q 1825 3034 2163 3034 
Q 2859 3034 3264 2615 
Q 3669 2197 3669 1472 
Q 3669 763 3233 336 
Q 2797 -91 2069 -91 
Q 1278 -91 853 498 
Q 428 1088 428 2181 
Q 428 3406 931 4078 
Q 1434 4750 2350 4750 
Q 2597 4750 2869 4703 
Q 3141 4656 3425 4563 
L 3425 3794 
L 3072 3794 
Q 3034 4109 2831 4275 
Q 2628 4441 2284 4441 
Q 1678 4441 1381 3981 
Q 1084 3522 1075 2569 
z
" transform="scale(0.015625)"/>
       </defs>
       <use xlink:href="#DejaVuSerif-36"/>
      </g>
     </g>
    </g>
    <g id="xtick_5">
     <g id="line2d_9">
      <path d="M 330.404389 380.158712 
L 330.404389 38.963712 
" clip-path="url(#pb5642b111c)" style="fill: none; stroke: #bdc3c7; stroke-opacity: 0.3; stroke-width: 0.5; stroke-linecap: round"/>
     </g>
     <g id="line2d_10">
      <g>
       <use xlink:href="#m7d6aaccd3d" x="330.404389" y="380.158712" style="fill: #262626; stroke: #262626"/>
      </g>
     </g>
     <g id="text_5">
      <!-- 8 -->
      <g style="fill: #262626" transform="translate(327.044989 396.482662) scale(0.1056 -0.1056)">
       <defs>
        <path id="DejaVuSerif-38" d="M 2981 1275 
Q 2981 1775 2732 2051 
Q 2484 2328 2034 2328 
Q 1584 2328 1336 2051 
Q 1088 1775 1088 1275 
Q 1088 772 1336 495 
Q 1584 219 2034 219 
Q 2484 219 2732 495 
Q 2981 772 2981 1275 
z
M 2853 3541 
Q 2853 3966 2637 4203 
Q 2422 4441 2034 4441 
Q 1650 4441 1433 4203 
Q 1216 3966 1216 3541 
Q 1216 3113 1433 2875 
Q 1650 2638 2034 2638 
Q 2422 2638 2637 2875 
Q 2853 3113 2853 3541 
z
M 2516 2484 
Q 3047 2413 3344 2092 
Q 3641 1772 3641 1275 
Q 3641 619 3225 264 
Q 2809 -91 2034 -91 
Q 1263 -91 845 264 
Q 428 619 428 1275 
Q 428 1772 725 2092 
Q 1022 2413 1556 2484 
Q 1084 2569 832 2842 
Q 581 3116 581 3541 
Q 581 4103 968 4426 
Q 1356 4750 2034 4750 
Q 2713 4750 3100 4426 
Q 3488 4103 3488 3541 
Q 3488 3116 3236 2842 
Q 2984 2569 2516 2484 
z
" transform="scale(0.015625)"/>
       </defs>
       <use xlink:href="#DejaVuSerif-38"/>
      </g>
     </g>
    </g>
    <g id="xtick_6">
     <g id="line2d_11">
      <path d="M 398.124386 380.158712 
L 398.124386 38.963712 
" clip-path="url(#pb5642b111c)" style="fill: none; stroke: #bdc3c7; stroke-opacity: 0.3; stroke-width: 0.5; stroke-linecap: round"/>
     </g>
     <g id="line2d_12">
      <g>
       <use xlink:href="#m7d6aaccd3d" x="398.124386" y="380.158712" style="fill: #262626; stroke: #262626"/>
      </g>
     </g>
     <g id="text_6">
      <!-- 10 -->
      <g style="fill: #262626" transform="translate(391.405586 396.482662) scale(0.1056 -0.1056)">
       <defs>
        <path id="DejaVuSerif-31" d="M 909 0 
L 909 331 
L 1722 331 
L 1722 4213 
L 781 3603 
L 781 4013 
L 1919 4750 
L 2350 4750 
L 2350 331 
L 3163 331 
L 3163 0 
L 909 0 
z
" transform="scale(0.015625)"/>
       </defs>
       <use xlink:href="#DejaVuSerif-31"/>
       <use xlink:href="#DejaVuSerif-30" x="63.623047"/>
      </g>
     </g>
    </g>
    <g id="xtick_7">
     <g id="line2d_13">
      <path d="M 465.844383 380.158712 
L 465.844383 38.963712 
" clip-path="url(#pb5642b111c)" style="fill: none; stroke: #bdc3c7; stroke-opacity: 0.3; stroke-width: 0.5; stroke-linecap: round"/>
     </g>
     <g id="line2d_14">
      <g>
       <use xlink:href="#m7d6aaccd3d" x="465.844383" y="380.158712" style="fill: #262626; stroke: #262626"/>
      </g>
     </g>
     <g id="text_7">
      <!-- 12 -->
      <g style="fill: #262626" transform="translate(459.125583 396.482662) scale(0.1056 -0.1056)">
       <use xlink:href="#DejaVuSerif-31"/>
       <use xlink:href="#DejaVuSerif-32" x="63.623047"/>
      </g>
     </g>
    </g>
    <g id="text_8">
     <!-- Distance from throat  $x$ (a.u.) -->
     <g style="fill: #262626" transform="translate(177.493992 413.432212) scale(0.1152 -0.1152)">
      <defs>
       <path id="DejaVuSerif-44" d="M 1581 331 
L 2163 331 
Q 3072 331 3558 850 
Q 4044 1369 4044 2338 
Q 4044 3306 3559 3818 
Q 3075 4331 2163 4331 
L 1581 4331 
L 1581 331 
z
M 353 0 
L 353 331 
L 947 331 
L 947 4331 
L 353 4331 
L 353 4666 
L 2209 4666 
Q 3416 4666 4089 4050 
Q 4763 3434 4763 2338 
Q 4763 1238 4088 619 
Q 3413 0 2209 0 
L 353 0 
z
" transform="scale(0.015625)"/>
       <path id="DejaVuSerif-69" d="M 622 4353 
Q 622 4497 726 4603 
Q 831 4709 978 4709 
Q 1122 4709 1226 4603 
Q 1331 4497 1331 4353 
Q 1331 4206 1228 4103 
Q 1125 4000 978 4000 
Q 831 4000 726 4103 
Q 622 4206 622 4353 
z
M 1356 331 
L 1900 331 
L 1900 0 
L 231 0 
L 231 331 
L 781 331 
L 781 2988 
L 231 2988 
L 231 3322 
L 1356 3322 
L 1356 331 
z
" transform="scale(0.015625)"/>
       <path id="DejaVuSerif-73" d="M 359 184 
L 359 959 
L 691 959 
Q 703 588 923 403 
Q 1144 219 1575 219 
Q 1963 219 2166 364 
Q 2369 509 2369 788 
Q 2369 1006 2220 1140 
Q 2072 1275 1594 1428 
L 1178 1569 
Q 750 1706 558 1912 
Q 366 2119 366 2438 
Q 366 2894 700 3153 
Q 1034 3413 1625 3413 
Q 1888 3413 2178 3344 
Q 2469 3275 2778 3144 
L 2778 2419 
L 2447 2419 
Q 2434 2741 2221 2922 
Q 2009 3103 1644 3103 
Q 1281 3103 1095 2975 
Q 909 2847 909 2591 
Q 909 2381 1050 2254 
Q 1191 2128 1613 1997 
L 2069 1856 
Q 2541 1709 2748 1489 
Q 2956 1269 2956 922 
Q 2956 450 2595 179 
Q 2234 -91 1600 -91 
Q 1278 -91 972 -22 
Q 666 47 359 184 
z
" transform="scale(0.015625)"/>
       <path id="DejaVuSerif-74" d="M 691 2988 
L 184 2988 
L 184 3322 
L 691 3322 
L 691 4353 
L 1269 4353 
L 1269 3322 
L 2350 3322 
L 2350 2988 
L 1269 2988 
L 1269 878 
Q 1269 456 1350 337 
Q 1431 219 1650 219 
Q 1875 219 1978 351 
Q 2081 484 2088 781 
L 2522 781 
Q 2497 328 2275 118 
Q 2053 -91 1600 -91 
Q 1103 -91 897 129 
Q 691 350 691 878 
L 691 2988 
z
" transform="scale(0.015625)"/>
       <path id="DejaVuSerif-61" d="M 2547 1044 
L 2547 1747 
L 1806 1747 
Q 1378 1747 1168 1562 
Q 959 1378 959 997 
Q 959 650 1171 447 
Q 1384 244 1747 244 
Q 2106 244 2326 466 
Q 2547 688 2547 1044 
z
M 3122 2075 
L 3122 331 
L 3634 331 
L 3634 0 
L 2547 0 
L 2547 359 
Q 2356 128 2106 18 
Q 1856 -91 1522 -91 
Q 969 -91 644 203 
Q 319 497 319 997 
Q 319 1513 691 1797 
Q 1063 2081 1741 2081 
L 2547 2081 
L 2547 2309 
Q 2547 2688 2317 2895 
Q 2088 3103 1672 3103 
Q 1328 3103 1125 2947 
Q 922 2791 872 2484 
L 575 2484 
L 575 3156 
Q 875 3284 1158 3348 
Q 1441 3413 1709 3413 
Q 2400 3413 2761 3070 
Q 3122 2728 3122 2075 
z
" transform="scale(0.015625)"/>
       <path id="DejaVuSerif-6e" d="M 263 0 
L 263 331 
L 781 331 
L 781 2988 
L 231 2988 
L 231 3322 
L 1356 3322 
L 1356 2731 
Q 1516 3069 1770 3241 
Q 2025 3413 2363 3413 
Q 2913 3413 3172 3097 
Q 3431 2781 3431 2113 
L 3431 331 
L 3944 331 
L 3944 0 
L 2356 0 
L 2356 331 
L 2853 331 
L 2853 1931 
Q 2853 2541 2703 2767 
Q 2553 2994 2175 2994 
Q 1775 2994 1565 2701 
Q 1356 2409 1356 1850 
L 1356 331 
L 1856 331 
L 1856 0 
L 263 0 
z
" transform="scale(0.015625)"/>
       <path id="DejaVuSerif-63" d="M 3291 997 
Q 3169 466 2822 187 
Q 2475 -91 1925 -91 
Q 1200 -91 759 389 
Q 319 869 319 1663 
Q 319 2459 759 2936 
Q 1200 3413 1925 3413 
Q 2241 3413 2553 3339 
Q 2866 3266 3181 3116 
L 3181 2266 
L 2847 2266 
Q 2781 2703 2561 2903 
Q 2341 3103 1931 3103 
Q 1466 3103 1228 2742 
Q 991 2381 991 1663 
Q 991 944 1227 581 
Q 1463 219 1931 219 
Q 2303 219 2525 412 
Q 2747 606 2828 997 
L 3291 997 
z
" transform="scale(0.015625)"/>
       <path id="DejaVuSerif-65" d="M 3469 1600 
L 991 1600 
L 991 1575 
Q 991 903 1244 561 
Q 1497 219 1991 219 
Q 2369 219 2611 417 
Q 2853 616 2950 1006 
L 3413 1006 
Q 3275 459 2904 184 
Q 2534 -91 1931 -91 
Q 1203 -91 761 389 
Q 319 869 319 1663 
Q 319 2450 753 2931 
Q 1188 3413 1894 3413 
Q 2647 3413 3050 2948 
Q 3453 2484 3469 1600 
z
M 2791 1931 
Q 2772 2513 2545 2808 
Q 2319 3103 1894 3103 
Q 1497 3103 1269 2806 
Q 1041 2509 991 1931 
L 2791 1931 
z
" transform="scale(0.015625)"/>
       <path id="DejaVuSerif-20" transform="scale(0.015625)"/>
       <path id="DejaVuSerif-66" d="M 2753 4078 
L 2450 4078 
Q 2447 4313 2317 4434 
Q 2188 4556 1941 4556 
Q 1619 4556 1487 4379 
Q 1356 4203 1356 3750 
L 1356 3322 
L 2284 3322 
L 2284 2988 
L 1356 2988 
L 1356 331 
L 2094 331 
L 2094 0 
L 231 0 
L 231 331 
L 781 331 
L 781 2988 
L 231 2988 
L 231 3322 
L 781 3322 
L 781 3738 
Q 781 4294 1070 4578 
Q 1359 4863 1919 4863 
Q 2128 4863 2337 4825 
Q 2547 4788 2753 4709 
L 2753 4078 
z
" transform="scale(0.015625)"/>
       <path id="DejaVuSerif-72" d="M 3059 3328 
L 3059 2497 
L 2728 2497 
Q 2713 2744 2591 2866 
Q 2469 2988 2234 2988 
Q 1809 2988 1582 2694 
Q 1356 2400 1356 1850 
L 1356 331 
L 2022 331 
L 2022 0 
L 263 0 
L 263 331 
L 781 331 
L 781 2994 
L 231 2994 
L 231 3322 
L 1356 3322 
L 1356 2731 
Q 1525 3078 1790 3245 
Q 2056 3413 2438 3413 
Q 2578 3413 2733 3391 
Q 2888 3369 3059 3328 
z
" transform="scale(0.015625)"/>
       <path id="DejaVuSerif-6f" d="M 1925 219 
Q 2388 219 2623 584 
Q 2859 950 2859 1663 
Q 2859 2375 2623 2739 
Q 2388 3103 1925 3103 
Q 1463 3103 1227 2739 
Q 991 2375 991 1663 
Q 991 950 1228 584 
Q 1466 219 1925 219 
z
M 1925 -91 
Q 1200 -91 759 389 
Q 319 869 319 1663 
Q 319 2456 758 2934 
Q 1197 3413 1925 3413 
Q 2653 3413 3092 2934 
Q 3531 2456 3531 1663 
Q 3531 869 3092 389 
Q 2653 -91 1925 -91 
z
" transform="scale(0.015625)"/>
       <path id="DejaVuSerif-6d" d="M 3316 2675 
Q 3481 3041 3739 3227 
Q 3997 3413 4341 3413 
Q 4863 3413 5119 3089 
Q 5375 2766 5375 2113 
L 5375 331 
L 5894 331 
L 5894 0 
L 4300 0 
L 4300 331 
L 4800 331 
L 4800 2047 
Q 4800 2556 4650 2772 
Q 4500 2988 4153 2988 
Q 3769 2988 3567 2697 
Q 3366 2406 3366 1850 
L 3366 331 
L 3866 331 
L 3866 0 
L 2291 0 
L 2291 331 
L 2791 331 
L 2791 2069 
Q 2791 2566 2641 2777 
Q 2491 2988 2144 2988 
Q 1759 2988 1557 2697 
Q 1356 2406 1356 1850 
L 1356 331 
L 1856 331 
L 1856 0 
L 263 0 
L 263 331 
L 781 331 
L 781 2994 
L 231 2994 
L 231 3322 
L 1356 3322 
L 1356 2731 
Q 1516 3063 1762 3238 
Q 2009 3413 2322 3413 
Q 2709 3413 2968 3220 
Q 3228 3028 3316 2675 
z
" transform="scale(0.015625)"/>
       <path id="DejaVuSerif-68" d="M 263 0 
L 263 331 
L 781 331 
L 781 4531 
L 231 4531 
L 231 4863 
L 1356 4863 
L 1356 2731 
Q 1516 3069 1770 3241 
Q 2025 3413 2363 3413 
Q 2913 3413 3172 3097 
Q 3431 2781 3431 2113 
L 3431 331 
L 3944 331 
L 3944 0 
L 2356 0 
L 2356 331 
L 2853 331 
L 2853 1931 
Q 2853 2541 2704 2764 
Q 2556 2988 2175 2988 
Q 1775 2988 1565 2697 
Q 1356 2406 1356 1850 
L 1356 331 
L 1856 331 
L 1856 0 
L 263 0 
z
" transform="scale(0.015625)"/>
       <path id="DejaVuSans-Oblique-78" d="M 3841 3500 
L 2234 1784 
L 3219 0 
L 2559 0 
L 1819 1388 
L 531 0 
L -166 0 
L 1556 1844 
L 641 3500 
L 1300 3500 
L 1972 2234 
L 3144 3500 
L 3841 3500 
z
" transform="scale(0.015625)"/>
       <path id="DejaVuSerif-28" d="M 2041 -997 
Q 1281 -656 893 83 
Q 506 822 506 1931 
Q 506 3044 893 3783 
Q 1281 4522 2041 4863 
L 2041 4556 
Q 1559 4225 1350 3623 
Q 1141 3022 1141 1931 
Q 1141 844 1350 242 
Q 1559 -359 2041 -691 
L 2041 -997 
z
" transform="scale(0.015625)"/>
       <path id="DejaVuSerif-2e" d="M 603 325 
Q 603 500 722 622 
Q 841 744 1019 744 
Q 1191 744 1312 622 
Q 1434 500 1434 325 
Q 1434 153 1312 31 
Q 1191 -91 1019 -91 
Q 841 -91 722 29 
Q 603 150 603 325 
z
" transform="scale(0.015625)"/>
       <path id="DejaVuSerif-75" d="M 2266 3322 
L 3341 3322 
L 3341 331 
L 3884 331 
L 3884 0 
L 2766 0 
L 2766 588 
Q 2606 256 2353 82 
Q 2100 -91 1766 -91 
Q 1213 -91 952 223 
Q 691 538 691 1209 
L 691 2988 
L 172 2988 
L 172 3322 
L 1269 3322 
L 1269 1388 
Q 1269 781 1417 556 
Q 1566 331 1947 331 
Q 2347 331 2556 625 
Q 2766 919 2766 1478 
L 2766 2988 
L 2266 2988 
L 2266 3322 
z
" transform="scale(0.015625)"/>
       <path id="DejaVuSerif-29" d="M 453 -997 
L 453 -691 
Q 934 -359 1145 242 
Q 1356 844 1356 1931 
Q 1356 3022 1145 3623 
Q 934 4225 453 4556 
L 453 4863 
Q 1216 4522 1603 3783 
Q 1991 3044 1991 1931 
Q 1991 822 1603 83 
Q 1216 -656 453 -997 
z
" transform="scale(0.015625)"/>
      </defs>
      <use xlink:href="#DejaVuSerif-44" transform="translate(0 0.015625)"/>
      <use xlink:href="#DejaVuSerif-69" transform="translate(80.175781 0.015625)"/>
      <use xlink:href="#DejaVuSerif-73" transform="translate(112.158203 0.015625)"/>
      <use xlink:href="#DejaVuSerif-74" transform="translate(163.476562 0.015625)"/>
      <use xlink:href="#DejaVuSerif-61" transform="translate(203.662109 0.015625)"/>
      <use xlink:href="#DejaVuSerif-6e" transform="translate(263.28125 0.015625)"/>
      <use xlink:href="#DejaVuSerif-63" transform="translate(327.685547 0.015625)"/>
      <use xlink:href="#DejaVuSerif-65" transform="translate(383.691406 0.015625)"/>
      <use xlink:href="#DejaVuSerif-20" transform="translate(442.871094 0.015625)"/>
      <use xlink:href="#DejaVuSerif-66" transform="translate(474.658203 0.015625)"/>
      <use xlink:href="#DejaVuSerif-72" transform="translate(511.669922 0.015625)"/>
      <use xlink:href="#DejaVuSerif-6f" transform="translate(559.472656 0.015625)"/>
      <use xlink:href="#DejaVuSerif-6d" transform="translate(619.677734 0.015625)"/>
      <use xlink:href="#DejaVuSerif-20" transform="translate(714.501953 0.015625)"/>
      <use xlink:href="#DejaVuSerif-74" transform="translate(746.289062 0.015625)"/>
      <use xlink:href="#DejaVuSerif-68" transform="translate(786.474609 0.015625)"/>
      <use xlink:href="#DejaVuSerif-72" transform="translate(850.878906 0.015625)"/>
      <use xlink:href="#DejaVuSerif-6f" transform="translate(898.681641 0.015625)"/>
      <use xlink:href="#DejaVuSerif-61" transform="translate(958.886719 0.015625)"/>
      <use xlink:href="#DejaVuSerif-74" transform="translate(1018.505859 0.015625)"/>
      <use xlink:href="#DejaVuSerif-20" transform="translate(1058.691406 0.015625)"/>
      <use xlink:href="#DejaVuSerif-20" transform="translate(1090.478516 0.015625)"/>
      <use xlink:href="#DejaVuSans-Oblique-78" transform="translate(1122.265625 0.015625)"/>
      <use xlink:href="#DejaVuSerif-20" transform="translate(1181.445312 0.015625)"/>
      <use xlink:href="#DejaVuSerif-28" transform="translate(1213.232422 0.015625)"/>
      <use xlink:href="#DejaVuSerif-61" transform="translate(1252.246094 0.015625)"/>
      <use xlink:href="#DejaVuSerif-2e" transform="translate(1311.865234 0.015625)"/>
      <use xlink:href="#DejaVuSerif-75" transform="translate(1343.652344 0.015625)"/>
      <use xlink:href="#DejaVuSerif-2e" transform="translate(1408.056641 0.015625)"/>
      <use xlink:href="#DejaVuSerif-29" transform="translate(1439.84375 0.015625)"/>
     </g>
    </g>
   </g>
   <g id="matplotlib.axis_2">
    <g id="ytick_1">
     <g id="line2d_15">
      <path d="M 59.5244 366.510912 
L 465.844383 366.510912 
" clip-path="url(#pb5642b111c)" style="fill: none; stroke: #bdc3c7; stroke-opacity: 0.3; stroke-width: 0.5; stroke-linecap: round"/>
     </g>
     <g id="line2d_16">
      <defs>
       <path id="m451d8dd44c" d="M 0 0 
L -4.8 0 
" style="stroke: #262626"/>
      </defs>
      <g>
       <use xlink:href="#m451d8dd44c" x="59.5244" y="366.510912" style="fill: #262626; stroke: #262626"/>
      </g>
     </g>
     <g id="text_9">
      <!-- 0 -->
      <g style="fill: #262626" transform="translate(44.5056 370.522887) scale(0.1056 -0.1056)">
       <use xlink:href="#DejaVuSerif-30"/>
      </g>
     </g>
    </g>
    <g id="ytick_2">
     <g id="line2d_17">
      <path d="M 59.5244 332.391412 
L 465.844383 332.391412 
" clip-path="url(#pb5642b111c)" style="fill: none; stroke: #bdc3c7; stroke-opacity: 0.3; stroke-width: 0.5; stroke-linecap: round"/>
     </g>
     <g id="line2d_18">
      <g>
       <use xlink:href="#m451d8dd44c" x="59.5244" y="332.391412" style="fill: #262626; stroke: #262626"/>
      </g>
     </g>
     <g id="text_10">
      <!-- 500 -->
      <g style="fill: #262626" transform="translate(31.068 336.403387) scale(0.1056 -0.1056)">
       <defs>
        <path id="DejaVuSerif-35" d="M 3219 4666 
L 3219 4153 
L 1081 4153 
L 1081 2816 
Q 1244 2928 1461 2984 
Q 1678 3041 1947 3041 
Q 2703 3041 3140 2622 
Q 3578 2203 3578 1478 
Q 3578 738 3136 323 
Q 2694 -91 1894 -91 
Q 1572 -91 1234 -12 
Q 897 66 544 225 
L 544 1131 
L 897 1131 
Q 925 688 1179 453 
Q 1434 219 1894 219 
Q 2388 219 2653 544 
Q 2919 869 2919 1478 
Q 2919 2084 2655 2407 
Q 2391 2731 1894 2731 
Q 1613 2731 1398 2631 
Q 1184 2531 1019 2322 
L 750 2322 
L 750 4666 
L 3219 4666 
z
" transform="scale(0.015625)"/>
       </defs>
       <use xlink:href="#DejaVuSerif-35"/>
       <use xlink:href="#DejaVuSerif-30" x="63.623047"/>
       <use xlink:href="#DejaVuSerif-30" x="127.246094"/>
      </g>
     </g>
    </g>
    <g id="ytick_3">
     <g id="line2d_19">
      <path d="M 59.5244 346.731492 
L 465.844383 346.731492 
" clip-path="url(#pb5642b111c)" style="fill: none; stroke: #bdc3c7; stroke-opacity: 0.3; stroke-width: 0.5; stroke-linecap: round"/>
     </g>
     <g id="line2d_20">
      <g>
       <use xlink:href="#m451d8dd44c" x="59.5244" y="346.731492" style="fill: #262626; stroke: #262626"/>
      </g>
     </g>
     <g id="text_11">
      <!-- 290 -->
      <g style="fill: #262626" transform="translate(31.068 350.743467) scale(0.1056 -0.1056)">
       <defs>
        <path id="DejaVuSerif-39" d="M 2994 2091 
Q 2784 1856 2512 1740 
Q 2241 1625 1900 1625 
Q 1206 1625 804 2044 
Q 403 2463 403 3188 
Q 403 3897 839 4323 
Q 1275 4750 2003 4750 
Q 2794 4750 3217 4161 
Q 3641 3572 3641 2478 
Q 3641 1253 3137 581 
Q 2634 -91 1722 -91 
Q 1475 -91 1203 -44 
Q 931 3 647 97 
L 647 872 
L 997 872 
Q 1038 556 1241 387 
Q 1444 219 1784 219 
Q 2391 219 2687 676 
Q 2984 1134 2994 2091 
z
M 1978 4441 
Q 1534 4441 1298 4117 
Q 1063 3794 1063 3188 
Q 1063 2581 1298 2256 
Q 1534 1931 1978 1931 
Q 2422 1931 2658 2245 
Q 2894 2559 2894 3150 
Q 2894 3772 2656 4106 
Q 2419 4441 1978 4441 
z
" transform="scale(0.015625)"/>
       </defs>
       <use xlink:href="#DejaVuSerif-32"/>
       <use xlink:href="#DejaVuSerif-39" x="63.623047"/>
       <use xlink:href="#DejaVuSerif-30" x="127.246094"/>
      </g>
     </g>
    </g>
    <g id="ytick_4">
     <g id="line2d_21">
      <path d="M 59.5244 298.271912 
L 465.844383 298.271912 
" clip-path="url(#pb5642b111c)" style="fill: none; stroke: #bdc3c7; stroke-opacity: 0.3; stroke-width: 0.5; stroke-linecap: round"/>
     </g>
     <g id="line2d_22">
      <g>
       <use xlink:href="#m451d8dd44c" x="59.5244" y="298.271912" style="fill: #262626; stroke: #262626"/>
      </g>
     </g>
     <g id="text_12">
      <!-- 1000 -->
      <g style="fill: #262626" transform="translate(24.3492 302.283887) scale(0.1056 -0.1056)">
       <use xlink:href="#DejaVuSerif-31"/>
       <use xlink:href="#DejaVuSerif-30" x="63.623047"/>
       <use xlink:href="#DejaVuSerif-30" x="127.246094"/>
       <use xlink:href="#DejaVuSerif-30" x="190.869141"/>
      </g>
     </g>
    </g>
    <g id="ytick_5">
     <g id="line2d_23">
      <path d="M 59.5244 230.032912 
L 465.844383 230.032912 
" clip-path="url(#pb5642b111c)" style="fill: none; stroke: #bdc3c7; stroke-opacity: 0.3; stroke-width: 0.5; stroke-linecap: round"/>
     </g>
     <g id="line2d_24">
      <g>
       <use xlink:href="#m451d8dd44c" x="59.5244" y="230.032912" style="fill: #262626; stroke: #262626"/>
      </g>
     </g>
     <g id="text_13">
      <!-- 2000 -->
      <g style="fill: #262626" transform="translate(24.3492 234.044887) scale(0.1056 -0.1056)">
       <use xlink:href="#DejaVuSerif-32"/>
       <use xlink:href="#DejaVuSerif-30" x="63.623047"/>
       <use xlink:href="#DejaVuSerif-30" x="127.246094"/>
       <use xlink:href="#DejaVuSerif-30" x="190.869141"/>
      </g>
     </g>
    </g>
    <g id="ytick_6">
     <g id="line2d_25">
      <path d="M 59.5244 161.793912 
L 465.844383 161.793912 
" clip-path="url(#pb5642b111c)" style="fill: none; stroke: #bdc3c7; stroke-opacity: 0.3; stroke-width: 0.5; stroke-linecap: round"/>
     </g>
     <g id="line2d_26">
      <g>
       <use xlink:href="#m451d8dd44c" x="59.5244" y="161.793912" style="fill: #262626; stroke: #262626"/>
      </g>
     </g>
     <g id="text_14">
      <!-- 3000 -->
      <g style="fill: #262626" transform="translate(24.3492 165.805887) scale(0.1056 -0.1056)">
       <defs>
        <path id="DejaVuSerif-33" d="M 622 4469 
Q 988 4606 1323 4678 
Q 1659 4750 1953 4750 
Q 2638 4750 3022 4454 
Q 3406 4159 3406 3634 
Q 3406 3213 3140 2930 
Q 2875 2647 2388 2547 
Q 2963 2466 3280 2130 
Q 3597 1794 3597 1259 
Q 3597 606 3158 257 
Q 2719 -91 1894 -91 
Q 1528 -91 1179 -12 
Q 831 66 488 225 
L 488 1131 
L 838 1131 
Q 869 681 1141 450 
Q 1413 219 1906 219 
Q 2384 219 2661 495 
Q 2938 772 2938 1253 
Q 2938 1803 2653 2086 
Q 2369 2369 1819 2369 
L 1522 2369 
L 1522 2688 
L 1678 2688 
Q 2225 2688 2498 2914 
Q 2772 3141 2772 3597 
Q 2772 4006 2547 4223 
Q 2322 4441 1900 4441 
Q 1478 4441 1245 4241 
Q 1013 4041 972 3647 
L 622 3647 
L 622 4469 
z
" transform="scale(0.015625)"/>
       </defs>
       <use xlink:href="#DejaVuSerif-33"/>
       <use xlink:href="#DejaVuSerif-30" x="63.623047"/>
       <use xlink:href="#DejaVuSerif-30" x="127.246094"/>
       <use xlink:href="#DejaVuSerif-30" x="190.869141"/>
      </g>
     </g>
    </g>
    <g id="ytick_7">
     <g id="line2d_27">
      <path d="M 59.5244 93.554912 
L 465.844383 93.554912 
" clip-path="url(#pb5642b111c)" style="fill: none; stroke: #bdc3c7; stroke-opacity: 0.3; stroke-width: 0.5; stroke-linecap: round"/>
     </g>
     <g id="line2d_28">
      <g>
       <use xlink:href="#m451d8dd44c" x="59.5244" y="93.554912" style="fill: #262626; stroke: #262626"/>
      </g>
     </g>
     <g id="text_15">
      <!-- 4000 -->
      <g style="fill: #262626" transform="translate(24.3492 97.566887) scale(0.1056 -0.1056)">
       <use xlink:href="#DejaVuSerif-34"/>
       <use xlink:href="#DejaVuSerif-30" x="63.623047"/>
       <use xlink:href="#DejaVuSerif-30" x="127.246094"/>
       <use xlink:href="#DejaVuSerif-30" x="190.869141"/>
      </g>
     </g>
    </g>
    <g id="text_16">
     <!-- Temperature  [K] -->
     <g style="fill: #262626" transform="translate(15.9534 259.757812) rotate(-90) scale(0.1152 -0.1152)">
      <defs>
       <path id="DejaVuSerif-54" d="M 1222 0 
L 1222 331 
L 1819 331 
L 1819 4294 
L 447 4294 
L 447 3566 
L 63 3566 
L 63 4666 
L 4206 4666 
L 4206 3566 
L 3822 3566 
L 3822 4294 
L 2450 4294 
L 2450 331 
L 3047 331 
L 3047 0 
L 1222 0 
z
" transform="scale(0.015625)"/>
       <path id="DejaVuSerif-70" d="M 1313 1825 
L 1313 1497 
Q 1313 897 1542 583 
Q 1772 269 2209 269 
Q 2650 269 2876 622 
Q 3103 975 3103 1663 
Q 3103 2353 2876 2703 
Q 2650 3053 2209 3053 
Q 1772 3053 1542 2737 
Q 1313 2422 1313 1825 
z
M 738 2988 
L 184 2988 
L 184 3322 
L 1313 3322 
L 1313 2803 
Q 1481 3116 1742 3264 
Q 2003 3413 2388 3413 
Q 3000 3413 3387 2928 
Q 3775 2444 3775 1663 
Q 3775 881 3387 395 
Q 3000 -91 2388 -91 
Q 2003 -91 1742 57 
Q 1481 206 1313 519 
L 1313 -997 
L 1856 -997 
L 1856 -1331 
L 184 -1331 
L 184 -997 
L 738 -997 
L 738 2988 
z
" transform="scale(0.015625)"/>
       <path id="DejaVuSerif-5b" d="M 550 4863 
L 2003 4863 
L 2003 4531 
L 1147 4531 
L 1147 -513 
L 2003 -513 
L 2003 -844 
L 550 -844 
L 550 4863 
z
" transform="scale(0.015625)"/>
       <path id="DejaVuSerif-4b" d="M 353 0 
L 353 331 
L 947 331 
L 947 4331 
L 353 4331 
L 353 4666 
L 2175 4666 
L 2175 4331 
L 1581 4331 
L 1581 2566 
L 3591 4331 
L 3084 4331 
L 3084 4666 
L 4634 4666 
L 4634 4331 
L 4109 4331 
L 2106 2572 
L 4347 331 
L 4878 331 
L 4878 0 
L 3794 0 
L 1581 2216 
L 1581 331 
L 2175 331 
L 2175 0 
L 353 0 
z
" transform="scale(0.015625)"/>
       <path id="DejaVuSerif-5d" d="M 1947 4863 
L 1947 -844 
L 494 -844 
L 494 -513 
L 1350 -513 
L 1350 4531 
L 494 4531 
L 494 4863 
L 1947 4863 
z
" transform="scale(0.015625)"/>
      </defs>
      <use xlink:href="#DejaVuSerif-54"/>
      <use xlink:href="#DejaVuSerif-65" x="58.949219"/>
      <use xlink:href="#DejaVuSerif-6d" x="118.128906"/>
      <use xlink:href="#DejaVuSerif-70" x="212.953125"/>
      <use xlink:href="#DejaVuSerif-65" x="276.966797"/>
      <use xlink:href="#DejaVuSerif-72" x="336.146484"/>
      <use xlink:href="#DejaVuSerif-61" x="383.949219"/>
      <use xlink:href="#DejaVuSerif-74" x="443.568359"/>
      <use xlink:href="#DejaVuSerif-75" x="483.753906"/>
      <use xlink:href="#DejaVuSerif-72" x="548.158203"/>
      <use xlink:href="#DejaVuSerif-65" x="595.960938"/>
      <use xlink:href="#DejaVuSerif-20" x="655.140625"/>
      <use xlink:href="#DejaVuSerif-20" x="686.927734"/>
      <use xlink:href="#DejaVuSerif-5b" x="718.714844"/>
      <use xlink:href="#DejaVuSerif-4b" x="757.728516"/>
      <use xlink:href="#DejaVuSerif-5d" x="832.435547"/>
     </g>
    </g>
   </g>
   <g id="line2d_29">
    <path d="M 59.5244 93.554912 
L 465.844383 93.554912 
" clip-path="url(#pb5642b111c)" style="fill: none; stroke-dasharray: 0.8,1.32; stroke-dashoffset: 0; stroke: #c0392b; stroke-opacity: 0.5; stroke-width: 0.8"/>
   </g>
   <g id="patch_3">
    <path d="M 59.5244 380.158712 
L 59.5244 38.963712 
" style="fill: none; stroke: #262626; stroke-linejoin: miter; stroke-linecap: square"/>
   </g>
   <g id="patch_4">
    <path d="M 59.5244 380.158712 
L 465.844383 380.158712 
" style="fill: none; stroke: #262626; stroke-linejoin: miter; stroke-linecap: square"/>
   </g>
   <g id="text_17">
    <!-- $T_0 = 4000$ K  (stagnation, -->
    <g style="fill: #c0392b" transform="translate(66.2964 75.660826) scale(0.085 -0.085)">
     <defs>
      <path id="DejaVuSans-Oblique-54" d="M 378 4666 
L 4325 4666 
L 4225 4134 
L 2559 4134 
L 1759 0 
L 1125 0 
L 1925 4134 
L 275 4134 
L 378 4666 
z
" transform="scale(0.015625)"/>
      <path id="DejaVuSans-30" d="M 2034 4250 
Q 1547 4250 1301 3770 
Q 1056 3291 1056 2328 
Q 1056 1369 1301 889 
Q 1547 409 2034 409 
Q 2525 409 2770 889 
Q 3016 1369 3016 2328 
Q 3016 3291 2770 3770 
Q 2525 4250 2034 4250 
z
M 2034 4750 
Q 2819 4750 3233 4129 
Q 3647 3509 3647 2328 
Q 3647 1150 3233 529 
Q 2819 -91 2034 -91 
Q 1250 -91 836 529 
Q 422 1150 422 2328 
Q 422 3509 836 4129 
Q 1250 4750 2034 4750 
z
" transform="scale(0.015625)"/>
      <path id="DejaVuSans-3d" d="M 678 2906 
L 4684 2906 
L 4684 2381 
L 678 2381 
L 678 2906 
z
M 678 1631 
L 4684 1631 
L 4684 1100 
L 678 1100 
L 678 1631 
z
" transform="scale(0.015625)"/>
      <path id="DejaVuSans-34" d="M 2419 4116 
L 825 1625 
L 2419 1625 
L 2419 4116 
z
M 2253 4666 
L 3047 4666 
L 3047 1625 
L 3713 1625 
L 3713 1100 
L 3047 1100 
L 3047 0 
L 2419 0 
L 2419 1100 
L 313 1100 
L 313 1709 
L 2253 4666 
z
" transform="scale(0.015625)"/>
      <path id="DejaVuSerif-67" d="M 3359 2988 
L 3359 72 
Q 3359 -644 2965 -1033 
Q 2572 -1422 1844 -1422 
Q 1516 -1422 1216 -1362 
Q 916 -1303 641 -1184 
L 641 -488 
L 941 -488 
Q 997 -813 1206 -963 
Q 1416 -1113 1806 -1113 
Q 2313 -1113 2548 -827 
Q 2784 -541 2784 72 
L 2784 519 
Q 2616 206 2355 57 
Q 2094 -91 1709 -91 
Q 1097 -91 708 395 
Q 319 881 319 1663 
Q 319 2444 706 2928 
Q 1094 3413 1709 3413 
Q 2094 3413 2355 3264 
Q 2616 3116 2784 2803 
L 2784 3322 
L 3909 3322 
L 3909 2988 
L 3359 2988 
z
M 2784 1825 
Q 2784 2422 2554 2737 
Q 2325 3053 1888 3053 
Q 1444 3053 1217 2703 
Q 991 2353 991 1663 
Q 991 975 1217 622 
Q 1444 269 1888 269 
Q 2325 269 2554 583 
Q 2784 897 2784 1497 
L 2784 1825 
z
" transform="scale(0.015625)"/>
      <path id="DejaVuSerif-2c" d="M 231 -622 
Q 525 -406 662 -114 
Q 800 178 800 594 
L 800 709 
L 1416 709 
Q 1391 175 1164 -208 
Q 938 -591 481 -872 
L 231 -622 
z
" transform="scale(0.015625)"/>
     </defs>
     <use xlink:href="#DejaVuSans-Oblique-54" transform="translate(0 0.015625)"/>
     <use xlink:href="#DejaVuSans-30" transform="translate(61.083984 -16.390625) scale(0.7)"/>
     <use xlink:href="#DejaVuSans-3d" transform="translate(127.836914 0.015625)"/>
     <use xlink:href="#DejaVuSans-34" transform="translate(231.108398 0.015625)"/>
     <use xlink:href="#DejaVuSans-30" transform="translate(294.731445 0.015625)"/>
     <use xlink:href="#DejaVuSans-30" transform="translate(358.354492 0.015625)"/>
     <use xlink:href="#DejaVuSans-30" transform="translate(421.977539 0.015625)"/>
     <use xlink:href="#DejaVuSerif-20" transform="translate(485.600586 0.015625)"/>
     <use xlink:href="#DejaVuSerif-4b" transform="translate(517.387695 0.015625)"/>
     <use xlink:href="#DejaVuSerif-20" transform="translate(592.094727 0.015625)"/>
     <use xlink:href="#DejaVuSerif-20" transform="translate(623.881836 0.015625)"/>
     <use xlink:href="#DejaVuSerif-28" transform="translate(655.668945 0.015625)"/>
     <use xlink:href="#DejaVuSerif-73" transform="translate(694.682617 0.015625)"/>
     <use xlink:href="#DejaVuSerif-74" transform="translate(746.000977 0.015625)"/>
     <use xlink:href="#DejaVuSerif-61" transform="translate(786.186523 0.015625)"/>
     <use xlink:href="#DejaVuSerif-67" transform="translate(845.805664 0.015625)"/>
     <use xlink:href="#DejaVuSerif-6e" transform="translate(909.819336 0.015625)"/>
     <use xlink:href="#DejaVuSerif-61" transform="translate(974.223633 0.015625)"/>
     <use xlink:href="#DejaVuSerif-74" transform="translate(1033.842773 0.015625)"/>
     <use xlink:href="#DejaVuSerif-69" transform="translate(1074.02832 0.015625)"/>
     <use xlink:href="#DejaVuSerif-6f" transform="translate(1106.010742 0.015625)"/>
     <use xlink:href="#DejaVuSerif-6e" transform="translate(1166.21582 0.015625)"/>
     <use xlink:href="#DejaVuSerif-2c" transform="translate(1230.620117 0.015625)"/>
    </g>
    <!-- all modes equilibrated) -->
    <g style="fill: #c0392b" transform="translate(66.2964 85.366232) scale(0.085 -0.085)">
     <defs>
      <path id="DejaVuSerif-6c" d="M 1313 331 
L 1856 331 
L 1856 0 
L 184 0 
L 184 331 
L 738 331 
L 738 4531 
L 184 4531 
L 184 4863 
L 1313 4863 
L 1313 331 
z
" transform="scale(0.015625)"/>
      <path id="DejaVuSerif-64" d="M 3359 331 
L 3909 331 
L 3909 0 
L 2784 0 
L 2784 519 
Q 2616 206 2355 57 
Q 2094 -91 1709 -91 
Q 1097 -91 708 395 
Q 319 881 319 1663 
Q 319 2444 706 2928 
Q 1094 3413 1709 3413 
Q 2094 3413 2355 3264 
Q 2616 3116 2784 2803 
L 2784 4531 
L 2241 4531 
L 2241 4863 
L 3359 4863 
L 3359 331 
z
M 2784 1497 
L 2784 1825 
Q 2784 2422 2554 2737 
Q 2325 3053 1888 3053 
Q 1444 3053 1217 2703 
Q 991 2353 991 1663 
Q 991 975 1217 622 
Q 1444 269 1888 269 
Q 2325 269 2554 583 
Q 2784 897 2784 1497 
z
" transform="scale(0.015625)"/>
      <path id="DejaVuSerif-71" d="M 3359 2988 
L 3359 -997 
L 3909 -997 
L 3909 -1331 
L 2241 -1331 
L 2241 -997 
L 2784 -997 
L 2784 519 
Q 2616 206 2355 57 
Q 2094 -91 1709 -91 
Q 1097 -91 708 395 
Q 319 881 319 1663 
Q 319 2444 706 2928 
Q 1094 3413 1709 3413 
Q 2094 3413 2355 3264 
Q 2616 3116 2784 2803 
L 2784 3322 
L 3909 3322 
L 3909 2988 
L 3359 2988 
z
M 2784 1825 
Q 2784 2422 2554 2737 
Q 2325 3053 1888 3053 
Q 1444 3053 1217 2703 
Q 991 2353 991 1663 
Q 991 975 1217 622 
Q 1444 269 1888 269 
Q 2325 269 2554 583 
Q 2784 897 2784 1497 
L 2784 1825 
z
" transform="scale(0.015625)"/>
      <path id="DejaVuSerif-62" d="M 738 331 
L 738 4531 
L 184 4531 
L 184 4863 
L 1313 4863 
L 1313 2803 
Q 1481 3116 1742 3264 
Q 2003 3413 2388 3413 
Q 3000 3413 3387 2928 
Q 3775 2444 3775 1663 
Q 3775 881 3387 395 
Q 3000 -91 2388 -91 
Q 2003 -91 1742 57 
Q 1481 206 1313 519 
L 1313 0 
L 184 0 
L 184 331 
L 738 331 
z
M 1313 1497 
Q 1313 897 1542 583 
Q 1772 269 2209 269 
Q 2650 269 2876 622 
Q 3103 975 3103 1663 
Q 3103 2353 2876 2703 
Q 2650 3053 2209 3053 
Q 1772 3053 1542 2737 
Q 1313 2422 1313 1825 
L 1313 1497 
z
" transform="scale(0.015625)"/>
     </defs>
     <use xlink:href="#DejaVuSerif-61"/>
     <use xlink:href="#DejaVuSerif-6c" x="59.619141"/>
     <use xlink:href="#DejaVuSerif-6c" x="91.601562"/>
     <use xlink:href="#DejaVuSerif-20" x="123.583984"/>
     <use xlink:href="#DejaVuSerif-6d" x="155.371094"/>
     <use xlink:href="#DejaVuSerif-6f" x="250.195312"/>
     <use xlink:href="#DejaVuSerif-64" x="310.400391"/>
     <use xlink:href="#DejaVuSerif-65" x="374.414062"/>
     <use xlink:href="#DejaVuSerif-73" x="433.59375"/>
     <use xlink:href="#DejaVuSerif-20" x="484.912109"/>
     <use xlink:href="#DejaVuSerif-65" x="516.699219"/>
     <use xlink:href="#DejaVuSerif-71" x="575.878906"/>
     <use xlink:href="#DejaVuSerif-75" x="639.892578"/>
     <use xlink:href="#DejaVuSerif-69" x="704.296875"/>
     <use xlink:href="#DejaVuSerif-6c" x="736.279297"/>
     <use xlink:href="#DejaVuSerif-69" x="768.261719"/>
     <use xlink:href="#DejaVuSerif-62" x="800.244141"/>
     <use xlink:href="#DejaVuSerif-72" x="864.257812"/>
     <use xlink:href="#DejaVuSerif-61" x="912.060547"/>
     <use xlink:href="#DejaVuSerif-74" x="971.679688"/>
     <use xlink:href="#DejaVuSerif-65" x="1011.865234"/>
     <use xlink:href="#DejaVuSerif-64" x="1071.044922"/>
     <use xlink:href="#DejaVuSerif-29" x="1135.058594"/>
    </g>
   </g>
   <g id="patch_5">
    <path d="M 448.914384 97.229221 
Q 448.914384 220.143415 448.914384 343.057609 
" style="fill: none; stroke: #f39c12; stroke-width: 1.5; stroke-linecap: round"/>
    <path d="M 446.914384 101.229221 
L 448.914384 97.229221 
L 450.914384 101.229221 
" style="fill: none; stroke: #f39c12; stroke-width: 1.5; stroke-linecap: round"/>
    <path d="M 450.914384 339.057609 
L 448.914384 343.057609 
L 446.914384 339.057609 
" style="fill: none; stroke: #f39c12; stroke-width: 1.5; stroke-linecap: round"/>
   </g>
   <g id="text_18">
    <!-- $\delta\bar{\alpha}_{\rm exp}$ -->
    <g style="fill: #f39c12" transform="translate(455.686384 205.033984) scale(0.075 -0.075)">
     <defs>
      <path id="DejaVuSans-Oblique-3b4" d="M 3472 4053 
Q 3197 4272 2450 4272 
Q 1659 4272 1588 3906 
Q 1531 3619 2328 3469 
Q 2953 3353 3253 3003 
Q 3616 2581 3447 1716 
Q 3284 888 2763 400 
Q 2238 -91 1488 -91 
Q 741 -91 406 400 
Q 72 888 241 1747 
Q 363 2384 891 2900 
Q 1097 3100 1353 3213 
Q 913 3459 1000 3900 
Q 1166 4750 2544 4750 
Q 3234 4750 3566 4531 
L 3472 4053 
z
M 1753 3056 
Q 1525 2966 1306 2738 
Q 969 2384 847 1747 
Q 722 1113 919 756 
Q 1119 397 1584 397 
Q 2044 397 2381 759 
Q 2722 1122 2838 1716 
Q 2956 2338 2731 2638 
Q 2491 2959 2103 2994 
Q 1906 3013 1753 3056 
z
" transform="scale(0.015625)"/>
      <path id="DejaVuSans-304" d="M -2522 4769 
L -653 4769 
L -653 4306 
L -2522 4306 
L -2522 4769 
z
" transform="scale(0.015625)"/>
      <path id="DejaVuSans-Oblique-3b1" d="M 2619 1628 
L 2622 2350 
Q 2625 3088 2069 3091 
Q 1653 3094 1394 2747 
Q 1069 2319 959 1747 
Q 825 1059 994 731 
Q 1169 397 1547 397 
Q 1966 397 2319 1063 
L 2619 1628 
z
M 2166 3578 
Q 3141 3594 3128 2584 
Q 3128 2584 3616 3500 
L 4128 3500 
L 3119 1603 
L 3109 919 
Q 3109 766 3194 638 
Q 3291 488 3391 488 
L 3669 488 
L 3575 0 
L 3228 0 
Q 2934 0 2722 263 
Q 2622 394 2619 669 
Q 2416 334 2066 50 
Q 1900 -81 1453 -78 
Q 722 -72 456 397 
Q 184 884 353 1747 
Q 534 2675 1009 3097 
Q 1544 3569 2166 3578 
z
" transform="scale(0.015625)"/>
      <path id="DejaVuSans-65" d="M 3597 1894 
L 3597 1613 
L 953 1613 
Q 991 1019 1311 708 
Q 1631 397 2203 397 
Q 2534 397 2845 478 
Q 3156 559 3463 722 
L 3463 178 
Q 3153 47 2828 -22 
Q 2503 -91 2169 -91 
Q 1331 -91 842 396 
Q 353 884 353 1716 
Q 353 2575 817 3079 
Q 1281 3584 2069 3584 
Q 2775 3584 3186 3129 
Q 3597 2675 3597 1894 
z
M 3022 2063 
Q 3016 2534 2758 2815 
Q 2500 3097 2075 3097 
Q 1594 3097 1305 2825 
Q 1016 2553 972 2059 
L 3022 2063 
z
" transform="scale(0.015625)"/>
      <path id="DejaVuSans-78" d="M 3513 3500 
L 2247 1797 
L 3578 0 
L 2900 0 
L 1881 1375 
L 863 0 
L 184 0 
L 1544 1831 
L 300 3500 
L 978 3500 
L 1906 2253 
L 2834 3500 
L 3513 3500 
z
" transform="scale(0.015625)"/>
      <path id="DejaVuSans-70" d="M 1159 525 
L 1159 -1331 
L 581 -1331 
L 581 3500 
L 1159 3500 
L 1159 2969 
Q 1341 3281 1617 3432 
Q 1894 3584 2278 3584 
Q 2916 3584 3314 3078 
Q 3713 2572 3713 1747 
Q 3713 922 3314 415 
Q 2916 -91 2278 -91 
Q 1894 -91 1617 61 
Q 1341 213 1159 525 
z
M 3116 1747 
Q 3116 2381 2855 2742 
Q 2594 3103 2138 3103 
Q 1681 3103 1420 2742 
Q 1159 2381 1159 1747 
Q 1159 1113 1420 752 
Q 1681 391 2138 391 
Q 2594 391 2855 752 
Q 3116 1113 3116 1747 
z
" transform="scale(0.015625)"/>
     </defs>
     <use xlink:href="#DejaVuSans-Oblique-3b4" transform="translate(0 0.109375)"/>
     <use xlink:href="#DejaVuSans-304" transform="translate(127.067383 1.484375)"/>
     <use xlink:href="#DejaVuSans-Oblique-3b1" transform="translate(61.181641 0.109375)"/>
     <use xlink:href="#DejaVuSans-65" transform="translate(128.056641 -16.296875) scale(0.7)"/>
     <use xlink:href="#DejaVuSans-78" transform="translate(171.123047 -16.296875) scale(0.7)"/>
     <use xlink:href="#DejaVuSans-70" transform="translate(212.548828 -16.296875) scale(0.7)"/>
    </g>
    <!-- $= \bar{\alpha}(T_0,T_{tr}) - \bar{\alpha}(T_{tr})$ -->
    <g style="fill: #f39c12" transform="translate(455.686384 214.197577) scale(0.075 -0.075)">
     <defs>
      <path id="DejaVuSans-28" d="M 1984 4856 
Q 1566 4138 1362 3434 
Q 1159 2731 1159 2009 
Q 1159 1288 1364 580 
Q 1569 -128 1984 -844 
L 1484 -844 
Q 1016 -109 783 600 
Q 550 1309 550 2009 
Q 550 2706 781 3412 
Q 1013 4119 1484 4856 
L 1984 4856 
z
" transform="scale(0.015625)"/>
      <path id="DejaVuSans-2c" d="M 750 794 
L 1409 794 
L 1409 256 
L 897 -744 
L 494 -744 
L 750 256 
L 750 794 
z
" transform="scale(0.015625)"/>
      <path id="DejaVuSans-Oblique-74" d="M 2706 3500 
L 2619 3053 
L 1472 3053 
L 1100 1153 
Q 1081 1047 1072 975 
Q 1063 903 1063 863 
Q 1063 663 1183 572 
Q 1303 481 1569 481 
L 2150 481 
L 2053 0 
L 1503 0 
Q 991 0 739 200 
Q 488 400 488 806 
Q 488 878 497 964 
Q 506 1050 525 1153 
L 897 3053 
L 409 3053 
L 500 3500 
L 978 3500 
L 1172 4494 
L 1747 4494 
L 1556 3500 
L 2706 3500 
z
" transform="scale(0.015625)"/>
      <path id="DejaVuSans-Oblique-72" d="M 2853 2969 
Q 2766 3016 2653 3041 
Q 2541 3066 2413 3066 
Q 1953 3066 1609 2717 
Q 1266 2369 1153 1784 
L 800 0 
L 225 0 
L 909 3500 
L 1484 3500 
L 1375 2956 
Q 1603 3259 1920 3421 
Q 2238 3584 2597 3584 
Q 2691 3584 2781 3573 
Q 2872 3563 2963 3538 
L 2853 2969 
z
" transform="scale(0.015625)"/>
      <path id="DejaVuSans-29" d="M 513 4856 
L 1013 4856 
Q 1481 4119 1714 3412 
Q 1947 2706 1947 2009 
Q 1947 1309 1714 600 
Q 1481 -109 1013 -844 
L 513 -844 
Q 928 -128 1133 580 
Q 1338 1288 1338 2009 
Q 1338 2731 1133 3434 
Q 928 4138 513 4856 
z
" transform="scale(0.015625)"/>
      <path id="DejaVuSans-2212" d="M 678 2272 
L 4684 2272 
L 4684 1741 
L 678 1741 
L 678 2272 
z
" transform="scale(0.015625)"/>
     </defs>
     <use xlink:href="#DejaVuSans-3d" transform="translate(19.482422 0.109375)"/>
     <use xlink:href="#DejaVuSans-304" transform="translate(188.639648 1.484375)"/>
     <use xlink:href="#DejaVuSans-Oblique-3b1" transform="translate(122.753906 0.109375)"/>
     <use xlink:href="#DejaVuSans-28" transform="translate(188.671875 0.109375)"/>
     <use xlink:href="#DejaVuSans-Oblique-54" transform="translate(227.685547 0.109375)"/>
     <use xlink:href="#DejaVuSans-30" transform="translate(288.769531 -16.296875) scale(0.7)"/>
     <use xlink:href="#DejaVuSans-2c" transform="translate(336.040039 0.109375)"/>
     <use xlink:href="#DejaVuSans-Oblique-54" transform="translate(387.30957 0.109375)"/>
     <use xlink:href="#DejaVuSans-Oblique-74" transform="translate(448.393555 -16.296875) scale(0.7)"/>
     <use xlink:href="#DejaVuSans-Oblique-72" transform="translate(475.839844 -16.296875) scale(0.7)"/>
     <use xlink:href="#DejaVuSans-29" transform="translate(507.353516 0.109375)"/>
     <use xlink:href="#DejaVuSans-2212" transform="translate(565.849609 0.109375)"/>
     <use xlink:href="#DejaVuSans-304" transform="translate(735.006836 1.484375)"/>
     <use xlink:href="#DejaVuSans-Oblique-3b1" transform="translate(669.121094 0.109375)"/>
     <use xlink:href="#DejaVuSans-28" transform="translate(735.039062 0.109375)"/>
     <use xlink:href="#DejaVuSans-Oblique-54" transform="translate(774.052734 0.109375)"/>
     <use xlink:href="#DejaVuSans-Oblique-74" transform="translate(835.136719 -16.296875) scale(0.7)"/>
     <use xlink:href="#DejaVuSans-Oblique-72" transform="translate(862.583008 -16.296875) scale(0.7)"/>
     <use xlink:href="#DejaVuSans-29" transform="translate(894.09668 0.109375)"/>
    </g>
    <!-- &gt; 0 -->
    <g style="fill: #f39c12" transform="translate(455.686384 222.595937) scale(0.075 -0.075)">
     <defs>
      <path id="DejaVuSerif-3e" d="M 678 3188 
L 678 3719 
L 4684 2266 
L 4684 1747 
L 678 294 
L 678 825 
L 3922 2003 
L 678 3188 
z
" transform="scale(0.015625)"/>
     </defs>
     <use xlink:href="#DejaVuSerif-3e"/>
     <use xlink:href="#DejaVuSerif-20" x="83.789062"/>
     <use xlink:href="#DejaVuSerif-30" x="115.576172"/>
    </g>
    <!-- (experimentalist -->
    <g style="fill: #f39c12" transform="translate(455.686384 230.994296) scale(0.075 -0.075)">
     <defs>
      <path id="DejaVuSerif-78" d="M 1863 2028 
L 2559 2988 
L 2113 2988 
L 2113 3322 
L 3391 3322 
L 3391 2988 
L 2950 2988 
L 2059 1759 
L 3097 331 
L 3531 331 
L 3531 0 
L 1997 0 
L 1997 331 
L 2419 331 
L 1697 1325 
L 972 331 
L 1403 331 
L 1403 0 
L 141 0 
L 141 331 
L 581 331 
L 1497 1594 
L 488 2988 
L 78 2988 
L 78 3322 
L 1563 3322 
L 1563 2988 
L 1166 2988 
L 1863 2028 
z
" transform="scale(0.015625)"/>
     </defs>
     <use xlink:href="#DejaVuSerif-28"/>
     <use xlink:href="#DejaVuSerif-65" x="39.013672"/>
     <use xlink:href="#DejaVuSerif-78" x="98.193359"/>
     <use xlink:href="#DejaVuSerif-70" x="154.589844"/>
     <use xlink:href="#DejaVuSerif-65" x="218.603516"/>
     <use xlink:href="#DejaVuSerif-72" x="277.783203"/>
     <use xlink:href="#DejaVuSerif-69" x="325.585938"/>
     <use xlink:href="#DejaVuSerif-6d" x="357.568359"/>
     <use xlink:href="#DejaVuSerif-65" x="452.392578"/>
     <use xlink:href="#DejaVuSerif-6e" x="511.572266"/>
     <use xlink:href="#DejaVuSerif-74" x="575.976562"/>
     <use xlink:href="#DejaVuSerif-61" x="616.162109"/>
     <use xlink:href="#DejaVuSerif-6c" x="675.78125"/>
     <use xlink:href="#DejaVuSerif-69" x="707.763672"/>
     <use xlink:href="#DejaVuSerif-73" x="739.746094"/>
     <use xlink:href="#DejaVuSerif-74" x="791.064453"/>
    </g>
    <!-- underestimates) -->
    <g style="fill: #f39c12" transform="translate(455.686384 239.392655) scale(0.075 -0.075)">
     <use xlink:href="#DejaVuSerif-75"/>
     <use xlink:href="#DejaVuSerif-6e" x="64.404297"/>
     <use xlink:href="#DejaVuSerif-64" x="128.808594"/>
     <use xlink:href="#DejaVuSerif-65" x="192.822266"/>
     <use xlink:href="#DejaVuSerif-72" x="252.001953"/>
     <use xlink:href="#DejaVuSerif-65" x="299.804688"/>
     <use xlink:href="#DejaVuSerif-73" x="358.984375"/>
     <use xlink:href="#DejaVuSerif-74" x="410.302734"/>
     <use xlink:href="#DejaVuSerif-69" x="450.488281"/>
     <use xlink:href="#DejaVuSerif-6d" x="482.470703"/>
     <use xlink:href="#DejaVuSerif-61" x="577.294922"/>
     <use xlink:href="#DejaVuSerif-74" x="636.914062"/>
     <use xlink:href="#DejaVuSerif-65" x="677.099609"/>
     <use xlink:href="#DejaVuSerif-73" x="736.279297"/>
     <use xlink:href="#DejaVuSerif-29" x="787.597656"/>
    </g>
   </g>
   <g id="patch_6">
    <path d="M 386.867618 298.014654 
Q 417.105192 321.756084 446.463399 344.807069 
" style="fill: none; stroke: #8e44ad; stroke-linecap: round"/>
    <path d="M 444.934592 341.572451 
L 446.463399 344.807069 
L 442.958421 344.089344 
" style="fill: none; stroke: #8e44ad; stroke-linecap: round"/>
   </g>
   <g id="text_19">
    <g id="patch_7">
     <path d="M 313.47439 296.380292 
L 417.07814 296.380292 
Q 419.47814 296.380292 419.47814 293.980292 
L 419.47814 268.319792 
Q 419.47814 265.919792 417.07814 265.919792 
L 313.47439 265.919792 
Q 311.07439 265.919792 311.07439 268.319792 
L 311.07439 293.980292 
Q 311.07439 296.380292 313.47439 296.380292 
z
" style="fill: #ffffff; stroke: #8e44ad; stroke-width: 0.8; stroke-linejoin: miter"/>
    </g>
    <!-- $T_{tr}(M=8) = 290$ K -->
    <g style="fill: #8e44ad" transform="translate(313.47439 274.222292) scale(0.08 -0.08)">
     <defs>
      <path id="DejaVuSans-Oblique-4d" d="M 1081 4666 
L 2028 4666 
L 2572 1522 
L 4378 4666 
L 5350 4666 
L 4441 0 
L 3828 0 
L 4622 4091 
L 2791 897 
L 2175 897 
L 1581 4103 
L 788 0 
L 172 0 
L 1081 4666 
z
" transform="scale(0.015625)"/>
      <path id="DejaVuSans-38" d="M 2034 2216 
Q 1584 2216 1326 1975 
Q 1069 1734 1069 1313 
Q 1069 891 1326 650 
Q 1584 409 2034 409 
Q 2484 409 2743 651 
Q 3003 894 3003 1313 
Q 3003 1734 2745 1975 
Q 2488 2216 2034 2216 
z
M 1403 2484 
Q 997 2584 770 2862 
Q 544 3141 544 3541 
Q 544 4100 942 4425 
Q 1341 4750 2034 4750 
Q 2731 4750 3128 4425 
Q 3525 4100 3525 3541 
Q 3525 3141 3298 2862 
Q 3072 2584 2669 2484 
Q 3125 2378 3379 2068 
Q 3634 1759 3634 1313 
Q 3634 634 3220 271 
Q 2806 -91 2034 -91 
Q 1263 -91 848 271 
Q 434 634 434 1313 
Q 434 1759 690 2068 
Q 947 2378 1403 2484 
z
M 1172 3481 
Q 1172 3119 1398 2916 
Q 1625 2713 2034 2713 
Q 2441 2713 2670 2916 
Q 2900 3119 2900 3481 
Q 2900 3844 2670 4047 
Q 2441 4250 2034 4250 
Q 1625 4250 1398 4047 
Q 1172 3844 1172 3481 
z
" transform="scale(0.015625)"/>
      <path id="DejaVuSans-32" d="M 1228 531 
L 3431 531 
L 3431 0 
L 469 0 
L 469 531 
Q 828 903 1448 1529 
Q 2069 2156 2228 2338 
Q 2531 2678 2651 2914 
Q 2772 3150 2772 3378 
Q 2772 3750 2511 3984 
Q 2250 4219 1831 4219 
Q 1534 4219 1204 4116 
Q 875 4013 500 3803 
L 500 4441 
Q 881 4594 1212 4672 
Q 1544 4750 1819 4750 
Q 2544 4750 2975 4387 
Q 3406 4025 3406 3419 
Q 3406 3131 3298 2873 
Q 3191 2616 2906 2266 
Q 2828 2175 2409 1742 
Q 1991 1309 1228 531 
z
" transform="scale(0.015625)"/>
      <path id="DejaVuSans-39" d="M 703 97 
L 703 672 
Q 941 559 1184 500 
Q 1428 441 1663 441 
Q 2288 441 2617 861 
Q 2947 1281 2994 2138 
Q 2813 1869 2534 1725 
Q 2256 1581 1919 1581 
Q 1219 1581 811 2004 
Q 403 2428 403 3163 
Q 403 3881 828 4315 
Q 1253 4750 1959 4750 
Q 2769 4750 3195 4129 
Q 3622 3509 3622 2328 
Q 3622 1225 3098 567 
Q 2575 -91 1691 -91 
Q 1453 -91 1209 -44 
Q 966 3 703 97 
z
M 1959 2075 
Q 2384 2075 2632 2365 
Q 2881 2656 2881 3163 
Q 2881 3666 2632 3958 
Q 2384 4250 1959 4250 
Q 1534 4250 1286 3958 
Q 1038 3666 1038 3163 
Q 1038 2656 1286 2365 
Q 1534 2075 1959 2075 
z
" transform="scale(0.015625)"/>
     </defs>
     <use xlink:href="#DejaVuSans-Oblique-54" transform="translate(0 0.125)"/>
     <use xlink:href="#DejaVuSans-Oblique-74" transform="translate(61.083984 -16.28125) scale(0.7)"/>
     <use xlink:href="#DejaVuSans-Oblique-72" transform="translate(88.530273 -16.28125) scale(0.7)"/>
     <use xlink:href="#DejaVuSans-28" transform="translate(120.043945 0.125)"/>
     <use xlink:href="#DejaVuSans-Oblique-4d" transform="translate(159.057617 0.125)"/>
     <use xlink:href="#DejaVuSans-3d" transform="translate(264.819336 0.125)"/>
     <use xlink:href="#DejaVuSans-38" transform="translate(368.09082 0.125)"/>
     <use xlink:href="#DejaVuSans-29" transform="translate(431.713867 0.125)"/>
     <use xlink:href="#DejaVuSans-3d" transform="translate(490.209961 0.125)"/>
     <use xlink:href="#DejaVuSans-32" transform="translate(593.481445 0.125)"/>
     <use xlink:href="#DejaVuSans-39" transform="translate(655.354492 0.125)"/>
     <use xlink:href="#DejaVuSans-30" transform="translate(718.977539 0.125)"/>
     <use xlink:href="#DejaVuSerif-20" transform="translate(782.600586 0.125)"/>
     <use xlink:href="#DejaVuSerif-4b" transform="translate(814.387695 0.125)"/>
    </g>
    <!-- (experimentalist assumes -->
    <g style="fill: #8e44ad" transform="translate(313.47439 283.180542) scale(0.08 -0.08)">
     <use xlink:href="#DejaVuSerif-28"/>
     <use xlink:href="#DejaVuSerif-65" x="39.013672"/>
     <use xlink:href="#DejaVuSerif-78" x="98.193359"/>
     <use xlink:href="#DejaVuSerif-70" x="154.589844"/>
     <use xlink:href="#DejaVuSerif-65" x="218.603516"/>
     <use xlink:href="#DejaVuSerif-72" x="277.783203"/>
     <use xlink:href="#DejaVuSerif-69" x="325.585938"/>
     <use xlink:href="#DejaVuSerif-6d" x="357.568359"/>
     <use xlink:href="#DejaVuSerif-65" x="452.392578"/>
     <use xlink:href="#DejaVuSerif-6e" x="511.572266"/>
     <use xlink:href="#DejaVuSerif-74" x="575.976562"/>
     <use xlink:href="#DejaVuSerif-61" x="616.162109"/>
     <use xlink:href="#DejaVuSerif-6c" x="675.78125"/>
     <use xlink:href="#DejaVuSerif-69" x="707.763672"/>
     <use xlink:href="#DejaVuSerif-73" x="739.746094"/>
     <use xlink:href="#DejaVuSerif-74" x="791.064453"/>
     <use xlink:href="#DejaVuSerif-20" x="831.25"/>
     <use xlink:href="#DejaVuSerif-61" x="863.037109"/>
     <use xlink:href="#DejaVuSerif-73" x="922.65625"/>
     <use xlink:href="#DejaVuSerif-73" x="973.974609"/>
     <use xlink:href="#DejaVuSerif-75" x="1025.292969"/>
     <use xlink:href="#DejaVuSerif-6d" x="1089.697266"/>
     <use xlink:href="#DejaVuSerif-65" x="1184.521484"/>
     <use xlink:href="#DejaVuSerif-73" x="1243.701172"/>
    </g>
    <!-- $T_v = T_{tr}$: ground state) -->
    <g style="fill: #8e44ad" transform="translate(313.47439 292.140292) scale(0.08 -0.08)">
     <defs>
      <path id="DejaVuSans-Oblique-76" d="M 459 3500 
L 1069 3500 
L 1581 525 
L 3256 3500 
L 3866 3500 
L 1875 0 
L 1100 0 
L 459 3500 
z
" transform="scale(0.015625)"/>
      <path id="DejaVuSerif-3a" d="M 666 325 
Q 666 500 786 622 
Q 906 744 1081 744 
Q 1256 744 1376 622 
Q 1497 500 1497 325 
Q 1497 150 1378 29 
Q 1259 -91 1081 -91 
Q 903 -91 784 29 
Q 666 150 666 325 
z
M 666 2363 
Q 666 2538 786 2658 
Q 906 2778 1081 2778 
Q 1259 2778 1378 2659 
Q 1497 2541 1497 2363 
Q 1497 2184 1378 2065 
Q 1259 1947 1081 1947 
Q 906 1947 786 2067 
Q 666 2188 666 2363 
z
" transform="scale(0.015625)"/>
     </defs>
     <use xlink:href="#DejaVuSans-Oblique-54" transform="translate(0 0.015625)"/>
     <use xlink:href="#DejaVuSans-Oblique-76" transform="translate(61.083984 -16.390625) scale(0.7)"/>
     <use xlink:href="#DejaVuSans-3d" transform="translate(124.726562 0.015625)"/>
     <use xlink:href="#DejaVuSans-Oblique-54" transform="translate(227.998047 0.015625)"/>
     <use xlink:href="#DejaVuSans-Oblique-74" transform="translate(289.082031 -16.390625) scale(0.7)"/>
     <use xlink:href="#DejaVuSans-Oblique-72" transform="translate(316.52832 -16.390625) scale(0.7)"/>
     <use xlink:href="#DejaVuSerif-3a" transform="translate(348.041992 0.015625)"/>
     <use xlink:href="#DejaVuSerif-20" transform="translate(381.733398 0.015625)"/>
     <use xlink:href="#DejaVuSerif-67" transform="translate(413.520508 0.015625)"/>
     <use xlink:href="#DejaVuSerif-72" transform="translate(477.53418 0.015625)"/>
     <use xlink:href="#DejaVuSerif-6f" transform="translate(525.336914 0.015625)"/>
     <use xlink:href="#DejaVuSerif-75" transform="translate(585.541992 0.015625)"/>
     <use xlink:href="#DejaVuSerif-6e" transform="translate(649.946289 0.015625)"/>
     <use xlink:href="#DejaVuSerif-64" transform="translate(714.350586 0.015625)"/>
     <use xlink:href="#DejaVuSerif-20" transform="translate(778.364258 0.015625)"/>
     <use xlink:href="#DejaVuSerif-73" transform="translate(810.151367 0.015625)"/>
     <use xlink:href="#DejaVuSerif-74" transform="translate(861.469727 0.015625)"/>
     <use xlink:href="#DejaVuSerif-61" transform="translate(901.655273 0.015625)"/>
     <use xlink:href="#DejaVuSerif-74" transform="translate(961.274414 0.015625)"/>
     <use xlink:href="#DejaVuSerif-65" transform="translate(1001.459961 0.015625)"/>
     <use xlink:href="#DejaVuSerif-29" transform="translate(1060.639648 0.015625)"/>
    </g>
   </g>
   <g id="text_20">
    <g id="patch_8">
     <path d="M 76.454399 207.055047 
L 126.33479 207.055047 
Q 128.88479 207.055047 128.88479 204.505047 
L 128.88479 186.639641 
Q 128.88479 184.089641 126.33479 184.089641 
L 76.454399 184.089641 
Q 73.904399 184.089641 73.904399 186.639641 
L 73.904399 204.505047 
Q 73.904399 207.055047 76.454399 207.055047 
z
" style="fill: #ebf5fb; stroke: #808080; stroke-width: 0.7; stroke-linejoin: miter"/>
    </g>
    <!-- Stagnation: -->
    <g transform="translate(76.454399 193.098312) scale(0.085 -0.085)">
     <defs>
      <path id="DejaVuSerif-53" d="M 594 225 
L 594 1288 
L 953 1284 
Q 969 753 1261 498 
Q 1553 244 2150 244 
Q 2706 244 2998 464 
Q 3291 684 3291 1106 
Q 3291 1444 3114 1625 
Q 2938 1806 2369 1978 
L 1753 2163 
Q 1084 2366 811 2669 
Q 538 2972 538 3500 
Q 538 4094 959 4422 
Q 1381 4750 2144 4750 
Q 2469 4750 2856 4679 
Q 3244 4609 3681 4475 
L 3681 3481 
L 3328 3481 
Q 3275 3975 2998 4195 
Q 2722 4416 2156 4416 
Q 1663 4416 1405 4214 
Q 1147 4013 1147 3628 
Q 1147 3294 1340 3103 
Q 1534 2913 2163 2725 
L 2741 2553 
Q 3375 2363 3645 2067 
Q 3916 1772 3916 1275 
Q 3916 597 3481 253 
Q 3047 -91 2188 -91 
Q 1803 -91 1404 -12 
Q 1006 66 594 225 
z
" transform="scale(0.015625)"/>
     </defs>
     <use xlink:href="#DejaVuSerif-53"/>
     <use xlink:href="#DejaVuSerif-74" x="68.505859"/>
     <use xlink:href="#DejaVuSerif-61" x="108.691406"/>
     <use xlink:href="#DejaVuSerif-67" x="168.310547"/>
     <use xlink:href="#DejaVuSerif-6e" x="232.324219"/>
     <use xlink:href="#DejaVuSerif-61" x="296.728516"/>
     <use xlink:href="#DejaVuSerif-74" x="356.347656"/>
     <use xlink:href="#DejaVuSerif-69" x="396.533203"/>
     <use xlink:href="#DejaVuSerif-6f" x="428.515625"/>
     <use xlink:href="#DejaVuSerif-6e" x="488.720703"/>
     <use xlink:href="#DejaVuSerif-3a" x="553.125"/>
    </g>
    <!-- $T_v = T_{tr} = T_0$ -->
    <g transform="translate(76.454399 202.737312) scale(0.085 -0.085)">
     <use xlink:href="#DejaVuSans-Oblique-54" transform="translate(0 0.09375)"/>
     <use xlink:href="#DejaVuSans-Oblique-76" transform="translate(61.083984 -16.3125) scale(0.7)"/>
     <use xlink:href="#DejaVuSans-3d" transform="translate(124.726562 0.09375)"/>
     <use xlink:href="#DejaVuSans-Oblique-54" transform="translate(227.998047 0.09375)"/>
     <use xlink:href="#DejaVuSans-Oblique-74" transform="translate(289.082031 -16.3125) scale(0.7)"/>
     <use xlink:href="#DejaVuSans-Oblique-72" transform="translate(316.52832 -16.3125) scale(0.7)"/>
     <use xlink:href="#DejaVuSans-3d" transform="translate(367.524414 0.09375)"/>
     <use xlink:href="#DejaVuSans-Oblique-54" transform="translate(470.795898 0.09375)"/>
     <use xlink:href="#DejaVuSans-30" transform="translate(531.879883 -16.3125) scale(0.7)"/>
    </g>
   </g>
   <g id="text_21">
    <g id="patch_9">
     <path d="M 279.614391 166.111647 
L 339.454391 166.111647 
Q 342.004391 166.111647 342.004391 163.561647 
L 342.004391 136.298959 
Q 342.004391 133.748959 339.454391 133.748959 
L 279.614391 133.748959 
Q 277.064391 133.748959 277.064391 136.298959 
L 277.064391 163.561647 
Q 277.064391 166.111647 279.614391 166.111647 
z
" style="fill: #ffffff; stroke: #c0392b; stroke-width: 0.8; stroke-linejoin: miter"/>
    </g>
    <!-- Frozen state: -->
    <g style="fill: #c0392b" transform="translate(279.614391 142.757631) scale(0.085 -0.085)">
     <defs>
      <path id="DejaVuSerif-46" d="M 353 0 
L 353 331 
L 947 331 
L 947 4331 
L 353 4331 
L 353 4666 
L 4172 4666 
L 4172 3628 
L 3788 3628 
L 3788 4281 
L 1581 4281 
L 1581 2719 
L 3175 2719 
L 3175 3303 
L 3559 3303 
L 3559 1753 
L 3175 1753 
L 3175 2338 
L 1581 2338 
L 1581 331 
L 2328 331 
L 2328 0 
L 353 0 
z
" transform="scale(0.015625)"/>
      <path id="DejaVuSerif-7a" d="M 256 0 
L 256 269 
L 2338 2988 
L 691 2988 
L 691 2413 
L 359 2413 
L 359 3322 
L 3078 3322 
L 3078 3053 
L 997 331 
L 2803 331 
L 2803 934 
L 3138 934 
L 3138 0 
L 256 0 
z
" transform="scale(0.015625)"/>
     </defs>
     <use xlink:href="#DejaVuSerif-46"/>
     <use xlink:href="#DejaVuSerif-72" x="69.384766"/>
     <use xlink:href="#DejaVuSerif-6f" x="117.1875"/>
     <use xlink:href="#DejaVuSerif-7a" x="177.392578"/>
     <use xlink:href="#DejaVuSerif-65" x="230.078125"/>
     <use xlink:href="#DejaVuSerif-6e" x="289.257812"/>
     <use xlink:href="#DejaVuSerif-20" x="353.662109"/>
     <use xlink:href="#DejaVuSerif-73" x="385.449219"/>
     <use xlink:href="#DejaVuSerif-74" x="436.767578"/>
     <use xlink:href="#DejaVuSerif-61" x="476.953125"/>
     <use xlink:href="#DejaVuSerif-74" x="536.572266"/>
     <use xlink:href="#DejaVuSerif-65" x="576.757812"/>
     <use xlink:href="#DejaVuSerif-3a" x="635.9375"/>
    </g>
    <!-- $T_v = T_0 \gg T_{tr}$ -->
    <g style="fill: #c0392b" transform="translate(279.614391 152.275772) scale(0.085 -0.085)">
     <defs>
      <path id="DejaVuSans-226b" d="M 463 3253 
L 463 3897 
L 3831 2266 
L 3831 1769 
L 463 144 
L 463 759 
L 3044 2003 
L 463 3253 
z
M 2869 3253 
L 2869 3897 
L 6238 2266 
L 6238 1769 
L 2869 144 
L 2869 759 
L 5450 2003 
L 2869 3253 
z
" transform="scale(0.015625)"/>
     </defs>
     <use xlink:href="#DejaVuSans-Oblique-54" transform="translate(0 0.09375)"/>
     <use xlink:href="#DejaVuSans-Oblique-76" transform="translate(61.083984 -16.3125) scale(0.7)"/>
     <use xlink:href="#DejaVuSans-3d" transform="translate(124.726562 0.09375)"/>
     <use xlink:href="#DejaVuSans-Oblique-54" transform="translate(227.998047 0.09375)"/>
     <use xlink:href="#DejaVuSans-30" transform="translate(289.082031 -16.3125) scale(0.7)"/>
     <use xlink:href="#DejaVuSans-226b" transform="translate(355.834961 0.09375)"/>
     <use xlink:href="#DejaVuSans-Oblique-54" transform="translate(480.004883 0.09375)"/>
     <use xlink:href="#DejaVuSans-Oblique-74" transform="translate(541.088867 -16.3125) scale(0.7)"/>
     <use xlink:href="#DejaVuSans-Oblique-72" transform="translate(568.535156 -16.3125) scale(0.7)"/>
    </g>
    <!-- $T_{rot} = T_{tr}$ (fast) -->
    <g style="fill: #c0392b" transform="translate(279.614391 161.793912) scale(0.085 -0.085)">
     <defs>
      <path id="DejaVuSans-Oblique-6f" d="M 1625 -91 
Q 1009 -91 651 289 
Q 294 669 294 1325 
Q 294 1706 417 2101 
Q 541 2497 738 2766 
Q 1047 3184 1428 3384 
Q 1809 3584 2291 3584 
Q 2888 3584 3255 3212 
Q 3622 2841 3622 2241 
Q 3622 1825 3500 1412 
Q 3378 1000 3181 728 
Q 2875 309 2494 109 
Q 2113 -91 1625 -91 
z
M 891 1344 
Q 891 869 1089 633 
Q 1288 397 1691 397 
Q 2269 397 2648 901 
Q 3028 1406 3028 2181 
Q 3028 2634 2825 2865 
Q 2622 3097 2228 3097 
Q 1903 3097 1650 2945 
Q 1397 2794 1197 2484 
Q 1050 2253 970 1956 
Q 891 1659 891 1344 
z
" transform="scale(0.015625)"/>
     </defs>
     <use xlink:href="#DejaVuSans-Oblique-54" transform="translate(0 0.015625)"/>
     <use xlink:href="#DejaVuSans-Oblique-72" transform="translate(61.083984 -16.390625) scale(0.7)"/>
     <use xlink:href="#DejaVuSans-Oblique-6f" transform="translate(89.863281 -16.390625) scale(0.7)"/>
     <use xlink:href="#DejaVuSans-Oblique-74" transform="translate(132.69043 -16.390625) scale(0.7)"/>
     <use xlink:href="#DejaVuSans-3d" transform="translate(182.353516 0.015625)"/>
     <use xlink:href="#DejaVuSans-Oblique-54" transform="translate(285.625 0.015625)"/>
     <use xlink:href="#DejaVuSans-Oblique-74" transform="translate(346.708984 -16.390625) scale(0.7)"/>
     <use xlink:href="#DejaVuSans-Oblique-72" transform="translate(374.155273 -16.390625) scale(0.7)"/>
     <use xlink:href="#DejaVuSerif-20" transform="translate(405.668945 0.015625)"/>
     <use xlink:href="#DejaVuSerif-28" transform="translate(437.456055 0.015625)"/>
     <use xlink:href="#DejaVuSerif-66" transform="translate(476.469727 0.015625)"/>
     <use xlink:href="#DejaVuSerif-61" transform="translate(513.481445 0.015625)"/>
     <use xlink:href="#DejaVuSerif-73" transform="translate(573.100586 0.015625)"/>
     <use xlink:href="#DejaVuSerif-74" transform="translate(624.418945 0.015625)"/>
     <use xlink:href="#DejaVuSerif-29" transform="translate(664.604492 0.015625)"/>
    </g>
   </g>
   <g id="patch_10">
    <path d="M 204.167186 224.962526 
Q 215.747826 214.670835 226.576329 205.047567 
" style="fill: none; stroke: #808080; stroke-width: 0.9; stroke-linecap: round"/>
    <path d="M 223.121538 205.977308 
L 226.576329 205.047567 
L 225.247247 208.369244 
" style="fill: none; stroke: #808080; stroke-width: 0.9; stroke-linecap: round"/>
   </g>
   <g id="text_22">
    <g id="patch_11">
     <path d="M 144.174397 247.344462 
L 237.083147 247.344462 
Q 239.083147 247.344462 239.083147 245.344462 
L 239.083147 228.643712 
Q 239.083147 226.643712 237.083147 226.643712 
L 144.174397 226.643712 
Q 142.174397 226.643712 142.174397 228.643712 
L 142.174397 245.344462 
Q 142.174397 247.344462 144.174397 247.344462 
z
" style="fill: #ffffff; stroke: #999999; stroke-width: 0.7; stroke-linejoin: miter"/>
    </g>
    <!-- Two-temperature state -->
    <g style="fill: #4c4c4c" transform="translate(144.174397 234.722462) scale(0.08 -0.08)">
     <defs>
      <path id="DejaVuSerif-77" d="M 3072 3322 
L 3922 728 
L 4672 2988 
L 4191 2988 
L 4191 3322 
L 5394 3322 
L 5394 2988 
L 5025 2988 
L 4038 0 
L 3559 0 
L 2741 2484 
L 1919 0 
L 1459 0 
L 475 2988 
L 103 2988 
L 103 3322 
L 1606 3322 
L 1606 2988 
L 1069 2988 
L 1813 728 
L 2669 3322 
L 3072 3322 
z
" transform="scale(0.015625)"/>
      <path id="DejaVuSerif-2d" d="M 281 1959 
L 1881 1959 
L 1881 1472 
L 281 1472 
L 281 1959 
z
" transform="scale(0.015625)"/>
     </defs>
     <use xlink:href="#DejaVuSerif-54"/>
     <use xlink:href="#DejaVuSerif-77" x="63.074219"/>
     <use xlink:href="#DejaVuSerif-6f" x="148.669922"/>
     <use xlink:href="#DejaVuSerif-2d" x="208.875"/>
     <use xlink:href="#DejaVuSerif-74" x="242.664062"/>
     <use xlink:href="#DejaVuSerif-65" x="282.849609"/>
     <use xlink:href="#DejaVuSerif-6d" x="342.029297"/>
     <use xlink:href="#DejaVuSerif-70" x="436.853516"/>
     <use xlink:href="#DejaVuSerif-65" x="500.867188"/>
     <use xlink:href="#DejaVuSerif-72" x="560.046875"/>
     <use xlink:href="#DejaVuSerif-61" x="607.849609"/>
     <use xlink:href="#DejaVuSerif-74" x="667.46875"/>
     <use xlink:href="#DejaVuSerif-75" x="707.654297"/>
     <use xlink:href="#DejaVuSerif-72" x="772.058594"/>
     <use xlink:href="#DejaVuSerif-65" x="819.861328"/>
     <use xlink:href="#DejaVuSerif-20" x="879.041016"/>
     <use xlink:href="#DejaVuSerif-73" x="910.828125"/>
     <use xlink:href="#DejaVuSerif-74" x="962.146484"/>
     <use xlink:href="#DejaVuSerif-61" x="1002.332031"/>
     <use xlink:href="#DejaVuSerif-74" x="1061.951172"/>
     <use xlink:href="#DejaVuSerif-65" x="1102.136719"/>
    </g>
    <!-- $T_v = T_0$,  $T_{rot} = T_{tr}$ -->
    <g style="fill: #4c4c4c" transform="translate(144.174397 243.680712) scale(0.08 -0.08)">
     <use xlink:href="#DejaVuSans-Oblique-54" transform="translate(0 0.09375)"/>
     <use xlink:href="#DejaVuSans-Oblique-76" transform="translate(61.083984 -16.3125) scale(0.7)"/>
     <use xlink:href="#DejaVuSans-3d" transform="translate(124.726562 0.09375)"/>
     <use xlink:href="#DejaVuSans-Oblique-54" transform="translate(227.998047 0.09375)"/>
     <use xlink:href="#DejaVuSans-30" transform="translate(289.082031 -16.3125) scale(0.7)"/>
     <use xlink:href="#DejaVuSerif-2c" transform="translate(336.352539 0.09375)"/>
     <use xlink:href="#DejaVuSerif-20" transform="translate(368.139648 0.09375)"/>
     <use xlink:href="#DejaVuSerif-20" transform="translate(399.926758 0.09375)"/>
     <use xlink:href="#DejaVuSans-Oblique-54" transform="translate(431.713867 0.09375)"/>
     <use xlink:href="#DejaVuSans-Oblique-72" transform="translate(492.797852 -16.3125) scale(0.7)"/>
     <use xlink:href="#DejaVuSans-Oblique-6f" transform="translate(521.577148 -16.3125) scale(0.7)"/>
     <use xlink:href="#DejaVuSans-Oblique-74" transform="translate(564.404297 -16.3125) scale(0.7)"/>
     <use xlink:href="#DejaVuSans-3d" transform="translate(614.067383 0.09375)"/>
     <use xlink:href="#DejaVuSans-Oblique-54" transform="translate(717.338867 0.09375)"/>
     <use xlink:href="#DejaVuSans-Oblique-74" transform="translate(778.422852 -16.3125) scale(0.7)"/>
     <use xlink:href="#DejaVuSans-Oblique-72" transform="translate(805.869141 -16.3125) scale(0.7)"/>
    </g>
   </g>
   <g id="line2d_30">
    <path d="M 59.5244 139.047579 
L 67.152435 149.192656 
L 82.91704 170.658755 
L 93.596288 184.988421 
L 101.732859 195.551792 
L 108.852358 204.457774 
L 115.971857 213.003066 
L 122.58282 220.590232 
L 129.193784 227.829281 
L 135.296212 234.197926 
L 141.398639 240.265992 
L 147.501067 246.037424 
L 153.603495 251.518805 
L 159.705923 256.718692 
L 165.808351 261.647063 
L 172.419314 266.69244 
L 179.030277 271.446699 
L 185.641241 275.924919 
L 192.252204 280.142237 
L 199.371703 284.409324 
L 206.491203 288.409334 
L 213.610702 292.15976 
L 221.238736 295.920048 
L 228.866771 299.432362 
L 237.003341 302.925981 
L 245.139912 306.178695 
L 253.785018 309.391986 
L 262.93866 312.544521 
L 272.092301 315.462412 
L 281.754479 318.310604 
L 291.925192 321.075133 
L 302.60444 323.74472 
L 313.792224 326.310636 
L 325.488544 328.766508 
L 338.201936 331.201134 
L 351.423862 333.502365 
L 365.662861 335.747846 
L 380.410394 337.849225 
L 396.175 339.874092 
L 413.465212 341.865324 
L 431.772495 343.746675 
L 451.605385 345.557902 
L 465.844383 346.731492 
L 465.844383 346.731492 
" clip-path="url(#pb5642b111c)" style="fill: none; stroke: #2c3e50; stroke-width: 2.5; stroke-linecap: round"/>
   </g>
   <g id="line2d_31">
    <path d="M 59.5244 93.554912 
L 465.844383 93.554912 
L 465.844383 93.554912 
" clip-path="url(#pb5642b111c)" style="fill: none; stroke-dasharray: 9.25,4; stroke-dashoffset: 0; stroke: #c0392b; stroke-width: 2.5"/>
   </g>
   <g id="legend_1">
    <g id="patch_12">
     <path d="M 298.354383 224.131369 
L 459.544383 224.131369 
Q 461.344383 224.131369 461.344383 222.331369 
L 461.344383 196.791056 
Q 461.344383 194.991056 459.544383 194.991056 
L 298.354383 194.991056 
Q 296.554383 194.991056 296.554383 196.791056 
L 296.554383 222.331369 
Q 296.554383 224.131369 298.354383 224.131369 
z
" style="fill: #ffffff; opacity: 0.95; stroke: #cccccc; stroke-width: 0.8; stroke-linejoin: miter"/>
    </g>
    <g id="line2d_32">
     <path d="M 300.154383 202.281056 
L 309.154383 202.281056 
L 318.154383 202.281056 
" style="fill: none; stroke: #2c3e50; stroke-width: 2.5; stroke-linecap: round"/>
    </g>
    <g id="text_23">
     <!-- Translational $T_{tr}$  (isentropic) -->
     <g style="fill: #262626" transform="translate(325.354383 205.431056) scale(0.09 -0.09)">
      <use xlink:href="#DejaVuSerif-54" transform="translate(0 0.015625)"/>
      <use xlink:href="#DejaVuSerif-72" transform="translate(66.699219 0.015625)"/>
      <use xlink:href="#DejaVuSerif-61" transform="translate(114.501953 0.015625)"/>
      <use xlink:href="#DejaVuSerif-6e" transform="translate(174.121094 0.015625)"/>
      <use xlink:href="#DejaVuSerif-73" transform="translate(238.525391 0.015625)"/>
      <use xlink:href="#DejaVuSerif-6c" transform="translate(289.84375 0.015625)"/>
      <use xlink:href="#DejaVuSerif-61" transform="translate(321.826172 0.015625)"/>
      <use xlink:href="#DejaVuSerif-74" transform="translate(381.445312 0.015625)"/>
      <use xlink:href="#DejaVuSerif-69" transform="translate(421.630859 0.015625)"/>
      <use xlink:href="#DejaVuSerif-6f" transform="translate(453.613281 0.015625)"/>
      <use xlink:href="#DejaVuSerif-6e" transform="translate(513.818359 0.015625)"/>
      <use xlink:href="#DejaVuSerif-61" transform="translate(578.222656 0.015625)"/>
      <use xlink:href="#DejaVuSerif-6c" transform="translate(637.841797 0.015625)"/>
      <use xlink:href="#DejaVuSerif-20" transform="translate(669.824219 0.015625)"/>
      <use xlink:href="#DejaVuSans-Oblique-54" transform="translate(701.611328 0.015625)"/>
      <use xlink:href="#DejaVuSans-Oblique-74" transform="translate(762.695312 -16.390625) scale(0.7)"/>
      <use xlink:href="#DejaVuSans-Oblique-72" transform="translate(790.141602 -16.390625) scale(0.7)"/>
      <use xlink:href="#DejaVuSerif-20" transform="translate(821.655273 0.015625)"/>
      <use xlink:href="#DejaVuSerif-20" transform="translate(853.442383 0.015625)"/>
      <use xlink:href="#DejaVuSerif-28" transform="translate(885.229492 0.015625)"/>
      <use xlink:href="#DejaVuSerif-69" transform="translate(924.243164 0.015625)"/>
      <use xlink:href="#DejaVuSerif-73" transform="translate(956.225586 0.015625)"/>
      <use xlink:href="#DejaVuSerif-65" transform="translate(1007.543945 0.015625)"/>
      <use xlink:href="#DejaVuSerif-6e" transform="translate(1066.723633 0.015625)"/>
      <use xlink:href="#DejaVuSerif-74" transform="translate(1131.12793 0.015625)"/>
      <use xlink:href="#DejaVuSerif-72" transform="translate(1171.313477 0.015625)"/>
      <use xlink:href="#DejaVuSerif-6f" transform="translate(1219.116211 0.015625)"/>
      <use xlink:href="#DejaVuSerif-70" transform="translate(1279.321289 0.015625)"/>
      <use xlink:href="#DejaVuSerif-69" transform="translate(1343.334961 0.015625)"/>
      <use xlink:href="#DejaVuSerif-63" transform="translate(1375.317383 0.015625)"/>
      <use xlink:href="#DejaVuSerif-29" transform="translate(1431.323242 0.015625)"/>
     </g>
    </g>
    <g id="line2d_33">
     <path d="M 300.154383 215.50965 
L 309.154383 215.50965 
L 318.154383 215.50965 
" style="fill: none; stroke-dasharray: 9.25,4; stroke-dashoffset: 0; stroke: #c0392b; stroke-width: 2.5"/>
    </g>
    <g id="text_24">
     <!-- Vibrational $T_v$  (frozen limit) -->
     <g style="fill: #262626" transform="translate(325.354383 218.65965) scale(0.09 -0.09)">
      <defs>
       <path id="DejaVuSerif-56" d="M 1119 4331 
L 2497 750 
L 3872 4331 
L 3347 4331 
L 3347 4666 
L 4716 4666 
L 4716 4331 
L 4263 4331 
L 2597 0 
L 2059 0 
L 403 4331 
L -63 4331 
L -63 4666 
L 1638 4666 
L 1638 4331 
L 1119 4331 
z
" transform="scale(0.015625)"/>
      </defs>
      <use xlink:href="#DejaVuSerif-56" transform="translate(0 0.015625)"/>
      <use xlink:href="#DejaVuSerif-69" transform="translate(72.216797 0.015625)"/>
      <use xlink:href="#DejaVuSerif-62" transform="translate(104.199219 0.015625)"/>
      <use xlink:href="#DejaVuSerif-72" transform="translate(168.212891 0.015625)"/>
      <use xlink:href="#DejaVuSerif-61" transform="translate(216.015625 0.015625)"/>
      <use xlink:href="#DejaVuSerif-74" transform="translate(275.634766 0.015625)"/>
      <use xlink:href="#DejaVuSerif-69" transform="translate(315.820312 0.015625)"/>
      <use xlink:href="#DejaVuSerif-6f" transform="translate(347.802734 0.015625)"/>
      <use xlink:href="#DejaVuSerif-6e" transform="translate(408.007812 0.015625)"/>
      <use xlink:href="#DejaVuSerif-61" transform="translate(472.412109 0.015625)"/>
      <use xlink:href="#DejaVuSerif-6c" transform="translate(532.03125 0.015625)"/>
      <use xlink:href="#DejaVuSerif-20" transform="translate(564.013672 0.015625)"/>
      <use xlink:href="#DejaVuSans-Oblique-54" transform="translate(595.800781 0.015625)"/>
      <use xlink:href="#DejaVuSans-Oblique-76" transform="translate(656.884766 -16.390625) scale(0.7)"/>
      <use xlink:href="#DejaVuSerif-20" transform="translate(701.044922 0.015625)"/>
      <use xlink:href="#DejaVuSerif-20" transform="translate(732.832031 0.015625)"/>
      <use xlink:href="#DejaVuSerif-28" transform="translate(764.619141 0.015625)"/>
      <use xlink:href="#DejaVuSerif-66" transform="translate(803.632812 0.015625)"/>
      <use xlink:href="#DejaVuSerif-72" transform="translate(840.644531 0.015625)"/>
      <use xlink:href="#DejaVuSerif-6f" transform="translate(888.447266 0.015625)"/>
      <use xlink:href="#DejaVuSerif-7a" transform="translate(948.652344 0.015625)"/>
      <use xlink:href="#DejaVuSerif-65" transform="translate(1001.337891 0.015625)"/>
      <use xlink:href="#DejaVuSerif-6e" transform="translate(1060.517578 0.015625)"/>
      <use xlink:href="#DejaVuSerif-20" transform="translate(1124.921875 0.015625)"/>
      <use xlink:href="#DejaVuSerif-6c" transform="translate(1156.708984 0.015625)"/>
      <use xlink:href="#DejaVuSerif-69" transform="translate(1188.691406 0.015625)"/>
      <use xlink:href="#DejaVuSerif-6d" transform="translate(1220.673828 0.015625)"/>
      <use xlink:href="#DejaVuSerif-69" transform="translate(1315.498047 0.015625)"/>
      <use xlink:href="#DejaVuSerif-74" transform="translate(1347.480469 0.015625)"/>
      <use xlink:href="#DejaVuSerif-29" transform="translate(1387.666016 0.015625)"/>
     </g>
    </g>
   </g>
  </g>
  <g id="axes_2">
   <g id="matplotlib.axis_3">
    <g id="xtick_8">
     <g id="line2d_34">
      <defs>
       <path id="m33a3140906" d="M 0 0 
L 0 -4.8 
" style="stroke: #262626"/>
      </defs>
      <g>
       <use xlink:href="#m33a3140906" x="59.5244" y="38.963712" style="fill: #262626; stroke: #262626"/>
      </g>
     </g>
     <g id="text_25">
      <!-- 1 -->
      <g style="fill: #262626" transform="translate(56.661275 28.791994) scale(0.09 -0.09)">
       <use xlink:href="#DejaVuSerif-31"/>
      </g>
     </g>
    </g>
    <g id="xtick_9">
     <g id="line2d_35">
      <g>
       <use xlink:href="#m33a3140906" x="117.570112" y="38.963712" style="fill: #262626; stroke: #262626"/>
      </g>
     </g>
     <g id="text_26">
      <!-- 2 -->
      <g style="fill: #262626" transform="translate(114.706987 28.791994) scale(0.09 -0.09)">
       <use xlink:href="#DejaVuSerif-32"/>
      </g>
     </g>
    </g>
    <g id="xtick_10">
     <g id="line2d_36">
      <g>
       <use xlink:href="#m33a3140906" x="233.661536" y="38.963712" style="fill: #262626; stroke: #262626"/>
      </g>
     </g>
     <g id="text_27">
      <!-- 4 -->
      <g style="fill: #262626" transform="translate(230.798411 28.791994) scale(0.09 -0.09)">
       <use xlink:href="#DejaVuSerif-34"/>
      </g>
     </g>
    </g>
    <g id="xtick_11">
     <g id="line2d_37">
      <g>
       <use xlink:href="#m33a3140906" x="349.75296" y="38.963712" style="fill: #262626; stroke: #262626"/>
      </g>
     </g>
     <g id="text_28">
      <!-- 6 -->
      <g style="fill: #262626" transform="translate(346.889835 28.791994) scale(0.09 -0.09)">
       <use xlink:href="#DejaVuSerif-36"/>
      </g>
     </g>
    </g>
    <g id="xtick_12">
     <g id="line2d_38">
      <g>
       <use xlink:href="#m33a3140906" x="465.844383" y="38.963712" style="fill: #262626; stroke: #262626"/>
      </g>
     </g>
     <g id="text_29">
      <!-- 8 -->
      <g style="fill: #262626" transform="translate(462.981258 28.791994) scale(0.09 -0.09)">
       <use xlink:href="#DejaVuSerif-38"/>
      </g>
     </g>
    </g>
    <g id="text_30">
     <!-- Local Mach Number  $M$ -->
     <g style="fill: #262626" transform="translate(194.255592 15.9534) scale(0.1152 -0.1152)">
      <defs>
       <path id="DejaVuSerif-4c" d="M 353 0 
L 353 331 
L 947 331 
L 947 4331 
L 353 4331 
L 353 4666 
L 2175 4666 
L 2175 4331 
L 1581 4331 
L 1581 384 
L 3713 384 
L 3713 1166 
L 4097 1166 
L 4097 0 
L 353 0 
z
" transform="scale(0.015625)"/>
       <path id="DejaVuSerif-4d" d="M 353 0 
L 353 331 
L 947 331 
L 947 4331 
L 319 4331 
L 319 4666 
L 1678 4666 
L 3316 1344 
L 4953 4666 
L 6228 4666 
L 6228 4331 
L 5606 4331 
L 5606 331 
L 6203 331 
L 6203 0 
L 4378 0 
L 4378 331 
L 4972 331 
L 4972 3938 
L 3372 684 
L 2931 684 
L 1331 3938 
L 1331 331 
L 1925 331 
L 1925 0 
L 353 0 
z
" transform="scale(0.015625)"/>
       <path id="DejaVuSerif-4e" d="M 313 0 
L 313 331 
L 941 331 
L 941 4331 
L 313 4331 
L 313 4666 
L 1509 4666 
L 4306 984 
L 4306 4331 
L 3681 4331 
L 3681 4666 
L 5319 4666 
L 5319 4331 
L 4691 4331 
L 4691 -91 
L 4313 -91 
L 1325 3841 
L 1325 331 
L 1953 331 
L 1953 0 
L 313 0 
z
" transform="scale(0.015625)"/>
      </defs>
      <use xlink:href="#DejaVuSerif-4c" transform="translate(0 0.015625)"/>
      <use xlink:href="#DejaVuSerif-6f" transform="translate(66.40625 0.015625)"/>
      <use xlink:href="#DejaVuSerif-63" transform="translate(126.611328 0.015625)"/>
      <use xlink:href="#DejaVuSerif-61" transform="translate(182.617188 0.015625)"/>
      <use xlink:href="#DejaVuSerif-6c" transform="translate(242.236328 0.015625)"/>
      <use xlink:href="#DejaVuSerif-20" transform="translate(274.21875 0.015625)"/>
      <use xlink:href="#DejaVuSerif-4d" transform="translate(306.005859 0.015625)"/>
      <use xlink:href="#DejaVuSerif-61" transform="translate(408.398438 0.015625)"/>
      <use xlink:href="#DejaVuSerif-63" transform="translate(468.017578 0.015625)"/>
      <use xlink:href="#DejaVuSerif-68" transform="translate(524.023438 0.015625)"/>
      <use xlink:href="#DejaVuSerif-20" transform="translate(588.427734 0.015625)"/>
      <use xlink:href="#DejaVuSerif-4e" transform="translate(620.214844 0.015625)"/>
      <use xlink:href="#DejaVuSerif-75" transform="translate(707.714844 0.015625)"/>
      <use xlink:href="#DejaVuSerif-6d" transform="translate(772.119141 0.015625)"/>
      <use xlink:href="#DejaVuSerif-62" transform="translate(866.943359 0.015625)"/>
      <use xlink:href="#DejaVuSerif-65" transform="translate(930.957031 0.015625)"/>
      <use xlink:href="#DejaVuSerif-72" transform="translate(990.136719 0.015625)"/>
      <use xlink:href="#DejaVuSerif-20" transform="translate(1037.939453 0.015625)"/>
      <use xlink:href="#DejaVuSerif-20" transform="translate(1069.726562 0.015625)"/>
      <use xlink:href="#DejaVuSans-Oblique-4d" transform="translate(1101.513672 0.015625)"/>
     </g>
    </g>
   </g>
   <g id="patch_13">
    <path d="M 59.5244 380.158712 
L 59.5244 38.963712 
" style="fill: none; stroke: #262626; stroke-linejoin: miter; stroke-linecap: square"/>
   </g>
   <g id="patch_14">
    <path d="M 59.5244 380.158712 
L 465.844383 380.158712 
" style="fill: none; stroke: #262626; stroke-linejoin: miter; stroke-linecap: square"/>
   </g>
  </g>
 </g>
 <defs>
  <clipPath id="pb5642b111c">
   <rect x="59.5244" y="38.963712" width="406.319983" height="341.195"/>
  </clipPath>
 </defs>
</svg>
