<?xml version="1.0" encoding="utf-8" standalone="no"?>
<!DOCTYPE svg PUBLIC "-//W3C//DTD SVG 1.1//EN"
  "http://www.w3.org/Graphics/SVG/1.1/DTD/svg11.dtd">
<svg xmlns:xlink="http://www.w3.org/1999/xlink" width="531.680894pt" height="422.8443pt" viewBox="0 0 531.680894 422.8443" xmlns="http://www.w3.org/2000/svg" version="1.1">
 <metadata>
  <rdf:RDF xmlns:dc="http://purl.org/dc/elements/1.1/" xmlns:cc="http://creativecommons.org/ns#" xmlns:rdf="http://www.w3.org/1999/02/22-rdf-syntax-ns#">
   <cc:Work>
    <dc:type rdf:resource="http://purl.org/dc/dcmitype/StillImage"/>
    <dc:date>2026-03-26T12:55:52.158240</dc:date>
    <dc:format>image/svg+xml</dc:format>
    <dc:creator>
     <cc:Agent>
      <dc:title>Matplotlib v3.7.1, https://matplotlib.org/</dc:title>
     </cc:Agent>
    </dc:creator>
   </cc:Work>
  </rdf:RDF>
 </metadata>
 <defs>
  <style type="text/css">*{stroke-linejoin: round; stroke-linecap: butt}</style>
 </defs>
 <g id="figure_1">
  <g id="patch_1">
   <path d="M 0 422.8443 
L 531.680894 422.8443 
L 531.680894 0 
L 0 0 
z
" style="fill: #ffffff"/>
  </g>
  <g id="axes_1">
   <g id="patch_2">
    <path d="M 59.5244 379.975 
L 497.1444 379.975 
L 497.1444 7.2 
L 59.5244 7.2 
z
" style="fill: #ffffff"/>
   </g>
   <g id="patch_3">
    <path d="M 59.5244 379.975 
L 59.5244 7.2 
L 147.0484 7.2 
L 147.0484 379.975 
z
" clip-path="url(#p7fa3f8e266)" style="fill: #ebf5fb; stroke: #ebf5fb; stroke-width: 0.8; stroke-linejoin: miter"/>
   </g>
   <g id="patch_4">
    <path d="M 147.0484 379.975 
L 147.0484 7.2 
L 497.1444 7.2 
L 497.1444 379.975 
z
" clip-path="url(#p7fa3f8e266)" style="fill: #fdfefe; stroke: #fdfefe; stroke-width: 0.8; stroke-linejoin: miter"/>
   </g>
   <g id="matplotlib.axis_1">
    <g id="xtick_1">
     <g id="line2d_1">
      <path d="M 88.699067 379.975 
L 88.699067 7.2 
" clip-path="url(#p7fa3f8e266)" style="fill: none; stroke: #bdc3c7; stroke-opacity: 0.3; stroke-width: 0.5; stroke-linecap: round"/>
     </g>
     <g id="line2d_2">
      <defs>
       <path id="mde0f38aafd" d="M 0 0 
L 0 4.8 
" style="stroke: #262626"/>
      </defs>
      <g>
       <use xlink:href="#mde0f38aafd" x="88.699067" y="379.975" style="fill: #262626; stroke: #262626"/>
      </g>
     </g>
     <g id="text_1">
      <!-- −2 -->
      <g style="fill: #262626" transform="translate(80.915192 396.29895) scale(0.1056 -0.1056)">
       <defs>
        <path id="DejaVuSerif-2212" d="M 678 2259 
L 4684 2259 
L 4684 1753 
L 678 1753 
L 678 2259 
z
" transform="scale(0.015625)"/>
        <path id="DejaVuSerif-32" d="M 819 3553 
L 469 3553 
L 469 4384 
Q 803 4563 1142 4656 
Q 1481 4750 1806 4750 
Q 2534 4750 2956 4397 
Q 3378 4044 3378 3438 
Q 3378 2753 2422 1800 
Q 2347 1728 2309 1691 
L 1131 513 
L 3078 513 
L 3078 1088 
L 3444 1088 
L 3444 0 
L 434 0 
L 434 341 
L 1850 1753 
Q 2319 2222 2519 2614 
Q 2719 3006 2719 3438 
Q 2719 3909 2473 4175 
Q 2228 4441 1797 4441 
Q 1350 4441 1106 4219 
Q 863 3997 819 3553 
z
" transform="scale(0.015625)"/>
       </defs>
       <use xlink:href="#DejaVuSerif-2212"/>
       <use xlink:href="#DejaVuSerif-32" x="83.789062"/>
      </g>
     </g>
    </g>
    <g id="xtick_2">
     <g id="line2d_3">
      <path d="M 147.0484 379.975 
L 147.0484 7.2 
" clip-path="url(#p7fa3f8e266)" style="fill: none; stroke: #bdc3c7; stroke-opacity: 0.3; stroke-width: 0.5; stroke-linecap: round"/>
     </g>
     <g id="line2d_4">
      <g>
       <use xlink:href="#mde0f38aafd" x="147.0484" y="379.975" style="fill: #262626; stroke: #262626"/>
      </g>
     </g>
     <g id="text_2">
      <!-- 0 -->
      <g style="fill: #262626" transform="translate(143.689 396.29895) scale(0.1056 -0.1056)">
       <defs>
        <path id="DejaVuSerif-30" d="M 2034 219 
Q 2513 219 2750 744 
Q 2988 1269 2988 2328 
Q 2988 3391 2750 3916 
Q 2513 4441 2034 4441 
Q 1556 4441 1318 3916 
Q 1081 3391 1081 2328 
Q 1081 1269 1318 744 
Q 1556 219 2034 219 
z
M 2034 -91 
Q 1275 -91 848 546 
Q 422 1184 422 2328 
Q 422 3475 848 4112 
Q 1275 4750 2034 4750 
Q 2797 4750 3222 4112 
Q 3647 3475 3647 2328 
Q 3647 1184 3222 546 
Q 2797 -91 2034 -91 
z
" transform="scale(0.015625)"/>
       </defs>
       <use xlink:href="#DejaVuSerif-30"/>
      </g>
     </g>
    </g>
    <g id="xtick_3">
     <g id="line2d_5">
      <path d="M 205.397733 379.975 
L 205.397733 7.2 
" clip-path="url(#p7fa3f8e266)" style="fill: none; stroke: #bdc3c7; stroke-opacity: 0.3; stroke-width: 0.5; stroke-linecap: round"/>
     </g>
     <g id="line2d_6">
      <g>
       <use xlink:href="#mde0f38aafd" x="205.397733" y="379.975" style="fill: #262626; stroke: #262626"/>
      </g>
     </g>
     <g id="text_3">
      <!-- 2 -->
      <g style="fill: #262626" transform="translate(202.038333 396.29895) scale(0.1056 -0.1056)">
       <use xlink:href="#DejaVuSerif-32"/>
      </g>
     </g>
    </g>
    <g id="xtick_4">
     <g id="line2d_7">
      <path d="M 263.747067 379.975 
L 263.747067 7.2 
" clip-path="url(#p7fa3f8e266)" style="fill: none; stroke: #bdc3c7; stroke-opacity: 0.3; stroke-width: 0.5; stroke-linecap: round"/>
     </g>
     <g id="line2d_8">
      <g>
       <use xlink:href="#mde0f38aafd" x="263.747067" y="379.975" style="fill: #262626; stroke: #262626"/>
      </g>
     </g>
     <g id="text_4">
      <!-- 4 -->
      <g style="fill: #262626" transform="translate(260.387667 396.29895) scale(0.1056 -0.1056)">
       <defs>
        <path id="DejaVuSerif-34" d="M 2234 1581 
L 2234 4063 
L 641 1581 
L 2234 1581 
z
M 3609 0 
L 1484 0 
L 1484 331 
L 2234 331 
L 2234 1247 
L 197 1247 
L 197 1588 
L 2241 4750 
L 2859 4750 
L 2859 1581 
L 3750 1581 
L 3750 1247 
L 2859 1247 
L 2859 331 
L 3609 331 
L 3609 0 
z
" transform="scale(0.015625)"/>
       </defs>
       <use xlink:href="#DejaVuSerif-34"/>
      </g>
     </g>
    </g>
    <g id="xtick_5">
     <g id="line2d_9">
      <path d="M 322.0964 379.975 
L 322.0964 7.2 
" clip-path="url(#p7fa3f8e266)" style="fill: none; stroke: #bdc3c7; stroke-opacity: 0.3; stroke-width: 0.5; stroke-linecap: round"/>
     </g>
     <g id="line2d_10">
      <g>
       <use xlink:href="#mde0f38aafd" x="322.0964" y="379.975" style="fill: #262626; stroke: #262626"/>
      </g>
     </g>
     <g id="text_5">
      <!-- 6 -->
      <g style="fill: #262626" transform="translate(318.737 396.29895) scale(0.1056 -0.1056)">
       <defs>
        <path id="DejaVuSerif-36" d="M 2094 219 
Q 2534 219 2771 542 
Q 3009 866 3009 1472 
Q 3009 2078 2771 2401 
Q 2534 2725 2094 2725 
Q 1647 2725 1412 2412 
Q 1178 2100 1178 1509 
Q 1178 888 1415 553 
Q 1653 219 2094 219 
z
M 1075 2569 
Q 1288 2803 1556 2918 
Q 1825 3034 2163 3034 
Q 2859 3034 3264 2615 
Q 3669 2197 3669 1472 
Q 3669 763 3233 336 
Q 2797 -91 2069 -91 
Q 1278 -91 853 498 
Q 428 1088 428 2181 
Q 428 3406 931 4078 
Q 1434 4750 2350 4750 
Q 2597 4750 2869 4703 
Q 3141 4656 3425 4563 
L 3425 3794 
L 3072 3794 
Q 3034 4109 2831 4275 
Q 2628 4441 2284 4441 
Q 1678 4441 1381 3981 
Q 1084 3522 1075 2569 
z
" transform="scale(0.015625)"/>
       </defs>
       <use xlink:href="#DejaVuSerif-36"/>
      </g>
     </g>
    </g>
    <g id="xtick_6">
     <g id="line2d_11">
      <path d="M 380.445733 379.975 
L 380.445733 7.2 
" clip-path="url(#p7fa3f8e266)" style="fill: none; stroke: #bdc3c7; stroke-opacity: 0.3; stroke-width: 0.5; stroke-linecap: round"/>
     </g>
     <g id="line2d_12">
      <g>
       <use xlink:href="#mde0f38aafd" x="380.445733" y="379.975" style="fill: #262626; stroke: #262626"/>
      </g>
     </g>
     <g id="text_6">
      <!-- 8 -->
      <g style="fill: #262626" transform="translate(377.086333 396.29895) scale(0.1056 -0.1056)">
       <defs>
        <path id="DejaVuSerif-38" d="M 2981 1275 
Q 2981 1775 2732 2051 
Q 2484 2328 2034 2328 
Q 1584 2328 1336 2051 
Q 1088 1775 1088 1275 
Q 1088 772 1336 495 
Q 1584 219 2034 219 
Q 2484 219 2732 495 
Q 2981 772 2981 1275 
z
M 2853 3541 
Q 2853 3966 2637 4203 
Q 2422 4441 2034 4441 
Q 1650 4441 1433 4203 
Q 1216 3966 1216 3541 
Q 1216 3113 1433 2875 
Q 1650 2638 2034 2638 
Q 2422 2638 2637 2875 
Q 2853 3113 2853 3541 
z
M 2516 2484 
Q 3047 2413 3344 2092 
Q 3641 1772 3641 1275 
Q 3641 619 3225 264 
Q 2809 -91 2034 -91 
Q 1263 -91 845 264 
Q 428 619 428 1275 
Q 428 1772 725 2092 
Q 1022 2413 1556 2484 
Q 1084 2569 832 2842 
Q 581 3116 581 3541 
Q 581 4103 968 4426 
Q 1356 4750 2034 4750 
Q 2713 4750 3100 4426 
Q 3488 4103 3488 3541 
Q 3488 3116 3236 2842 
Q 2984 2569 2516 2484 
z
" transform="scale(0.015625)"/>
       </defs>
       <use xlink:href="#DejaVuSerif-38"/>
      </g>
     </g>
    </g>
    <g id="xtick_7">
     <g id="line2d_13">
      <path d="M 438.795067 379.975 
L 438.795067 7.2 
" clip-path="url(#p7fa3f8e266)" style="fill: none; stroke: #bdc3c7; stroke-opacity: 0.3; stroke-width: 0.5; stroke-linecap: round"/>
     </g>
     <g id="line2d_14">
      <g>
       <use xlink:href="#mde0f38aafd" x="438.795067" y="379.975" style="fill: #262626; stroke: #262626"/>
      </g>
     </g>
     <g id="text_7">
      <!-- 10 -->
      <g style="fill: #262626" transform="translate(432.076267 396.29895) scale(0.1056 -0.1056)">
       <defs>
        <path id="DejaVuSerif-31" d="M 909 0 
L 909 331 
L 1722 331 
L 1722 4213 
L 781 3603 
L 781 4013 
L 1919 4750 
L 2350 4750 
L 2350 331 
L 3163 331 
L 3163 0 
L 909 0 
z
" transform="scale(0.015625)"/>
       </defs>
       <use xlink:href="#DejaVuSerif-31"/>
       <use xlink:href="#DejaVuSerif-30" x="63.623047"/>
      </g>
     </g>
    </g>
    <g id="xtick_8">
     <g id="line2d_15">
      <path d="M 497.1444 379.975 
L 497.1444 7.2 
" clip-path="url(#p7fa3f8e266)" style="fill: none; stroke: #bdc3c7; stroke-opacity: 0.3; stroke-width: 0.5; stroke-linecap: round"/>
     </g>
     <g id="line2d_16">
      <g>
       <use xlink:href="#mde0f38aafd" x="497.1444" y="379.975" style="fill: #262626; stroke: #262626"/>
      </g>
     </g>
     <g id="text_8">
      <!-- 12 -->
      <g style="fill: #262626" transform="translate(490.4256 396.29895) scale(0.1056 -0.1056)">
       <use xlink:href="#DejaVuSerif-31"/>
       <use xlink:href="#DejaVuSerif-32" x="63.623047"/>
      </g>
     </g>
    </g>
    <g id="text_9">
     <!-- Distance downstream of shock  $x$ (a.u.) -->
     <g style="fill: #262626" transform="translate(164.5168 413.2485) scale(0.1152 -0.1152)">
      <defs>
       <path id="DejaVuSerif-44" d="M 1581 331 
L 2163 331 
Q 3072 331 3558 850 
Q 4044 1369 4044 2338 
Q 4044 3306 3559 3818 
Q 3075 4331 2163 4331 
L 1581 4331 
L 1581 331 
z
M 353 0 
L 353 331 
L 947 331 
L 947 4331 
L 353 4331 
L 353 4666 
L 2209 4666 
Q 3416 4666 4089 4050 
Q 4763 3434 4763 2338 
Q 4763 1238 4088 619 
Q 3413 0 2209 0 
L 353 0 
z
" transform="scale(0.015625)"/>
       <path id="DejaVuSerif-69" d="M 622 4353 
Q 622 4497 726 4603 
Q 831 4709 978 4709 
Q 1122 4709 1226 4603 
Q 1331 4497 1331 4353 
Q 1331 4206 1228 4103 
Q 1125 4000 978 4000 
Q 831 4000 726 4103 
Q 622 4206 622 4353 
z
M 1356 331 
L 1900 331 
L 1900 0 
L 231 0 
L 231 331 
L 781 331 
L 781 2988 
L 231 2988 
L 231 3322 
L 1356 3322 
L 1356 331 
z
" transform="scale(0.015625)"/>
       <path id="DejaVuSerif-73" d="M 359 184 
L 359 959 
L 691 959 
Q 703 588 923 403 
Q 1144 219 1575 219 
Q 1963 219 2166 364 
Q 2369 509 2369 788 
Q 2369 1006 2220 1140 
Q 2072 1275 1594 1428 
L 1178 1569 
Q 750 1706 558 1912 
Q 366 2119 366 2438 
Q 366 2894 700 3153 
Q 1034 3413 1625 3413 
Q 1888 3413 2178 3344 
Q 2469 3275 2778 3144 
L 2778 2419 
L 2447 2419 
Q 2434 2741 2221 2922 
Q 2009 3103 1644 3103 
Q 1281 3103 1095 2975 
Q 909 2847 909 2591 
Q 909 2381 1050 2254 
Q 1191 2128 1613 1997 
L 2069 1856 
Q 2541 1709 2748 1489 
Q 2956 1269 2956 922 
Q 2956 450 2595 179 
Q 2234 -91 1600 -91 
Q 1278 -91 972 -22 
Q 666 47 359 184 
z
" transform="scale(0.015625)"/>
       <path id="DejaVuSerif-74" d="M 691 2988 
L 184 2988 
L 184 3322 
L 691 3322 
L 691 4353 
L 1269 4353 
L 1269 3322 
L 2350 3322 
L 2350 2988 
L 1269 2988 
L 1269 878 
Q 1269 456 1350 337 
Q 1431 219 1650 219 
Q 1875 219 1978 351 
Q 2081 484 2088 781 
L 2522 781 
Q 2497 328 2275 118 
Q 2053 -91 1600 -91 
Q 1103 -91 897 129 
Q 691 350 691 878 
L 691 2988 
z
" transform="scale(0.015625)"/>
       <path id="DejaVuSerif-61" d="M 2547 1044 
L 2547 1747 
L 1806 1747 
Q 1378 1747 1168 1562 
Q 959 1378 959 997 
Q 959 650 1171 447 
Q 1384 244 1747 244 
Q 2106 244 2326 466 
Q 2547 688 2547 1044 
z
M 3122 2075 
L 3122 331 
L 3634 331 
L 3634 0 
L 2547 0 
L 2547 359 
Q 2356 128 2106 18 
Q 1856 -91 1522 -91 
Q 969 -91 644 203 
Q 319 497 319 997 
Q 319 1513 691 1797 
Q 1063 2081 1741 2081 
L 2547 2081 
L 2547 2309 
Q 2547 2688 2317 2895 
Q 2088 3103 1672 3103 
Q 1328 3103 1125 2947 
Q 922 2791 872 2484 
L 575 2484 
L 575 3156 
Q 875 3284 1158 3348 
Q 1441 3413 1709 3413 
Q 2400 3413 2761 3070 
Q 3122 2728 3122 2075 
z
" transform="scale(0.015625)"/>
       <path id="DejaVuSerif-6e" d="M 263 0 
L 263 331 
L 781 331 
L 781 2988 
L 231 2988 
L 231 3322 
L 1356 3322 
L 1356 2731 
Q 1516 3069 1770 3241 
Q 2025 3413 2363 3413 
Q 2913 3413 3172 3097 
Q 3431 2781 3431 2113 
L 3431 331 
L 3944 331 
L 3944 0 
L 2356 0 
L 2356 331 
L 2853 331 
L 2853 1931 
Q 2853 2541 2703 2767 
Q 2553 2994 2175 2994 
Q 1775 2994 1565 2701 
Q 1356 2409 1356 1850 
L 1356 331 
L 1856 331 
L 1856 0 
L 263 0 
z
" transform="scale(0.015625)"/>
       <path id="DejaVuSerif-63" d="M 3291 997 
Q 3169 466 2822 187 
Q 2475 -91 1925 -91 
Q 1200 -91 759 389 
Q 319 869 319 1663 
Q 319 2459 759 2936 
Q 1200 3413 1925 3413 
Q 2241 3413 2553 3339 
Q 2866 3266 3181 3116 
L 3181 2266 
L 2847 2266 
Q 2781 2703 2561 2903 
Q 2341 3103 1931 3103 
Q 1466 3103 1228 2742 
Q 991 2381 991 1663 
Q 991 944 1227 581 
Q 1463 219 1931 219 
Q 2303 219 2525 412 
Q 2747 606 2828 997 
L 3291 997 
z
" transform="scale(0.015625)"/>
       <path id="DejaVuSerif-65" d="M 3469 1600 
L 991 1600 
L 991 1575 
Q 991 903 1244 561 
Q 1497 219 1991 219 
Q 2369 219 2611 417 
Q 2853 616 2950 1006 
L 3413 1006 
Q 3275 459 2904 184 
Q 2534 -91 1931 -91 
Q 1203 -91 761 389 
Q 319 869 319 1663 
Q 319 2450 753 2931 
Q 1188 3413 1894 3413 
Q 2647 3413 3050 2948 
Q 3453 2484 3469 1600 
z
M 2791 1931 
Q 2772 2513 2545 2808 
Q 2319 3103 1894 3103 
Q 1497 3103 1269 2806 
Q 1041 2509 991 1931 
L 2791 1931 
z
" transform="scale(0.015625)"/>
       <path id="DejaVuSerif-20" transform="scale(0.015625)"/>
       <path id="DejaVuSerif-64" d="M 3359 331 
L 3909 331 
L 3909 0 
L 2784 0 
L 2784 519 
Q 2616 206 2355 57 
Q 2094 -91 1709 -91 
Q 1097 -91 708 395 
Q 319 881 319 1663 
Q 319 2444 706 2928 
Q 1094 3413 1709 3413 
Q 2094 3413 2355 3264 
Q 2616 3116 2784 2803 
L 2784 4531 
L 2241 4531 
L 2241 4863 
L 3359 4863 
L 3359 331 
z
M 2784 1497 
L 2784 1825 
Q 2784 2422 2554 2737 
Q 2325 3053 1888 3053 
Q 1444 3053 1217 2703 
Q 991 2353 991 1663 
Q 991 975 1217 622 
Q 1444 269 1888 269 
Q 2325 269 2554 583 
Q 2784 897 2784 1497 
z
" transform="scale(0.015625)"/>
       <path id="DejaVuSerif-6f" d="M 1925 219 
Q 2388 219 2623 584 
Q 2859 950 2859 1663 
Q 2859 2375 2623 2739 
Q 2388 3103 1925 3103 
Q 1463 3103 1227 2739 
Q 991 2375 991 1663 
Q 991 950 1228 584 
Q 1466 219 1925 219 
z
M 1925 -91 
Q 1200 -91 759 389 
Q 319 869 319 1663 
Q 319 2456 758 2934 
Q 1197 3413 1925 3413 
Q 2653 3413 3092 2934 
Q 3531 2456 3531 1663 
Q 3531 869 3092 389 
Q 2653 -91 1925 -91 
z
" transform="scale(0.015625)"/>
       <path id="DejaVuSerif-77" d="M 3072 3322 
L 3922 728 
L 4672 2988 
L 4191 2988 
L 4191 3322 
L 5394 3322 
L 5394 2988 
L 5025 2988 
L 4038 0 
L 3559 0 
L 2741 2484 
L 1919 0 
L 1459 0 
L 475 2988 
L 103 2988 
L 103 3322 
L 1606 3322 
L 1606 2988 
L 1069 2988 
L 1813 728 
L 2669 3322 
L 3072 3322 
z
" transform="scale(0.015625)"/>
       <path id="DejaVuSerif-72" d="M 3059 3328 
L 3059 2497 
L 2728 2497 
Q 2713 2744 2591 2866 
Q 2469 2988 2234 2988 
Q 1809 2988 1582 2694 
Q 1356 2400 1356 1850 
L 1356 331 
L 2022 331 
L 2022 0 
L 263 0 
L 263 331 
L 781 331 
L 781 2994 
L 231 2994 
L 231 3322 
L 1356 3322 
L 1356 2731 
Q 1525 3078 1790 3245 
Q 2056 3413 2438 3413 
Q 2578 3413 2733 3391 
Q 2888 3369 3059 3328 
z
" transform="scale(0.015625)"/>
       <path id="DejaVuSerif-6d" d="M 3316 2675 
Q 3481 3041 3739 3227 
Q 3997 3413 4341 3413 
Q 4863 3413 5119 3089 
Q 5375 2766 5375 2113 
L 5375 331 
L 5894 331 
L 5894 0 
L 4300 0 
L 4300 331 
L 4800 331 
L 4800 2047 
Q 4800 2556 4650 2772 
Q 4500 2988 4153 2988 
Q 3769 2988 3567 2697 
Q 3366 2406 3366 1850 
L 3366 331 
L 3866 331 
L 3866 0 
L 2291 0 
L 2291 331 
L 2791 331 
L 2791 2069 
Q 2791 2566 2641 2777 
Q 2491 2988 2144 2988 
Q 1759 2988 1557 2697 
Q 1356 2406 1356 1850 
L 1356 331 
L 1856 331 
L 1856 0 
L 263 0 
L 263 331 
L 781 331 
L 781 2994 
L 231 2994 
L 231 3322 
L 1356 3322 
L 1356 2731 
Q 1516 3063 1762 3238 
Q 2009 3413 2322 3413 
Q 2709 3413 2968 3220 
Q 3228 3028 3316 2675 
z
" transform="scale(0.015625)"/>
       <path id="DejaVuSerif-66" d="M 2753 4078 
L 2450 4078 
Q 2447 4313 2317 4434 
Q 2188 4556 1941 4556 
Q 1619 4556 1487 4379 
Q 1356 4203 1356 3750 
L 1356 3322 
L 2284 3322 
L 2284 2988 
L 1356 2988 
L 1356 331 
L 2094 331 
L 2094 0 
L 231 0 
L 231 331 
L 781 331 
L 781 2988 
L 231 2988 
L 231 3322 
L 781 3322 
L 781 3738 
Q 781 4294 1070 4578 
Q 1359 4863 1919 4863 
Q 2128 4863 2337 4825 
Q 2547 4788 2753 4709 
L 2753 4078 
z
" transform="scale(0.015625)"/>
       <path id="DejaVuSerif-68" d="M 263 0 
L 263 331 
L 781 331 
L 781 4531 
L 231 4531 
L 231 4863 
L 1356 4863 
L 1356 2731 
Q 1516 3069 1770 3241 
Q 2025 3413 2363 3413 
Q 2913 3413 3172 3097 
Q 3431 2781 3431 2113 
L 3431 331 
L 3944 331 
L 3944 0 
L 2356 0 
L 2356 331 
L 2853 331 
L 2853 1931 
Q 2853 2541 2704 2764 
Q 2556 2988 2175 2988 
Q 1775 2988 1565 2697 
Q 1356 2406 1356 1850 
L 1356 331 
L 1856 331 
L 1856 0 
L 263 0 
z
" transform="scale(0.015625)"/>
       <path id="DejaVuSerif-6b" d="M 1831 0 
L 219 0 
L 219 331 
L 738 331 
L 738 4531 
L 184 4531 
L 184 4863 
L 1313 4863 
L 1313 1697 
L 2713 2988 
L 2234 2988 
L 2234 3322 
L 3738 3322 
L 3738 2988 
L 3169 2988 
L 2181 2075 
L 3444 331 
L 3922 331 
L 3922 0 
L 2284 0 
L 2284 331 
L 2759 331 
L 1766 1697 
L 1313 1275 
L 1313 331 
L 1831 331 
L 1831 0 
z
" transform="scale(0.015625)"/>
       <path id="DejaVuSans-Oblique-78" d="M 3841 3500 
L 2234 1784 
L 3219 0 
L 2559 0 
L 1819 1388 
L 531 0 
L -166 0 
L 1556 1844 
L 641 3500 
L 1300 3500 
L 1972 2234 
L 3144 3500 
L 3841 3500 
z
" transform="scale(0.015625)"/>
       <path id="DejaVuSerif-28" d="M 2041 -997 
Q 1281 -656 893 83 
Q 506 822 506 1931 
Q 506 3044 893 3783 
Q 1281 4522 2041 4863 
L 2041 4556 
Q 1559 4225 1350 3623 
Q 1141 3022 1141 1931 
Q 1141 844 1350 242 
Q 1559 -359 2041 -691 
L 2041 -997 
z
" transform="scale(0.015625)"/>
       <path id="DejaVuSerif-2e" d="M 603 325 
Q 603 500 722 622 
Q 841 744 1019 744 
Q 1191 744 1312 622 
Q 1434 500 1434 325 
Q 1434 153 1312 31 
Q 1191 -91 1019 -91 
Q 841 -91 722 29 
Q 603 150 603 325 
z
" transform="scale(0.015625)"/>
       <path id="DejaVuSerif-75" d="M 2266 3322 
L 3341 3322 
L 3341 331 
L 3884 331 
L 3884 0 
L 2766 0 
L 2766 588 
Q 2606 256 2353 82 
Q 2100 -91 1766 -91 
Q 1213 -91 952 223 
Q 691 538 691 1209 
L 691 2988 
L 172 2988 
L 172 3322 
L 1269 3322 
L 1269 1388 
Q 1269 781 1417 556 
Q 1566 331 1947 331 
Q 2347 331 2556 625 
Q 2766 919 2766 1478 
L 2766 2988 
L 2266 2988 
L 2266 3322 
z
" transform="scale(0.015625)"/>
       <path id="DejaVuSerif-29" d="M 453 -997 
L 453 -691 
Q 934 -359 1145 242 
Q 1356 844 1356 1931 
Q 1356 3022 1145 3623 
Q 934 4225 453 4556 
L 453 4863 
Q 1216 4522 1603 3783 
Q 1991 3044 1991 1931 
Q 1991 822 1603 83 
Q 1216 -656 453 -997 
z
" transform="scale(0.015625)"/>
      </defs>
      <use xlink:href="#DejaVuSerif-44" transform="translate(0 0.015625)"/>
      <use xlink:href="#DejaVuSerif-69" transform="translate(80.175781 0.015625)"/>
      <use xlink:href="#DejaVuSerif-73" transform="translate(112.158203 0.015625)"/>
      <use xlink:href="#DejaVuSerif-74" transform="translate(163.476562 0.015625)"/>
      <use xlink:href="#DejaVuSerif-61" transform="translate(203.662109 0.015625)"/>
      <use xlink:href="#DejaVuSerif-6e" transform="translate(263.28125 0.015625)"/>
      <use xlink:href="#DejaVuSerif-63" transform="translate(327.685547 0.015625)"/>
      <use xlink:href="#DejaVuSerif-65" transform="translate(383.691406 0.015625)"/>
      <use xlink:href="#DejaVuSerif-20" transform="translate(442.871094 0.015625)"/>
      <use xlink:href="#DejaVuSerif-64" transform="translate(474.658203 0.015625)"/>
      <use xlink:href="#DejaVuSerif-6f" transform="translate(538.671875 0.015625)"/>
      <use xlink:href="#DejaVuSerif-77" transform="translate(598.876953 0.015625)"/>
      <use xlink:href="#DejaVuSerif-6e" transform="translate(684.472656 0.015625)"/>
      <use xlink:href="#DejaVuSerif-73" transform="translate(748.876953 0.015625)"/>
      <use xlink:href="#DejaVuSerif-74" transform="translate(800.195312 0.015625)"/>
      <use xlink:href="#DejaVuSerif-72" transform="translate(840.380859 0.015625)"/>
      <use xlink:href="#DejaVuSerif-65" transform="translate(888.183594 0.015625)"/>
      <use xlink:href="#DejaVuSerif-61" transform="translate(947.363281 0.015625)"/>
      <use xlink:href="#DejaVuSerif-6d" transform="translate(1006.982422 0.015625)"/>
      <use xlink:href="#DejaVuSerif-20" transform="translate(1101.806641 0.015625)"/>
      <use xlink:href="#DejaVuSerif-6f" transform="translate(1133.59375 0.015625)"/>
      <use xlink:href="#DejaVuSerif-66" transform="translate(1193.798828 0.015625)"/>
      <use xlink:href="#DejaVuSerif-20" transform="translate(1230.810547 0.015625)"/>
      <use xlink:href="#DejaVuSerif-73" transform="translate(1262.597656 0.015625)"/>
      <use xlink:href="#DejaVuSerif-68" transform="translate(1313.916016 0.015625)"/>
      <use xlink:href="#DejaVuSerif-6f" transform="translate(1378.320312 0.015625)"/>
      <use xlink:href="#DejaVuSerif-63" transform="translate(1438.525391 0.015625)"/>
      <use xlink:href="#DejaVuSerif-6b" transform="translate(1494.53125 0.015625)"/>
      <use xlink:href="#DejaVuSerif-20" transform="translate(1555.126953 0.015625)"/>
      <use xlink:href="#DejaVuSerif-20" transform="translate(1586.914062 0.015625)"/>
      <use xlink:href="#DejaVuSans-Oblique-78" transform="translate(1618.701172 0.015625)"/>
      <use xlink:href="#DejaVuSerif-20" transform="translate(1677.880859 0.015625)"/>
      <use xlink:href="#DejaVuSerif-28" transform="translate(1709.667969 0.015625)"/>
      <use xlink:href="#DejaVuSerif-61" transform="translate(1748.681641 0.015625)"/>
      <use xlink:href="#DejaVuSerif-2e" transform="translate(1808.300781 0.015625)"/>
      <use xlink:href="#DejaVuSerif-75" transform="translate(1840.087891 0.015625)"/>
      <use xlink:href="#DejaVuSerif-2e" transform="translate(1904.492188 0.015625)"/>
      <use xlink:href="#DejaVuSerif-29" transform="translate(1936.279297 0.015625)"/>
     </g>
    </g>
   </g>
   <g id="matplotlib.axis_2">
    <g id="ytick_1">
     <g id="line2d_17">
      <path d="M 59.5244 366.209345 
L 497.1444 366.209345 
" clip-path="url(#p7fa3f8e266)" style="fill: none; stroke: #bdc3c7; stroke-opacity: 0.3; stroke-width: 0.5; stroke-linecap: round"/>
     </g>
     <g id="line2d_18">
      <defs>
       <path id="m3b014ec909" d="M 0 0 
L -4.8 0 
" style="stroke: #262626"/>
      </defs>
      <g>
       <use xlink:href="#m3b014ec909" x="59.5244" y="366.209345" style="fill: #262626; stroke: #262626"/>
      </g>
     </g>
     <g id="text_10">
      <!-- 0 -->
      <g style="fill: #262626" transform="translate(44.5056 370.22132) scale(0.1056 -0.1056)">
       <use xlink:href="#DejaVuSerif-30"/>
      </g>
     </g>
    </g>
    <g id="ytick_2">
     <g id="line2d_19">
      <path d="M 59.5244 345.560864 
L 497.1444 345.560864 
" clip-path="url(#p7fa3f8e266)" style="fill: none; stroke: #bdc3c7; stroke-opacity: 0.3; stroke-width: 0.5; stroke-linecap: round"/>
     </g>
     <g id="line2d_20">
      <g>
       <use xlink:href="#m3b014ec909" x="59.5244" y="345.560864" style="fill: #262626; stroke: #262626"/>
      </g>
     </g>
     <g id="text_11">
      <!-- 300 -->
      <g style="fill: #262626" transform="translate(31.068 349.572839) scale(0.1056 -0.1056)">
       <defs>
        <path id="DejaVuSerif-33" d="M 622 4469 
Q 988 4606 1323 4678 
Q 1659 4750 1953 4750 
Q 2638 4750 3022 4454 
Q 3406 4159 3406 3634 
Q 3406 3213 3140 2930 
Q 2875 2647 2388 2547 
Q 2963 2466 3280 2130 
Q 3597 1794 3597 1259 
Q 3597 606 3158 257 
Q 2719 -91 1894 -91 
Q 1528 -91 1179 -12 
Q 831 66 488 225 
L 488 1131 
L 838 1131 
Q 869 681 1141 450 
Q 1413 219 1906 219 
Q 2384 219 2661 495 
Q 2938 772 2938 1253 
Q 2938 1803 2653 2086 
Q 2369 2369 1819 2369 
L 1522 2369 
L 1522 2688 
L 1678 2688 
Q 2225 2688 2498 2914 
Q 2772 3141 2772 3597 
Q 2772 4006 2547 4223 
Q 2322 4441 1900 4441 
Q 1478 4441 1245 4241 
Q 1013 4041 972 3647 
L 622 3647 
L 622 4469 
z
" transform="scale(0.015625)"/>
       </defs>
       <use xlink:href="#DejaVuSerif-33"/>
       <use xlink:href="#DejaVuSerif-30" x="63.623047"/>
       <use xlink:href="#DejaVuSerif-30" x="127.246094"/>
      </g>
     </g>
    </g>
    <g id="ytick_3">
     <g id="line2d_21">
      <path d="M 59.5244 297.381073 
L 497.1444 297.381073 
" clip-path="url(#p7fa3f8e266)" style="fill: none; stroke: #bdc3c7; stroke-opacity: 0.3; stroke-width: 0.5; stroke-linecap: round"/>
     </g>
     <g id="line2d_22">
      <g>
       <use xlink:href="#m3b014ec909" x="59.5244" y="297.381073" style="fill: #262626; stroke: #262626"/>
      </g>
     </g>
     <g id="text_12">
      <!-- 1000 -->
      <g style="fill: #262626" transform="translate(24.3492 301.393048) scale(0.1056 -0.1056)">
       <use xlink:href="#DejaVuSerif-31"/>
       <use xlink:href="#DejaVuSerif-30" x="63.623047"/>
       <use xlink:href="#DejaVuSerif-30" x="127.246094"/>
       <use xlink:href="#DejaVuSerif-30" x="190.869141"/>
      </g>
     </g>
    </g>
    <g id="ytick_4">
     <g id="line2d_23">
      <path d="M 59.5244 228.5528 
L 497.1444 228.5528 
" clip-path="url(#p7fa3f8e266)" style="fill: none; stroke: #bdc3c7; stroke-opacity: 0.3; stroke-width: 0.5; stroke-linecap: round"/>
     </g>
     <g id="line2d_24">
      <g>
       <use xlink:href="#m3b014ec909" x="59.5244" y="228.5528" style="fill: #262626; stroke: #262626"/>
      </g>
     </g>
     <g id="text_13">
      <!-- 2000 -->
      <g style="fill: #262626" transform="translate(24.3492 232.564775) scale(0.1056 -0.1056)">
       <use xlink:href="#DejaVuSerif-32"/>
       <use xlink:href="#DejaVuSerif-30" x="63.623047"/>
       <use xlink:href="#DejaVuSerif-30" x="127.246094"/>
       <use xlink:href="#DejaVuSerif-30" x="190.869141"/>
      </g>
     </g>
    </g>
    <g id="ytick_5">
     <g id="line2d_25">
      <path d="M 59.5244 159.724528 
L 497.1444 159.724528 
" clip-path="url(#p7fa3f8e266)" style="fill: none; stroke: #bdc3c7; stroke-opacity: 0.3; stroke-width: 0.5; stroke-linecap: round"/>
     </g>
     <g id="line2d_26">
      <g>
       <use xlink:href="#m3b014ec909" x="59.5244" y="159.724528" style="fill: #262626; stroke: #262626"/>
      </g>
     </g>
     <g id="text_14">
      <!-- 3000 -->
      <g style="fill: #262626" transform="translate(24.3492 163.736503) scale(0.1056 -0.1056)">
       <use xlink:href="#DejaVuSerif-33"/>
       <use xlink:href="#DejaVuSerif-30" x="63.623047"/>
       <use xlink:href="#DejaVuSerif-30" x="127.246094"/>
       <use xlink:href="#DejaVuSerif-30" x="190.869141"/>
      </g>
     </g>
    </g>
    <g id="ytick_6">
     <g id="line2d_27">
      <path d="M 59.5244 89.793927 
L 497.1444 89.793927 
" clip-path="url(#p7fa3f8e266)" style="fill: none; stroke: #bdc3c7; stroke-opacity: 0.3; stroke-width: 0.5; stroke-linecap: round"/>
     </g>
     <g id="line2d_28">
      <g>
       <use xlink:href="#m3b014ec909" x="59.5244" y="89.793927" style="fill: #262626; stroke: #262626"/>
      </g>
     </g>
     <g id="text_15">
      <!-- 4016 -->
      <g style="fill: #262626" transform="translate(24.3492 93.805902) scale(0.1056 -0.1056)">
       <use xlink:href="#DejaVuSerif-34"/>
       <use xlink:href="#DejaVuSerif-30" x="63.623047"/>
       <use xlink:href="#DejaVuSerif-31" x="127.246094"/>
       <use xlink:href="#DejaVuSerif-36" x="190.869141"/>
      </g>
     </g>
    </g>
    <g id="ytick_7">
     <g id="line2d_29">
      <path d="M 59.5244 56.482119 
L 497.1444 56.482119 
" clip-path="url(#p7fa3f8e266)" style="fill: none; stroke: #bdc3c7; stroke-opacity: 0.3; stroke-width: 0.5; stroke-linecap: round"/>
     </g>
     <g id="line2d_30">
      <g>
       <use xlink:href="#m3b014ec909" x="59.5244" y="56.482119" style="fill: #262626; stroke: #262626"/>
      </g>
     </g>
     <g id="text_16">
      <!-- 4500 -->
      <g style="fill: #262626" transform="translate(24.3492 60.494094) scale(0.1056 -0.1056)">
       <defs>
        <path id="DejaVuSerif-35" d="M 3219 4666 
L 3219 4153 
L 1081 4153 
L 1081 2816 
Q 1244 2928 1461 2984 
Q 1678 3041 1947 3041 
Q 2703 3041 3140 2622 
Q 3578 2203 3578 1478 
Q 3578 738 3136 323 
Q 2694 -91 1894 -91 
Q 1572 -91 1234 -12 
Q 897 66 544 225 
L 544 1131 
L 897 1131 
Q 925 688 1179 453 
Q 1434 219 1894 219 
Q 2388 219 2653 544 
Q 2919 869 2919 1478 
Q 2919 2084 2655 2407 
Q 2391 2731 1894 2731 
Q 1613 2731 1398 2631 
Q 1184 2531 1019 2322 
L 750 2322 
L 750 4666 
L 3219 4666 
z
" transform="scale(0.015625)"/>
       </defs>
       <use xlink:href="#DejaVuSerif-34"/>
       <use xlink:href="#DejaVuSerif-35" x="63.623047"/>
       <use xlink:href="#DejaVuSerif-30" x="127.246094"/>
       <use xlink:href="#DejaVuSerif-30" x="190.869141"/>
      </g>
     </g>
    </g>
    <g id="text_17">
     <!-- Temperature  [K] -->
     <g style="fill: #262626" transform="translate(15.9534 243.7841) rotate(-90) scale(0.1152 -0.1152)">
      <defs>
       <path id="DejaVuSerif-54" d="M 1222 0 
L 1222 331 
L 1819 331 
L 1819 4294 
L 447 4294 
L 447 3566 
L 63 3566 
L 63 4666 
L 4206 4666 
L 4206 3566 
L 3822 3566 
L 3822 4294 
L 2450 4294 
L 2450 331 
L 3047 331 
L 3047 0 
L 1222 0 
z
" transform="scale(0.015625)"/>
       <path id="DejaVuSerif-70" d="M 1313 1825 
L 1313 1497 
Q 1313 897 1542 583 
Q 1772 269 2209 269 
Q 2650 269 2876 622 
Q 3103 975 3103 1663 
Q 3103 2353 2876 2703 
Q 2650 3053 2209 3053 
Q 1772 3053 1542 2737 
Q 1313 2422 1313 1825 
z
M 738 2988 
L 184 2988 
L 184 3322 
L 1313 3322 
L 1313 2803 
Q 1481 3116 1742 3264 
Q 2003 3413 2388 3413 
Q 3000 3413 3387 2928 
Q 3775 2444 3775 1663 
Q 3775 881 3387 395 
Q 3000 -91 2388 -91 
Q 2003 -91 1742 57 
Q 1481 206 1313 519 
L 1313 -997 
L 1856 -997 
L 1856 -1331 
L 184 -1331 
L 184 -997 
L 738 -997 
L 738 2988 
z
" transform="scale(0.015625)"/>
       <path id="DejaVuSerif-5b" d="M 550 4863 
L 2003 4863 
L 2003 4531 
L 1147 4531 
L 1147 -513 
L 2003 -513 
L 2003 -844 
L 550 -844 
L 550 4863 
z
" transform="scale(0.015625)"/>
       <path id="DejaVuSerif-4b" d="M 353 0 
L 353 331 
L 947 331 
L 947 4331 
L 353 4331 
L 353 4666 
L 2175 4666 
L 2175 4331 
L 1581 4331 
L 1581 2566 
L 3591 4331 
L 3084 4331 
L 3084 4666 
L 4634 4666 
L 4634 4331 
L 4109 4331 
L 2106 2572 
L 4347 331 
L 4878 331 
L 4878 0 
L 3794 0 
L 1581 2216 
L 1581 331 
L 2175 331 
L 2175 0 
L 353 0 
z
" transform="scale(0.015625)"/>
       <path id="DejaVuSerif-5d" d="M 1947 4863 
L 1947 -844 
L 494 -844 
L 494 -513 
L 1350 -513 
L 1350 4531 
L 494 4531 
L 494 4863 
L 1947 4863 
z
" transform="scale(0.015625)"/>
      </defs>
      <use xlink:href="#DejaVuSerif-54"/>
      <use xlink:href="#DejaVuSerif-65" x="58.949219"/>
      <use xlink:href="#DejaVuSerif-6d" x="118.128906"/>
      <use xlink:href="#DejaVuSerif-70" x="212.953125"/>
      <use xlink:href="#DejaVuSerif-65" x="276.966797"/>
      <use xlink:href="#DejaVuSerif-72" x="336.146484"/>
      <use xlink:href="#DejaVuSerif-61" x="383.949219"/>
      <use xlink:href="#DejaVuSerif-74" x="443.568359"/>
      <use xlink:href="#DejaVuSerif-75" x="483.753906"/>
      <use xlink:href="#DejaVuSerif-72" x="548.158203"/>
      <use xlink:href="#DejaVuSerif-65" x="595.960938"/>
      <use xlink:href="#DejaVuSerif-20" x="655.140625"/>
      <use xlink:href="#DejaVuSerif-20" x="686.927734"/>
      <use xlink:href="#DejaVuSerif-5b" x="718.714844"/>
      <use xlink:href="#DejaVuSerif-4b" x="757.728516"/>
      <use xlink:href="#DejaVuSerif-5d" x="832.435547"/>
     </g>
    </g>
   </g>
   <g id="line2d_31">
    <path d="M 59.5244 345.560864 
L 497.1444 345.560864 
" clip-path="url(#p7fa3f8e266)" style="fill: none; stroke-dasharray: 0.8,1.32; stroke-dashoffset: 0; stroke: #2c3e50; stroke-opacity: 0.5; stroke-width: 0.8"/>
   </g>
   <g id="line2d_32">
    <path d="M 59.5244 56.482119 
L 497.1444 56.482119 
" clip-path="url(#p7fa3f8e266)" style="fill: none; stroke-dasharray: 6.4,1.6,1,1.6; stroke-dashoffset: 0; stroke: #27ae60; stroke-opacity: 0.7"/>
   </g>
   <g id="patch_5">
    <path d="M 59.5244 379.975 
L 59.5244 7.2 
" style="fill: none; stroke: #262626; stroke-linejoin: miter; stroke-linecap: square"/>
   </g>
   <g id="patch_6">
    <path d="M 59.5244 379.975 
L 497.1444 379.975 
" style="fill: none; stroke: #262626; stroke-linejoin: miter; stroke-linecap: square"/>
   </g>
   <g id="line2d_33">
    <path d="M 147.0484 379.975 
L 147.0484 7.2 
" clip-path="url(#p7fa3f8e266)" style="fill: none; stroke-dasharray: 1.2,1.98; stroke-dashoffset: 0; stroke: #808080; stroke-width: 1.2"/>
   </g>
   <g id="text_18">
    <!-- Shock -->
    <g style="fill: #808080" transform="translate(151.4246 61.300984) scale(0.085 -0.085)">
     <defs>
      <path id="DejaVuSerif-Italic-53" d="M 184 225 
L 391 1288 
L 750 1284 
Q 663 753 905 498 
Q 1147 244 1744 244 
Q 2300 244 2636 464 
Q 2972 684 3053 1106 
Q 3119 1444 2976 1625 
Q 2834 1806 2300 1978 
L 1722 2163 
Q 1091 2366 877 2669 
Q 663 2972 766 3500 
Q 881 4094 1367 4422 
Q 1853 4750 2616 4750 
Q 2941 4750 3314 4679 
Q 3688 4609 4097 4475 
L 3906 3481 
L 3553 3481 
Q 3594 3975 3361 4195 
Q 3128 4416 2563 4416 
Q 2069 4416 1772 4214 
Q 1475 4013 1400 3628 
Q 1334 3294 1490 3103 
Q 1647 2913 2241 2725 
L 2784 2553 
Q 3381 2363 3593 2067 
Q 3806 1772 3709 1275 
Q 3578 597 3076 253 
Q 2575 -91 1716 -91 
Q 1331 -91 948 -12 
Q 566 66 184 225 
z
" transform="scale(0.015625)"/>
      <path id="DejaVuSerif-Italic-68" d="M 309 0 
L 1191 4531 
L 641 4531 
L 703 4863 
L 1828 4863 
L 1416 2731 
Q 1641 3069 1928 3241 
Q 2216 3413 2553 3413 
Q 3103 3413 3300 3097 
Q 3422 2906 3422 2588 
Q 3422 2378 3369 2113 
L 3022 331 
L 3534 331 
L 3472 0 
L 2381 0 
L 2756 1931 
Q 2819 2253 2819 2469 
Q 2819 2659 2769 2763 
Q 2666 2988 2284 2988 
Q 1884 2988 1617 2697 
Q 1350 2406 1244 1850 
L 884 0 
L 309 0 
z
" transform="scale(0.015625)"/>
      <path id="DejaVuSerif-Italic-6f" d="M 1644 219 
Q 2106 219 2414 584 
Q 2722 950 2859 1663 
Q 2922 1988 2922 2241 
Q 2922 2541 2834 2738 
Q 2669 3103 2206 3103 
Q 1744 3103 1436 2739 
Q 1128 2375 991 1663 
Q 928 1338 928 1088 
Q 928 784 1019 584 
Q 1184 219 1644 219 
z
M 1584 -91 
Q 859 -91 513 388 
Q 272 722 272 1203 
Q 272 1419 319 1663 
Q 472 2456 1005 2934 
Q 1538 3413 2266 3413 
Q 2994 3413 3341 2934 
Q 3578 2603 3578 2122 
Q 3578 1906 3531 1663 
Q 3378 869 2845 389 
Q 2313 -91 1584 -91 
z
" transform="scale(0.015625)"/>
      <path id="DejaVuSerif-Italic-63" d="M 3163 997 
Q 2938 466 2536 187 
Q 2134 -91 1584 -91 
Q 859 -91 513 388 
Q 272 722 272 1203 
Q 272 1419 319 1663 
Q 475 2459 1008 2936 
Q 1541 3413 2266 3413 
Q 2581 3413 2879 3339 
Q 3178 3266 3463 3116 
L 3300 2266 
L 2966 2266 
Q 2966 2309 2966 2347 
Q 2966 2722 2803 2903 
Q 2622 3103 2213 3103 
Q 1747 3103 1439 2742 
Q 1131 2381 991 1663 
Q 928 1334 928 1078 
Q 928 778 1016 581 
Q 1181 219 1650 219 
Q 2022 219 2281 412 
Q 2541 606 2700 997 
L 3163 997 
z
" transform="scale(0.015625)"/>
      <path id="DejaVuSerif-Italic-6b" d="M 2113 2075 
L 3034 331 
L 3513 331 
L 3450 0 
L 2528 0 
L 1622 1697 
L 1088 1275 
L 841 0 
L 266 0 
L 1147 4531 
L 594 4531 
L 656 4863 
L 1784 4863 
L 1169 1697 
L 2822 2988 
L 2344 2988 
L 2406 3322 
L 3341 3322 
L 3278 2988 
L 2113 2075 
z
" transform="scale(0.015625)"/>
     </defs>
     <use xlink:href="#DejaVuSerif-Italic-53"/>
     <use xlink:href="#DejaVuSerif-Italic-68" x="68.505859"/>
     <use xlink:href="#DejaVuSerif-Italic-6f" x="132.910156"/>
     <use xlink:href="#DejaVuSerif-Italic-63" x="193.115234"/>
     <use xlink:href="#DejaVuSerif-Italic-6b" x="249.121094"/>
    </g>
    <!-- front -->
    <g style="fill: #808080" transform="translate(151.4246 70.819125) scale(0.085 -0.085)">
     <defs>
      <path id="DejaVuSerif-Italic-66" d="M 3191 4078 
L 2888 4078 
Q 2900 4144 2900 4203 
Q 2900 4347 2825 4434 
Q 2719 4556 2472 4556 
Q 2150 4556 1984 4379 
Q 1819 4203 1731 3750 
L 1647 3322 
L 2575 3322 
L 2509 2988 
L 1581 2988 
L 963 -206 
Q 853 -763 509 -1047 
Q 166 -1331 -394 -1331 
L -356 -1025 
Q -28 -1025 131 -850 
Q 297 -663 388 -206 
L 1006 2988 
L 456 2988 
L 522 3322 
L 1072 3322 
L 1153 3738 
Q 1263 4297 1606 4578 
Q 1950 4863 2509 4863 
Q 2719 4863 2920 4825 
Q 3122 4788 3316 4709 
L 3191 4078 
z
" transform="scale(0.015625)"/>
      <path id="DejaVuSerif-Italic-72" d="M 3375 3328 
L 3213 2497 
L 2881 2497 
Q 2891 2559 2891 2613 
Q 2891 2775 2816 2866 
Q 2719 2988 2484 2988 
Q 2059 2988 1775 2694 
Q 1491 2400 1384 1850 
L 1025 0 
L 450 0 
L 1031 2994 
L 481 2994 
L 544 3322 
L 1669 3322 
L 1556 2731 
Q 1791 3078 2089 3245 
Q 2388 3413 2769 3413 
Q 2909 3413 3059 3391 
Q 3209 3369 3375 3328 
z
" transform="scale(0.015625)"/>
      <path id="DejaVuSerif-Italic-6e" d="M 450 0 
L 1031 2988 
L 481 2988 
L 544 3322 
L 1669 3322 
L 1556 2731 
Q 1781 3069 2068 3241 
Q 2356 3413 2694 3413 
Q 3244 3413 3444 3097 
Q 3563 2906 3563 2588 
Q 3563 2378 3509 2113 
L 3163 331 
L 3675 331 
L 3613 0 
L 2522 0 
L 2897 1931 
Q 2959 2253 2959 2469 
Q 2959 2659 2909 2769 
Q 2803 2994 2425 2994 
Q 2025 2994 1759 2701 
Q 1494 2409 1384 1850 
L 1025 0 
L 450 0 
z
" transform="scale(0.015625)"/>
      <path id="DejaVuSerif-Italic-74" d="M 856 2988 
L 350 2988 
L 416 3322 
L 922 3322 
L 1122 4353 
L 1700 4353 
L 1500 3322 
L 2581 3322 
L 2516 2988 
L 1434 2988 
L 1025 878 
Q 978 631 978 488 
Q 978 388 1000 338 
Q 1059 219 1278 219 
Q 1503 219 1633 351 
Q 1763 484 1825 781 
L 2259 781 
Q 2147 328 1884 118 
Q 1622 -91 1169 -91 
Q 672 -91 506 131 
Q 406 266 406 516 
Q 406 675 447 878 
L 856 2988 
z
" transform="scale(0.015625)"/>
     </defs>
     <use xlink:href="#DejaVuSerif-Italic-66"/>
     <use xlink:href="#DejaVuSerif-Italic-72" x="37.011719"/>
     <use xlink:href="#DejaVuSerif-Italic-6f" x="84.814453"/>
     <use xlink:href="#DejaVuSerif-Italic-6e" x="145.019531"/>
     <use xlink:href="#DejaVuSerif-Italic-74" x="209.423828"/>
    </g>
   </g>
   <g id="text_19">
    <!-- $T_1 = 300$ K -->
    <g style="fill: #2c3e50" transform="translate(65.359333 328.768727) scale(0.085 -0.085)">
     <defs>
      <path id="DejaVuSans-Oblique-54" d="M 378 4666 
L 4325 4666 
L 4225 4134 
L 2559 4134 
L 1759 0 
L 1125 0 
L 1925 4134 
L 275 4134 
L 378 4666 
z
" transform="scale(0.015625)"/>
      <path id="DejaVuSans-31" d="M 794 531 
L 1825 531 
L 1825 4091 
L 703 3866 
L 703 4441 
L 1819 4666 
L 2450 4666 
L 2450 531 
L 3481 531 
L 3481 0 
L 794 0 
L 794 531 
z
" transform="scale(0.015625)"/>
      <path id="DejaVuSans-3d" d="M 678 2906 
L 4684 2906 
L 4684 2381 
L 678 2381 
L 678 2906 
z
M 678 1631 
L 4684 1631 
L 4684 1100 
L 678 1100 
L 678 1631 
z
" transform="scale(0.015625)"/>
      <path id="DejaVuSans-33" d="M 2597 2516 
Q 3050 2419 3304 2112 
Q 3559 1806 3559 1356 
Q 3559 666 3084 287 
Q 2609 -91 1734 -91 
Q 1441 -91 1130 -33 
Q 819 25 488 141 
L 488 750 
Q 750 597 1062 519 
Q 1375 441 1716 441 
Q 2309 441 2620 675 
Q 2931 909 2931 1356 
Q 2931 1769 2642 2001 
Q 2353 2234 1838 2234 
L 1294 2234 
L 1294 2753 
L 1863 2753 
Q 2328 2753 2575 2939 
Q 2822 3125 2822 3475 
Q 2822 3834 2567 4026 
Q 2313 4219 1838 4219 
Q 1578 4219 1281 4162 
Q 984 4106 628 3988 
L 628 4550 
Q 988 4650 1302 4700 
Q 1616 4750 1894 4750 
Q 2613 4750 3031 4423 
Q 3450 4097 3450 3541 
Q 3450 3153 3228 2886 
Q 3006 2619 2597 2516 
z
" transform="scale(0.015625)"/>
      <path id="DejaVuSans-30" d="M 2034 4250 
Q 1547 4250 1301 3770 
Q 1056 3291 1056 2328 
Q 1056 1369 1301 889 
Q 1547 409 2034 409 
Q 2525 409 2770 889 
Q 3016 1369 3016 2328 
Q 3016 3291 2770 3770 
Q 2525 4250 2034 4250 
z
M 2034 4750 
Q 2819 4750 3233 4129 
Q 3647 3509 3647 2328 
Q 3647 1150 3233 529 
Q 2819 -91 2034 -91 
Q 1250 -91 836 529 
Q 422 1150 422 2328 
Q 422 3509 836 4129 
Q 1250 4750 2034 4750 
z
" transform="scale(0.015625)"/>
     </defs>
     <use xlink:href="#DejaVuSans-Oblique-54" transform="translate(0 0.78125)"/>
     <use xlink:href="#DejaVuSans-31" transform="translate(61.083984 -15.625) scale(0.7)"/>
     <use xlink:href="#DejaVuSans-3d" transform="translate(127.836914 0.78125)"/>
     <use xlink:href="#DejaVuSans-33" transform="translate(231.108398 0.78125)"/>
     <use xlink:href="#DejaVuSans-30" transform="translate(294.731445 0.78125)"/>
     <use xlink:href="#DejaVuSans-30" transform="translate(358.354492 0.78125)"/>
     <use xlink:href="#DejaVuSerif-20" transform="translate(421.977539 0.78125)"/>
     <use xlink:href="#DejaVuSerif-4b" transform="translate(453.764648 0.78125)"/>
    </g>
    <!-- (freestream) -->
    <g style="fill: #2c3e50" transform="translate(65.359333 338.286868) scale(0.085 -0.085)">
     <use xlink:href="#DejaVuSerif-28"/>
     <use xlink:href="#DejaVuSerif-66" x="39.013672"/>
     <use xlink:href="#DejaVuSerif-72" x="76.025391"/>
     <use xlink:href="#DejaVuSerif-65" x="123.828125"/>
     <use xlink:href="#DejaVuSerif-65" x="183.007812"/>
     <use xlink:href="#DejaVuSerif-73" x="242.1875"/>
     <use xlink:href="#DejaVuSerif-74" x="293.505859"/>
     <use xlink:href="#DejaVuSerif-72" x="333.691406"/>
     <use xlink:href="#DejaVuSerif-65" x="381.494141"/>
     <use xlink:href="#DejaVuSerif-61" x="440.673828"/>
     <use xlink:href="#DejaVuSerif-6d" x="500.292969"/>
     <use xlink:href="#DejaVuSerif-29" x="595.117188"/>
    </g>
   </g>
   <g id="patch_7">
    <path d="M 119.874328 89.793927 
Q 133.189351 89.793927 145.162734 89.793927 
" style="fill: none; stroke: #2c3e50; stroke-width: 1.2; stroke-linecap: round"/>
    <path d="M 141.162734 87.793927 
L 145.162734 89.793927 
L 141.162734 91.793927 
" style="fill: none; stroke: #2c3e50; stroke-width: 1.2; stroke-linecap: round"/>
   </g>
   <g id="text_20">
    <!-- $T_2 = 4016$ K -->
    <g style="fill: #2c3e50" transform="translate(66.01 87.285896) scale(0.085 -0.085)">
     <defs>
      <path id="DejaVuSans-32" d="M 1228 531 
L 3431 531 
L 3431 0 
L 469 0 
L 469 531 
Q 828 903 1448 1529 
Q 2069 2156 2228 2338 
Q 2531 2678 2651 2914 
Q 2772 3150 2772 3378 
Q 2772 3750 2511 3984 
Q 2250 4219 1831 4219 
Q 1534 4219 1204 4116 
Q 875 4013 500 3803 
L 500 4441 
Q 881 4594 1212 4672 
Q 1544 4750 1819 4750 
Q 2544 4750 2975 4387 
Q 3406 4025 3406 3419 
Q 3406 3131 3298 2873 
Q 3191 2616 2906 2266 
Q 2828 2175 2409 1742 
Q 1991 1309 1228 531 
z
" transform="scale(0.015625)"/>
      <path id="DejaVuSans-34" d="M 2419 4116 
L 825 1625 
L 2419 1625 
L 2419 4116 
z
M 2253 4666 
L 3047 4666 
L 3047 1625 
L 3713 1625 
L 3713 1100 
L 3047 1100 
L 3047 0 
L 2419 0 
L 2419 1100 
L 313 1100 
L 313 1709 
L 2253 4666 
z
" transform="scale(0.015625)"/>
      <path id="DejaVuSans-36" d="M 2113 2584 
Q 1688 2584 1439 2293 
Q 1191 2003 1191 1497 
Q 1191 994 1439 701 
Q 1688 409 2113 409 
Q 2538 409 2786 701 
Q 3034 994 3034 1497 
Q 3034 2003 2786 2293 
Q 2538 2584 2113 2584 
z
M 3366 4563 
L 3366 3988 
Q 3128 4100 2886 4159 
Q 2644 4219 2406 4219 
Q 1781 4219 1451 3797 
Q 1122 3375 1075 2522 
Q 1259 2794 1537 2939 
Q 1816 3084 2150 3084 
Q 2853 3084 3261 2657 
Q 3669 2231 3669 1497 
Q 3669 778 3244 343 
Q 2819 -91 2113 -91 
Q 1303 -91 875 529 
Q 447 1150 447 2328 
Q 447 3434 972 4092 
Q 1497 4750 2381 4750 
Q 2619 4750 2861 4703 
Q 3103 4656 3366 4563 
z
" transform="scale(0.015625)"/>
     </defs>
     <use xlink:href="#DejaVuSans-Oblique-54" transform="translate(0 0.78125)"/>
     <use xlink:href="#DejaVuSans-32" transform="translate(61.083984 -15.625) scale(0.7)"/>
     <use xlink:href="#DejaVuSans-3d" transform="translate(127.836914 0.78125)"/>
     <use xlink:href="#DejaVuSans-34" transform="translate(231.108398 0.78125)"/>
     <use xlink:href="#DejaVuSans-30" transform="translate(294.731445 0.78125)"/>
     <use xlink:href="#DejaVuSans-31" transform="translate(358.354492 0.78125)"/>
     <use xlink:href="#DejaVuSans-36" transform="translate(421.977539 0.78125)"/>
     <use xlink:href="#DejaVuSerif-20" transform="translate(485.600586 0.78125)"/>
     <use xlink:href="#DejaVuSerif-4b" transform="translate(517.387695 0.78125)"/>
    </g>
    <!-- (R–H jump, $T_v$ frozen) -->
    <g style="fill: #2c3e50" transform="translate(23 96.80563) scale(0.085 -0.085)">
     <defs>
      <path id="DejaVuSerif-52" d="M 3066 2316 
Q 3284 2256 3442 2114 
Q 3600 1972 3725 1716 
L 4403 331 
L 4972 331 
L 4972 0 
L 3872 0 
L 3144 1484 
Q 2934 1916 2759 2042 
Q 2584 2169 2278 2169 
L 1581 2169 
L 1581 331 
L 2241 331 
L 2241 0 
L 353 0 
L 353 331 
L 947 331 
L 947 4331 
L 353 4331 
L 353 4666 
L 2719 4666 
Q 3400 4666 3770 4341 
Q 4141 4016 4141 3419 
Q 4141 2938 3870 2661 
Q 3600 2384 3066 2316 
z
M 1581 2503 
L 2503 2503 
Q 2975 2503 3200 2726 
Q 3425 2950 3425 3419 
Q 3425 3888 3200 4109 
Q 2975 4331 2503 4331 
L 1581 4331 
L 1581 2503 
z
" transform="scale(0.015625)"/>
      <path id="DejaVuSansDisplay-2013" d="M 313 1978 
L 2888 1978 
L 2888 1528 
L 313 1528 
L 313 1978 
z
" transform="scale(0.015625)"/>
      <path id="DejaVuSerif-48" d="M 353 0 
L 353 331 
L 947 331 
L 947 4331 
L 353 4331 
L 353 4666 
L 2175 4666 
L 2175 4331 
L 1581 4331 
L 1581 2719 
L 4000 2719 
L 4000 4331 
L 3406 4331 
L 3406 4666 
L 5228 4666 
L 5228 4331 
L 4634 4331 
L 4634 331 
L 5228 331 
L 5228 0 
L 3406 0 
L 3406 331 
L 4000 331 
L 4000 2338 
L 1581 2338 
L 1581 331 
L 2175 331 
L 2175 0 
L 353 0 
z
" transform="scale(0.015625)"/>
      <path id="DejaVuSerif-6a" d="M 641 4353 
Q 641 4497 745 4603 
Q 850 4709 997 4709 
Q 1141 4709 1245 4603 
Q 1350 4497 1350 4353 
Q 1350 4206 1248 4103 
Q 1147 4000 997 4000 
Q 850 4000 745 4103 
Q 641 4206 641 4353 
z
M 781 2988 
L 238 2988 
L 238 3322 
L 1356 3322 
L 1356 -325 
Q 1356 -838 1051 -1130 
Q 747 -1422 213 -1422 
Q -13 -1422 -217 -1370 
Q -422 -1319 -616 -1216 
L -616 -531 
L -319 -531 
Q -297 -831 -164 -972 
Q -31 -1113 225 -1113 
Q 509 -1113 645 -920 
Q 781 -728 781 -325 
L 781 2988 
z
" transform="scale(0.015625)"/>
      <path id="DejaVuSerif-2c" d="M 231 -622 
Q 525 -406 662 -114 
Q 800 178 800 594 
L 800 709 
L 1416 709 
Q 1391 175 1164 -208 
Q 938 -591 481 -872 
L 231 -622 
z
" transform="scale(0.015625)"/>
      <path id="DejaVuSans-Oblique-76" d="M 459 3500 
L 1069 3500 
L 1581 525 
L 3256 3500 
L 3866 3500 
L 1875 0 
L 1100 0 
L 459 3500 
z
" transform="scale(0.015625)"/>
      <path id="DejaVuSerif-7a" d="M 256 0 
L 256 269 
L 2338 2988 
L 691 2988 
L 691 2413 
L 359 2413 
L 359 3322 
L 3078 3322 
L 3078 3053 
L 997 331 
L 2803 331 
L 2803 934 
L 3138 934 
L 3138 0 
L 256 0 
z
" transform="scale(0.015625)"/>
     </defs>
     <use xlink:href="#DejaVuSerif-28" transform="translate(0 0.015625)"/>
     <use xlink:href="#DejaVuSerif-52" transform="translate(39.013672 0.015625)"/>
     <use xlink:href="#DejaVuSansDisplay-2013" transform="translate(114.306641 0.015625)"/>
     <use xlink:href="#DejaVuSerif-48" transform="translate(164.306641 0.015625)"/>
     <use xlink:href="#DejaVuSerif-20" transform="translate(251.513672 0.015625)"/>
     <use xlink:href="#DejaVuSerif-6a" transform="translate(283.300781 0.015625)"/>
     <use xlink:href="#DejaVuSerif-75" transform="translate(314.306641 0.015625)"/>
     <use xlink:href="#DejaVuSerif-6d" transform="translate(378.710938 0.015625)"/>
     <use xlink:href="#DejaVuSerif-70" transform="translate(473.535156 0.015625)"/>
     <use xlink:href="#DejaVuSerif-2c" transform="translate(537.548828 0.015625)"/>
     <use xlink:href="#DejaVuSerif-20" transform="translate(569.335938 0.015625)"/>
     <use xlink:href="#DejaVuSans-Oblique-54" transform="translate(601.123047 0.015625)"/>
     <use xlink:href="#DejaVuSans-Oblique-76" transform="translate(662.207031 -16.390625) scale(0.7)"/>
     <use xlink:href="#DejaVuSerif-20" transform="translate(706.367188 0.015625)"/>
     <use xlink:href="#DejaVuSerif-66" transform="translate(738.154297 0.015625)"/>
     <use xlink:href="#DejaVuSerif-72" transform="translate(775.166016 0.015625)"/>
     <use xlink:href="#DejaVuSerif-6f" transform="translate(822.96875 0.015625)"/>
     <use xlink:href="#DejaVuSerif-7a" transform="translate(883.173828 0.015625)"/>
     <use xlink:href="#DejaVuSerif-65" transform="translate(935.859375 0.015625)"/>
     <use xlink:href="#DejaVuSerif-6e" transform="translate(995.039062 0.015625)"/>
     <use xlink:href="#DejaVuSerif-29" transform="translate(1059.443359 0.015625)"/>
    </g>
   </g>
   <g id="text_21">
    <!-- $T_{eq} = 4500$ K -->
    <g style="fill: #27ae60" transform="translate(370.147733 49.599291) scale(0.085 -0.085)">
     <defs>
      <path id="DejaVuSans-Oblique-65" d="M 3078 2063 
Q 3088 2113 3092 2166 
Q 3097 2219 3097 2272 
Q 3097 2653 2873 2875 
Q 2650 3097 2266 3097 
Q 1838 3097 1509 2826 
Q 1181 2556 1013 2059 
L 3078 2063 
z
M 3578 1613 
L 903 1613 
Q 884 1494 878 1425 
Q 872 1356 872 1306 
Q 872 872 1139 634 
Q 1406 397 1894 397 
Q 2269 397 2603 481 
Q 2938 566 3225 728 
L 3116 159 
Q 2806 34 2476 -28 
Q 2147 -91 1806 -91 
Q 1078 -91 686 257 
Q 294 606 294 1247 
Q 294 1794 489 2264 
Q 684 2734 1063 3103 
Q 1306 3334 1642 3459 
Q 1978 3584 2356 3584 
Q 2950 3584 3301 3228 
Q 3653 2872 3653 2272 
Q 3653 2128 3634 1964 
Q 3616 1800 3578 1613 
z
" transform="scale(0.015625)"/>
      <path id="DejaVuSans-Oblique-71" d="M 2669 525 
Q 2438 222 2123 65 
Q 1809 -91 1428 -91 
Q 897 -91 595 267 
Q 294 625 294 1253 
Q 294 1759 480 2231 
Q 666 2703 1013 3078 
Q 1238 3322 1530 3453 
Q 1822 3584 2144 3584 
Q 2531 3584 2781 3431 
Q 3031 3278 3144 2969 
L 3244 3494 
L 3822 3494 
L 2888 -1319 
L 2309 -1319 
L 2669 525 
z
M 891 1338 
Q 891 875 1084 633 
Q 1278 391 1644 391 
Q 2188 391 2572 911 
Q 2956 1431 2956 2175 
Q 2956 2625 2757 2864 
Q 2559 3103 2188 3103 
Q 1916 3103 1684 2976 
Q 1453 2850 1281 2606 
Q 1100 2350 995 2006 
Q 891 1663 891 1338 
z
" transform="scale(0.015625)"/>
      <path id="DejaVuSans-35" d="M 691 4666 
L 3169 4666 
L 3169 4134 
L 1269 4134 
L 1269 2991 
Q 1406 3038 1543 3061 
Q 1681 3084 1819 3084 
Q 2600 3084 3056 2656 
Q 3513 2228 3513 1497 
Q 3513 744 3044 326 
Q 2575 -91 1722 -91 
Q 1428 -91 1123 -41 
Q 819 9 494 109 
L 494 744 
Q 775 591 1075 516 
Q 1375 441 1709 441 
Q 2250 441 2565 725 
Q 2881 1009 2881 1497 
Q 2881 1984 2565 2268 
Q 2250 2553 1709 2553 
Q 1456 2553 1204 2497 
Q 953 2441 691 2322 
L 691 4666 
z
" transform="scale(0.015625)"/>
     </defs>
     <use xlink:href="#DejaVuSans-Oblique-54" transform="translate(0 0.78125)"/>
     <use xlink:href="#DejaVuSans-Oblique-65" transform="translate(61.083984 -15.625) scale(0.7)"/>
     <use xlink:href="#DejaVuSans-Oblique-71" transform="translate(104.150391 -15.625) scale(0.7)"/>
     <use xlink:href="#DejaVuSans-3d" transform="translate(170.800781 0.78125)"/>
     <use xlink:href="#DejaVuSans-34" transform="translate(274.072266 0.78125)"/>
     <use xlink:href="#DejaVuSans-35" transform="translate(337.695312 0.78125)"/>
     <use xlink:href="#DejaVuSans-30" transform="translate(401.318359 0.78125)"/>
     <use xlink:href="#DejaVuSans-30" transform="translate(464.941406 0.78125)"/>
     <use xlink:href="#DejaVuSerif-20" transform="translate(528.564453 0.78125)"/>
     <use xlink:href="#DejaVuSerif-4b" transform="translate(560.351562 0.78125)"/>
    </g>
   </g>
   <g id="patch_8">
    <path d="M 453.3824 341.885634 
Q 453.3824 201.023346 453.3824 60.161059 
" style="fill: none; stroke: #f39c12; stroke-width: 1.5; stroke-linecap: round"/>
    <path d="M 455.3824 337.885634 
L 453.3824 341.885634 
L 451.3824 337.885634 
" style="fill: none; stroke: #f39c12; stroke-width: 1.5; stroke-linecap: round"/>
    <path d="M 451.3824 64.161059 
L 453.3824 60.161059 
L 455.3824 64.161059 
" style="fill: none; stroke: #f39c12; stroke-width: 1.5; stroke-linecap: round"/>
   </g>
   <g id="text_22">
    <!-- $\delta\bar{\alpha}_{\rm shock}$ -->
    <g style="fill: #f39c12" transform="translate(462.1348 185.910983) scale(0.075 -0.075)">
     <defs>
      <path id="DejaVuSans-Oblique-3b4" d="M 3472 4053 
Q 3197 4272 2450 4272 
Q 1659 4272 1588 3906 
Q 1531 3619 2328 3469 
Q 2953 3353 3253 3003 
Q 3616 2581 3447 1716 
Q 3284 888 2763 400 
Q 2238 -91 1488 -91 
Q 741 -91 406 400 
Q 72 888 241 1747 
Q 363 2384 891 2900 
Q 1097 3100 1353 3213 
Q 913 3459 1000 3900 
Q 1166 4750 2544 4750 
Q 3234 4750 3566 4531 
L 3472 4053 
z
M 1753 3056 
Q 1525 2966 1306 2738 
Q 969 2384 847 1747 
Q 722 1113 919 756 
Q 1119 397 1584 397 
Q 2044 397 2381 759 
Q 2722 1122 2838 1716 
Q 2956 2338 2731 2638 
Q 2491 2959 2103 2994 
Q 1906 3013 1753 3056 
z
" transform="scale(0.015625)"/>
      <path id="DejaVuSans-304" d="M -2522 4769 
L -653 4769 
L -653 4306 
L -2522 4306 
L -2522 4769 
z
" transform="scale(0.015625)"/>
      <path id="DejaVuSans-Oblique-3b1" d="M 2619 1628 
L 2622 2350 
Q 2625 3088 2069 3091 
Q 1653 3094 1394 2747 
Q 1069 2319 959 1747 
Q 825 1059 994 731 
Q 1169 397 1547 397 
Q 1966 397 2319 1063 
L 2619 1628 
z
M 2166 3578 
Q 3141 3594 3128 2584 
Q 3128 2584 3616 3500 
L 4128 3500 
L 3119 1603 
L 3109 919 
Q 3109 766 3194 638 
Q 3291 488 3391 488 
L 3669 488 
L 3575 0 
L 3228 0 
Q 2934 0 2722 263 
Q 2622 394 2619 669 
Q 2416 334 2066 50 
Q 1900 -81 1453 -78 
Q 722 -72 456 397 
Q 184 884 353 1747 
Q 534 2675 1009 3097 
Q 1544 3569 2166 3578 
z
" transform="scale(0.015625)"/>
      <path id="DejaVuSans-73" d="M 2834 3397 
L 2834 2853 
Q 2591 2978 2328 3040 
Q 2066 3103 1784 3103 
Q 1356 3103 1142 2972 
Q 928 2841 928 2578 
Q 928 2378 1081 2264 
Q 1234 2150 1697 2047 
L 1894 2003 
Q 2506 1872 2764 1633 
Q 3022 1394 3022 966 
Q 3022 478 2636 193 
Q 2250 -91 1575 -91 
Q 1294 -91 989 -36 
Q 684 19 347 128 
L 347 722 
Q 666 556 975 473 
Q 1284 391 1588 391 
Q 1994 391 2212 530 
Q 2431 669 2431 922 
Q 2431 1156 2273 1281 
Q 2116 1406 1581 1522 
L 1381 1569 
Q 847 1681 609 1914 
Q 372 2147 372 2553 
Q 372 3047 722 3315 
Q 1072 3584 1716 3584 
Q 2034 3584 2315 3537 
Q 2597 3491 2834 3397 
z
" transform="scale(0.015625)"/>
      <path id="DejaVuSans-68" d="M 3513 2113 
L 3513 0 
L 2938 0 
L 2938 2094 
Q 2938 2591 2744 2837 
Q 2550 3084 2163 3084 
Q 1697 3084 1428 2787 
Q 1159 2491 1159 1978 
L 1159 0 
L 581 0 
L 581 4863 
L 1159 4863 
L 1159 2956 
Q 1366 3272 1645 3428 
Q 1925 3584 2291 3584 
Q 2894 3584 3203 3211 
Q 3513 2838 3513 2113 
z
" transform="scale(0.015625)"/>
      <path id="DejaVuSans-6f" d="M 1959 3097 
Q 1497 3097 1228 2736 
Q 959 2375 959 1747 
Q 959 1119 1226 758 
Q 1494 397 1959 397 
Q 2419 397 2687 759 
Q 2956 1122 2956 1747 
Q 2956 2369 2687 2733 
Q 2419 3097 1959 3097 
z
M 1959 3584 
Q 2709 3584 3137 3096 
Q 3566 2609 3566 1747 
Q 3566 888 3137 398 
Q 2709 -91 1959 -91 
Q 1206 -91 779 398 
Q 353 888 353 1747 
Q 353 2609 779 3096 
Q 1206 3584 1959 3584 
z
" transform="scale(0.015625)"/>
      <path id="DejaVuSans-63" d="M 3122 3366 
L 3122 2828 
Q 2878 2963 2633 3030 
Q 2388 3097 2138 3097 
Q 1578 3097 1268 2742 
Q 959 2388 959 1747 
Q 959 1106 1268 751 
Q 1578 397 2138 397 
Q 2388 397 2633 464 
Q 2878 531 3122 666 
L 3122 134 
Q 2881 22 2623 -34 
Q 2366 -91 2075 -91 
Q 1284 -91 818 406 
Q 353 903 353 1747 
Q 353 2603 823 3093 
Q 1294 3584 2113 3584 
Q 2378 3584 2631 3529 
Q 2884 3475 3122 3366 
z
" transform="scale(0.015625)"/>
      <path id="DejaVuSans-6b" d="M 581 4863 
L 1159 4863 
L 1159 1991 
L 2875 3500 
L 3609 3500 
L 1753 1863 
L 3688 0 
L 2938 0 
L 1159 1709 
L 1159 0 
L 581 0 
L 581 4863 
z
" transform="scale(0.015625)"/>
     </defs>
     <use xlink:href="#DejaVuSans-Oblique-3b4" transform="translate(0 0.109375)"/>
     <use xlink:href="#DejaVuSans-304" transform="translate(127.067383 1.484375)"/>
     <use xlink:href="#DejaVuSans-Oblique-3b1" transform="translate(61.181641 0.109375)"/>
     <use xlink:href="#DejaVuSans-73" transform="translate(128.056641 -16.296875) scale(0.7)"/>
     <use xlink:href="#DejaVuSans-68" transform="translate(164.526367 -16.296875) scale(0.7)"/>
     <use xlink:href="#DejaVuSans-6f" transform="translate(208.891602 -16.296875) scale(0.7)"/>
     <use xlink:href="#DejaVuSans-63" transform="translate(251.71875 -16.296875) scale(0.7)"/>
     <use xlink:href="#DejaVuSans-6b" transform="translate(290.205078 -16.296875) scale(0.7)"/>
    </g>
    <!-- $= \bar{\alpha}(T_{eq}) - \bar{\alpha}(T_1)$ -->
    <g style="fill: #f39c12" transform="translate(462.1348 194.310749) scale(0.075 -0.075)">
     <defs>
      <path id="DejaVuSans-28" d="M 1984 4856 
Q 1566 4138 1362 3434 
Q 1159 2731 1159 2009 
Q 1159 1288 1364 580 
Q 1569 -128 1984 -844 
L 1484 -844 
Q 1016 -109 783 600 
Q 550 1309 550 2009 
Q 550 2706 781 3412 
Q 1013 4119 1484 4856 
L 1984 4856 
z
" transform="scale(0.015625)"/>
      <path id="DejaVuSans-29" d="M 513 4856 
L 1013 4856 
Q 1481 4119 1714 3412 
Q 1947 2706 1947 2009 
Q 1947 1309 1714 600 
Q 1481 -109 1013 -844 
L 513 -844 
Q 928 -128 1133 580 
Q 1338 1288 1338 2009 
Q 1338 2731 1133 3434 
Q 928 4138 513 4856 
z
" transform="scale(0.015625)"/>
      <path id="DejaVuSans-2212" d="M 678 2272 
L 4684 2272 
L 4684 1741 
L 678 1741 
L 678 2272 
z
" transform="scale(0.015625)"/>
     </defs>
     <use xlink:href="#DejaVuSans-3d" transform="translate(19.482422 0.109375)"/>
     <use xlink:href="#DejaVuSans-304" transform="translate(188.639648 1.484375)"/>
     <use xlink:href="#DejaVuSans-Oblique-3b1" transform="translate(122.753906 0.109375)"/>
     <use xlink:href="#DejaVuSans-28" transform="translate(188.671875 0.109375)"/>
     <use xlink:href="#DejaVuSans-Oblique-54" transform="translate(227.685547 0.109375)"/>
     <use xlink:href="#DejaVuSans-Oblique-65" transform="translate(288.769531 -16.296875) scale(0.7)"/>
     <use xlink:href="#DejaVuSans-Oblique-71" transform="translate(331.835938 -16.296875) scale(0.7)"/>
     <use xlink:href="#DejaVuSans-29" transform="translate(379.003906 0.109375)"/>
     <use xlink:href="#DejaVuSans-2212" transform="translate(437.5 0.109375)"/>
     <use xlink:href="#DejaVuSans-304" transform="translate(606.657227 1.484375)"/>
     <use xlink:href="#DejaVuSans-Oblique-3b1" transform="translate(540.771484 0.109375)"/>
     <use xlink:href="#DejaVuSans-28" transform="translate(606.689453 0.109375)"/>
     <use xlink:href="#DejaVuSans-Oblique-54" transform="translate(645.703125 0.109375)"/>
     <use xlink:href="#DejaVuSans-31" transform="translate(706.787109 -16.296875) scale(0.7)"/>
     <use xlink:href="#DejaVuSans-29" transform="translate(754.057617 0.109375)"/>
    </g>
    <!-- &gt; 0 -->
    <g style="fill: #f39c12" transform="translate(462.1348 203.474343) scale(0.075 -0.075)">
     <defs>
      <path id="DejaVuSerif-3e" d="M 678 3188 
L 678 3719 
L 4684 2266 
L 4684 1747 
L 678 294 
L 678 825 
L 3922 2003 
L 678 3188 
z
" transform="scale(0.015625)"/>
     </defs>
     <use xlink:href="#DejaVuSerif-3e"/>
     <use xlink:href="#DejaVuSerif-20" x="83.789062"/>
     <use xlink:href="#DejaVuSerif-30" x="115.576172"/>
    </g>
    <!-- (experimentalist -->
    <g style="fill: #f39c12" transform="translate(462.1348 211.872702) scale(0.075 -0.075)">
     <defs>
      <path id="DejaVuSerif-78" d="M 1863 2028 
L 2559 2988 
L 2113 2988 
L 2113 3322 
L 3391 3322 
L 3391 2988 
L 2950 2988 
L 2059 1759 
L 3097 331 
L 3531 331 
L 3531 0 
L 1997 0 
L 1997 331 
L 2419 331 
L 1697 1325 
L 972 331 
L 1403 331 
L 1403 0 
L 141 0 
L 141 331 
L 581 331 
L 1497 1594 
L 488 2988 
L 78 2988 
L 78 3322 
L 1563 3322 
L 1563 2988 
L 1166 2988 
L 1863 2028 
z
" transform="scale(0.015625)"/>
      <path id="DejaVuSerif-6c" d="M 1313 331 
L 1856 331 
L 1856 0 
L 184 0 
L 184 331 
L 738 331 
L 738 4531 
L 184 4531 
L 184 4863 
L 1313 4863 
L 1313 331 
z
" transform="scale(0.015625)"/>
     </defs>
     <use xlink:href="#DejaVuSerif-28"/>
     <use xlink:href="#DejaVuSerif-65" x="39.013672"/>
     <use xlink:href="#DejaVuSerif-78" x="98.193359"/>
     <use xlink:href="#DejaVuSerif-70" x="154.589844"/>
     <use xlink:href="#DejaVuSerif-65" x="218.603516"/>
     <use xlink:href="#DejaVuSerif-72" x="277.783203"/>
     <use xlink:href="#DejaVuSerif-69" x="325.585938"/>
     <use xlink:href="#DejaVuSerif-6d" x="357.568359"/>
     <use xlink:href="#DejaVuSerif-65" x="452.392578"/>
     <use xlink:href="#DejaVuSerif-6e" x="511.572266"/>
     <use xlink:href="#DejaVuSerif-74" x="575.976562"/>
     <use xlink:href="#DejaVuSerif-61" x="616.162109"/>
     <use xlink:href="#DejaVuSerif-6c" x="675.78125"/>
     <use xlink:href="#DejaVuSerif-69" x="707.763672"/>
     <use xlink:href="#DejaVuSerif-73" x="739.746094"/>
     <use xlink:href="#DejaVuSerif-74" x="791.064453"/>
    </g>
    <!-- overestimates) -->
    <g style="fill: #f39c12" transform="translate(462.1348 220.271061) scale(0.075 -0.075)">
     <defs>
      <path id="DejaVuSerif-76" d="M 1581 0 
L 359 2988 
L -19 2988 
L -19 3322 
L 1509 3322 
L 1509 2988 
L 978 2988 
L 1913 703 
L 2847 2988 
L 2350 2988 
L 2350 3322 
L 3597 3322 
L 3597 2988 
L 3225 2988 
L 2003 0 
L 1581 0 
z
" transform="scale(0.015625)"/>
     </defs>
     <use xlink:href="#DejaVuSerif-6f"/>
     <use xlink:href="#DejaVuSerif-76" x="60.205078"/>
     <use xlink:href="#DejaVuSerif-65" x="116.699219"/>
     <use xlink:href="#DejaVuSerif-72" x="175.878906"/>
     <use xlink:href="#DejaVuSerif-65" x="223.681641"/>
     <use xlink:href="#DejaVuSerif-73" x="282.861328"/>
     <use xlink:href="#DejaVuSerif-74" x="334.179688"/>
     <use xlink:href="#DejaVuSerif-69" x="374.365234"/>
     <use xlink:href="#DejaVuSerif-6d" x="406.347656"/>
     <use xlink:href="#DejaVuSerif-61" x="501.171875"/>
     <use xlink:href="#DejaVuSerif-74" x="560.791016"/>
     <use xlink:href="#DejaVuSerif-65" x="600.976562"/>
     <use xlink:href="#DejaVuSerif-73" x="660.15625"/>
     <use xlink:href="#DejaVuSerif-29" x="711.474609"/>
    </g>
   </g>
   <g id="patch_9">
    <path d="M 354.656243 109.656883 
Q 367.114185 83.970135 379.084239 59.289353 
" style="fill: none; stroke: #8e44ad; stroke-linecap: round"/>
    <path d="M 376.248203 61.470384 
L 379.084239 59.289353 
L 379.127442 62.866801 
" style="fill: none; stroke: #8e44ad; stroke-linecap: round"/>
   </g>
   <g id="text_23">
    <g id="patch_10">
     <path d="M 292.921733 143.139796 
L 399.081733 143.139796 
Q 401.481733 143.139796 401.481733 140.739796 
L 401.481733 114.263046 
Q 401.481733 111.863046 399.081733 111.863046 
L 292.921733 111.863046 
Q 290.521733 111.863046 290.521733 114.263046 
L 290.521733 140.739796 
Q 290.521733 143.139796 292.921733 143.139796 
z
" style="fill: #ffffff; stroke: #8e44ad; stroke-width: 0.8; stroke-linejoin: miter"/>
    </g>
    <!-- Experimentalist -->
    <g style="fill: #8e44ad" transform="translate(292.921733 120.341796) scale(0.08 -0.08)">
     <defs>
      <path id="DejaVuSerif-45" d="M 353 0 
L 353 331 
L 947 331 
L 947 4331 
L 353 4331 
L 353 4666 
L 4109 4666 
L 4109 3628 
L 3725 3628 
L 3725 4281 
L 1581 4281 
L 1581 2719 
L 3109 2719 
L 3109 3303 
L 3494 3303 
L 3494 1753 
L 3109 1753 
L 3109 2338 
L 1581 2338 
L 1581 384 
L 3775 384 
L 3775 1038 
L 4159 1038 
L 4159 0 
L 353 0 
z
" transform="scale(0.015625)"/>
     </defs>
     <use xlink:href="#DejaVuSerif-45"/>
     <use xlink:href="#DejaVuSerif-78" x="72.998047"/>
     <use xlink:href="#DejaVuSerif-70" x="129.394531"/>
     <use xlink:href="#DejaVuSerif-65" x="193.408203"/>
     <use xlink:href="#DejaVuSerif-72" x="252.587891"/>
     <use xlink:href="#DejaVuSerif-69" x="300.390625"/>
     <use xlink:href="#DejaVuSerif-6d" x="332.373047"/>
     <use xlink:href="#DejaVuSerif-65" x="427.197266"/>
     <use xlink:href="#DejaVuSerif-6e" x="486.376953"/>
     <use xlink:href="#DejaVuSerif-74" x="550.78125"/>
     <use xlink:href="#DejaVuSerif-61" x="590.966797"/>
     <use xlink:href="#DejaVuSerif-6c" x="650.585938"/>
     <use xlink:href="#DejaVuSerif-69" x="682.568359"/>
     <use xlink:href="#DejaVuSerif-73" x="714.550781"/>
     <use xlink:href="#DejaVuSerif-74" x="765.869141"/>
    </g>
    <!-- baseline: $T_v = T_{eq}$ -->
    <g style="fill: #8e44ad" transform="translate(292.921733 129.301546) scale(0.08 -0.08)">
     <defs>
      <path id="DejaVuSerif-62" d="M 738 331 
L 738 4531 
L 184 4531 
L 184 4863 
L 1313 4863 
L 1313 2803 
Q 1481 3116 1742 3264 
Q 2003 3413 2388 3413 
Q 3000 3413 3387 2928 
Q 3775 2444 3775 1663 
Q 3775 881 3387 395 
Q 3000 -91 2388 -91 
Q 2003 -91 1742 57 
Q 1481 206 1313 519 
L 1313 0 
L 184 0 
L 184 331 
L 738 331 
z
M 1313 1497 
Q 1313 897 1542 583 
Q 1772 269 2209 269 
Q 2650 269 2876 622 
Q 3103 975 3103 1663 
Q 3103 2353 2876 2703 
Q 2650 3053 2209 3053 
Q 1772 3053 1542 2737 
Q 1313 2422 1313 1825 
L 1313 1497 
z
" transform="scale(0.015625)"/>
      <path id="DejaVuSerif-3a" d="M 666 325 
Q 666 500 786 622 
Q 906 744 1081 744 
Q 1256 744 1376 622 
Q 1497 500 1497 325 
Q 1497 150 1378 29 
Q 1259 -91 1081 -91 
Q 903 -91 784 29 
Q 666 150 666 325 
z
M 666 2363 
Q 666 2538 786 2658 
Q 906 2778 1081 2778 
Q 1259 2778 1378 2659 
Q 1497 2541 1497 2363 
Q 1497 2184 1378 2065 
Q 1259 1947 1081 1947 
Q 906 1947 786 2067 
Q 666 2188 666 2363 
z
" transform="scale(0.015625)"/>
     </defs>
     <use xlink:href="#DejaVuSerif-62" transform="translate(0 0.015625)"/>
     <use xlink:href="#DejaVuSerif-61" transform="translate(64.013672 0.015625)"/>
     <use xlink:href="#DejaVuSerif-73" transform="translate(123.632812 0.015625)"/>
     <use xlink:href="#DejaVuSerif-65" transform="translate(174.951172 0.015625)"/>
     <use xlink:href="#DejaVuSerif-6c" transform="translate(234.130859 0.015625)"/>
     <use xlink:href="#DejaVuSerif-69" transform="translate(266.113281 0.015625)"/>
     <use xlink:href="#DejaVuSerif-6e" transform="translate(298.095703 0.015625)"/>
     <use xlink:href="#DejaVuSerif-65" transform="translate(362.5 0.015625)"/>
     <use xlink:href="#DejaVuSerif-3a" transform="translate(421.679688 0.015625)"/>
     <use xlink:href="#DejaVuSerif-20" transform="translate(455.371094 0.015625)"/>
     <use xlink:href="#DejaVuSans-Oblique-54" transform="translate(487.158203 0.015625)"/>
     <use xlink:href="#DejaVuSans-Oblique-76" transform="translate(548.242188 -16.390625) scale(0.7)"/>
     <use xlink:href="#DejaVuSans-3d" transform="translate(611.884766 0.015625)"/>
     <use xlink:href="#DejaVuSans-Oblique-54" transform="translate(715.15625 0.015625)"/>
     <use xlink:href="#DejaVuSans-Oblique-65" transform="translate(776.240234 -16.390625) scale(0.7)"/>
     <use xlink:href="#DejaVuSans-Oblique-71" transform="translate(819.306641 -16.390625) scale(0.7)"/>
    </g>
    <!-- $\Rightarrow$ assumes full relaxation -->
    <g style="fill: #8e44ad" transform="translate(292.921733 139.076046) scale(0.08 -0.08)">
     <defs>
      <path id="DejaVuSans-21d2" d="M 4113 1678 
L 4441 2006 
L 4113 2334 
L 366 2334 
L 366 2709 
L 3738 2709 
L 3447 3000 
L 3822 3375 
L 5050 2147 
L 5050 1866 
L 3822 638 
L 3447 1013 
L 3738 1303 
L 366 1303 
L 366 1678 
L 4113 1678 
z
" transform="scale(0.015625)"/>
     </defs>
     <use xlink:href="#DejaVuSans-21d2" transform="translate(19.482422 0.015625)"/>
     <use xlink:href="#DejaVuSerif-20" transform="translate(122.753906 0.015625)"/>
     <use xlink:href="#DejaVuSerif-61" transform="translate(154.541016 0.015625)"/>
     <use xlink:href="#DejaVuSerif-73" transform="translate(214.160156 0.015625)"/>
     <use xlink:href="#DejaVuSerif-73" transform="translate(265.478516 0.015625)"/>
     <use xlink:href="#DejaVuSerif-75" transform="translate(316.796875 0.015625)"/>
     <use xlink:href="#DejaVuSerif-6d" transform="translate(381.201172 0.015625)"/>
     <use xlink:href="#DejaVuSerif-65" transform="translate(476.025391 0.015625)"/>
     <use xlink:href="#DejaVuSerif-73" transform="translate(535.205078 0.015625)"/>
     <use xlink:href="#DejaVuSerif-20" transform="translate(586.523438 0.015625)"/>
     <use xlink:href="#DejaVuSerif-66" transform="translate(618.310547 0.015625)"/>
     <use xlink:href="#DejaVuSerif-75" transform="translate(655.322266 0.015625)"/>
     <use xlink:href="#DejaVuSerif-6c" transform="translate(719.726562 0.015625)"/>
     <use xlink:href="#DejaVuSerif-6c" transform="translate(751.708984 0.015625)"/>
     <use xlink:href="#DejaVuSerif-20" transform="translate(783.691406 0.015625)"/>
     <use xlink:href="#DejaVuSerif-72" transform="translate(815.478516 0.015625)"/>
     <use xlink:href="#DejaVuSerif-65" transform="translate(863.28125 0.015625)"/>
     <use xlink:href="#DejaVuSerif-6c" transform="translate(922.460938 0.015625)"/>
     <use xlink:href="#DejaVuSerif-61" transform="translate(954.443359 0.015625)"/>
     <use xlink:href="#DejaVuSerif-78" transform="translate(1014.0625 0.015625)"/>
     <use xlink:href="#DejaVuSerif-61" transform="translate(1070.458984 0.015625)"/>
     <use xlink:href="#DejaVuSerif-74" transform="translate(1130.078125 0.015625)"/>
     <use xlink:href="#DejaVuSerif-69" transform="translate(1170.263672 0.015625)"/>
     <use xlink:href="#DejaVuSerif-6f" transform="translate(1202.246094 0.015625)"/>
     <use xlink:href="#DejaVuSerif-6e" transform="translate(1262.451172 0.015625)"/>
    </g>
   </g>
   <g id="text_24">
    <g id="patch_11">
     <path d="M 176.223067 194.463821 
L 230.279082 194.463821 
Q 232.829082 194.463821 232.829082 191.913821 
L 232.829082 174.169274 
Q 232.829082 171.619274 230.279082 171.619274 
L 176.223067 171.619274 
Q 173.673067 171.619274 173.673067 174.169274 
L 173.673067 191.913821 
Q 173.673067 194.463821 176.223067 194.463821 
z
" style="fill: #ffffff; stroke: #c0392b; stroke-width: 0.8; stroke-linejoin: miter"/>
    </g>
    <!-- Frozen state -->
    <g style="fill: #c0392b" transform="translate(176.223067 180.627946) scale(0.085 -0.085)">
     <defs>
      <path id="DejaVuSerif-46" d="M 353 0 
L 353 331 
L 947 331 
L 947 4331 
L 353 4331 
L 353 4666 
L 4172 4666 
L 4172 3628 
L 3788 3628 
L 3788 4281 
L 1581 4281 
L 1581 2719 
L 3175 2719 
L 3175 3303 
L 3559 3303 
L 3559 1753 
L 3175 1753 
L 3175 2338 
L 1581 2338 
L 1581 331 
L 2328 331 
L 2328 0 
L 353 0 
z
" transform="scale(0.015625)"/>
     </defs>
     <use xlink:href="#DejaVuSerif-46"/>
     <use xlink:href="#DejaVuSerif-72" x="69.384766"/>
     <use xlink:href="#DejaVuSerif-6f" x="117.1875"/>
     <use xlink:href="#DejaVuSerif-7a" x="177.392578"/>
     <use xlink:href="#DejaVuSerif-65" x="230.078125"/>
     <use xlink:href="#DejaVuSerif-6e" x="289.257812"/>
     <use xlink:href="#DejaVuSerif-20" x="353.662109"/>
     <use xlink:href="#DejaVuSerif-73" x="385.449219"/>
     <use xlink:href="#DejaVuSerif-74" x="436.767578"/>
     <use xlink:href="#DejaVuSerif-61" x="476.953125"/>
     <use xlink:href="#DejaVuSerif-74" x="536.572266"/>
     <use xlink:href="#DejaVuSerif-65" x="576.757812"/>
    </g>
    <!-- $T_v = T_1 \ll T_{tr}$ -->
    <g style="fill: #c0392b" transform="translate(176.223067 190.146086) scale(0.085 -0.085)">
     <defs>
      <path id="DejaVuSans-226a" d="M 6238 3253 
L 3656 2003 
L 6238 759 
L 6238 144 
L 2869 1769 
L 2869 2266 
L 6238 3897 
L 6238 3253 
z
M 3831 3253 
L 1250 2003 
L 3831 759 
L 3831 144 
L 463 1769 
L 463 2266 
L 3831 3897 
L 3831 3253 
z
" transform="scale(0.015625)"/>
      <path id="DejaVuSans-Oblique-74" d="M 2706 3500 
L 2619 3053 
L 1472 3053 
L 1100 1153 
Q 1081 1047 1072 975 
Q 1063 903 1063 863 
Q 1063 663 1183 572 
Q 1303 481 1569 481 
L 2150 481 
L 2053 0 
L 1503 0 
Q 991 0 739 200 
Q 488 400 488 806 
Q 488 878 497 964 
Q 506 1050 525 1153 
L 897 3053 
L 409 3053 
L 500 3500 
L 978 3500 
L 1172 4494 
L 1747 4494 
L 1556 3500 
L 2706 3500 
z
" transform="scale(0.015625)"/>
      <path id="DejaVuSans-Oblique-72" d="M 2853 2969 
Q 2766 3016 2653 3041 
Q 2541 3066 2413 3066 
Q 1953 3066 1609 2717 
Q 1266 2369 1153 1784 
L 800 0 
L 225 0 
L 909 3500 
L 1484 3500 
L 1375 2956 
Q 1603 3259 1920 3421 
Q 2238 3584 2597 3584 
Q 2691 3584 2781 3573 
Q 2872 3563 2963 3538 
L 2853 2969 
z
" transform="scale(0.015625)"/>
     </defs>
     <use xlink:href="#DejaVuSans-Oblique-54" transform="translate(0 0.09375)"/>
     <use xlink:href="#DejaVuSans-Oblique-76" transform="translate(61.083984 -16.3125) scale(0.7)"/>
     <use xlink:href="#DejaVuSans-3d" transform="translate(124.726562 0.09375)"/>
     <use xlink:href="#DejaVuSans-Oblique-54" transform="translate(227.998047 0.09375)"/>
     <use xlink:href="#DejaVuSans-31" transform="translate(289.082031 -16.3125) scale(0.7)"/>
     <use xlink:href="#DejaVuSans-226a" transform="translate(355.834961 0.09375)"/>
     <use xlink:href="#DejaVuSans-Oblique-54" transform="translate(480.004883 0.09375)"/>
     <use xlink:href="#DejaVuSans-Oblique-74" transform="translate(541.088867 -16.3125) scale(0.7)"/>
     <use xlink:href="#DejaVuSans-Oblique-72" transform="translate(568.535156 -16.3125) scale(0.7)"/>
    </g>
   </g>
   <g id="line2d_34">
    <path d="M 59.5244 345.560864 
L 146.610232 345.560864 
L 147.157942 89.731448 
L 152.635038 86.752426 
L 158.112135 84.040313 
L 163.589231 81.571196 
L 169.614037 79.109903 
L 175.638843 76.890067 
L 182.211359 74.71604 
L 188.783874 72.773608 
L 195.9041 70.902107 
L 203.572035 69.12635 
L 211.787679 67.465684 
L 220.551033 65.933986 
L 229.862097 64.539897 
L 239.720871 63.287248 
L 250.675063 62.122445 
L 262.724675 61.070071 
L 275.869707 60.144642 
L 290.657867 59.324694 
L 307.636866 58.607012 
L 327.902122 57.983541 
L 352.001346 57.475537 
L 382.125376 57.074933 
L 422.10818 56.780881 
L 481.260821 56.590525 
L 497.1444 56.56469 
L 497.1444 56.56469 
" clip-path="url(#p7fa3f8e266)" style="fill: none; stroke: #2c3e50; stroke-width: 2.5; stroke-linecap: round"/>
   </g>
   <g id="line2d_35">
    <path d="M 59.5244 345.560864 
L 146.610232 345.560864 
L 147.157942 345.018672 
L 150.991909 326.669209 
L 154.825877 309.486678 
L 158.659844 293.39687 
L 162.493812 278.330292 
L 166.327779 264.221872 
L 170.161747 251.010676 
L 173.995714 238.639645 
L 177.829682 227.055349 
L 181.663649 216.207755 
L 185.497617 206.050014 
L 189.331584 196.538253 
L 193.165551 187.631393 
L 196.999519 179.290963 
L 200.833486 171.480943 
L 204.667454 164.1676 
L 208.501421 157.319349 
L 212.335389 150.906612 
L 216.169356 144.901692 
L 220.003324 139.278655 
L 223.837291 134.013215 
L 227.671259 129.08263 
L 232.052936 123.830448 
L 236.434613 118.958228 
L 240.81629 114.438482 
L 245.197967 110.24571 
L 249.579644 106.356259 
L 253.961321 102.748184 
L 258.342998 99.401131 
L 263.272385 95.924239 
L 268.201772 92.729013 
L 273.131158 89.792633 
L 278.608255 86.808129 
L 284.085351 84.091025 
L 289.562448 81.617365 
L 295.587254 79.151542 
L 301.61206 76.927622 
L 308.184575 74.749594 
L 314.757091 72.803588 
L 321.877316 70.928642 
L 329.545251 69.149617 
L 337.760896 67.485895 
L 346.52425 65.951379 
L 355.835314 64.554725 
L 365.694087 63.299771 
L 376.64828 62.132825 
L 388.697892 61.078514 
L 401.842923 60.151381 
L 416.631083 59.329925 
L 433.610082 58.610922 
L 453.327629 58.000489 
L 477.426853 57.486751 
L 497.1444 57.198673 
L 497.1444 57.198673 
" clip-path="url(#p7fa3f8e266)" style="fill: none; stroke-dasharray: 9.25,4; stroke-dashoffset: 0; stroke: #c0392b; stroke-width: 2.5"/>
   </g>
   <g id="legend_1">
    <g id="patch_12">
     <path d="M 388.0644 208.147812 
L 490.8444 208.147812 
Q 492.6444 208.147812 492.6444 206.347812 
L 492.6444 180.827188 
Q 492.6444 179.027187 490.8444 179.027187 
L 388.0644 179.027187 
Q 386.2644 179.027187 386.2644 180.827188 
L 386.2644 206.347812 
Q 386.2644 208.147812 388.0644 208.147812 
z
" style="fill: #ffffff; opacity: 0.95; stroke: #cccccc; stroke-width: 0.8; stroke-linejoin: miter"/>
    </g>
    <g id="line2d_36">
     <path d="M 389.8644 186.315781 
L 398.8644 186.315781 
L 407.8644 186.315781 
" style="fill: none; stroke: #2c3e50; stroke-width: 2.5; stroke-linecap: round"/>
    </g>
    <g id="text_25">
     <!-- Translational $T_{tr}$ -->
     <g style="fill: #262626" transform="translate(415.0644 189.465781) scale(0.09 -0.09)">
      <use xlink:href="#DejaVuSerif-54" transform="translate(0 0.015625)"/>
      <use xlink:href="#DejaVuSerif-72" transform="translate(66.699219 0.015625)"/>
      <use xlink:href="#DejaVuSerif-61" transform="translate(114.501953 0.015625)"/>
      <use xlink:href="#DejaVuSerif-6e" transform="translate(174.121094 0.015625)"/>
      <use xlink:href="#DejaVuSerif-73" transform="translate(238.525391 0.015625)"/>
      <use xlink:href="#DejaVuSerif-6c" transform="translate(289.84375 0.015625)"/>
      <use xlink:href="#DejaVuSerif-61" transform="translate(321.826172 0.015625)"/>
      <use xlink:href="#DejaVuSerif-74" transform="translate(381.445312 0.015625)"/>
      <use xlink:href="#DejaVuSerif-69" transform="translate(421.630859 0.015625)"/>
      <use xlink:href="#DejaVuSerif-6f" transform="translate(453.613281 0.015625)"/>
      <use xlink:href="#DejaVuSerif-6e" transform="translate(513.818359 0.015625)"/>
      <use xlink:href="#DejaVuSerif-61" transform="translate(578.222656 0.015625)"/>
      <use xlink:href="#DejaVuSerif-6c" transform="translate(637.841797 0.015625)"/>
      <use xlink:href="#DejaVuSerif-20" transform="translate(669.824219 0.015625)"/>
      <use xlink:href="#DejaVuSans-Oblique-54" transform="translate(701.611328 0.015625)"/>
      <use xlink:href="#DejaVuSans-Oblique-74" transform="translate(762.695312 -16.390625) scale(0.7)"/>
      <use xlink:href="#DejaVuSans-Oblique-72" transform="translate(790.141602 -16.390625) scale(0.7)"/>
     </g>
    </g>
    <g id="line2d_37">
     <path d="M 389.8644 199.526094 
L 398.8644 199.526094 
L 407.8644 199.526094 
" style="fill: none; stroke-dasharray: 9.25,4; stroke-dashoffset: 0; stroke: #c0392b; stroke-width: 2.5"/>
    </g>
    <g id="text_26">
     <!-- Vibrational $T_v$ -->
     <g style="fill: #262626" transform="translate(415.0644 202.676094) scale(0.09 -0.09)">
      <defs>
       <path id="DejaVuSerif-56" d="M 1119 4331 
L 2497 750 
L 3872 4331 
L 3347 4331 
L 3347 4666 
L 4716 4666 
L 4716 4331 
L 4263 4331 
L 2597 0 
L 2059 0 
L 403 4331 
L -63 4331 
L -63 4666 
L 1638 4666 
L 1638 4331 
L 1119 4331 
z
" transform="scale(0.015625)"/>
      </defs>
      <use xlink:href="#DejaVuSerif-56" transform="translate(0 0.015625)"/>
      <use xlink:href="#DejaVuSerif-69" transform="translate(72.216797 0.015625)"/>
      <use xlink:href="#DejaVuSerif-62" transform="translate(104.199219 0.015625)"/>
      <use xlink:href="#DejaVuSerif-72" transform="translate(168.212891 0.015625)"/>
      <use xlink:href="#DejaVuSerif-61" transform="translate(216.015625 0.015625)"/>
      <use xlink:href="#DejaVuSerif-74" transform="translate(275.634766 0.015625)"/>
      <use xlink:href="#DejaVuSerif-69" transform="translate(315.820312 0.015625)"/>
      <use xlink:href="#DejaVuSerif-6f" transform="translate(347.802734 0.015625)"/>
      <use xlink:href="#DejaVuSerif-6e" transform="translate(408.007812 0.015625)"/>
      <use xlink:href="#DejaVuSerif-61" transform="translate(472.412109 0.015625)"/>
      <use xlink:href="#DejaVuSerif-6c" transform="translate(532.03125 0.015625)"/>
      <use xlink:href="#DejaVuSerif-20" transform="translate(564.013672 0.015625)"/>
      <use xlink:href="#DejaVuSans-Oblique-54" transform="translate(595.800781 0.015625)"/>
      <use xlink:href="#DejaVuSans-Oblique-76" transform="translate(656.884766 -16.390625) scale(0.7)"/>
     </g>
    </g>
   </g>
  </g>
 </g>
 <defs>
  <clipPath id="p7fa3f8e266">
   <rect x="59.5244" y="7.2" width="437.62" height="372.775"/>
  </clipPath>
 </defs>
</svg>
