<?xml version="1.0" encoding="utf-8" standalone="no"?>
<!DOCTYPE svg PUBLIC "-//W3C//DTD SVG 1.1//EN"
  "http://www.w3.org/Graphics/SVG/1.1/DTD/svg11.dtd">
<svg xmlns:xlink="http://www.w3.org/1999/xlink" width="469.528125pt" height="291.201512pt" viewBox="0 0 469.528125 291.201512" xmlns="http://www.w3.org/2000/svg" version="1.1">
 <metadata>
  <rdf:RDF xmlns:dc="http://purl.org/dc/elements/1.1/" xmlns:cc="http://creativecommons.org/ns#" xmlns:rdf="http://www.w3.org/1999/02/22-rdf-syntax-ns#">
   <cc:Work>
    <dc:type rdf:resource="http://purl.org/dc/dcmitype/StillImage"/>
    <dc:date>2026-06-18T10:40:58.669330</dc:date>
    <dc:format>image/svg+xml</dc:format>
    <dc:creator>
     <cc:Agent>
      <dc:title>Matplotlib v3.7.1, https://matplotlib.org/</dc:title>
     </cc:Agent>
    </dc:creator>
   </cc:Work>
  </rdf:RDF>
 </metadata>
 <defs>
  <style type="text/css">*{stroke-linejoin: round; stroke-linecap: butt}</style>
 </defs>
 <g id="figure_1">
  <g id="patch_1">
   <path d="M 0 291.201512 
L 469.528125 291.201512 
L 469.528125 0 
L 0 0 
z
" style="fill: #ffffff"/>
  </g>
  <g id="axes_1">
   <g id="patch_2">
    <path d="M 61.23 251.0712 
L 451.83 251.0712 
L 451.83 29.3112 
L 61.23 29.3112 
z
" style="fill: #ffffff"/>
   </g>
   <g id="matplotlib.axis_1">
    <g id="xtick_1">
     <g id="line2d_1">
      <path d="M 61.23 251.0712 
L 61.23 29.3112 
" clip-path="url(#p9d8a917531)" style="fill: none; stroke-dasharray: 2.96,1.28; stroke-dashoffset: 0; stroke: #b0b0b0; stroke-opacity: 0.5; stroke-width: 0.8"/>
     </g>
     <g id="line2d_2">
      <defs>
       <path id="m70de04f43b" d="M 0 3 
L 0 -3 
" style="stroke: #000000; stroke-width: 1.2"/>
      </defs>
      <g>
       <use xlink:href="#m70de04f43b" x="61.23" y="251.0712" style="stroke: #000000; stroke-width: 1.2"/>
      </g>
     </g>
     <g id="line2d_3">
      <g>
       <use xlink:href="#m70de04f43b" x="61.23" y="29.3112" style="stroke: #000000; stroke-width: 1.2"/>
      </g>
     </g>
     <g id="text_1">
      <!-- 130 -->
      <g transform="translate(50.731875 265.929481) scale(0.11 -0.11)">
       <defs>
        <path id="DejaVuSerif-31" d="M 909 0 
L 909 331 
L 1722 331 
L 1722 4213 
L 781 3603 
L 781 4013 
L 1919 4750 
L 2350 4750 
L 2350 331 
L 3163 331 
L 3163 0 
L 909 0 
z
" transform="scale(0.015625)"/>
        <path id="DejaVuSerif-33" d="M 622 4469 
Q 988 4606 1323 4678 
Q 1659 4750 1953 4750 
Q 2638 4750 3022 4454 
Q 3406 4159 3406 3634 
Q 3406 3213 3140 2930 
Q 2875 2647 2388 2547 
Q 2963 2466 3280 2130 
Q 3597 1794 3597 1259 
Q 3597 606 3158 257 
Q 2719 -91 1894 -91 
Q 1528 -91 1179 -12 
Q 831 66 488 225 
L 488 1131 
L 838 1131 
Q 869 681 1141 450 
Q 1413 219 1906 219 
Q 2384 219 2661 495 
Q 2938 772 2938 1253 
Q 2938 1803 2653 2086 
Q 2369 2369 1819 2369 
L 1522 2369 
L 1522 2688 
L 1678 2688 
Q 2225 2688 2498 2914 
Q 2772 3141 2772 3597 
Q 2772 4006 2547 4223 
Q 2322 4441 1900 4441 
Q 1478 4441 1245 4241 
Q 1013 4041 972 3647 
L 622 3647 
L 622 4469 
z
" transform="scale(0.015625)"/>
        <path id="DejaVuSerif-30" d="M 2034 219 
Q 2513 219 2750 744 
Q 2988 1269 2988 2328 
Q 2988 3391 2750 3916 
Q 2513 4441 2034 4441 
Q 1556 4441 1318 3916 
Q 1081 3391 1081 2328 
Q 1081 1269 1318 744 
Q 1556 219 2034 219 
z
M 2034 -91 
Q 1275 -91 848 546 
Q 422 1184 422 2328 
Q 422 3475 848 4112 
Q 1275 4750 2034 4750 
Q 2797 4750 3222 4112 
Q 3647 3475 3647 2328 
Q 3647 1184 3222 546 
Q 2797 -91 2034 -91 
z
" transform="scale(0.015625)"/>
       </defs>
       <use xlink:href="#DejaVuSerif-31"/>
       <use xlink:href="#DejaVuSerif-33" x="63.623047"/>
       <use xlink:href="#DejaVuSerif-30" x="127.246094"/>
      </g>
     </g>
    </g>
    <g id="xtick_2">
     <g id="line2d_4">
      <path d="M 104.63 251.0712 
L 104.63 29.3112 
" clip-path="url(#p9d8a917531)" style="fill: none; stroke-dasharray: 2.96,1.28; stroke-dashoffset: 0; stroke: #b0b0b0; stroke-opacity: 0.5; stroke-width: 0.8"/>
     </g>
     <g id="line2d_5">
      <g>
       <use xlink:href="#m70de04f43b" x="104.63" y="251.0712" style="stroke: #000000; stroke-width: 1.2"/>
      </g>
     </g>
     <g id="line2d_6">
      <g>
       <use xlink:href="#m70de04f43b" x="104.63" y="29.3112" style="stroke: #000000; stroke-width: 1.2"/>
      </g>
     </g>
     <g id="text_2">
      <!-- 135 -->
      <g transform="translate(94.131875 265.929481) scale(0.11 -0.11)">
       <defs>
        <path id="DejaVuSerif-35" d="M 3219 4666 
L 3219 4153 
L 1081 4153 
L 1081 2816 
Q 1244 2928 1461 2984 
Q 1678 3041 1947 3041 
Q 2703 3041 3140 2622 
Q 3578 2203 3578 1478 
Q 3578 738 3136 323 
Q 2694 -91 1894 -91 
Q 1572 -91 1234 -12 
Q 897 66 544 225 
L 544 1131 
L 897 1131 
Q 925 688 1179 453 
Q 1434 219 1894 219 
Q 2388 219 2653 544 
Q 2919 869 2919 1478 
Q 2919 2084 2655 2407 
Q 2391 2731 1894 2731 
Q 1613 2731 1398 2631 
Q 1184 2531 1019 2322 
L 750 2322 
L 750 4666 
L 3219 4666 
z
" transform="scale(0.015625)"/>
       </defs>
       <use xlink:href="#DejaVuSerif-31"/>
       <use xlink:href="#DejaVuSerif-33" x="63.623047"/>
       <use xlink:href="#DejaVuSerif-35" x="127.246094"/>
      </g>
     </g>
    </g>
    <g id="xtick_3">
     <g id="line2d_7">
      <path d="M 148.03 251.0712 
L 148.03 29.3112 
" clip-path="url(#p9d8a917531)" style="fill: none; stroke-dasharray: 2.96,1.28; stroke-dashoffset: 0; stroke: #b0b0b0; stroke-opacity: 0.5; stroke-width: 0.8"/>
     </g>
     <g id="line2d_8">
      <g>
       <use xlink:href="#m70de04f43b" x="148.03" y="251.0712" style="stroke: #000000; stroke-width: 1.2"/>
      </g>
     </g>
     <g id="line2d_9">
      <g>
       <use xlink:href="#m70de04f43b" x="148.03" y="29.3112" style="stroke: #000000; stroke-width: 1.2"/>
      </g>
     </g>
     <g id="text_3">
      <!-- 140 -->
      <g transform="translate(137.531875 265.929481) scale(0.11 -0.11)">
       <defs>
        <path id="DejaVuSerif-34" d="M 2234 1581 
L 2234 4063 
L 641 1581 
L 2234 1581 
z
M 3609 0 
L 1484 0 
L 1484 331 
L 2234 331 
L 2234 1247 
L 197 1247 
L 197 1588 
L 2241 4750 
L 2859 4750 
L 2859 1581 
L 3750 1581 
L 3750 1247 
L 2859 1247 
L 2859 331 
L 3609 331 
L 3609 0 
z
" transform="scale(0.015625)"/>
       </defs>
       <use xlink:href="#DejaVuSerif-31"/>
       <use xlink:href="#DejaVuSerif-34" x="63.623047"/>
       <use xlink:href="#DejaVuSerif-30" x="127.246094"/>
      </g>
     </g>
    </g>
    <g id="xtick_4">
     <g id="line2d_10">
      <path d="M 191.43 251.0712 
L 191.43 29.3112 
" clip-path="url(#p9d8a917531)" style="fill: none; stroke-dasharray: 2.96,1.28; stroke-dashoffset: 0; stroke: #b0b0b0; stroke-opacity: 0.5; stroke-width: 0.8"/>
     </g>
     <g id="line2d_11">
      <g>
       <use xlink:href="#m70de04f43b" x="191.43" y="251.0712" style="stroke: #000000; stroke-width: 1.2"/>
      </g>
     </g>
     <g id="line2d_12">
      <g>
       <use xlink:href="#m70de04f43b" x="191.43" y="29.3112" style="stroke: #000000; stroke-width: 1.2"/>
      </g>
     </g>
     <g id="text_4">
      <!-- 145 -->
      <g transform="translate(180.931875 265.929481) scale(0.11 -0.11)">
       <use xlink:href="#DejaVuSerif-31"/>
       <use xlink:href="#DejaVuSerif-34" x="63.623047"/>
       <use xlink:href="#DejaVuSerif-35" x="127.246094"/>
      </g>
     </g>
    </g>
    <g id="xtick_5">
     <g id="line2d_13">
      <path d="M 234.83 251.0712 
L 234.83 29.3112 
" clip-path="url(#p9d8a917531)" style="fill: none; stroke-dasharray: 2.96,1.28; stroke-dashoffset: 0; stroke: #b0b0b0; stroke-opacity: 0.5; stroke-width: 0.8"/>
     </g>
     <g id="line2d_14">
      <g>
       <use xlink:href="#m70de04f43b" x="234.83" y="251.0712" style="stroke: #000000; stroke-width: 1.2"/>
      </g>
     </g>
     <g id="line2d_15">
      <g>
       <use xlink:href="#m70de04f43b" x="234.83" y="29.3112" style="stroke: #000000; stroke-width: 1.2"/>
      </g>
     </g>
     <g id="text_5">
      <!-- 150 -->
      <g transform="translate(224.331875 265.929481) scale(0.11 -0.11)">
       <use xlink:href="#DejaVuSerif-31"/>
       <use xlink:href="#DejaVuSerif-35" x="63.623047"/>
       <use xlink:href="#DejaVuSerif-30" x="127.246094"/>
      </g>
     </g>
    </g>
    <g id="xtick_6">
     <g id="line2d_16">
      <path d="M 278.23 251.0712 
L 278.23 29.3112 
" clip-path="url(#p9d8a917531)" style="fill: none; stroke-dasharray: 2.96,1.28; stroke-dashoffset: 0; stroke: #b0b0b0; stroke-opacity: 0.5; stroke-width: 0.8"/>
     </g>
     <g id="line2d_17">
      <g>
       <use xlink:href="#m70de04f43b" x="278.23" y="251.0712" style="stroke: #000000; stroke-width: 1.2"/>
      </g>
     </g>
     <g id="line2d_18">
      <g>
       <use xlink:href="#m70de04f43b" x="278.23" y="29.3112" style="stroke: #000000; stroke-width: 1.2"/>
      </g>
     </g>
     <g id="text_6">
      <!-- 155 -->
      <g transform="translate(267.731875 265.929481) scale(0.11 -0.11)">
       <use xlink:href="#DejaVuSerif-31"/>
       <use xlink:href="#DejaVuSerif-35" x="63.623047"/>
       <use xlink:href="#DejaVuSerif-35" x="127.246094"/>
      </g>
     </g>
    </g>
    <g id="xtick_7">
     <g id="line2d_19">
      <path d="M 321.63 251.0712 
L 321.63 29.3112 
" clip-path="url(#p9d8a917531)" style="fill: none; stroke-dasharray: 2.96,1.28; stroke-dashoffset: 0; stroke: #b0b0b0; stroke-opacity: 0.5; stroke-width: 0.8"/>
     </g>
     <g id="line2d_20">
      <g>
       <use xlink:href="#m70de04f43b" x="321.63" y="251.0712" style="stroke: #000000; stroke-width: 1.2"/>
      </g>
     </g>
     <g id="line2d_21">
      <g>
       <use xlink:href="#m70de04f43b" x="321.63" y="29.3112" style="stroke: #000000; stroke-width: 1.2"/>
      </g>
     </g>
     <g id="text_7">
      <!-- 160 -->
      <g transform="translate(311.131875 265.929481) scale(0.11 -0.11)">
       <defs>
        <path id="DejaVuSerif-36" d="M 2094 219 
Q 2534 219 2771 542 
Q 3009 866 3009 1472 
Q 3009 2078 2771 2401 
Q 2534 2725 2094 2725 
Q 1647 2725 1412 2412 
Q 1178 2100 1178 1509 
Q 1178 888 1415 553 
Q 1653 219 2094 219 
z
M 1075 2569 
Q 1288 2803 1556 2918 
Q 1825 3034 2163 3034 
Q 2859 3034 3264 2615 
Q 3669 2197 3669 1472 
Q 3669 763 3233 336 
Q 2797 -91 2069 -91 
Q 1278 -91 853 498 
Q 428 1088 428 2181 
Q 428 3406 931 4078 
Q 1434 4750 2350 4750 
Q 2597 4750 2869 4703 
Q 3141 4656 3425 4563 
L 3425 3794 
L 3072 3794 
Q 3034 4109 2831 4275 
Q 2628 4441 2284 4441 
Q 1678 4441 1381 3981 
Q 1084 3522 1075 2569 
z
" transform="scale(0.015625)"/>
       </defs>
       <use xlink:href="#DejaVuSerif-31"/>
       <use xlink:href="#DejaVuSerif-36" x="63.623047"/>
       <use xlink:href="#DejaVuSerif-30" x="127.246094"/>
      </g>
     </g>
    </g>
    <g id="xtick_8">
     <g id="line2d_22">
      <path d="M 365.03 251.0712 
L 365.03 29.3112 
" clip-path="url(#p9d8a917531)" style="fill: none; stroke-dasharray: 2.96,1.28; stroke-dashoffset: 0; stroke: #b0b0b0; stroke-opacity: 0.5; stroke-width: 0.8"/>
     </g>
     <g id="line2d_23">
      <g>
       <use xlink:href="#m70de04f43b" x="365.03" y="251.0712" style="stroke: #000000; stroke-width: 1.2"/>
      </g>
     </g>
     <g id="line2d_24">
      <g>
       <use xlink:href="#m70de04f43b" x="365.03" y="29.3112" style="stroke: #000000; stroke-width: 1.2"/>
      </g>
     </g>
     <g id="text_8">
      <!-- 165 -->
      <g transform="translate(354.531875 265.929481) scale(0.11 -0.11)">
       <use xlink:href="#DejaVuSerif-31"/>
       <use xlink:href="#DejaVuSerif-36" x="63.623047"/>
       <use xlink:href="#DejaVuSerif-35" x="127.246094"/>
      </g>
     </g>
    </g>
    <g id="xtick_9">
     <g id="line2d_25">
      <path d="M 408.43 251.0712 
L 408.43 29.3112 
" clip-path="url(#p9d8a917531)" style="fill: none; stroke-dasharray: 2.96,1.28; stroke-dashoffset: 0; stroke: #b0b0b0; stroke-opacity: 0.5; stroke-width: 0.8"/>
     </g>
     <g id="line2d_26">
      <g>
       <use xlink:href="#m70de04f43b" x="408.43" y="251.0712" style="stroke: #000000; stroke-width: 1.2"/>
      </g>
     </g>
     <g id="line2d_27">
      <g>
       <use xlink:href="#m70de04f43b" x="408.43" y="29.3112" style="stroke: #000000; stroke-width: 1.2"/>
      </g>
     </g>
     <g id="text_9">
      <!-- 170 -->
      <g transform="translate(397.931875 265.929481) scale(0.11 -0.11)">
       <defs>
        <path id="DejaVuSerif-37" d="M 3609 4347 
L 1784 0 
L 1319 0 
L 3059 4153 
L 903 4153 
L 903 3578 
L 538 3578 
L 538 4666 
L 3609 4666 
L 3609 4347 
z
" transform="scale(0.015625)"/>
       </defs>
       <use xlink:href="#DejaVuSerif-31"/>
       <use xlink:href="#DejaVuSerif-37" x="63.623047"/>
       <use xlink:href="#DejaVuSerif-30" x="127.246094"/>
      </g>
     </g>
    </g>
    <g id="xtick_10">
     <g id="line2d_28">
      <path d="M 451.83 251.0712 
L 451.83 29.3112 
" clip-path="url(#p9d8a917531)" style="fill: none; stroke-dasharray: 2.96,1.28; stroke-dashoffset: 0; stroke: #b0b0b0; stroke-opacity: 0.5; stroke-width: 0.8"/>
     </g>
     <g id="line2d_29">
      <g>
       <use xlink:href="#m70de04f43b" x="451.83" y="251.0712" style="stroke: #000000; stroke-width: 1.2"/>
      </g>
     </g>
     <g id="line2d_30">
      <g>
       <use xlink:href="#m70de04f43b" x="451.83" y="29.3112" style="stroke: #000000; stroke-width: 1.2"/>
      </g>
     </g>
     <g id="text_10">
      <!-- 175 -->
      <g transform="translate(441.331875 265.929481) scale(0.11 -0.11)">
       <use xlink:href="#DejaVuSerif-31"/>
       <use xlink:href="#DejaVuSerif-37" x="63.623047"/>
       <use xlink:href="#DejaVuSerif-35" x="127.246094"/>
      </g>
     </g>
    </g>
    <g id="xtick_11">
     <g id="line2d_31">
      <defs>
       <path id="mbccd84c64e" d="M 0 0 
L 0 -3 
" style="stroke: #000000; stroke-width: 0.8"/>
      </defs>
      <g>
       <use xlink:href="#mbccd84c64e" x="69.91" y="251.0712" style="stroke: #000000; stroke-width: 0.8"/>
      </g>
     </g>
     <g id="line2d_32">
      <defs>
       <path id="m1dd9062a35" d="M 0 0 
L 0 3 
" style="stroke: #000000; stroke-width: 0.8"/>
      </defs>
      <g>
       <use xlink:href="#m1dd9062a35" x="69.91" y="29.3112" style="stroke: #000000; stroke-width: 0.8"/>
      </g>
     </g>
    </g>
    <g id="xtick_12">
     <g id="line2d_33">
      <g>
       <use xlink:href="#mbccd84c64e" x="78.59" y="251.0712" style="stroke: #000000; stroke-width: 0.8"/>
      </g>
     </g>
     <g id="line2d_34">
      <g>
       <use xlink:href="#m1dd9062a35" x="78.59" y="29.3112" style="stroke: #000000; stroke-width: 0.8"/>
      </g>
     </g>
    </g>
    <g id="xtick_13">
     <g id="line2d_35">
      <g>
       <use xlink:href="#mbccd84c64e" x="87.27" y="251.0712" style="stroke: #000000; stroke-width: 0.8"/>
      </g>
     </g>
     <g id="line2d_36">
      <g>
       <use xlink:href="#m1dd9062a35" x="87.27" y="29.3112" style="stroke: #000000; stroke-width: 0.8"/>
      </g>
     </g>
    </g>
    <g id="xtick_14">
     <g id="line2d_37">
      <g>
       <use xlink:href="#mbccd84c64e" x="95.95" y="251.0712" style="stroke: #000000; stroke-width: 0.8"/>
      </g>
     </g>
     <g id="line2d_38">
      <g>
       <use xlink:href="#m1dd9062a35" x="95.95" y="29.3112" style="stroke: #000000; stroke-width: 0.8"/>
      </g>
     </g>
    </g>
    <g id="xtick_15">
     <g id="line2d_39">
      <g>
       <use xlink:href="#mbccd84c64e" x="113.31" y="251.0712" style="stroke: #000000; stroke-width: 0.8"/>
      </g>
     </g>
     <g id="line2d_40">
      <g>
       <use xlink:href="#m1dd9062a35" x="113.31" y="29.3112" style="stroke: #000000; stroke-width: 0.8"/>
      </g>
     </g>
    </g>
    <g id="xtick_16">
     <g id="line2d_41">
      <g>
       <use xlink:href="#mbccd84c64e" x="121.99" y="251.0712" style="stroke: #000000; stroke-width: 0.8"/>
      </g>
     </g>
     <g id="line2d_42">
      <g>
       <use xlink:href="#m1dd9062a35" x="121.99" y="29.3112" style="stroke: #000000; stroke-width: 0.8"/>
      </g>
     </g>
    </g>
    <g id="xtick_17">
     <g id="line2d_43">
      <g>
       <use xlink:href="#mbccd84c64e" x="130.67" y="251.0712" style="stroke: #000000; stroke-width: 0.8"/>
      </g>
     </g>
     <g id="line2d_44">
      <g>
       <use xlink:href="#m1dd9062a35" x="130.67" y="29.3112" style="stroke: #000000; stroke-width: 0.8"/>
      </g>
     </g>
    </g>
    <g id="xtick_18">
     <g id="line2d_45">
      <g>
       <use xlink:href="#mbccd84c64e" x="139.35" y="251.0712" style="stroke: #000000; stroke-width: 0.8"/>
      </g>
     </g>
     <g id="line2d_46">
      <g>
       <use xlink:href="#m1dd9062a35" x="139.35" y="29.3112" style="stroke: #000000; stroke-width: 0.8"/>
      </g>
     </g>
    </g>
    <g id="xtick_19">
     <g id="line2d_47">
      <g>
       <use xlink:href="#mbccd84c64e" x="156.71" y="251.0712" style="stroke: #000000; stroke-width: 0.8"/>
      </g>
     </g>
     <g id="line2d_48">
      <g>
       <use xlink:href="#m1dd9062a35" x="156.71" y="29.3112" style="stroke: #000000; stroke-width: 0.8"/>
      </g>
     </g>
    </g>
    <g id="xtick_20">
     <g id="line2d_49">
      <g>
       <use xlink:href="#mbccd84c64e" x="165.39" y="251.0712" style="stroke: #000000; stroke-width: 0.8"/>
      </g>
     </g>
     <g id="line2d_50">
      <g>
       <use xlink:href="#m1dd9062a35" x="165.39" y="29.3112" style="stroke: #000000; stroke-width: 0.8"/>
      </g>
     </g>
    </g>
    <g id="xtick_21">
     <g id="line2d_51">
      <g>
       <use xlink:href="#mbccd84c64e" x="174.07" y="251.0712" style="stroke: #000000; stroke-width: 0.8"/>
      </g>
     </g>
     <g id="line2d_52">
      <g>
       <use xlink:href="#m1dd9062a35" x="174.07" y="29.3112" style="stroke: #000000; stroke-width: 0.8"/>
      </g>
     </g>
    </g>
    <g id="xtick_22">
     <g id="line2d_53">
      <g>
       <use xlink:href="#mbccd84c64e" x="182.75" y="251.0712" style="stroke: #000000; stroke-width: 0.8"/>
      </g>
     </g>
     <g id="line2d_54">
      <g>
       <use xlink:href="#m1dd9062a35" x="182.75" y="29.3112" style="stroke: #000000; stroke-width: 0.8"/>
      </g>
     </g>
    </g>
    <g id="xtick_23">
     <g id="line2d_55">
      <g>
       <use xlink:href="#mbccd84c64e" x="200.11" y="251.0712" style="stroke: #000000; stroke-width: 0.8"/>
      </g>
     </g>
     <g id="line2d_56">
      <g>
       <use xlink:href="#m1dd9062a35" x="200.11" y="29.3112" style="stroke: #000000; stroke-width: 0.8"/>
      </g>
     </g>
    </g>
    <g id="xtick_24">
     <g id="line2d_57">
      <g>
       <use xlink:href="#mbccd84c64e" x="208.79" y="251.0712" style="stroke: #000000; stroke-width: 0.8"/>
      </g>
     </g>
     <g id="line2d_58">
      <g>
       <use xlink:href="#m1dd9062a35" x="208.79" y="29.3112" style="stroke: #000000; stroke-width: 0.8"/>
      </g>
     </g>
    </g>
    <g id="xtick_25">
     <g id="line2d_59">
      <g>
       <use xlink:href="#mbccd84c64e" x="217.47" y="251.0712" style="stroke: #000000; stroke-width: 0.8"/>
      </g>
     </g>
     <g id="line2d_60">
      <g>
       <use xlink:href="#m1dd9062a35" x="217.47" y="29.3112" style="stroke: #000000; stroke-width: 0.8"/>
      </g>
     </g>
    </g>
    <g id="xtick_26">
     <g id="line2d_61">
      <g>
       <use xlink:href="#mbccd84c64e" x="226.15" y="251.0712" style="stroke: #000000; stroke-width: 0.8"/>
      </g>
     </g>
     <g id="line2d_62">
      <g>
       <use xlink:href="#m1dd9062a35" x="226.15" y="29.3112" style="stroke: #000000; stroke-width: 0.8"/>
      </g>
     </g>
    </g>
    <g id="xtick_27">
     <g id="line2d_63">
      <g>
       <use xlink:href="#mbccd84c64e" x="243.51" y="251.0712" style="stroke: #000000; stroke-width: 0.8"/>
      </g>
     </g>
     <g id="line2d_64">
      <g>
       <use xlink:href="#m1dd9062a35" x="243.51" y="29.3112" style="stroke: #000000; stroke-width: 0.8"/>
      </g>
     </g>
    </g>
    <g id="xtick_28">
     <g id="line2d_65">
      <g>
       <use xlink:href="#mbccd84c64e" x="252.19" y="251.0712" style="stroke: #000000; stroke-width: 0.8"/>
      </g>
     </g>
     <g id="line2d_66">
      <g>
       <use xlink:href="#m1dd9062a35" x="252.19" y="29.3112" style="stroke: #000000; stroke-width: 0.8"/>
      </g>
     </g>
    </g>
    <g id="xtick_29">
     <g id="line2d_67">
      <g>
       <use xlink:href="#mbccd84c64e" x="260.87" y="251.0712" style="stroke: #000000; stroke-width: 0.8"/>
      </g>
     </g>
     <g id="line2d_68">
      <g>
       <use xlink:href="#m1dd9062a35" x="260.87" y="29.3112" style="stroke: #000000; stroke-width: 0.8"/>
      </g>
     </g>
    </g>
    <g id="xtick_30">
     <g id="line2d_69">
      <g>
       <use xlink:href="#mbccd84c64e" x="269.55" y="251.0712" style="stroke: #000000; stroke-width: 0.8"/>
      </g>
     </g>
     <g id="line2d_70">
      <g>
       <use xlink:href="#m1dd9062a35" x="269.55" y="29.3112" style="stroke: #000000; stroke-width: 0.8"/>
      </g>
     </g>
    </g>
    <g id="xtick_31">
     <g id="line2d_71">
      <g>
       <use xlink:href="#mbccd84c64e" x="286.91" y="251.0712" style="stroke: #000000; stroke-width: 0.8"/>
      </g>
     </g>
     <g id="line2d_72">
      <g>
       <use xlink:href="#m1dd9062a35" x="286.91" y="29.3112" style="stroke: #000000; stroke-width: 0.8"/>
      </g>
     </g>
    </g>
    <g id="xtick_32">
     <g id="line2d_73">
      <g>
       <use xlink:href="#mbccd84c64e" x="295.59" y="251.0712" style="stroke: #000000; stroke-width: 0.8"/>
      </g>
     </g>
     <g id="line2d_74">
      <g>
       <use xlink:href="#m1dd9062a35" x="295.59" y="29.3112" style="stroke: #000000; stroke-width: 0.8"/>
      </g>
     </g>
    </g>
    <g id="xtick_33">
     <g id="line2d_75">
      <g>
       <use xlink:href="#mbccd84c64e" x="304.27" y="251.0712" style="stroke: #000000; stroke-width: 0.8"/>
      </g>
     </g>
     <g id="line2d_76">
      <g>
       <use xlink:href="#m1dd9062a35" x="304.27" y="29.3112" style="stroke: #000000; stroke-width: 0.8"/>
      </g>
     </g>
    </g>
    <g id="xtick_34">
     <g id="line2d_77">
      <g>
       <use xlink:href="#mbccd84c64e" x="312.95" y="251.0712" style="stroke: #000000; stroke-width: 0.8"/>
      </g>
     </g>
     <g id="line2d_78">
      <g>
       <use xlink:href="#m1dd9062a35" x="312.95" y="29.3112" style="stroke: #000000; stroke-width: 0.8"/>
      </g>
     </g>
    </g>
    <g id="xtick_35">
     <g id="line2d_79">
      <g>
       <use xlink:href="#mbccd84c64e" x="330.31" y="251.0712" style="stroke: #000000; stroke-width: 0.8"/>
      </g>
     </g>
     <g id="line2d_80">
      <g>
       <use xlink:href="#m1dd9062a35" x="330.31" y="29.3112" style="stroke: #000000; stroke-width: 0.8"/>
      </g>
     </g>
    </g>
    <g id="xtick_36">
     <g id="line2d_81">
      <g>
       <use xlink:href="#mbccd84c64e" x="338.99" y="251.0712" style="stroke: #000000; stroke-width: 0.8"/>
      </g>
     </g>
     <g id="line2d_82">
      <g>
       <use xlink:href="#m1dd9062a35" x="338.99" y="29.3112" style="stroke: #000000; stroke-width: 0.8"/>
      </g>
     </g>
    </g>
    <g id="xtick_37">
     <g id="line2d_83">
      <g>
       <use xlink:href="#mbccd84c64e" x="347.67" y="251.0712" style="stroke: #000000; stroke-width: 0.8"/>
      </g>
     </g>
     <g id="line2d_84">
      <g>
       <use xlink:href="#m1dd9062a35" x="347.67" y="29.3112" style="stroke: #000000; stroke-width: 0.8"/>
      </g>
     </g>
    </g>
    <g id="xtick_38">
     <g id="line2d_85">
      <g>
       <use xlink:href="#mbccd84c64e" x="356.35" y="251.0712" style="stroke: #000000; stroke-width: 0.8"/>
      </g>
     </g>
     <g id="line2d_86">
      <g>
       <use xlink:href="#m1dd9062a35" x="356.35" y="29.3112" style="stroke: #000000; stroke-width: 0.8"/>
      </g>
     </g>
    </g>
    <g id="xtick_39">
     <g id="line2d_87">
      <g>
       <use xlink:href="#mbccd84c64e" x="373.71" y="251.0712" style="stroke: #000000; stroke-width: 0.8"/>
      </g>
     </g>
     <g id="line2d_88">
      <g>
       <use xlink:href="#m1dd9062a35" x="373.71" y="29.3112" style="stroke: #000000; stroke-width: 0.8"/>
      </g>
     </g>
    </g>
    <g id="xtick_40">
     <g id="line2d_89">
      <g>
       <use xlink:href="#mbccd84c64e" x="382.39" y="251.0712" style="stroke: #000000; stroke-width: 0.8"/>
      </g>
     </g>
     <g id="line2d_90">
      <g>
       <use xlink:href="#m1dd9062a35" x="382.39" y="29.3112" style="stroke: #000000; stroke-width: 0.8"/>
      </g>
     </g>
    </g>
    <g id="xtick_41">
     <g id="line2d_91">
      <g>
       <use xlink:href="#mbccd84c64e" x="391.07" y="251.0712" style="stroke: #000000; stroke-width: 0.8"/>
      </g>
     </g>
     <g id="line2d_92">
      <g>
       <use xlink:href="#m1dd9062a35" x="391.07" y="29.3112" style="stroke: #000000; stroke-width: 0.8"/>
      </g>
     </g>
    </g>
    <g id="xtick_42">
     <g id="line2d_93">
      <g>
       <use xlink:href="#mbccd84c64e" x="399.75" y="251.0712" style="stroke: #000000; stroke-width: 0.8"/>
      </g>
     </g>
     <g id="line2d_94">
      <g>
       <use xlink:href="#m1dd9062a35" x="399.75" y="29.3112" style="stroke: #000000; stroke-width: 0.8"/>
      </g>
     </g>
    </g>
    <g id="xtick_43">
     <g id="line2d_95">
      <g>
       <use xlink:href="#mbccd84c64e" x="417.11" y="251.0712" style="stroke: #000000; stroke-width: 0.8"/>
      </g>
     </g>
     <g id="line2d_96">
      <g>
       <use xlink:href="#m1dd9062a35" x="417.11" y="29.3112" style="stroke: #000000; stroke-width: 0.8"/>
      </g>
     </g>
    </g>
    <g id="xtick_44">
     <g id="line2d_97">
      <g>
       <use xlink:href="#mbccd84c64e" x="425.79" y="251.0712" style="stroke: #000000; stroke-width: 0.8"/>
      </g>
     </g>
     <g id="line2d_98">
      <g>
       <use xlink:href="#m1dd9062a35" x="425.79" y="29.3112" style="stroke: #000000; stroke-width: 0.8"/>
      </g>
     </g>
    </g>
    <g id="xtick_45">
     <g id="line2d_99">
      <g>
       <use xlink:href="#mbccd84c64e" x="434.47" y="251.0712" style="stroke: #000000; stroke-width: 0.8"/>
      </g>
     </g>
     <g id="line2d_100">
      <g>
       <use xlink:href="#m1dd9062a35" x="434.47" y="29.3112" style="stroke: #000000; stroke-width: 0.8"/>
      </g>
     </g>
    </g>
    <g id="xtick_46">
     <g id="line2d_101">
      <g>
       <use xlink:href="#mbccd84c64e" x="443.15" y="251.0712" style="stroke: #000000; stroke-width: 0.8"/>
      </g>
     </g>
     <g id="line2d_102">
      <g>
       <use xlink:href="#m1dd9062a35" x="443.15" y="29.3112" style="stroke: #000000; stroke-width: 0.8"/>
      </g>
     </g>
    </g>
    <g id="text_11">
     <!-- Wavelength (nm) -->
     <g transform="translate(204.775313 281.335262) scale(0.12 -0.12)">
      <defs>
       <path id="DejaVuSerif-57" d="M 4878 0 
L 4366 0 
L 3297 3794 
L 2228 0 
L 1716 0 
L 494 4331 
L 31 4331 
L 31 4666 
L 1734 4666 
L 1734 4331 
L 1153 4331 
L 2125 884 
L 3188 4666 
L 3694 4666 
L 4775 844 
L 5753 4331 
L 5216 4331 
L 5216 4666 
L 6559 4666 
L 6559 4331 
L 6100 4331 
L 4878 0 
z
" transform="scale(0.015625)"/>
       <path id="DejaVuSerif-61" d="M 2547 1044 
L 2547 1747 
L 1806 1747 
Q 1378 1747 1168 1562 
Q 959 1378 959 997 
Q 959 650 1171 447 
Q 1384 244 1747 244 
Q 2106 244 2326 466 
Q 2547 688 2547 1044 
z
M 3122 2075 
L 3122 331 
L 3634 331 
L 3634 0 
L 2547 0 
L 2547 359 
Q 2356 128 2106 18 
Q 1856 -91 1522 -91 
Q 969 -91 644 203 
Q 319 497 319 997 
Q 319 1513 691 1797 
Q 1063 2081 1741 2081 
L 2547 2081 
L 2547 2309 
Q 2547 2688 2317 2895 
Q 2088 3103 1672 3103 
Q 1328 3103 1125 2947 
Q 922 2791 872 2484 
L 575 2484 
L 575 3156 
Q 875 3284 1158 3348 
Q 1441 3413 1709 3413 
Q 2400 3413 2761 3070 
Q 3122 2728 3122 2075 
z
" transform="scale(0.015625)"/>
       <path id="DejaVuSerif-76" d="M 1581 0 
L 359 2988 
L -19 2988 
L -19 3322 
L 1509 3322 
L 1509 2988 
L 978 2988 
L 1913 703 
L 2847 2988 
L 2350 2988 
L 2350 3322 
L 3597 3322 
L 3597 2988 
L 3225 2988 
L 2003 0 
L 1581 0 
z
" transform="scale(0.015625)"/>
       <path id="DejaVuSerif-65" d="M 3469 1600 
L 991 1600 
L 991 1575 
Q 991 903 1244 561 
Q 1497 219 1991 219 
Q 2369 219 2611 417 
Q 2853 616 2950 1006 
L 3413 1006 
Q 3275 459 2904 184 
Q 2534 -91 1931 -91 
Q 1203 -91 761 389 
Q 319 869 319 1663 
Q 319 2450 753 2931 
Q 1188 3413 1894 3413 
Q 2647 3413 3050 2948 
Q 3453 2484 3469 1600 
z
M 2791 1931 
Q 2772 2513 2545 2808 
Q 2319 3103 1894 3103 
Q 1497 3103 1269 2806 
Q 1041 2509 991 1931 
L 2791 1931 
z
" transform="scale(0.015625)"/>
       <path id="DejaVuSerif-6c" d="M 1313 331 
L 1856 331 
L 1856 0 
L 184 0 
L 184 331 
L 738 331 
L 738 4531 
L 184 4531 
L 184 4863 
L 1313 4863 
L 1313 331 
z
" transform="scale(0.015625)"/>
       <path id="DejaVuSerif-6e" d="M 263 0 
L 263 331 
L 781 331 
L 781 2988 
L 231 2988 
L 231 3322 
L 1356 3322 
L 1356 2731 
Q 1516 3069 1770 3241 
Q 2025 3413 2363 3413 
Q 2913 3413 3172 3097 
Q 3431 2781 3431 2113 
L 3431 331 
L 3944 331 
L 3944 0 
L 2356 0 
L 2356 331 
L 2853 331 
L 2853 1931 
Q 2853 2541 2703 2767 
Q 2553 2994 2175 2994 
Q 1775 2994 1565 2701 
Q 1356 2409 1356 1850 
L 1356 331 
L 1856 331 
L 1856 0 
L 263 0 
z
" transform="scale(0.015625)"/>
       <path id="DejaVuSerif-67" d="M 3359 2988 
L 3359 72 
Q 3359 -644 2965 -1033 
Q 2572 -1422 1844 -1422 
Q 1516 -1422 1216 -1362 
Q 916 -1303 641 -1184 
L 641 -488 
L 941 -488 
Q 997 -813 1206 -963 
Q 1416 -1113 1806 -1113 
Q 2313 -1113 2548 -827 
Q 2784 -541 2784 72 
L 2784 519 
Q 2616 206 2355 57 
Q 2094 -91 1709 -91 
Q 1097 -91 708 395 
Q 319 881 319 1663 
Q 319 2444 706 2928 
Q 1094 3413 1709 3413 
Q 2094 3413 2355 3264 
Q 2616 3116 2784 2803 
L 2784 3322 
L 3909 3322 
L 3909 2988 
L 3359 2988 
z
M 2784 1825 
Q 2784 2422 2554 2737 
Q 2325 3053 1888 3053 
Q 1444 3053 1217 2703 
Q 991 2353 991 1663 
Q 991 975 1217 622 
Q 1444 269 1888 269 
Q 2325 269 2554 583 
Q 2784 897 2784 1497 
L 2784 1825 
z
" transform="scale(0.015625)"/>
       <path id="DejaVuSerif-74" d="M 691 2988 
L 184 2988 
L 184 3322 
L 691 3322 
L 691 4353 
L 1269 4353 
L 1269 3322 
L 2350 3322 
L 2350 2988 
L 1269 2988 
L 1269 878 
Q 1269 456 1350 337 
Q 1431 219 1650 219 
Q 1875 219 1978 351 
Q 2081 484 2088 781 
L 2522 781 
Q 2497 328 2275 118 
Q 2053 -91 1600 -91 
Q 1103 -91 897 129 
Q 691 350 691 878 
L 691 2988 
z
" transform="scale(0.015625)"/>
       <path id="DejaVuSerif-68" d="M 263 0 
L 263 331 
L 781 331 
L 781 4531 
L 231 4531 
L 231 4863 
L 1356 4863 
L 1356 2731 
Q 1516 3069 1770 3241 
Q 2025 3413 2363 3413 
Q 2913 3413 3172 3097 
Q 3431 2781 3431 2113 
L 3431 331 
L 3944 331 
L 3944 0 
L 2356 0 
L 2356 331 
L 2853 331 
L 2853 1931 
Q 2853 2541 2704 2764 
Q 2556 2988 2175 2988 
Q 1775 2988 1565 2697 
Q 1356 2406 1356 1850 
L 1356 331 
L 1856 331 
L 1856 0 
L 263 0 
z
" transform="scale(0.015625)"/>
       <path id="DejaVuSerif-20" transform="scale(0.015625)"/>
       <path id="DejaVuSerif-28" d="M 2041 -997 
Q 1281 -656 893 83 
Q 506 822 506 1931 
Q 506 3044 893 3783 
Q 1281 4522 2041 4863 
L 2041 4556 
Q 1559 4225 1350 3623 
Q 1141 3022 1141 1931 
Q 1141 844 1350 242 
Q 1559 -359 2041 -691 
L 2041 -997 
z
" transform="scale(0.015625)"/>
       <path id="DejaVuSerif-6d" d="M 3316 2675 
Q 3481 3041 3739 3227 
Q 3997 3413 4341 3413 
Q 4863 3413 5119 3089 
Q 5375 2766 5375 2113 
L 5375 331 
L 5894 331 
L 5894 0 
L 4300 0 
L 4300 331 
L 4800 331 
L 4800 2047 
Q 4800 2556 4650 2772 
Q 4500 2988 4153 2988 
Q 3769 2988 3567 2697 
Q 3366 2406 3366 1850 
L 3366 331 
L 3866 331 
L 3866 0 
L 2291 0 
L 2291 331 
L 2791 331 
L 2791 2069 
Q 2791 2566 2641 2777 
Q 2491 2988 2144 2988 
Q 1759 2988 1557 2697 
Q 1356 2406 1356 1850 
L 1356 331 
L 1856 331 
L 1856 0 
L 263 0 
L 263 331 
L 781 331 
L 781 2994 
L 231 2994 
L 231 3322 
L 1356 3322 
L 1356 2731 
Q 1516 3063 1762 3238 
Q 2009 3413 2322 3413 
Q 2709 3413 2968 3220 
Q 3228 3028 3316 2675 
z
" transform="scale(0.015625)"/>
       <path id="DejaVuSerif-29" d="M 453 -997 
L 453 -691 
Q 934 -359 1145 242 
Q 1356 844 1356 1931 
Q 1356 3022 1145 3623 
Q 934 4225 453 4556 
L 453 4863 
Q 1216 4522 1603 3783 
Q 1991 3044 1991 1931 
Q 1991 822 1603 83 
Q 1216 -656 453 -997 
z
" transform="scale(0.015625)"/>
      </defs>
      <use xlink:href="#DejaVuSerif-57"/>
      <use xlink:href="#DejaVuSerif-61" x="94.033203"/>
      <use xlink:href="#DejaVuSerif-76" x="153.652344"/>
      <use xlink:href="#DejaVuSerif-65" x="210.146484"/>
      <use xlink:href="#DejaVuSerif-6c" x="269.326172"/>
      <use xlink:href="#DejaVuSerif-65" x="301.308594"/>
      <use xlink:href="#DejaVuSerif-6e" x="360.488281"/>
      <use xlink:href="#DejaVuSerif-67" x="424.892578"/>
      <use xlink:href="#DejaVuSerif-74" x="488.90625"/>
      <use xlink:href="#DejaVuSerif-68" x="529.091797"/>
      <use xlink:href="#DejaVuSerif-20" x="593.496094"/>
      <use xlink:href="#DejaVuSerif-28" x="625.283203"/>
      <use xlink:href="#DejaVuSerif-6e" x="664.296875"/>
      <use xlink:href="#DejaVuSerif-6d" x="728.701172"/>
      <use xlink:href="#DejaVuSerif-29" x="823.525391"/>
     </g>
    </g>
   </g>
   <g id="matplotlib.axis_2">
    <g id="ytick_1">
     <g id="line2d_103">
      <path d="M 61.23 251.0712 
L 451.83 251.0712 
" clip-path="url(#p9d8a917531)" style="fill: none; stroke-dasharray: 2.96,1.28; stroke-dashoffset: 0; stroke: #b0b0b0; stroke-opacity: 0.5; stroke-width: 0.8"/>
     </g>
     <g id="line2d_104">
      <defs>
       <path id="m66b041a4b3" d="M 3 0 
L -3 -0 
" style="stroke: #000000; stroke-width: 1.2"/>
      </defs>
      <g>
       <use xlink:href="#m66b041a4b3" x="61.23" y="251.0712" style="stroke: #000000; stroke-width: 1.2"/>
      </g>
     </g>
     <g id="line2d_105">
      <g>
       <use xlink:href="#m66b041a4b3" x="451.83" y="251.0712" style="stroke: #000000; stroke-width: 1.2"/>
      </g>
     </g>
     <g id="text_12">
      <!-- $\mathdefault{10^{-20}}$ -->
      <g transform="translate(24.04 255.250341) scale(0.11 -0.11)">
       <defs>
        <path id="DejaVuSerif-2212" d="M 678 2259 
L 4684 2259 
L 4684 1753 
L 678 1753 
L 678 2259 
z
" transform="scale(0.015625)"/>
        <path id="DejaVuSerif-32" d="M 819 3553 
L 469 3553 
L 469 4384 
Q 803 4563 1142 4656 
Q 1481 4750 1806 4750 
Q 2534 4750 2956 4397 
Q 3378 4044 3378 3438 
Q 3378 2753 2422 1800 
Q 2347 1728 2309 1691 
L 1131 513 
L 3078 513 
L 3078 1088 
L 3444 1088 
L 3444 0 
L 434 0 
L 434 341 
L 1850 1753 
Q 2319 2222 2519 2614 
Q 2719 3006 2719 3438 
Q 2719 3909 2473 4175 
Q 2228 4441 1797 4441 
Q 1350 4441 1106 4219 
Q 863 3997 819 3553 
z
" transform="scale(0.015625)"/>
       </defs>
       <use xlink:href="#DejaVuSerif-31" transform="translate(0 0.7125)"/>
       <use xlink:href="#DejaVuSerif-30" transform="translate(63.623047 0.7125)"/>
       <use xlink:href="#DejaVuSerif-2212" transform="translate(128.154453 37.046875) scale(0.7)"/>
       <use xlink:href="#DejaVuSerif-32" transform="translate(186.806797 37.046875) scale(0.7)"/>
       <use xlink:href="#DejaVuSerif-30" transform="translate(231.34293 37.046875) scale(0.7)"/>
      </g>
     </g>
    </g>
    <g id="ytick_2">
     <g id="line2d_106">
      <path d="M 61.23 191.119376 
L 451.83 191.119376 
" clip-path="url(#p9d8a917531)" style="fill: none; stroke-dasharray: 2.96,1.28; stroke-dashoffset: 0; stroke: #b0b0b0; stroke-opacity: 0.5; stroke-width: 0.8"/>
     </g>
     <g id="line2d_107">
      <g>
       <use xlink:href="#m66b041a4b3" x="61.23" y="191.119376" style="stroke: #000000; stroke-width: 1.2"/>
      </g>
     </g>
     <g id="line2d_108">
      <g>
       <use xlink:href="#m66b041a4b3" x="451.83" y="191.119376" style="stroke: #000000; stroke-width: 1.2"/>
      </g>
     </g>
     <g id="text_13">
      <!-- $\mathdefault{10^{-19}}$ -->
      <g transform="translate(24.04 195.298516) scale(0.11 -0.11)">
       <defs>
        <path id="DejaVuSerif-39" d="M 2994 2091 
Q 2784 1856 2512 1740 
Q 2241 1625 1900 1625 
Q 1206 1625 804 2044 
Q 403 2463 403 3188 
Q 403 3897 839 4323 
Q 1275 4750 2003 4750 
Q 2794 4750 3217 4161 
Q 3641 3572 3641 2478 
Q 3641 1253 3137 581 
Q 2634 -91 1722 -91 
Q 1475 -91 1203 -44 
Q 931 3 647 97 
L 647 872 
L 997 872 
Q 1038 556 1241 387 
Q 1444 219 1784 219 
Q 2391 219 2687 676 
Q 2984 1134 2994 2091 
z
M 1978 4441 
Q 1534 4441 1298 4117 
Q 1063 3794 1063 3188 
Q 1063 2581 1298 2256 
Q 1534 1931 1978 1931 
Q 2422 1931 2658 2245 
Q 2894 2559 2894 3150 
Q 2894 3772 2656 4106 
Q 2419 4441 1978 4441 
z
" transform="scale(0.015625)"/>
       </defs>
       <use xlink:href="#DejaVuSerif-31" transform="translate(0 0.7125)"/>
       <use xlink:href="#DejaVuSerif-30" transform="translate(63.623047 0.7125)"/>
       <use xlink:href="#DejaVuSerif-2212" transform="translate(128.154453 37.046875) scale(0.7)"/>
       <use xlink:href="#DejaVuSerif-31" transform="translate(186.806797 37.046875) scale(0.7)"/>
       <use xlink:href="#DejaVuSerif-39" transform="translate(231.34293 37.046875) scale(0.7)"/>
      </g>
     </g>
    </g>
    <g id="ytick_3">
     <g id="line2d_109">
      <path d="M 61.23 131.167551 
L 451.83 131.167551 
" clip-path="url(#p9d8a917531)" style="fill: none; stroke-dasharray: 2.96,1.28; stroke-dashoffset: 0; stroke: #b0b0b0; stroke-opacity: 0.5; stroke-width: 0.8"/>
     </g>
     <g id="line2d_110">
      <g>
       <use xlink:href="#m66b041a4b3" x="61.23" y="131.167551" style="stroke: #000000; stroke-width: 1.2"/>
      </g>
     </g>
     <g id="line2d_111">
      <g>
       <use xlink:href="#m66b041a4b3" x="451.83" y="131.167551" style="stroke: #000000; stroke-width: 1.2"/>
      </g>
     </g>
     <g id="text_14">
      <!-- $\mathdefault{10^{-18}}$ -->
      <g transform="translate(24.04 135.346692) scale(0.11 -0.11)">
       <defs>
        <path id="DejaVuSerif-38" d="M 2981 1275 
Q 2981 1775 2732 2051 
Q 2484 2328 2034 2328 
Q 1584 2328 1336 2051 
Q 1088 1775 1088 1275 
Q 1088 772 1336 495 
Q 1584 219 2034 219 
Q 2484 219 2732 495 
Q 2981 772 2981 1275 
z
M 2853 3541 
Q 2853 3966 2637 4203 
Q 2422 4441 2034 4441 
Q 1650 4441 1433 4203 
Q 1216 3966 1216 3541 
Q 1216 3113 1433 2875 
Q 1650 2638 2034 2638 
Q 2422 2638 2637 2875 
Q 2853 3113 2853 3541 
z
M 2516 2484 
Q 3047 2413 3344 2092 
Q 3641 1772 3641 1275 
Q 3641 619 3225 264 
Q 2809 -91 2034 -91 
Q 1263 -91 845 264 
Q 428 619 428 1275 
Q 428 1772 725 2092 
Q 1022 2413 1556 2484 
Q 1084 2569 832 2842 
Q 581 3116 581 3541 
Q 581 4103 968 4426 
Q 1356 4750 2034 4750 
Q 2713 4750 3100 4426 
Q 3488 4103 3488 3541 
Q 3488 3116 3236 2842 
Q 2984 2569 2516 2484 
z
" transform="scale(0.015625)"/>
       </defs>
       <use xlink:href="#DejaVuSerif-31" transform="translate(0 0.7125)"/>
       <use xlink:href="#DejaVuSerif-30" transform="translate(63.623047 0.7125)"/>
       <use xlink:href="#DejaVuSerif-2212" transform="translate(128.154453 37.046875) scale(0.7)"/>
       <use xlink:href="#DejaVuSerif-31" transform="translate(186.806797 37.046875) scale(0.7)"/>
       <use xlink:href="#DejaVuSerif-38" transform="translate(231.34293 37.046875) scale(0.7)"/>
      </g>
     </g>
    </g>
    <g id="ytick_4">
     <g id="line2d_112">
      <path d="M 61.23 71.215727 
L 451.83 71.215727 
" clip-path="url(#p9d8a917531)" style="fill: none; stroke-dasharray: 2.96,1.28; stroke-dashoffset: 0; stroke: #b0b0b0; stroke-opacity: 0.5; stroke-width: 0.8"/>
     </g>
     <g id="line2d_113">
      <g>
       <use xlink:href="#m66b041a4b3" x="61.23" y="71.215727" style="stroke: #000000; stroke-width: 1.2"/>
      </g>
     </g>
     <g id="line2d_114">
      <g>
       <use xlink:href="#m66b041a4b3" x="451.83" y="71.215727" style="stroke: #000000; stroke-width: 1.2"/>
      </g>
     </g>
     <g id="text_15">
      <!-- $\mathdefault{10^{-17}}$ -->
      <g transform="translate(24.04 75.394868) scale(0.11 -0.11)">
       <use xlink:href="#DejaVuSerif-31" transform="translate(0 0.7125)"/>
       <use xlink:href="#DejaVuSerif-30" transform="translate(63.623047 0.7125)"/>
       <use xlink:href="#DejaVuSerif-2212" transform="translate(128.154453 37.046875) scale(0.7)"/>
       <use xlink:href="#DejaVuSerif-31" transform="translate(186.806797 37.046875) scale(0.7)"/>
       <use xlink:href="#DejaVuSerif-37" transform="translate(231.34293 37.046875) scale(0.7)"/>
      </g>
     </g>
    </g>
    <g id="ytick_5">
     <g id="line2d_115">
      <defs>
       <path id="m7d90d2e3fe" d="M 0 0 
L 3 0 
" style="stroke: #000000; stroke-width: 0.8"/>
      </defs>
      <g>
       <use xlink:href="#m7d90d2e3fe" x="61.23" y="233.023903" style="stroke: #000000; stroke-width: 0.8"/>
      </g>
     </g>
     <g id="line2d_116">
      <defs>
       <path id="m10a24e7072" d="M 0 0 
L -3 0 
" style="stroke: #000000; stroke-width: 0.8"/>
      </defs>
      <g>
       <use xlink:href="#m10a24e7072" x="451.83" y="233.023903" style="stroke: #000000; stroke-width: 0.8"/>
      </g>
     </g>
    </g>
    <g id="ytick_6">
     <g id="line2d_117">
      <g>
       <use xlink:href="#m7d90d2e3fe" x="61.23" y="222.46691" style="stroke: #000000; stroke-width: 0.8"/>
      </g>
     </g>
     <g id="line2d_118">
      <g>
       <use xlink:href="#m10a24e7072" x="451.83" y="222.46691" style="stroke: #000000; stroke-width: 0.8"/>
      </g>
     </g>
    </g>
    <g id="ytick_7">
     <g id="line2d_119">
      <g>
       <use xlink:href="#m7d90d2e3fe" x="61.23" y="214.976605" style="stroke: #000000; stroke-width: 0.8"/>
      </g>
     </g>
     <g id="line2d_120">
      <g>
       <use xlink:href="#m10a24e7072" x="451.83" y="214.976605" style="stroke: #000000; stroke-width: 0.8"/>
      </g>
     </g>
    </g>
    <g id="ytick_8">
     <g id="line2d_121">
      <g>
       <use xlink:href="#m7d90d2e3fe" x="61.23" y="209.166673" style="stroke: #000000; stroke-width: 0.8"/>
      </g>
     </g>
     <g id="line2d_122">
      <g>
       <use xlink:href="#m10a24e7072" x="451.83" y="209.166673" style="stroke: #000000; stroke-width: 0.8"/>
      </g>
     </g>
    </g>
    <g id="ytick_9">
     <g id="line2d_123">
      <g>
       <use xlink:href="#m7d90d2e3fe" x="61.23" y="204.419613" style="stroke: #000000; stroke-width: 0.8"/>
      </g>
     </g>
     <g id="line2d_124">
      <g>
       <use xlink:href="#m10a24e7072" x="451.83" y="204.419613" style="stroke: #000000; stroke-width: 0.8"/>
      </g>
     </g>
    </g>
    <g id="ytick_10">
     <g id="line2d_125">
      <g>
       <use xlink:href="#m7d90d2e3fe" x="61.23" y="200.406031" style="stroke: #000000; stroke-width: 0.8"/>
      </g>
     </g>
     <g id="line2d_126">
      <g>
       <use xlink:href="#m10a24e7072" x="451.83" y="200.406031" style="stroke: #000000; stroke-width: 0.8"/>
      </g>
     </g>
    </g>
    <g id="ytick_11">
     <g id="line2d_127">
      <g>
       <use xlink:href="#m7d90d2e3fe" x="61.23" y="196.929308" style="stroke: #000000; stroke-width: 0.8"/>
      </g>
     </g>
     <g id="line2d_128">
      <g>
       <use xlink:href="#m10a24e7072" x="451.83" y="196.929308" style="stroke: #000000; stroke-width: 0.8"/>
      </g>
     </g>
    </g>
    <g id="ytick_12">
     <g id="line2d_129">
      <g>
       <use xlink:href="#m7d90d2e3fe" x="61.23" y="193.862621" style="stroke: #000000; stroke-width: 0.8"/>
      </g>
     </g>
     <g id="line2d_130">
      <g>
       <use xlink:href="#m10a24e7072" x="451.83" y="193.862621" style="stroke: #000000; stroke-width: 0.8"/>
      </g>
     </g>
    </g>
    <g id="ytick_13">
     <g id="line2d_131">
      <g>
       <use xlink:href="#m7d90d2e3fe" x="61.23" y="173.072078" style="stroke: #000000; stroke-width: 0.8"/>
      </g>
     </g>
     <g id="line2d_132">
      <g>
       <use xlink:href="#m10a24e7072" x="451.83" y="173.072078" style="stroke: #000000; stroke-width: 0.8"/>
      </g>
     </g>
    </g>
    <g id="ytick_14">
     <g id="line2d_133">
      <g>
       <use xlink:href="#m7d90d2e3fe" x="61.23" y="162.515086" style="stroke: #000000; stroke-width: 0.8"/>
      </g>
     </g>
     <g id="line2d_134">
      <g>
       <use xlink:href="#m10a24e7072" x="451.83" y="162.515086" style="stroke: #000000; stroke-width: 0.8"/>
      </g>
     </g>
    </g>
    <g id="ytick_15">
     <g id="line2d_135">
      <g>
       <use xlink:href="#m7d90d2e3fe" x="61.23" y="155.024781" style="stroke: #000000; stroke-width: 0.8"/>
      </g>
     </g>
     <g id="line2d_136">
      <g>
       <use xlink:href="#m10a24e7072" x="451.83" y="155.024781" style="stroke: #000000; stroke-width: 0.8"/>
      </g>
     </g>
    </g>
    <g id="ytick_16">
     <g id="line2d_137">
      <g>
       <use xlink:href="#m7d90d2e3fe" x="61.23" y="149.214849" style="stroke: #000000; stroke-width: 0.8"/>
      </g>
     </g>
     <g id="line2d_138">
      <g>
       <use xlink:href="#m10a24e7072" x="451.83" y="149.214849" style="stroke: #000000; stroke-width: 0.8"/>
      </g>
     </g>
    </g>
    <g id="ytick_17">
     <g id="line2d_139">
      <g>
       <use xlink:href="#m7d90d2e3fe" x="61.23" y="144.467789" style="stroke: #000000; stroke-width: 0.8"/>
      </g>
     </g>
     <g id="line2d_140">
      <g>
       <use xlink:href="#m10a24e7072" x="451.83" y="144.467789" style="stroke: #000000; stroke-width: 0.8"/>
      </g>
     </g>
    </g>
    <g id="ytick_18">
     <g id="line2d_141">
      <g>
       <use xlink:href="#m7d90d2e3fe" x="61.23" y="140.454206" style="stroke: #000000; stroke-width: 0.8"/>
      </g>
     </g>
     <g id="line2d_142">
      <g>
       <use xlink:href="#m10a24e7072" x="451.83" y="140.454206" style="stroke: #000000; stroke-width: 0.8"/>
      </g>
     </g>
    </g>
    <g id="ytick_19">
     <g id="line2d_143">
      <g>
       <use xlink:href="#m7d90d2e3fe" x="61.23" y="136.977483" style="stroke: #000000; stroke-width: 0.8"/>
      </g>
     </g>
     <g id="line2d_144">
      <g>
       <use xlink:href="#m10a24e7072" x="451.83" y="136.977483" style="stroke: #000000; stroke-width: 0.8"/>
      </g>
     </g>
    </g>
    <g id="ytick_20">
     <g id="line2d_145">
      <g>
       <use xlink:href="#m7d90d2e3fe" x="61.23" y="133.910796" style="stroke: #000000; stroke-width: 0.8"/>
      </g>
     </g>
     <g id="line2d_146">
      <g>
       <use xlink:href="#m10a24e7072" x="451.83" y="133.910796" style="stroke: #000000; stroke-width: 0.8"/>
      </g>
     </g>
    </g>
    <g id="ytick_21">
     <g id="line2d_147">
      <g>
       <use xlink:href="#m7d90d2e3fe" x="61.23" y="113.120254" style="stroke: #000000; stroke-width: 0.8"/>
      </g>
     </g>
     <g id="line2d_148">
      <g>
       <use xlink:href="#m10a24e7072" x="451.83" y="113.120254" style="stroke: #000000; stroke-width: 0.8"/>
      </g>
     </g>
    </g>
    <g id="ytick_22">
     <g id="line2d_149">
      <g>
       <use xlink:href="#m7d90d2e3fe" x="61.23" y="102.563262" style="stroke: #000000; stroke-width: 0.8"/>
      </g>
     </g>
     <g id="line2d_150">
      <g>
       <use xlink:href="#m10a24e7072" x="451.83" y="102.563262" style="stroke: #000000; stroke-width: 0.8"/>
      </g>
     </g>
    </g>
    <g id="ytick_23">
     <g id="line2d_151">
      <g>
       <use xlink:href="#m7d90d2e3fe" x="61.23" y="95.072956" style="stroke: #000000; stroke-width: 0.8"/>
      </g>
     </g>
     <g id="line2d_152">
      <g>
       <use xlink:href="#m10a24e7072" x="451.83" y="95.072956" style="stroke: #000000; stroke-width: 0.8"/>
      </g>
     </g>
    </g>
    <g id="ytick_24">
     <g id="line2d_153">
      <g>
       <use xlink:href="#m7d90d2e3fe" x="61.23" y="89.263024" style="stroke: #000000; stroke-width: 0.8"/>
      </g>
     </g>
     <g id="line2d_154">
      <g>
       <use xlink:href="#m10a24e7072" x="451.83" y="89.263024" style="stroke: #000000; stroke-width: 0.8"/>
      </g>
     </g>
    </g>
    <g id="ytick_25">
     <g id="line2d_155">
      <g>
       <use xlink:href="#m7d90d2e3fe" x="61.23" y="84.515964" style="stroke: #000000; stroke-width: 0.8"/>
      </g>
     </g>
     <g id="line2d_156">
      <g>
       <use xlink:href="#m10a24e7072" x="451.83" y="84.515964" style="stroke: #000000; stroke-width: 0.8"/>
      </g>
     </g>
    </g>
    <g id="ytick_26">
     <g id="line2d_157">
      <g>
       <use xlink:href="#m7d90d2e3fe" x="61.23" y="80.502382" style="stroke: #000000; stroke-width: 0.8"/>
      </g>
     </g>
     <g id="line2d_158">
      <g>
       <use xlink:href="#m10a24e7072" x="451.83" y="80.502382" style="stroke: #000000; stroke-width: 0.8"/>
      </g>
     </g>
    </g>
    <g id="ytick_27">
     <g id="line2d_159">
      <g>
       <use xlink:href="#m7d90d2e3fe" x="61.23" y="77.025659" style="stroke: #000000; stroke-width: 0.8"/>
      </g>
     </g>
     <g id="line2d_160">
      <g>
       <use xlink:href="#m10a24e7072" x="451.83" y="77.025659" style="stroke: #000000; stroke-width: 0.8"/>
      </g>
     </g>
    </g>
    <g id="ytick_28">
     <g id="line2d_161">
      <g>
       <use xlink:href="#m7d90d2e3fe" x="61.23" y="73.958972" style="stroke: #000000; stroke-width: 0.8"/>
      </g>
     </g>
     <g id="line2d_162">
      <g>
       <use xlink:href="#m10a24e7072" x="451.83" y="73.958972" style="stroke: #000000; stroke-width: 0.8"/>
      </g>
     </g>
    </g>
    <g id="ytick_29">
     <g id="line2d_163">
      <g>
       <use xlink:href="#m7d90d2e3fe" x="61.23" y="53.16843" style="stroke: #000000; stroke-width: 0.8"/>
      </g>
     </g>
     <g id="line2d_164">
      <g>
       <use xlink:href="#m10a24e7072" x="451.83" y="53.16843" style="stroke: #000000; stroke-width: 0.8"/>
      </g>
     </g>
    </g>
    <g id="ytick_30">
     <g id="line2d_165">
      <g>
       <use xlink:href="#m7d90d2e3fe" x="61.23" y="42.611437" style="stroke: #000000; stroke-width: 0.8"/>
      </g>
     </g>
     <g id="line2d_166">
      <g>
       <use xlink:href="#m10a24e7072" x="451.83" y="42.611437" style="stroke: #000000; stroke-width: 0.8"/>
      </g>
     </g>
    </g>
    <g id="ytick_31">
     <g id="line2d_167">
      <g>
       <use xlink:href="#m7d90d2e3fe" x="61.23" y="35.121132" style="stroke: #000000; stroke-width: 0.8"/>
      </g>
     </g>
     <g id="line2d_168">
      <g>
       <use xlink:href="#m10a24e7072" x="451.83" y="35.121132" style="stroke: #000000; stroke-width: 0.8"/>
      </g>
     </g>
    </g>
    <g id="ytick_32">
     <g id="line2d_169">
      <g>
       <use xlink:href="#m7d90d2e3fe" x="61.23" y="29.3112" style="stroke: #000000; stroke-width: 0.8"/>
      </g>
     </g>
     <g id="line2d_170">
      <g>
       <use xlink:href="#m10a24e7072" x="451.83" y="29.3112" style="stroke: #000000; stroke-width: 0.8"/>
      </g>
     </g>
    </g>
    <g id="text_16">
     <!-- Cross Section ($cm^{2}$) -->
     <g transform="translate(17.544375 201.0312) rotate(-90) scale(0.12 -0.12)">
      <defs>
       <path id="DejaVuSerif-43" d="M 4513 1234 
Q 4306 581 3820 245 
Q 3334 -91 2591 -91 
Q 2134 -91 1743 65 
Q 1353 222 1050 525 
Q 700 875 529 1320 
Q 359 1766 359 2328 
Q 359 3416 987 4083 
Q 1616 4750 2644 4750 
Q 3025 4750 3456 4650 
Q 3888 4550 4384 4347 
L 4384 3272 
L 4031 3272 
Q 3916 3859 3567 4137 
Q 3219 4416 2591 4416 
Q 1844 4416 1459 3886 
Q 1075 3356 1075 2328 
Q 1075 1303 1459 773 
Q 1844 244 2591 244 
Q 3113 244 3450 492 
Q 3788 741 3938 1234 
L 4513 1234 
z
" transform="scale(0.015625)"/>
       <path id="DejaVuSerif-72" d="M 3059 3328 
L 3059 2497 
L 2728 2497 
Q 2713 2744 2591 2866 
Q 2469 2988 2234 2988 
Q 1809 2988 1582 2694 
Q 1356 2400 1356 1850 
L 1356 331 
L 2022 331 
L 2022 0 
L 263 0 
L 263 331 
L 781 331 
L 781 2994 
L 231 2994 
L 231 3322 
L 1356 3322 
L 1356 2731 
Q 1525 3078 1790 3245 
Q 2056 3413 2438 3413 
Q 2578 3413 2733 3391 
Q 2888 3369 3059 3328 
z
" transform="scale(0.015625)"/>
       <path id="DejaVuSerif-6f" d="M 1925 219 
Q 2388 219 2623 584 
Q 2859 950 2859 1663 
Q 2859 2375 2623 2739 
Q 2388 3103 1925 3103 
Q 1463 3103 1227 2739 
Q 991 2375 991 1663 
Q 991 950 1228 584 
Q 1466 219 1925 219 
z
M 1925 -91 
Q 1200 -91 759 389 
Q 319 869 319 1663 
Q 319 2456 758 2934 
Q 1197 3413 1925 3413 
Q 2653 3413 3092 2934 
Q 3531 2456 3531 1663 
Q 3531 869 3092 389 
Q 2653 -91 1925 -91 
z
" transform="scale(0.015625)"/>
       <path id="DejaVuSerif-73" d="M 359 184 
L 359 959 
L 691 959 
Q 703 588 923 403 
Q 1144 219 1575 219 
Q 1963 219 2166 364 
Q 2369 509 2369 788 
Q 2369 1006 2220 1140 
Q 2072 1275 1594 1428 
L 1178 1569 
Q 750 1706 558 1912 
Q 366 2119 366 2438 
Q 366 2894 700 3153 
Q 1034 3413 1625 3413 
Q 1888 3413 2178 3344 
Q 2469 3275 2778 3144 
L 2778 2419 
L 2447 2419 
Q 2434 2741 2221 2922 
Q 2009 3103 1644 3103 
Q 1281 3103 1095 2975 
Q 909 2847 909 2591 
Q 909 2381 1050 2254 
Q 1191 2128 1613 1997 
L 2069 1856 
Q 2541 1709 2748 1489 
Q 2956 1269 2956 922 
Q 2956 450 2595 179 
Q 2234 -91 1600 -91 
Q 1278 -91 972 -22 
Q 666 47 359 184 
z
" transform="scale(0.015625)"/>
       <path id="DejaVuSerif-53" d="M 594 225 
L 594 1288 
L 953 1284 
Q 969 753 1261 498 
Q 1553 244 2150 244 
Q 2706 244 2998 464 
Q 3291 684 3291 1106 
Q 3291 1444 3114 1625 
Q 2938 1806 2369 1978 
L 1753 2163 
Q 1084 2366 811 2669 
Q 538 2972 538 3500 
Q 538 4094 959 4422 
Q 1381 4750 2144 4750 
Q 2469 4750 2856 4679 
Q 3244 4609 3681 4475 
L 3681 3481 
L 3328 3481 
Q 3275 3975 2998 4195 
Q 2722 4416 2156 4416 
Q 1663 4416 1405 4214 
Q 1147 4013 1147 3628 
Q 1147 3294 1340 3103 
Q 1534 2913 2163 2725 
L 2741 2553 
Q 3375 2363 3645 2067 
Q 3916 1772 3916 1275 
Q 3916 597 3481 253 
Q 3047 -91 2188 -91 
Q 1803 -91 1404 -12 
Q 1006 66 594 225 
z
" transform="scale(0.015625)"/>
       <path id="DejaVuSerif-63" d="M 3291 997 
Q 3169 466 2822 187 
Q 2475 -91 1925 -91 
Q 1200 -91 759 389 
Q 319 869 319 1663 
Q 319 2459 759 2936 
Q 1200 3413 1925 3413 
Q 2241 3413 2553 3339 
Q 2866 3266 3181 3116 
L 3181 2266 
L 2847 2266 
Q 2781 2703 2561 2903 
Q 2341 3103 1931 3103 
Q 1466 3103 1228 2742 
Q 991 2381 991 1663 
Q 991 944 1227 581 
Q 1463 219 1931 219 
Q 2303 219 2525 412 
Q 2747 606 2828 997 
L 3291 997 
z
" transform="scale(0.015625)"/>
       <path id="DejaVuSerif-69" d="M 622 4353 
Q 622 4497 726 4603 
Q 831 4709 978 4709 
Q 1122 4709 1226 4603 
Q 1331 4497 1331 4353 
Q 1331 4206 1228 4103 
Q 1125 4000 978 4000 
Q 831 4000 726 4103 
Q 622 4206 622 4353 
z
M 1356 331 
L 1900 331 
L 1900 0 
L 231 0 
L 231 331 
L 781 331 
L 781 2988 
L 231 2988 
L 231 3322 
L 1356 3322 
L 1356 331 
z
" transform="scale(0.015625)"/>
       <path id="DejaVuSans-Oblique-63" d="M 3431 3366 
L 3316 2797 
Q 3109 2947 2876 3022 
Q 2644 3097 2394 3097 
Q 2119 3097 1870 3000 
Q 1622 2903 1453 2725 
Q 1184 2453 1037 2087 
Q 891 1722 891 1331 
Q 891 859 1127 628 
Q 1363 397 1844 397 
Q 2081 397 2348 469 
Q 2616 541 2906 684 
L 2797 116 
Q 2547 13 2283 -39 
Q 2019 -91 1741 -91 
Q 1044 -91 669 257 
Q 294 606 294 1253 
Q 294 1797 489 2255 
Q 684 2713 1069 3078 
Q 1331 3328 1684 3456 
Q 2038 3584 2456 3584 
Q 2700 3584 2940 3529 
Q 3181 3475 3431 3366 
z
" transform="scale(0.015625)"/>
       <path id="DejaVuSans-Oblique-6d" d="M 5747 2113 
L 5338 0 
L 4763 0 
L 5166 2094 
Q 5191 2228 5203 2325 
Q 5216 2422 5216 2491 
Q 5216 2772 5059 2928 
Q 4903 3084 4622 3084 
Q 4203 3084 3875 2770 
Q 3547 2456 3450 1953 
L 3066 0 
L 2491 0 
L 2900 2094 
Q 2925 2209 2937 2307 
Q 2950 2406 2950 2484 
Q 2950 2769 2794 2926 
Q 2638 3084 2363 3084 
Q 1938 3084 1609 2770 
Q 1281 2456 1184 1953 
L 800 0 
L 225 0 
L 909 3500 
L 1484 3500 
L 1375 2956 
Q 1609 3263 1923 3423 
Q 2238 3584 2597 3584 
Q 2978 3584 3223 3384 
Q 3469 3184 3519 2828 
Q 3781 3197 4126 3390 
Q 4472 3584 4856 3584 
Q 5306 3584 5551 3325 
Q 5797 3066 5797 2591 
Q 5797 2488 5784 2364 
Q 5772 2241 5747 2113 
z
" transform="scale(0.015625)"/>
       <path id="DejaVuSans-32" d="M 1228 531 
L 3431 531 
L 3431 0 
L 469 0 
L 469 531 
Q 828 903 1448 1529 
Q 2069 2156 2228 2338 
Q 2531 2678 2651 2914 
Q 2772 3150 2772 3378 
Q 2772 3750 2511 3984 
Q 2250 4219 1831 4219 
Q 1534 4219 1204 4116 
Q 875 4013 500 3803 
L 500 4441 
Q 881 4594 1212 4672 
Q 1544 4750 1819 4750 
Q 2544 4750 2975 4387 
Q 3406 4025 3406 3419 
Q 3406 3131 3298 2873 
Q 3191 2616 2906 2266 
Q 2828 2175 2409 1742 
Q 1991 1309 1228 531 
z
" transform="scale(0.015625)"/>
      </defs>
      <use xlink:href="#DejaVuSerif-43" transform="translate(0 0.765625)"/>
      <use xlink:href="#DejaVuSerif-72" transform="translate(76.513672 0.765625)"/>
      <use xlink:href="#DejaVuSerif-6f" transform="translate(124.316406 0.765625)"/>
      <use xlink:href="#DejaVuSerif-73" transform="translate(184.521484 0.765625)"/>
      <use xlink:href="#DejaVuSerif-73" transform="translate(235.839844 0.765625)"/>
      <use xlink:href="#DejaVuSerif-20" transform="translate(287.158203 0.765625)"/>
      <use xlink:href="#DejaVuSerif-53" transform="translate(318.945312 0.765625)"/>
      <use xlink:href="#DejaVuSerif-65" transform="translate(387.451172 0.765625)"/>
      <use xlink:href="#DejaVuSerif-63" transform="translate(446.630859 0.765625)"/>
      <use xlink:href="#DejaVuSerif-74" transform="translate(502.636719 0.765625)"/>
      <use xlink:href="#DejaVuSerif-69" transform="translate(542.822266 0.765625)"/>
      <use xlink:href="#DejaVuSerif-6f" transform="translate(574.804688 0.765625)"/>
      <use xlink:href="#DejaVuSerif-6e" transform="translate(635.009766 0.765625)"/>
      <use xlink:href="#DejaVuSerif-20" transform="translate(699.414062 0.765625)"/>
      <use xlink:href="#DejaVuSerif-28" transform="translate(731.201172 0.765625)"/>
      <use xlink:href="#DejaVuSans-Oblique-63" transform="translate(770.214844 0.765625)"/>
      <use xlink:href="#DejaVuSans-Oblique-6d" transform="translate(825.195312 0.765625)"/>
      <use xlink:href="#DejaVuSans-32" transform="translate(927.257318 39.046875) scale(0.7)"/>
      <use xlink:href="#DejaVuSerif-29" transform="translate(974.527826 0.765625)"/>
     </g>
    </g>
   </g>
   <g id="line2d_171">
    <path d="M 470.528125 115.718769 
L 470.386048 115.60685 
L 469.705111 116.011778 
L 469.024776 115.750672 
L 468.345044 115.655991 
L 467.665913 115.29026 
L 466.987383 115.53182 
L 466.309452 115.406442 
L 465.63212 114.671797 
L 464.955386 115.049474 
L 464.27925 114.976311 
L 463.60371 114.46482 
L 462.928765 114.678869 
L 462.254416 114.577919 
L 461.580661 114.181758 
L 460.907499 114.395494 
L 460.23493 113.626351 
L 459.562952 114.118742 
L 458.220769 113.69372 
L 457.550562 113.529324 
L 456.880944 113.625693 
L 455.543471 113.307871 
L 445.586757 111.53112 
L 442.953586 111.019584 
L 442.296725 110.854361 
L 440.984715 110.704552 
L 436.410589 109.644272 
L 435.759407 109.702657 
L 435.108788 109.480763 
L 433.809239 109.31195 
L 432.511936 109.108588 
L 431.864125 108.892186 
L 430.570181 108.730254 
L 427.345073 108.170174 
L 426.701718 107.971511 
L 426.058916 107.969501 
L 425.416667 107.747821 
L 424.77497 107.731594 
L 423.49323 107.494799 
L 417.75255 106.482148 
L 416.482843 106.220009 
L 413.318055 105.648347 
L 408.282381 104.75065 
L 369.19755 97.654261 
L 322.046974 89.181148 
L 294.786044 84.488818 
L 269.603498 80.452079 
L 246.826214 77.111432 
L 230.610105 74.93756 
L 217.637108 73.381752 
L 205.854211 72.177137 
L 195.662606 71.319724 
L 183.826395 70.568808 
L 174.871518 70.198707 
L 166.04393 70.043593 
L 158.638548 70.116389 
L 152.60645 70.352001 
L 146.633428 70.785324 
L 140.718618 71.457731 
L 135.694471 72.261066 
L 130.711947 73.30412 
L 126.180757 74.497851 
L 121.683717 75.94452 
L 117.624811 77.496595 
L 113.593525 79.290709 
L 109.58958 81.345229 
L 106.009175 83.427833 
L 102.450492 85.747727 
L 98.913333 88.316481 
L 95.397504 91.148547 
L 91.902812 94.260049 
L 88.429068 97.667171 
L 84.976082 101.388399 
L 81.543671 105.447562 
L 78.13165 109.866573 
L 75.115714 114.120024 
L 72.11562 118.7032 
L 69.131244 123.639899 
L 66.162462 128.964056 
L 63.209153 134.702292 
L 60.271196 140.90125 
L 57.348471 147.599849 
L 54.44086 154.851257 
L 51.548246 162.702496 
L 48.670514 171.194416 
L 45.80755 180.334859 
L 42.249437 192.528159 
L 37.30613 209.592065 
L 35.551322 214.822103 
L 34.151485 218.272295 
L 33.103938 220.309768 
L 32.058381 221.816799 
L 31.362447 222.512834 
L 30.667393 222.965497 
L 29.973218 223.188036 
L 29.279921 223.193329 
L 28.587499 223.005729 
L 27.550505 222.410106 
L 26.515471 221.522179 
L 25.138467 220.023827 
L 22.05285 216.460414 
L 21.369523 216.093778 
L 21.028181 216.093003 
L 20.687053 216.262665 
L 20.346139 216.646259 
L 20.005439 217.290151 
L 19.664951 218.242419 
L 18.984617 221.270791 
L 18.305133 226.114093 
L 17.626499 233.119529 
L 16.948713 242.572365 
L 16.271773 254.700604 
L 15.257948 278.295608 
L 14.769336 292.201512 
L 14.769336 292.201512 
" clip-path="url(#p9d8a917531)" style="fill: none; stroke: #1f77b4; stroke-width: 1.5; stroke-linecap: square"/>
   </g>
   <g id="line2d_172">
    <path d="M 470.528125 116.957148 
L 470.386048 116.947901 
L 469.705111 115.554984 
L 469.024776 116.843493 
L 468.345044 116.705538 
L 467.665913 115.281232 
L 466.987383 116.395113 
L 466.309452 116.135745 
L 465.63212 116.175662 
L 464.955386 115.951382 
L 462.928765 115.63341 
L 462.254416 115.362944 
L 461.580661 115.355838 
L 459.562952 114.689685 
L 458.891566 114.686965 
L 455.543471 113.985781 
L 452.875554 113.503566 
L 452.210035 113.352696 
L 451.545098 113.041694 
L 450.880744 113.091038 
L 450.21697 112.876668 
L 448.891162 112.681741 
L 443.611019 111.604685 
L 442.953586 111.28947 
L 442.296725 111.304599 
L 441.640435 111.188553 
L 440.984715 110.948037 
L 437.062336 110.205134 
L 434.458732 109.584464 
L 433.160307 109.339777 
L 432.511936 108.949438 
L 431.864125 109.072588 
L 427.345073 108.283617 
L 426.701718 107.907309 
L 426.058916 108.036873 
L 419.661191 106.83663 
L 413.949932 105.841368 
L 403.280847 104.029961 
L 390.924118 102.109013 
L 378.773333 100.439152 
L 365.639249 98.895158 
L 352.74162 97.632799 
L 338.364224 96.487313 
L 322.603328 95.453336 
L 281.552892 92.914256 
L 243.847756 90.152676 
L 213.370221 87.958196 
L 196.122319 87.009257 
L 162.983846 85.271727 
L 147.908431 84.405356 
L 139.878348 84.185809 
L 134.029031 84.249041 
L 128.648057 84.539775 
L 124.132437 84.986354 
L 119.650793 85.636024 
L 114.800027 86.596238 
L 110.388195 87.709506 
L 106.009175 89.04838 
L 101.662604 90.612179 
L 96.957474 92.568499 
L 92.677594 94.586126 
L 88.044381 97.030671 
L 83.448037 99.731579 
L 79.266736 102.441395 
L 75.115714 105.388229 
L 71.368058 108.29014 
L 67.644912 111.422863 
L 63.946037 114.807894 
L 60.637605 118.083059 
L 56.984195 122.003155 
L 53.354378 126.238039 
L 49.747927 130.811966 
L 46.164617 135.750591 
L 42.604224 141.076535 
L 39.066532 146.820145 
L 35.901837 152.367753 
L 32.755198 158.298898 
L 29.62646 164.639378 
L 26.515471 171.419002 
L 23.42208 178.682046 
L 21.711079 183.160395 
L 20.687053 186.517044 
L 20.005439 189.463444 
L 19.324678 193.380626 
L 18.644768 198.681431 
L 17.96571 205.784697 
L 17.2875 215.07099 
L 16.610137 226.862049 
L 15.595679 249.75455 
L 14.583117 279.38613 
L 14.208805 292.201512 
L 14.208805 292.201512 
" clip-path="url(#p9d8a917531)" style="fill: none; stroke: #ff7f0e; stroke-width: 1.5; stroke-linecap: square"/>
   </g>
   <g id="line2d_173">
    <path d="M 470.528125 117.193488 
L 470.386048 116.990981 
L 469.705111 117.670473 
L 469.024776 117.365264 
L 468.345044 117.317094 
L 467.665913 116.390924 
L 466.987383 117.095426 
L 462.254416 116.059326 
L 461.580661 115.827855 
L 459.562952 115.484212 
L 458.891566 115.23123 
L 458.220769 115.228353 
L 453.541656 114.226386 
L 450.880744 113.689436 
L 450.21697 113.447618 
L 449.553776 113.399085 
L 444.269024 112.04825 
L 443.611019 112.117148 
L 442.296725 111.657096 
L 441.640435 111.664464 
L 440.329566 111.0448 
L 439.674985 111.222306 
L 437.062336 110.605076 
L 436.410589 110.288433 
L 435.759407 110.311932 
L 433.160307 109.682862 
L 432.511936 109.256991 
L 431.864125 109.472408 
L 431.216874 109.343617 
L 430.570181 108.994115 
L 429.924047 109.080433 
L 427.988983 108.703753 
L 427.345073 108.451105 
L 426.701718 108.49418 
L 426.058916 108.355518 
L 425.416667 107.960669 
L 423.49323 107.814867 
L 419.661191 107.109356 
L 412.686716 105.830701 
L 395.22528 102.832938 
L 381.187262 100.682141 
L 366.823388 98.752359 
L 353.322837 97.19721 
L 338.933728 95.800315 
L 322.046974 94.412724 
L 275.291896 90.786689 
L 246.826214 88.347882 
L 229.155738 86.878642 
L 218.112963 86.076224 
L 204.454771 85.292263 
L 187.444606 84.619883 
L 152.60645 83.610217 
L 145.361097 83.643791 
L 139.458651 83.873153 
L 134.029031 84.300446 
L 129.060265 84.913396 
L 124.541538 85.682704 
L 120.056822 86.663149 
L 115.605733 87.862741 
L 111.187895 89.284334 
L 106.802936 90.927864 
L 102.450492 92.78876 
L 98.130201 94.86356 
L 93.84171 97.148563 
L 89.19921 99.883313 
L 84.593691 102.876799 
L 80.404074 105.859661 
L 76.244827 109.09019 
L 72.11562 112.590124 
L 68.01613 116.385782 
L 64.314839 120.11599 
L 60.637605 124.134254 
L 56.984195 128.462978 
L 53.354378 133.123215 
L 49.747927 138.136627 
L 46.164617 143.525429 
L 42.604224 149.311371 
L 39.066532 155.515707 
L 35.551322 162.165307 
L 32.406679 168.549982 
L 28.933601 176.112048 
L 25.482393 184.198211 
L 22.737035 191.11144 
L 21.369523 195.066518 
L 20.687053 197.508901 
L 20.005439 200.593013 
L 19.324678 204.678271 
L 18.644768 210.165926 
L 17.96571 217.459262 
L 17.2875 226.923152 
L 16.610137 238.844726 
L 15.595679 261.836004 
L 14.561121 292.201512 
L 14.561121 292.201512 
" clip-path="url(#p9d8a917531)" style="fill: none; stroke: #2ca02c; stroke-width: 1.5; stroke-linecap: square"/>
   </g>
   <g id="line2d_174">
    <path d="M 470.528125 106.832644 
L 469.705111 106.790718 
L 469.024776 106.209791 
L 467.665913 106.426157 
L 466.309452 105.856702 
L 464.27925 105.481835 
L 463.60371 105.679975 
L 462.928765 105.195813 
L 462.254416 104.880583 
L 461.580661 105.101781 
L 460.907499 104.769474 
L 460.23493 104.852447 
L 459.562952 104.606722 
L 458.891566 104.619896 
L 458.220769 104.359879 
L 457.550562 104.425347 
L 456.880944 104.377473 
L 455.543471 104.006372 
L 454.875614 104.00023 
L 454.208343 103.331194 
L 453.541656 103.669485 
L 452.875554 103.383424 
L 452.210035 103.46413 
L 451.545098 103.034532 
L 450.880744 103.276728 
L 449.553776 102.775504 
L 448.891162 102.755876 
L 444.927603 101.975759 
L 442.296725 101.464905 
L 441.640435 101.306944 
L 440.984715 101.293529 
L 438.367527 100.536118 
L 437.714649 100.593569 
L 436.410589 100.296676 
L 434.458732 99.938372 
L 431.216874 99.362579 
L 430.570181 98.193967 
L 429.924047 99.018785 
L 427.988983 98.848602 
L 422.853186 97.969292 
L 420.298495 97.569852 
L 419.024433 97.327984 
L 417.75255 97.155034 
L 417.117425 96.947725 
L 415.848803 96.894831 
L 413.949932 96.452443 
L 413.318055 96.492407 
L 412.055916 96.238559 
L 408.909966 95.802575 
L 406.402824 95.431964 
L 402.035758 94.804107 
L 389.699857 93.197573 
L 377.569384 91.860751 
L 366.231074 90.835201 
L 355.069344 90.027974 
L 342.360463 89.329845 
L 325.391798 88.670109 
L 277.893566 87.025682 
L 256.852892 85.964571 
L 234.992852 84.608402 
L 184.27753 81.142815 
L 172.652794 80.155743 
L 162.112324 79.058997 
L 140.298337 76.694747 
L 133.613391 76.276051 
L 128.236132 76.161656 
L 123.315077 76.274501 
L 118.434373 76.623808 
L 113.995419 77.158483 
L 109.58958 77.904483 
L 105.216486 78.859499 
L 100.482759 80.136638 
L 95.787105 81.650284 
L 91.129065 83.395457 
L 86.508191 85.366472 
L 81.543671 87.762527 
L 76.99881 90.227698 
L 72.864166 92.722675 
L 68.759296 95.46549 
L 65.053165 98.198151 
L 61.371138 101.182945 
L 57.712982 104.448798 
L 54.078465 108.022292 
L 50.827423 111.526399 
L 47.595178 115.32528 
L 44.38157 119.442353 
L 41.186436 123.904931 
L 38.009618 128.741874 
L 34.850959 133.988144 
L 31.710304 139.683948 
L 28.933601 145.161874 
L 26.170895 151.074148 
L 23.42208 157.471703 
L 21.028181 163.567249 
L 20.346139 165.61889 
L 19.664951 168.354539 
L 18.984617 172.718989 
L 18.305133 180.094217 
L 17.626499 191.984163 
L 16.948713 209.67191 
L 16.271773 234.090376 
L 15.595679 265.820884 
L 15.134965 292.201512 
L 15.134965 292.201512 
" clip-path="url(#p9d8a917531)" style="fill: none; stroke: #d62728; stroke-width: 1.5; stroke-linecap: square"/>
   </g>
   <g id="line2d_175">
    <path d="M 470.528125 107.314788 
L 470.386048 107.226372 
L 469.024776 107.243368 
L 467.665913 106.96252 
L 466.309452 106.795792 
L 465.63212 106.27338 
L 464.955386 106.448692 
L 464.27925 106.332382 
L 463.60371 106.371358 
L 462.928765 105.998792 
L 461.580661 105.761872 
L 460.907499 105.351182 
L 460.23493 105.23988 
L 459.562952 105.475208 
L 458.891566 105.494487 
L 457.550562 105.119522 
L 456.880944 104.680436 
L 456.211914 104.936482 
L 455.543471 104.724662 
L 454.875614 104.344334 
L 452.210035 104.030763 
L 449.553776 103.45757 
L 448.891162 103.429092 
L 447.567669 102.968417 
L 446.246485 102.869646 
L 444.269024 102.434002 
L 443.611019 102.190609 
L 442.953586 102.209555 
L 440.329566 101.596348 
L 438.367527 101.232538 
L 431.864125 99.853572 
L 429.924047 99.558014 
L 428.633448 99.269597 
L 426.701718 99.03857 
L 425.416667 98.637684 
L 424.77497 98.651061 
L 421.574745 98.088793 
L 419.661191 97.810851 
L 416.482843 97.27513 
L 412.686716 96.655804 
L 408.909966 96.039528 
L 404.528049 95.384097 
L 393.378822 93.785721 
L 381.792004 92.304387 
L 368.603273 90.853403 
L 357.404713 89.81918 
L 343.506423 88.784386 
L 329.314507 87.956289 
L 262.433065 84.396081 
L 243.352659 83.063164 
L 214.789365 81.005616 
L 195.662606 79.847077 
L 178.43804 78.824199 
L 154.32384 77.012917 
L 144.514358 76.408981 
L 137.782778 76.235026 
L 132.368196 76.313362 
L 127.413133 76.594825 
L 122.498838 77.10376 
L 118.029454 77.778293 
L 113.593525 78.656575 
L 108.792047 79.845333 
L 104.02946 81.27092 
L 99.697518 82.778569 
L 95.008165 84.64171 
L 90.356351 86.72787 
L 85.741628 89.043706 
L 81.163554 91.601315 
L 76.99881 94.17786 
L 72.864166 97.00009 
L 69.131244 99.799819 
L 65.053165 103.169252 
L 61.371138 106.520875 
L 57.712982 110.176324 
L 54.44086 113.747325 
L 51.187718 117.606249 
L 47.953393 121.7751 
L 44.737722 126.277689 
L 41.540543 131.141474 
L 38.361698 136.39869 
L 35.201029 142.082546 
L 32.058381 148.23952 
L 28.933601 154.923035 
L 26.170895 161.355743 
L 23.42208 168.308583 
L 21.028181 174.922337 
L 20.005439 178.421921 
L 19.324678 181.940943 
L 18.644768 187.700497 
L 17.96571 197.172117 
L 17.2875 211.753489 
L 16.610137 232.539817 
L 15.93362 260.280213 
L 15.318317 292.201512 
L 15.318317 292.201512 
" clip-path="url(#p9d8a917531)" style="fill: none; stroke: #9467bd; stroke-width: 1.5; stroke-linecap: square"/>
   </g>
   <g id="LineCollection_1">
    <path d="M 65.434238 166.271026 
L 65.434238 150.153259 
" clip-path="url(#p9d8a917531)" style="fill: none; stroke: #000000; stroke-width: 1.5"/>
    <path d="M 70.426771 163.290256 
L 70.426771 147.172489 
" clip-path="url(#p9d8a917531)" style="fill: none; stroke: #000000; stroke-width: 1.5"/>
    <path d="M 73.317185 154.192046 
L 73.317185 138.074279 
" clip-path="url(#p9d8a917531)" style="fill: none; stroke: #000000; stroke-width: 1.5"/>
    <path d="M 74.893774 148.577014 
L 74.893774 132.459247 
" clip-path="url(#p9d8a917531)" style="fill: none; stroke: #000000; stroke-width: 1.5"/>
    <path d="M 76.995893 140.953665 
L 76.995893 124.835898 
" clip-path="url(#p9d8a917531)" style="fill: none; stroke: #000000; stroke-width: 1.5"/>
    <path d="M 79.098012 133.423578 
L 79.098012 117.305811 
" clip-path="url(#p9d8a917531)" style="fill: none; stroke: #000000; stroke-width: 1.5"/>
    <path d="M 81.200132 129.043474 
L 81.200132 112.925707 
" clip-path="url(#p9d8a917531)" style="fill: none; stroke: #000000; stroke-width: 1.5"/>
    <path d="M 83.82778 125.735274 
L 83.82778 109.617507 
" clip-path="url(#p9d8a917531)" style="fill: none; stroke: #000000; stroke-width: 1.5"/>
    <path d="M 86.455429 121.637294 
L 86.455429 105.519527 
" clip-path="url(#p9d8a917531)" style="fill: none; stroke: #000000; stroke-width: 1.5"/>
    <path d="M 91.185196 120.163122 
L 91.185196 104.045355 
" clip-path="url(#p9d8a917531)" style="fill: none; stroke: #000000; stroke-width: 1.5"/>
    <path d="M 97.228789 120.403094 
L 97.228789 104.285327 
" clip-path="url(#p9d8a917531)" style="fill: none; stroke: #000000; stroke-width: 1.5"/>
    <path d="M 100.119203 114.30546 
L 100.119203 98.187693 
" clip-path="url(#p9d8a917531)" style="fill: none; stroke: #000000; stroke-width: 1.5"/>
    <path d="M 101.695792 108.667767 
L 101.695792 92.55 
" clip-path="url(#p9d8a917531)" style="fill: none; stroke: #000000; stroke-width: 1.5"/>
    <path d="M 103.272381 102.115825 
L 103.272381 85.998058 
" clip-path="url(#p9d8a917531)" style="fill: none; stroke: #000000; stroke-width: 1.5"/>
    <path d="M 104.323441 96.020816 
L 104.323441 79.903049 
" clip-path="url(#p9d8a917531)" style="fill: none; stroke: #000000; stroke-width: 1.5"/>
    <path d="M 105.900031 90.6589 
L 105.900031 74.541133 
" clip-path="url(#p9d8a917531)" style="fill: none; stroke: #000000; stroke-width: 1.5"/>
    <path d="M 112.731917 88.62519 
L 112.731917 72.507423 
" clip-path="url(#p9d8a917531)" style="fill: none; stroke: #000000; stroke-width: 1.5"/>
    <path d="M 117.19892 81.403031 
L 117.19892 65.285264 
" clip-path="url(#p9d8a917531)" style="fill: none; stroke: #000000; stroke-width: 1.5"/>
    <path d="M 121.665924 76.192925 
L 121.665924 60.075158 
" clip-path="url(#p9d8a917531)" style="fill: none; stroke: #000000; stroke-width: 1.5"/>
    <path d="M 129.286105 72.305735 
L 129.286105 56.187968 
" clip-path="url(#p9d8a917531)" style="fill: none; stroke: #000000; stroke-width: 1.5"/>
    <path d="M 140.059465 71.372418 
L 140.059465 55.254651 
" clip-path="url(#p9d8a917531)" style="fill: none; stroke: #000000; stroke-width: 1.5"/>
    <path d="M 148.467942 71.372418 
L 148.467942 55.254651 
" clip-path="url(#p9d8a917531)" style="fill: none; stroke: #000000; stroke-width: 1.5"/>
    <path d="M 158.190242 71.189703 
L 158.190242 55.071936 
" clip-path="url(#p9d8a917531)" style="fill: none; stroke: #000000; stroke-width: 1.5"/>
    <path d="M 165.284894 70.828076 
L 165.284894 54.710309 
" clip-path="url(#p9d8a917531)" style="fill: none; stroke: #000000; stroke-width: 1.5"/>
    <path d="M 174.74443 70.828076 
L 174.74443 54.710309 
" clip-path="url(#p9d8a917531)" style="fill: none; stroke: #000000; stroke-width: 1.5"/>
    <path d="M 183.152907 70.828076 
L 183.152907 54.710309 
" clip-path="url(#p9d8a917531)" style="fill: none; stroke: #000000; stroke-width: 1.5"/>
    <path d="M 192.086912 71.556424 
L 192.086912 55.438657 
" clip-path="url(#p9d8a917531)" style="fill: none; stroke: #000000; stroke-width: 1.5"/>
    <path d="M 199.969859 72.305735 
L 199.969859 56.187968 
" clip-path="url(#p9d8a917531)" style="fill: none; stroke: #000000; stroke-width: 1.5"/>
    <path d="M 208.903865 73.273755 
L 208.903865 57.155988 
" clip-path="url(#p9d8a917531)" style="fill: none; stroke: #000000; stroke-width: 1.5"/>
    <path d="M 217.575106 73.67127 
L 217.575106 57.553503 
" clip-path="url(#p9d8a917531)" style="fill: none; stroke: #000000; stroke-width: 1.5"/>
    <path d="M 227.034642 75.112407 
L 227.034642 58.99464 
" clip-path="url(#p9d8a917531)" style="fill: none; stroke: #000000; stroke-width: 1.5"/>
    <path d="M 234.129294 76.638008 
L 234.129294 60.520241 
" clip-path="url(#p9d8a917531)" style="fill: none; stroke: #000000; stroke-width: 1.5"/>
    <path d="M 245.165418 78.740771 
L 245.165418 62.623004 
" clip-path="url(#p9d8a917531)" style="fill: none; stroke: #000000; stroke-width: 1.5"/>
    <path d="M 253.048365 80.502382 
L 253.048365 64.384615 
" clip-path="url(#p9d8a917531)" style="fill: none; stroke: #000000; stroke-width: 1.5"/>
    <path d="M 261.456842 82.786818 
L 261.456842 66.669051 
" clip-path="url(#p9d8a917531)" style="fill: none; stroke: #000000; stroke-width: 1.5"/>
    <path d="M 271.441908 85.574316 
L 271.441908 69.456549 
" clip-path="url(#p9d8a917531)" style="fill: none; stroke: #000000; stroke-width: 1.5"/>
    <path d="M 282.478032 88.131921 
L 282.478032 72.014155 
" clip-path="url(#p9d8a917531)" style="fill: none; stroke: #000000; stroke-width: 1.5"/>
    <path d="M 292.200333 91.439671 
L 292.200333 75.321904 
" clip-path="url(#p9d8a917531)" style="fill: none; stroke: #000000; stroke-width: 1.5"/>
    <path d="M 301.397104 94.461813 
L 301.397104 78.344046 
" clip-path="url(#p9d8a917531)" style="fill: none; stroke: #000000; stroke-width: 1.5"/>
    <path d="M 310.33111 97.780064 
L 310.33111 81.662297 
" clip-path="url(#p9d8a917531)" style="fill: none; stroke: #000000; stroke-width: 1.5"/>
    <path d="M 316.637467 100.551412 
L 316.637467 84.433645 
" clip-path="url(#p9d8a917531)" style="fill: none; stroke: #000000; stroke-width: 1.5"/>
    <path d="M 323.994884 102.842479 
L 323.994884 86.724712 
" clip-path="url(#p9d8a917531)" style="fill: none; stroke: #000000; stroke-width: 1.5"/>
    <path d="M 333.454419 106.179219 
L 333.454419 90.061452 
" clip-path="url(#p9d8a917531)" style="fill: none; stroke: #000000; stroke-width: 1.5"/>
    <path d="M 342.125661 110.00732 
L 342.125661 93.889553 
" clip-path="url(#p9d8a917531)" style="fill: none; stroke: #000000; stroke-width: 1.5"/>
    <path d="M 351.847962 114.496908 
L 351.847962 98.379141 
" clip-path="url(#p9d8a917531)" style="fill: none; stroke: #000000; stroke-width: 1.5"/>
    <path d="M 359.730908 118.881413 
L 359.730908 102.763646 
" clip-path="url(#p9d8a917531)" style="fill: none; stroke: #000000; stroke-width: 1.5"/>
    <path d="M 366.562795 122.668587 
L 366.562795 106.55082 
" clip-path="url(#p9d8a917531)" style="fill: none; stroke: #000000; stroke-width: 1.5"/>
    <path d="M 374.182977 126.182908 
L 374.182977 110.065141 
" clip-path="url(#p9d8a917531)" style="fill: none; stroke: #000000; stroke-width: 1.5"/>
    <path d="M 383.116983 131.141528 
L 383.116983 115.023761 
" clip-path="url(#p9d8a917531)" style="fill: none; stroke: #000000; stroke-width: 1.5"/>
    <path d="M 390.999929 135.276777 
L 390.999929 119.15901 
" clip-path="url(#p9d8a917531)" style="fill: none; stroke: #000000; stroke-width: 1.5"/>
    <path d="M 399.145641 140.454206 
L 399.145641 124.336439 
" clip-path="url(#p9d8a917531)" style="fill: none; stroke: #000000; stroke-width: 1.5"/>
    <path d="M 408.079647 146.037308 
L 408.079647 129.919541 
" clip-path="url(#p9d8a917531)" style="fill: none; stroke: #000000; stroke-width: 1.5"/>
    <path d="M 417.539183 152.155563 
L 417.539183 136.037796 
" clip-path="url(#p9d8a917531)" style="fill: none; stroke: #000000; stroke-width: 1.5"/>
    <path d="M 425.422129 157.480324 
L 425.422129 141.362557 
" clip-path="url(#p9d8a917531)" style="fill: none; stroke: #000000; stroke-width: 1.5"/>
    <path d="M 443.290141 169.637699 
L 443.290141 153.519932 
" clip-path="url(#p9d8a917531)" style="fill: none; stroke: #000000; stroke-width: 1.5"/>
    <path d="M 452.224148 177.074814 
L 452.224148 160.957047 
" clip-path="url(#p9d8a917531)" style="fill: none; stroke: #000000; stroke-width: 1.5"/>
   </g>
   <g id="line2d_176">
    <path d="M 60.362 178.558568 
L 61.23 179.541204 
L 62.098 179.541204 
L 62.966 178.88201 
L 63.834 177.767117 
L 66.438 174.961583 
L 67.306 173.865137 
L 68.174 172.556482 
L 69.91 169.207704 
L 71.646 165.258331 
L 74.25 158.353146 
L 75.986 153.754444 
L 76.854 151.842631 
L 77.722 150.440961 
L 78.59 149.581939 
L 79.458 149.214849 
L 80.326 149.214849 
L 82.93 149.581939 
L 84.666 149.162827 
L 92.478 145.940696 
L 94.214 144.81728 
L 95.95 143.238812 
L 97.686 141.208948 
L 99.422 138.727381 
L 101.158 135.925028 
L 103.762 131.324242 
L 105.498 128.216841 
L 112.442 115.719251 
L 114.178 112.732603 
L 118.518 105.403118 
L 122.858 98.549679 
L 124.594 96.068112 
L 127.198 92.591389 
L 129.802 89.524702 
L 133.274 85.942992 
L 135.01 84.29989 
L 139.35 80.801658 
L 141.954 78.985249 
L 146.294 76.478175 
L 149.766 74.931595 
L 153.238 73.728557 
L 155.842 73.021377 
L 159.314 72.305735 
L 162.786 71.821566 
L 167.994 71.424859 
L 173.202 71.372418 
L 176.674 71.477405 
L 180.146 71.662157 
L 205.318 73.987918 
L 206.186 74.162272 
L 209.658 74.484985 
L 215.734 75.021844 
L 233.962 76.382744 
L 240.038 76.960648 
L 249.586 77.785187 
L 259.134 78.602093 
L 263.474 79.020363 
L 283.438 80.726516 
L 285.174 80.91478 
L 287.778 81.104415 
L 314.686 83.57837 
L 344.198 86.498958 
L 346.802 86.82884 
L 350.274 87.114961 
L 369.37 89.159085 
L 371.974 89.419715 
L 373.71 89.682981 
L 377.182 90.002454 
L 389.334 91.43401 
L 391.938 91.661407 
L 403.222 93.069141 
L 405.826 93.311345 
L 407.562 93.617304 
L 411.034 93.9269 
L 412.77 94.240222 
L 414.506 94.430041 
L 416.242 94.621254 
L 420.582 95.203467 
L 423.186 95.466466 
L 424.922 95.798996 
L 428.394 96.135828 
L 433.602 96.892564 
L 436.206 97.173286 
L 439.678 97.671953 
L 444.018 98.107118 
L 444.886 98.401322 
L 445.754 98.401322 
L 446.622 98.549679 
L 448.358 98.624177 
L 451.83 99.227954 
L 452.698 99.227954 
L 452.698 99.227954 
" clip-path="url(#p9d8a917531)" style="fill: none; stroke-dasharray: 5.55,2.4; stroke-dashoffset: 0; stroke: #ff0000; stroke-width: 1.5"/>
   </g>
   <g id="line2d_177">
    <defs>
     <path id="mf76731bb6a" d="M 0 2 
C 0.530406 2 1.03916 1.789267 1.414214 1.414214 
C 1.789267 1.03916 2 0.530406 2 0 
C 2 -0.530406 1.789267 -1.03916 1.414214 -1.414214 
C 1.03916 -1.789267 0.530406 -2 0 -2 
C -0.530406 -2 -1.03916 -1.789267 -1.414214 -1.414214 
C -1.789267 -1.03916 -2 -0.530406 -2 0 
C -2 0.530406 -1.789267 1.03916 -1.414214 1.414214 
C -1.03916 1.789267 -0.530406 2 0 2 
z
" style="stroke: #000000"/>
    </defs>
    <g clip-path="url(#p9d8a917531)">
     <use xlink:href="#mf76731bb6a" x="65.434238" y="156.984371" style="fill-opacity: 0; stroke: #000000"/>
     <use xlink:href="#mf76731bb6a" x="70.426771" y="154.003601" style="fill-opacity: 0; stroke: #000000"/>
     <use xlink:href="#mf76731bb6a" x="73.317185" y="144.905391" style="fill-opacity: 0; stroke: #000000"/>
     <use xlink:href="#mf76731bb6a" x="74.893774" y="139.290359" style="fill-opacity: 0; stroke: #000000"/>
     <use xlink:href="#mf76731bb6a" x="76.995893" y="131.667009" style="fill-opacity: 0; stroke: #000000"/>
     <use xlink:href="#mf76731bb6a" x="79.098012" y="124.136923" style="fill-opacity: 0; stroke: #000000"/>
     <use xlink:href="#mf76731bb6a" x="81.200132" y="119.756819" style="fill-opacity: 0; stroke: #000000"/>
     <use xlink:href="#mf76731bb6a" x="83.82778" y="116.448619" style="fill-opacity: 0; stroke: #000000"/>
     <use xlink:href="#mf76731bb6a" x="86.455429" y="112.350639" style="fill-opacity: 0; stroke: #000000"/>
     <use xlink:href="#mf76731bb6a" x="91.185196" y="110.876467" style="fill-opacity: 0; stroke: #000000"/>
     <use xlink:href="#mf76731bb6a" x="97.228789" y="111.116439" style="fill-opacity: 0; stroke: #000000"/>
     <use xlink:href="#mf76731bb6a" x="100.119203" y="105.018805" style="fill-opacity: 0; stroke: #000000"/>
     <use xlink:href="#mf76731bb6a" x="101.695792" y="99.381112" style="fill-opacity: 0; stroke: #000000"/>
     <use xlink:href="#mf76731bb6a" x="103.272381" y="92.82917" style="fill-opacity: 0; stroke: #000000"/>
     <use xlink:href="#mf76731bb6a" x="104.323441" y="86.734161" style="fill-opacity: 0; stroke: #000000"/>
     <use xlink:href="#mf76731bb6a" x="105.900031" y="81.372245" style="fill-opacity: 0; stroke: #000000"/>
     <use xlink:href="#mf76731bb6a" x="112.731917" y="79.338535" style="fill-opacity: 0; stroke: #000000"/>
     <use xlink:href="#mf76731bb6a" x="117.19892" y="72.116376" style="fill-opacity: 0; stroke: #000000"/>
     <use xlink:href="#mf76731bb6a" x="121.665924" y="66.906269" style="fill-opacity: 0; stroke: #000000"/>
     <use xlink:href="#mf76731bb6a" x="129.286105" y="63.01908" style="fill-opacity: 0; stroke: #000000"/>
     <use xlink:href="#mf76731bb6a" x="140.059465" y="62.085763" style="fill-opacity: 0; stroke: #000000"/>
     <use xlink:href="#mf76731bb6a" x="148.467942" y="62.085763" style="fill-opacity: 0; stroke: #000000"/>
     <use xlink:href="#mf76731bb6a" x="158.190242" y="61.903048" style="fill-opacity: 0; stroke: #000000"/>
     <use xlink:href="#mf76731bb6a" x="165.284894" y="61.541421" style="fill-opacity: 0; stroke: #000000"/>
     <use xlink:href="#mf76731bb6a" x="174.74443" y="61.541421" style="fill-opacity: 0; stroke: #000000"/>
     <use xlink:href="#mf76731bb6a" x="183.152907" y="61.541421" style="fill-opacity: 0; stroke: #000000"/>
     <use xlink:href="#mf76731bb6a" x="192.086912" y="62.269769" style="fill-opacity: 0; stroke: #000000"/>
     <use xlink:href="#mf76731bb6a" x="199.969859" y="63.01908" style="fill-opacity: 0; stroke: #000000"/>
     <use xlink:href="#mf76731bb6a" x="208.903865" y="63.9871" style="fill-opacity: 0; stroke: #000000"/>
     <use xlink:href="#mf76731bb6a" x="217.575106" y="64.384615" style="fill-opacity: 0; stroke: #000000"/>
     <use xlink:href="#mf76731bb6a" x="227.034642" y="65.825751" style="fill-opacity: 0; stroke: #000000"/>
     <use xlink:href="#mf76731bb6a" x="234.129294" y="67.351353" style="fill-opacity: 0; stroke: #000000"/>
     <use xlink:href="#mf76731bb6a" x="245.165418" y="69.454116" style="fill-opacity: 0; stroke: #000000"/>
     <use xlink:href="#mf76731bb6a" x="253.048365" y="71.215727" style="fill-opacity: 0; stroke: #000000"/>
     <use xlink:href="#mf76731bb6a" x="261.456842" y="73.500163" style="fill-opacity: 0; stroke: #000000"/>
     <use xlink:href="#mf76731bb6a" x="271.441908" y="76.287661" style="fill-opacity: 0; stroke: #000000"/>
     <use xlink:href="#mf76731bb6a" x="282.478032" y="78.845266" style="fill-opacity: 0; stroke: #000000"/>
     <use xlink:href="#mf76731bb6a" x="292.200333" y="82.153016" style="fill-opacity: 0; stroke: #000000"/>
     <use xlink:href="#mf76731bb6a" x="301.397104" y="85.175158" style="fill-opacity: 0; stroke: #000000"/>
     <use xlink:href="#mf76731bb6a" x="310.33111" y="88.493409" style="fill-opacity: 0; stroke: #000000"/>
     <use xlink:href="#mf76731bb6a" x="316.637467" y="91.264757" style="fill-opacity: 0; stroke: #000000"/>
     <use xlink:href="#mf76731bb6a" x="323.994884" y="93.555824" style="fill-opacity: 0; stroke: #000000"/>
     <use xlink:href="#mf76731bb6a" x="333.454419" y="96.892564" style="fill-opacity: 0; stroke: #000000"/>
     <use xlink:href="#mf76731bb6a" x="342.125661" y="100.720665" style="fill-opacity: 0; stroke: #000000"/>
     <use xlink:href="#mf76731bb6a" x="351.847962" y="105.210252" style="fill-opacity: 0; stroke: #000000"/>
     <use xlink:href="#mf76731bb6a" x="359.730908" y="109.594758" style="fill-opacity: 0; stroke: #000000"/>
     <use xlink:href="#mf76731bb6a" x="366.562795" y="113.381932" style="fill-opacity: 0; stroke: #000000"/>
     <use xlink:href="#mf76731bb6a" x="374.182977" y="116.896253" style="fill-opacity: 0; stroke: #000000"/>
     <use xlink:href="#mf76731bb6a" x="383.116983" y="121.854872" style="fill-opacity: 0; stroke: #000000"/>
     <use xlink:href="#mf76731bb6a" x="390.999929" y="125.990122" style="fill-opacity: 0; stroke: #000000"/>
     <use xlink:href="#mf76731bb6a" x="399.145641" y="131.167551" style="fill-opacity: 0; stroke: #000000"/>
     <use xlink:href="#mf76731bb6a" x="408.079647" y="136.750653" style="fill-opacity: 0; stroke: #000000"/>
     <use xlink:href="#mf76731bb6a" x="417.539183" y="142.868908" style="fill-opacity: 0; stroke: #000000"/>
     <use xlink:href="#mf76731bb6a" x="425.422129" y="148.193669" style="fill-opacity: 0; stroke: #000000"/>
     <use xlink:href="#mf76731bb6a" x="443.290141" y="160.351044" style="fill-opacity: 0; stroke: #000000"/>
     <use xlink:href="#mf76731bb6a" x="452.224148" y="167.788159" style="fill-opacity: 0; stroke: #000000"/>
    </g>
   </g>
   <g id="patch_3">
    <path d="M 61.23 251.0712 
L 61.23 29.3112 
" style="fill: none; stroke: #000000; stroke-width: 0.8; stroke-linejoin: miter; stroke-linecap: square"/>
   </g>
   <g id="patch_4">
    <path d="M 451.83 251.0712 
L 451.83 29.3112 
" style="fill: none; stroke: #000000; stroke-width: 0.8; stroke-linejoin: miter; stroke-linecap: square"/>
   </g>
   <g id="patch_5">
    <path d="M 61.23 251.0712 
L 451.83 251.0712 
" style="fill: none; stroke: #000000; stroke-width: 0.8; stroke-linejoin: miter; stroke-linecap: square"/>
   </g>
   <g id="patch_6">
    <path d="M 61.23 29.3112 
L 451.83 29.3112 
" style="fill: none; stroke: #000000; stroke-width: 0.8; stroke-linejoin: miter; stroke-linecap: square"/>
   </g>
   <g id="legend_1">
    <g id="patch_7">
     <path d="M 166.487813 63.7425 
L 346.572187 63.7425 
Q 348.372187 63.7425 348.372187 61.9425 
L 348.372187 9 
Q 348.372187 7.2 346.572187 7.2 
L 166.487813 7.2 
Q 164.687813 7.2 164.687813 9 
L 164.687813 61.9425 
Q 164.687813 63.7425 166.487813 63.7425 
z
" style="fill: #ffffff; opacity: 0.8; stroke: #cccccc; stroke-linejoin: miter"/>
    </g>
    <g id="line2d_178">
     <path d="M 168.287813 14.488594 
L 177.287813 14.488594 
L 186.287813 14.488594 
" style="fill: none; stroke: #1f77b4; stroke-width: 1.5; stroke-linecap: square"/>
    </g>
    <g id="text_17">
     <!-- Duo_A -->
     <g transform="translate(193.487813 17.638594) scale(0.09 -0.09)">
      <defs>
       <path id="DejaVuSerif-44" d="M 1581 331 
L 2163 331 
Q 3072 331 3558 850 
Q 4044 1369 4044 2338 
Q 4044 3306 3559 3818 
Q 3075 4331 2163 4331 
L 1581 4331 
L 1581 331 
z
M 353 0 
L 353 331 
L 947 331 
L 947 4331 
L 353 4331 
L 353 4666 
L 2209 4666 
Q 3416 4666 4089 4050 
Q 4763 3434 4763 2338 
Q 4763 1238 4088 619 
Q 3413 0 2209 0 
L 353 0 
z
" transform="scale(0.015625)"/>
       <path id="DejaVuSerif-75" d="M 2266 3322 
L 3341 3322 
L 3341 331 
L 3884 331 
L 3884 0 
L 2766 0 
L 2766 588 
Q 2606 256 2353 82 
Q 2100 -91 1766 -91 
Q 1213 -91 952 223 
Q 691 538 691 1209 
L 691 2988 
L 172 2988 
L 172 3322 
L 1269 3322 
L 1269 1388 
Q 1269 781 1417 556 
Q 1566 331 1947 331 
Q 2347 331 2556 625 
Q 2766 919 2766 1478 
L 2766 2988 
L 2266 2988 
L 2266 3322 
z
" transform="scale(0.015625)"/>
       <path id="DejaVuSerif-5f" d="M 3200 -1259 
L 3200 -1509 
L 0 -1509 
L 0 -1259 
L 3200 -1259 
z
" transform="scale(0.015625)"/>
       <path id="DejaVuSerif-41" d="M 1281 1691 
L 2994 1691 
L 2138 3909 
L 1281 1691 
z
M -38 0 
L -38 331 
L 372 331 
L 2034 4666 
L 2559 4666 
L 4225 331 
L 4684 331 
L 4684 0 
L 2988 0 
L 2988 331 
L 3506 331 
L 3116 1356 
L 1153 1356 
L 763 331 
L 1275 331 
L 1275 0 
L -38 0 
z
" transform="scale(0.015625)"/>
      </defs>
      <use xlink:href="#DejaVuSerif-44"/>
      <use xlink:href="#DejaVuSerif-75" x="80.175781"/>
      <use xlink:href="#DejaVuSerif-6f" x="144.580078"/>
      <use xlink:href="#DejaVuSerif-5f" x="204.785156"/>
      <use xlink:href="#DejaVuSerif-41" x="254.785156"/>
     </g>
    </g>
    <g id="line2d_179">
     <path d="M 168.287813 27.949219 
L 177.287813 27.949219 
L 186.287813 27.949219 
" style="fill: none; stroke: #ff7f0e; stroke-width: 1.5; stroke-linecap: square"/>
    </g>
    <g id="text_18">
     <!-- Duo_B -->
     <g transform="translate(193.487813 31.099219) scale(0.09 -0.09)">
      <defs>
       <path id="DejaVuSerif-42" d="M 1581 331 
L 2516 331 
Q 3078 331 3337 575 
Q 3597 819 3597 1350 
Q 3597 1878 3339 2120 
Q 3081 2363 2516 2363 
L 1581 2363 
L 1581 331 
z
M 1581 2694 
L 2375 2694 
Q 2888 2694 3123 2891 
Q 3359 3088 3359 3513 
Q 3359 3941 3123 4136 
Q 2888 4331 2375 4331 
L 1581 4331 
L 1581 2694 
z
M 353 0 
L 353 331 
L 947 331 
L 947 4331 
L 353 4331 
L 353 4666 
L 2656 4666 
Q 3363 4666 3720 4377 
Q 4078 4088 4078 3513 
Q 4078 3097 3829 2850 
Q 3581 2603 3103 2547 
Q 3697 2472 4005 2167 
Q 4313 1863 4313 1350 
Q 4313 656 3875 328 
Q 3438 0 2509 0 
L 353 0 
z
" transform="scale(0.015625)"/>
      </defs>
      <use xlink:href="#DejaVuSerif-44"/>
      <use xlink:href="#DejaVuSerif-75" x="80.175781"/>
      <use xlink:href="#DejaVuSerif-6f" x="144.580078"/>
      <use xlink:href="#DejaVuSerif-5f" x="204.785156"/>
      <use xlink:href="#DejaVuSerif-42" x="254.785156"/>
     </g>
    </g>
    <g id="line2d_180">
     <path d="M 168.287813 41.409844 
L 177.287813 41.409844 
L 186.287813 41.409844 
" style="fill: none; stroke: #2ca02c; stroke-width: 1.5; stroke-linecap: square"/>
    </g>
    <g id="text_19">
     <!-- Duo_C -->
     <g transform="translate(193.487813 44.559844) scale(0.09 -0.09)">
      <use xlink:href="#DejaVuSerif-44"/>
      <use xlink:href="#DejaVuSerif-75" x="80.175781"/>
      <use xlink:href="#DejaVuSerif-6f" x="144.580078"/>
      <use xlink:href="#DejaVuSerif-5f" x="204.785156"/>
      <use xlink:href="#DejaVuSerif-43" x="254.785156"/>
     </g>
    </g>
    <g id="line2d_181">
     <path d="M 168.287813 54.870469 
L 177.287813 54.870469 
L 186.287813 54.870469 
" style="fill: none; stroke: #d62728; stroke-width: 1.5; stroke-linecap: square"/>
    </g>
    <g id="text_20">
     <!-- Duo_D -->
     <g transform="translate(193.487813 58.020469) scale(0.09 -0.09)">
      <use xlink:href="#DejaVuSerif-44"/>
      <use xlink:href="#DejaVuSerif-75" x="80.175781"/>
      <use xlink:href="#DejaVuSerif-6f" x="144.580078"/>
      <use xlink:href="#DejaVuSerif-5f" x="204.785156"/>
      <use xlink:href="#DejaVuSerif-44" x="254.785156"/>
     </g>
    </g>
    <g id="line2d_182">
     <path d="M 241.633594 14.488594 
L 250.633594 14.488594 
L 259.633594 14.488594 
" style="fill: none; stroke: #9467bd; stroke-width: 1.5; stroke-linecap: square"/>
    </g>
    <g id="text_21">
     <!-- Duo_E -->
     <g transform="translate(266.833594 17.638594) scale(0.09 -0.09)">
      <defs>
       <path id="DejaVuSerif-45" d="M 353 0 
L 353 331 
L 947 331 
L 947 4331 
L 353 4331 
L 353 4666 
L 4109 4666 
L 4109 3628 
L 3725 3628 
L 3725 4281 
L 1581 4281 
L 1581 2719 
L 3109 2719 
L 3109 3303 
L 3494 3303 
L 3494 1753 
L 3109 1753 
L 3109 2338 
L 1581 2338 
L 1581 384 
L 3775 384 
L 3775 1038 
L 4159 1038 
L 4159 0 
L 353 0 
z
" transform="scale(0.015625)"/>
      </defs>
      <use xlink:href="#DejaVuSerif-44"/>
      <use xlink:href="#DejaVuSerif-75" x="80.175781"/>
      <use xlink:href="#DejaVuSerif-6f" x="144.580078"/>
      <use xlink:href="#DejaVuSerif-5f" x="204.785156"/>
      <use xlink:href="#DejaVuSerif-45" x="254.785156"/>
     </g>
    </g>
    <g id="line2d_183">
     <path d="M 241.633594 27.949219 
L 250.633594 27.949219 
L 259.633594 27.949219 
" style="fill: none; stroke-dasharray: 5.55,2.4; stroke-dashoffset: 0; stroke: #ff0000; stroke-width: 1.5"/>
    </g>
    <g id="text_22">
     <!-- Exomol database -->
     <g transform="translate(266.833594 31.099219) scale(0.09 -0.09)">
      <defs>
       <path id="DejaVuSerif-78" d="M 1863 2028 
L 2559 2988 
L 2113 2988 
L 2113 3322 
L 3391 3322 
L 3391 2988 
L 2950 2988 
L 2059 1759 
L 3097 331 
L 3531 331 
L 3531 0 
L 1997 0 
L 1997 331 
L 2419 331 
L 1697 1325 
L 972 331 
L 1403 331 
L 1403 0 
L 141 0 
L 141 331 
L 581 331 
L 1497 1594 
L 488 2988 
L 78 2988 
L 78 3322 
L 1563 3322 
L 1563 2988 
L 1166 2988 
L 1863 2028 
z
" transform="scale(0.015625)"/>
       <path id="DejaVuSerif-64" d="M 3359 331 
L 3909 331 
L 3909 0 
L 2784 0 
L 2784 519 
Q 2616 206 2355 57 
Q 2094 -91 1709 -91 
Q 1097 -91 708 395 
Q 319 881 319 1663 
Q 319 2444 706 2928 
Q 1094 3413 1709 3413 
Q 2094 3413 2355 3264 
Q 2616 3116 2784 2803 
L 2784 4531 
L 2241 4531 
L 2241 4863 
L 3359 4863 
L 3359 331 
z
M 2784 1497 
L 2784 1825 
Q 2784 2422 2554 2737 
Q 2325 3053 1888 3053 
Q 1444 3053 1217 2703 
Q 991 2353 991 1663 
Q 991 975 1217 622 
Q 1444 269 1888 269 
Q 2325 269 2554 583 
Q 2784 897 2784 1497 
z
" transform="scale(0.015625)"/>
       <path id="DejaVuSerif-62" d="M 738 331 
L 738 4531 
L 184 4531 
L 184 4863 
L 1313 4863 
L 1313 2803 
Q 1481 3116 1742 3264 
Q 2003 3413 2388 3413 
Q 3000 3413 3387 2928 
Q 3775 2444 3775 1663 
Q 3775 881 3387 395 
Q 3000 -91 2388 -91 
Q 2003 -91 1742 57 
Q 1481 206 1313 519 
L 1313 0 
L 184 0 
L 184 331 
L 738 331 
z
M 1313 1497 
Q 1313 897 1542 583 
Q 1772 269 2209 269 
Q 2650 269 2876 622 
Q 3103 975 3103 1663 
Q 3103 2353 2876 2703 
Q 2650 3053 2209 3053 
Q 1772 3053 1542 2737 
Q 1313 2422 1313 1825 
L 1313 1497 
z
" transform="scale(0.015625)"/>
      </defs>
      <use xlink:href="#DejaVuSerif-45"/>
      <use xlink:href="#DejaVuSerif-78" x="72.998047"/>
      <use xlink:href="#DejaVuSerif-6f" x="129.394531"/>
      <use xlink:href="#DejaVuSerif-6d" x="189.599609"/>
      <use xlink:href="#DejaVuSerif-6f" x="284.423828"/>
      <use xlink:href="#DejaVuSerif-6c" x="344.628906"/>
      <use xlink:href="#DejaVuSerif-20" x="376.611328"/>
      <use xlink:href="#DejaVuSerif-64" x="408.398438"/>
      <use xlink:href="#DejaVuSerif-61" x="472.412109"/>
      <use xlink:href="#DejaVuSerif-74" x="532.03125"/>
      <use xlink:href="#DejaVuSerif-61" x="572.216797"/>
      <use xlink:href="#DejaVuSerif-62" x="631.835938"/>
      <use xlink:href="#DejaVuSerif-61" x="695.849609"/>
      <use xlink:href="#DejaVuSerif-73" x="755.46875"/>
      <use xlink:href="#DejaVuSerif-65" x="806.787109"/>
     </g>
    </g>
    <g id="LineCollection_2">
     <path d="M 250.633594 45.659531 
L 250.633594 36.659531 
" style="fill: none; stroke: #000000; stroke-width: 1.5"/>
    </g>
    <g id="line2d_184"/>
    <g id="line2d_185">
     <g>
      <use xlink:href="#mf76731bb6a" x="250.633594" y="41.159531" style="fill-opacity: 0; stroke: #000000"/>
     </g>
    </g>
    <g id="text_23">
     <!-- Yoshino (2005) -->
     <g transform="translate(266.833594 44.309531) scale(0.09 -0.09)">
      <defs>
       <path id="DejaVuSerif-59" d="M 1209 0 
L 1209 331 
L 1806 331 
L 1806 2009 
L 366 4331 
L -72 4331 
L -72 4666 
L 1663 4666 
L 1663 4331 
L 1119 4331 
L 2284 2444 
L 3450 4331 
L 2925 4331 
L 2925 4666 
L 4281 4666 
L 4281 4331 
L 3841 4331 
L 2438 2069 
L 2438 331 
L 3034 331 
L 3034 0 
L 1209 0 
z
" transform="scale(0.015625)"/>
      </defs>
      <use xlink:href="#DejaVuSerif-59"/>
      <use xlink:href="#DejaVuSerif-6f" x="57.265625"/>
      <use xlink:href="#DejaVuSerif-73" x="117.470703"/>
      <use xlink:href="#DejaVuSerif-68" x="168.789062"/>
      <use xlink:href="#DejaVuSerif-69" x="233.193359"/>
      <use xlink:href="#DejaVuSerif-6e" x="265.175781"/>
      <use xlink:href="#DejaVuSerif-6f" x="329.580078"/>
      <use xlink:href="#DejaVuSerif-20" x="389.785156"/>
      <use xlink:href="#DejaVuSerif-28" x="421.572266"/>
      <use xlink:href="#DejaVuSerif-32" x="460.585938"/>
      <use xlink:href="#DejaVuSerif-30" x="524.208984"/>
      <use xlink:href="#DejaVuSerif-30" x="587.832031"/>
      <use xlink:href="#DejaVuSerif-35" x="651.455078"/>
      <use xlink:href="#DejaVuSerif-29" x="715.078125"/>
     </g>
    </g>
   </g>
  </g>
 </g>
 <defs>
  <clipPath id="p9d8a917531">
   <rect x="61.23" y="29.3112" width="390.6" height="221.76"/>
  </clipPath>
 </defs>
</svg>
